<?xml version="1.0" encoding="utf-8"?>
<!-- Generator: Adobe Illustrator 17.0.0, SVG Export Plug-In . SVG Version: 6.00 Build 0)  -->
<!DOCTYPE svg PUBLIC "-//W3C//DTD SVG 1.1//EN" "http://www.w3.org/Graphics/SVG/1.1/DTD/svg11.dtd">
<svg version="1.1" id="Слой_1" xmlns="http://www.w3.org/2000/svg" xmlns:xlink="http://www.w3.org/1999/xlink" x="0px" y="0px"
	 width="283.465px" height="212.605px" viewBox="0 0 283.465 212.605" enable-background="new 0 0 283.465 212.605"
	 xml:space="preserve">
<g>
	<defs>
		<path id="SVGID_1_" d="M233.734,110.61h-0.341h-0.343h-0.341h-0.342h-0.342h-0.342h-0.343h-0.341h-0.342h-0.342h-0.342h-0.341
			h-0.342h-0.343h-0.342h-0.342h-0.341h-0.342h-0.342h-0.343h-0.342h-0.341h-0.342h-0.342h-0.342h-0.343h-0.341h-0.342h-0.342
			h-0.342h-0.341h-0.343h-0.342h-0.342h-0.342h-0.341h-0.342h-0.342h-0.342h-0.343h-0.341h-0.342h-0.342h-0.342h-0.341h-0.343
			h-0.342h-0.342h-0.342h-0.341h-0.342h-0.343h-0.342h-0.342h-0.341h-0.342h-0.343h-0.342h-0.342h-0.176v18.694h0.176h0.342h0.343
			h0.342h0.342h0.341h0.342h0.342h0.343h0.342h0.341h0.342h0.342h0.342h0.343h0.341h0.342h0.342h0.342h0.341h0.343h0.342h0.342
			h0.342h0.341h0.342h0.342h0.343h0.342h0.341h0.342h0.342h0.342h0.341h0.343h0.342h0.342h0.342h0.341h0.342h0.343h0.342h0.342
			h0.341h0.342h0.342h0.343h0.342h0.341h0.342h0.342h0.342h0.342h0.342h0.342h0.342h0.342h0.341h0.343h0.341h0.16l0.183-0.002
			c0.106-0.004,0.221-0.007,0.342-0.015c0.109-0.004,0.224-0.012,0.341-0.021c0.113-0.007,0.228-0.016,0.342-0.027
			c0.116-0.011,0.23-0.022,0.343-0.034c0.117-0.013,0.233-0.027,0.341-0.043c0.123-0.016,0.238-0.034,0.342-0.052
			c0.076-0.013,0.145-0.028,0.207-0.041l0.136-0.03c0.114-0.027,0.228-0.056,0.341-0.086c0.115-0.032,0.229-0.064,0.342-0.101
			c0.116-0.035,0.229-0.074,0.343-0.114c0.115-0.041,0.229-0.085,0.341-0.131c0.115-0.047,0.229-0.095,0.342-0.147
			c0.116-0.052,0.229-0.107,0.342-0.163c0.116-0.059,0.23-0.119,0.343-0.183c0.115-0.065,0.229-0.131,0.341-0.201
			c0.116-0.073,0.23-0.146,0.342-0.223c0.116-0.079,0.23-0.16,0.342-0.244c0.116-0.088,0.23-0.178,0.342-0.272
			c0.117-0.096,0.23-0.195,0.342-0.298c0.117-0.107,0.231-0.216,0.342-0.329c0.117-0.12,0.232-0.243,0.342-0.37
			c0.117-0.133,0.231-0.271,0.342-0.412c0.117-0.152,0.232-0.309,0.342-0.469c0.119-0.176,0.234-0.356,0.342-0.542
			c0.121-0.209,0.235-0.423,0.342-0.644c0.125-0.263,0.239-0.532,0.342-0.809c0.136-0.374,0.251-0.76,0.342-1.16
			c0.156-0.693,0.24-1.422,0.24-2.186c0-0.759-0.084-1.485-0.24-2.176c-0.091-0.399-0.206-0.785-0.342-1.156
			c-0.102-0.277-0.217-0.546-0.342-0.808c-0.107-0.221-0.221-0.435-0.342-0.643c-0.108-0.186-0.223-0.366-0.342-0.541
			c-0.11-0.162-0.224-0.318-0.342-0.47c-0.111-0.141-0.225-0.279-0.342-0.413c-0.11-0.126-0.225-0.249-0.342-0.368
			c-0.111-0.114-0.225-0.224-0.342-0.331c-0.112-0.103-0.225-0.203-0.342-0.3c-0.112-0.093-0.226-0.184-0.342-0.271
			c-0.112-0.084-0.226-0.167-0.342-0.245c-0.112-0.078-0.226-0.153-0.342-0.224c-0.112-0.07-0.226-0.138-0.341-0.202
			c-0.114-0.064-0.227-0.125-0.343-0.184c-0.113-0.058-0.226-0.112-0.342-0.165c-0.113-0.051-0.227-0.101-0.342-0.148
			c-0.112-0.047-0.226-0.091-0.341-0.131c-0.114-0.042-0.227-0.081-0.343-0.117c-0.113-0.037-0.227-0.07-0.342-0.102
			c-0.113-0.032-0.227-0.059-0.341-0.087l-0.136-0.03c-0.062-0.015-0.131-0.027-0.207-0.04c-0.104-0.017-0.219-0.035-0.342-0.051
			c-0.108-0.015-0.224-0.029-0.341-0.041c-0.113-0.013-0.227-0.025-0.343-0.036c-0.114-0.009-0.229-0.019-0.342-0.027
			c-0.117-0.009-0.232-0.018-0.341-0.023c-0.121-0.006-0.236-0.011-0.342-0.014l-0.057-0.001H233.734z M232.027,82.818h-0.342
			h-0.341h-0.343h-0.342h-0.342h-0.342h-0.341h-0.342h-0.342h-0.343h-0.342h-0.341h-0.342h-0.342h-0.342h-0.341h-0.342h-0.343
			h-0.342h-0.342h-0.341h-0.342h-0.342h-0.342h-0.343h-0.341h-0.342h-0.342h-0.342h-0.341h-0.342h-0.343h-0.342h-0.342h-0.341
			h-0.342h-0.342h-0.342h-0.343h-0.341h-0.342h-0.342h-0.342h-0.341h-0.342h-0.343h-0.342h-0.342h-0.341h-0.342h-0.342h-0.343
			h-0.342h-0.341h-0.179v17.251h0.179h0.341h0.342h0.343h0.342h0.342h0.341h0.342h0.342h0.343h0.342h0.341h0.342h0.342h0.342h0.341
			h0.343h0.342h0.342h0.342h0.341h0.342h0.342h0.343h0.342h0.341h0.342h0.342h0.342h0.341h0.343h0.342h0.342h0.342h0.341h0.342
			h0.342h0.343h0.342h0.341h0.342h0.342h0.342h0.341h0.342h0.343h0.342h0.342h0.341h0.342h0.342h0.342h0.343h0.341h0.287h0.055
			c0.109-0.001,0.224-0.004,0.342-0.009c0.113-0.004,0.227-0.011,0.342-0.018c0.115-0.007,0.231-0.015,0.342-0.024
			c0.119-0.011,0.234-0.022,0.341-0.033c0.125-0.012,0.241-0.025,0.342-0.038c0.105-0.013,0.194-0.027,0.26-0.037l0.083-0.016
			c0.114-0.02,0.229-0.042,0.342-0.067c0.114-0.025,0.229-0.052,0.341-0.082c0.115-0.03,0.229-0.062,0.342-0.096
			c0.115-0.035,0.23-0.072,0.342-0.111c0.115-0.04,0.23-0.083,0.342-0.127c0.116-0.046,0.23-0.093,0.342-0.143
			c0.115-0.051,0.23-0.105,0.342-0.161c0.115-0.058,0.23-0.117,0.342-0.18c0.116-0.064,0.23-0.131,0.342-0.2
			c0.115-0.07,0.23-0.144,0.342-0.221c0.116-0.079,0.231-0.161,0.342-0.247c0.116-0.087,0.231-0.178,0.341-0.273
			c0.118-0.098,0.232-0.199,0.343-0.305c0.117-0.11,0.231-0.223,0.342-0.341c0.118-0.125,0.232-0.254,0.342-0.386
			c0.118-0.143,0.232-0.29,0.341-0.441c0.12-0.166,0.235-0.337,0.342-0.514c0.123-0.199,0.237-0.405,0.342-0.617
			c0.126-0.253,0.241-0.516,0.342-0.787c0.14-0.372,0.254-0.759,0.343-1.161c0.137-0.627,0.211-1.291,0.211-1.99
			c0-0.7-0.074-1.364-0.211-1.991c-0.089-0.404-0.203-0.791-0.343-1.163c-0.101-0.271-0.216-0.534-0.342-0.787
			c-0.105-0.212-0.219-0.418-0.342-0.617c-0.107-0.177-0.222-0.349-0.342-0.514c-0.109-0.151-0.223-0.299-0.341-0.441
			c-0.11-0.133-0.224-0.262-0.342-0.387c-0.111-0.117-0.225-0.231-0.342-0.341c-0.111-0.105-0.225-0.206-0.343-0.305
			c-0.11-0.095-0.225-0.186-0.341-0.273c-0.111-0.085-0.226-0.168-0.342-0.247c-0.112-0.077-0.227-0.151-0.342-0.222
			c-0.112-0.069-0.226-0.137-0.342-0.201c-0.112-0.062-0.227-0.121-0.342-0.179c-0.112-0.056-0.227-0.109-0.342-0.161
			c-0.112-0.05-0.226-0.099-0.342-0.144c-0.112-0.045-0.227-0.087-0.342-0.128c-0.112-0.039-0.227-0.077-0.342-0.112
			c-0.113-0.034-0.227-0.066-0.342-0.096c-0.112-0.03-0.227-0.058-0.341-0.083c-0.113-0.025-0.228-0.049-0.342-0.069l-0.083-0.015
			c-0.066-0.009-0.155-0.021-0.26-0.032c-0.101-0.013-0.217-0.025-0.342-0.037c-0.107-0.01-0.222-0.021-0.341-0.031
			c-0.111-0.009-0.227-0.017-0.342-0.024c-0.115-0.008-0.229-0.014-0.342-0.019l-0.198-0.007H232.027z M231.426,0l-0.086,0.002
			c-0.115,0.001-0.228,0.002-0.341,0.003c-0.115,0.003-0.229,0.003-0.343,0.006c-0.114,0.002-0.227,0.007-0.342,0.01l-0.341,0.013
			c-0.115,0.005-0.229,0.008-0.343,0.014c-0.115,0.007-0.227,0.015-0.342,0.021c-0.114,0.008-0.228,0.015-0.341,0.023l-0.343,0.026
			l-0.342,0.029c-0.114,0.011-0.228,0.019-0.342,0.031c-0.115,0.011-0.227,0.025-0.342,0.038l-0.342,0.039
			c-0.114,0.013-0.228,0.026-0.341,0.041c-0.116,0.015-0.229,0.032-0.343,0.048c-0.114,0.016-0.228,0.031-0.342,0.048
			c-0.115,0.017-0.227,0.036-0.342,0.054l-0.341,0.057c-0.115,0.019-0.229,0.036-0.343,0.058c-0.115,0.02-0.228,0.044-0.342,0.064
			c-0.114,0.023-0.229,0.044-0.342,0.067l-0.342,0.07l-0.342,0.075c-0.114,0.024-0.228,0.048-0.342,0.075
			c-0.115,0.026-0.228,0.055-0.342,0.083c-0.115,0.028-0.229,0.054-0.342,0.083l-0.341,0.089c-0.115,0.03-0.229,0.061-0.343,0.093
			c-0.114,0.03-0.228,0.06-0.342,0.093c-0.115,0.033-0.228,0.068-0.342,0.102c-0.114,0.033-0.229,0.066-0.341,0.102
			c-0.115,0.035-0.229,0.071-0.343,0.107l-0.342,0.112c-0.114,0.036-0.229,0.073-0.342,0.112c-0.115,0.04-0.228,0.08-0.342,0.121
			c-0.115,0.04-0.229,0.079-0.342,0.12c-0.114,0.042-0.227,0.086-0.341,0.129l-0.343,0.13l-0.342,0.134
			c-0.115,0.046-0.228,0.093-0.342,0.14c-0.115,0.047-0.228,0.093-0.342,0.141c-0.114,0.049-0.228,0.099-0.342,0.15
			c-0.114,0.049-0.228,0.099-0.342,0.149c-0.115,0.052-0.228,0.105-0.342,0.158c-0.115,0.054-0.229,0.106-0.342,0.16l-0.341,0.165
			c-0.115,0.056-0.229,0.114-0.342,0.17c-0.115,0.058-0.23,0.115-0.343,0.173c-0.115,0.06-0.228,0.12-0.342,0.18
			c-0.114,0.061-0.229,0.121-0.341,0.182c-0.117,0.062-0.228,0.127-0.343,0.191c-0.114,0.064-0.229,0.127-0.342,0.192
			c-0.115,0.065-0.228,0.133-0.342,0.2c-0.115,0.067-0.229,0.134-0.342,0.203c-0.115,0.069-0.227,0.139-0.342,0.209L212.531,5.5
			c-0.116,0.072-0.229,0.145-0.343,0.22l-0.342,0.225l-0.342,0.232c-0.115,0.078-0.229,0.157-0.342,0.237l-0.342,0.242
			c-0.115,0.083-0.228,0.167-0.342,0.25c-0.115,0.084-0.228,0.17-0.342,0.256l-0.342,0.262l-0.342,0.269
			c-0.115,0.091-0.228,0.182-0.341,0.275c-0.116,0.094-0.229,0.188-0.343,0.283c-0.115,0.096-0.229,0.192-0.342,0.289
			c-0.115,0.098-0.229,0.199-0.342,0.299c-0.114,0.101-0.228,0.2-0.342,0.303c-0.115,0.104-0.228,0.21-0.342,0.315
			c-0.114,0.106-0.229,0.212-0.342,0.319c-0.116,0.109-0.228,0.222-0.342,0.334c-0.115,0.111-0.229,0.224-0.342,0.337
			c-0.116,0.116-0.228,0.232-0.341,0.349c-0.116,0.119-0.23,0.239-0.343,0.359c-0.115,0.122-0.229,0.244-0.342,0.367
			c-0.116,0.127-0.229,0.254-0.342,0.381c-0.115,0.13-0.23,0.258-0.342,0.388c-0.115,0.133-0.228,0.269-0.342,0.404
			c-0.115,0.138-0.229,0.276-0.342,0.415c-0.115,0.141-0.23,0.282-0.342,0.424c-0.116,0.148-0.229,0.297-0.342,0.445
			c-0.116,0.152-0.23,0.304-0.342,0.457c-0.115,0.155-0.229,0.311-0.342,0.469c-0.116,0.162-0.229,0.327-0.342,0.492
			c-0.116,0.167-0.229,0.338-0.342,0.508c-0.116,0.173-0.23,0.348-0.342,0.523c-0.116,0.182-0.23,0.365-0.342,0.549
			c-0.116,0.189-0.229,0.38-0.342,0.573c-0.116,0.199-0.23,0.397-0.342,0.597c-0.116,0.207-0.23,0.415-0.342,0.625
			c-0.116,0.218-0.231,0.436-0.342,0.656c-0.117,0.229-0.231,0.458-0.341,0.689c-0.118,0.244-0.232,0.487-0.343,0.734
			c-0.116,0.258-0.231,0.519-0.342,0.781c-0.117,0.277-0.231,0.557-0.342,0.838c-0.118,0.302-0.232,0.605-0.342,0.91
			c-0.119,0.329-0.233,0.661-0.342,0.994c-0.12,0.364-0.234,0.732-0.342,1.102c-0.122,0.414-0.236,0.832-0.342,1.252
			c-0.125,0.491-0.239,0.986-0.342,1.486c-0.484,2.332-0.738,4.747-0.738,7.223v36.797h0.738h0.342h0.342h0.342h0.342h0.342h0.342
			h0.342h0.343h0.341h0.342h0.342h0.342h0.342h0.342h0.342h0.342h0.342h0.342h0.342h0.342h0.342h0.342h0.342h0.342h0.342h0.342
			h0.343h0.341h0.342h0.342h0.342h0.342h0.342h0.342h0.342h0.343h0.341h0.342h0.342h0.342h0.342h0.342h0.342h0.342h0.342h0.343
			h0.341h0.342h0.342h0.342h0.342h0.343h0.341h0.342h0.343h0.342h0.341h0.342h0.342h0.342h0.342h0.342h0.342h0.342h0.343h0.341
			h0.342h0.342h0.342h0.342h0.343h0.341h0.342h0.342h0.343h0.341h0.342h0.342h0.342h0.342h0.342h0.342h0.342h0.343h0.341h0.342
			h0.342h0.343h0.341h0.342h0.342h0.342h0.342h0.343h0.341h0.342h0.343h0.341h0.342h0.343h0.341h0.342h0.343h0.342h0.341h0.342
			h0.343h0.341h0.342h0.342h0.342h0.342h0.343h0.341h0.342h0.343h0.341h0.342h0.343h0.341h0.342h0.342h0.343h0.341h0.342h0.343
			h0.341h0.342h0.342h0.342h0.342h0.343h0.342h0.341h0.343h0.342h0.341h0.342h0.342h0.342h0.342h0.343h0.341h0.342h0.154
			l0.189,0.001l0.341,0.004l0.342,0.007l0.343,0.011l0.342,0.013l0.341,0.014l0.343,0.017l0.342,0.017l0.341,0.019l0.342,0.021
			l0.207,0.013l0.136,0.007l0.341,0.02l0.342,0.024l0.342,0.026l0.342,0.031l0.342,0.034l0.343,0.037l0.341,0.04l0.342,0.045
			l0.343,0.049l0.342,0.052c0.114,0.018,0.228,0.037,0.341,0.057l0.343,0.06c0.114,0.021,0.227,0.041,0.342,0.063
			c0.114,0.023,0.227,0.046,0.341,0.069l0.342,0.073c0.115,0.025,0.229,0.052,0.343,0.078c0.115,0.026,0.228,0.054,0.341,0.082
			l0.342,0.087c0.115,0.03,0.229,0.059,0.342,0.091c0.115,0.031,0.229,0.062,0.342,0.095c0.116,0.033,0.229,0.068,0.342,0.102
			c0.116,0.035,0.229,0.071,0.343,0.107c0.115,0.037,0.227,0.074,0.341,0.111c0.115,0.039,0.229,0.078,0.342,0.118
			c0.115,0.04,0.229,0.081,0.342,0.124c0.116,0.042,0.229,0.086,0.343,0.13c0.115,0.044,0.229,0.089,0.341,0.135
			c0.115,0.047,0.229,0.095,0.342,0.142c0.115,0.05,0.229,0.099,0.343,0.149c0.114,0.051,0.228,0.103,0.341,0.157
			c0.116,0.054,0.229,0.108,0.342,0.164c0.116,0.057,0.23,0.114,0.343,0.172c0.114,0.059,0.228,0.118,0.341,0.179
			c0.116,0.062,0.229,0.125,0.342,0.189c0.116,0.065,0.229,0.131,0.343,0.197c0.115,0.069,0.229,0.137,0.341,0.207
			c0.116,0.072,0.23,0.144,0.342,0.218c0.116,0.075,0.229,0.151,0.343,0.229c0.115,0.079,0.229,0.158,0.341,0.24
			c0.116,0.083,0.23,0.166,0.342,0.253c0.117,0.087,0.23,0.176,0.343,0.267c0.116,0.092,0.229,0.187,0.341,0.282
			c0.116,0.098,0.23,0.197,0.342,0.298c0.117,0.103,0.23,0.21,0.343,0.317c0.116,0.109,0.23,0.221,0.341,0.334
			c0.117,0.118,0.231,0.237,0.343,0.358c0.117,0.126,0.231,0.252,0.341,0.381c0.118,0.136,0.231,0.274,0.342,0.413
			c0.117,0.146,0.232,0.295,0.342,0.445c0.118,0.158,0.232,0.32,0.342,0.483c0.118,0.175,0.233,0.352,0.343,0.532
			c0.118,0.195,0.233,0.391,0.341,0.591c0.12,0.218,0.234,0.441,0.342,0.666c0.122,0.253,0.236,0.51,0.342,0.773
			c0.125,0.304,0.239,0.614,0.342,0.931c0.131,0.395,0.245,0.801,0.342,1.216c0.157,0.665,0.272,1.353,0.342,2.066
			c0.056,0.558,0.085,1.129,0.085,1.716c0,0.554-0.029,1.104-0.085,1.647c-0.07,0.688-0.184,1.363-0.342,2.026
			c-0.097,0.408-0.211,0.812-0.342,1.208c-0.103,0.316-0.217,0.627-0.342,0.935c-0.106,0.262-0.22,0.523-0.342,0.781
			c-0.108,0.229-0.221,0.455-0.342,0.678c-0.108,0.204-0.223,0.405-0.341,0.603c-0.11,0.184-0.225,0.365-0.343,0.544
			c-0.11,0.167-0.224,0.334-0.342,0.499c-0.11,0.155-0.225,0.307-0.342,0.459c-0.111,0.143-0.225,0.284-0.342,0.424
			c-0.11,0.134-0.224,0.266-0.341,0.397c-0.112,0.125-0.226,0.248-0.343,0.37c-0.111,0.117-0.225,0.233-0.341,0.348
			c-0.112,0.11-0.226,0.219-0.343,0.327c-0.112,0.105-0.225,0.208-0.342,0.311c-0.111,0.099-0.225,0.196-0.341,0.293
			c-0.112,0.094-0.226,0.186-0.343,0.276c-0.112,0.09-0.225,0.177-0.342,0.263c-0.112,0.084-0.226,0.167-0.341,0.25
			c-0.113,0.08-0.227,0.159-0.343,0.237c-0.112,0.076-0.226,0.151-0.342,0.225c-0.112,0.073-0.226,0.144-0.341,0.215
			c-0.113,0.07-0.227,0.138-0.343,0.205c-0.113,0.065-0.226,0.13-0.342,0.195c-0.113,0.062-0.227,0.124-0.341,0.185
			c-0.113,0.06-0.227,0.119-0.343,0.177c-0.112,0.057-0.226,0.113-0.342,0.169c-0.113,0.054-0.226,0.108-0.341,0.161
			c-0.114,0.051-0.227,0.103-0.343,0.153c-0.113,0.049-0.227,0.097-0.342,0.145c-0.112,0.047-0.226,0.093-0.341,0.138
			c-0.113,0.045-0.227,0.088-0.343,0.131c-0.113,0.042-0.227,0.084-0.342,0.124c-0.113,0.042-0.227,0.081-0.342,0.12
			c-0.114,0.039-0.226,0.075-0.341,0.113c-0.113,0.036-0.228,0.071-0.343,0.106c-0.113,0.035-0.227,0.068-0.342,0.101
			c-0.113,0.033-0.227,0.064-0.342,0.096c-0.113,0.03-0.227,0.061-0.342,0.09c-0.114,0.028-0.226,0.057-0.342,0.085
			c-0.112,0.028-0.227,0.054-0.341,0.079l-0.343,0.075c-0.113,0.024-0.227,0.048-0.342,0.07l-0.341,0.066
			c-0.113,0.021-0.227,0.041-0.342,0.06l-0.343,0.056l-0.315,0.05v0.409l0.315,0.024l0.343,0.029l0.342,0.033l0.341,0.035
			l0.342,0.038l0.343,0.044l0.341,0.046c0.115,0.017,0.228,0.033,0.342,0.05l0.342,0.054c0.115,0.018,0.229,0.038,0.342,0.058
			l0.342,0.061l0.343,0.065c0.115,0.022,0.227,0.046,0.341,0.071c0.115,0.023,0.229,0.047,0.342,0.072
			c0.115,0.026,0.229,0.051,0.342,0.078c0.115,0.027,0.229,0.054,0.343,0.083c0.115,0.028,0.228,0.056,0.341,0.085
			c0.114,0.031,0.229,0.06,0.342,0.091c0.115,0.032,0.228,0.063,0.343,0.096l0.341,0.1c0.115,0.035,0.229,0.07,0.342,0.105
			c0.116,0.036,0.229,0.073,0.343,0.11c0.114,0.038,0.227,0.077,0.341,0.116c0.115,0.039,0.229,0.08,0.342,0.12
			c0.115,0.042,0.229,0.082,0.343,0.125c0.115,0.043,0.228,0.088,0.341,0.133c0.116,0.044,0.228,0.09,0.342,0.137
			c0.115,0.047,0.229,0.095,0.343,0.143c0.114,0.049,0.228,0.099,0.341,0.149c0.115,0.05,0.229,0.102,0.342,0.156
			c0.116,0.053,0.229,0.108,0.343,0.162c0.115,0.056,0.229,0.114,0.341,0.171c0.115,0.058,0.229,0.117,0.342,0.177
			c0.116,0.06,0.229,0.121,0.343,0.184c0.115,0.063,0.228,0.126,0.341,0.192c0.116,0.067,0.23,0.132,0.343,0.2
			c0.115,0.069,0.228,0.139,0.341,0.211c0.116,0.072,0.229,0.145,0.342,0.22c0.116,0.076,0.23,0.152,0.342,0.229
			c0.116,0.08,0.23,0.161,0.342,0.242c0.116,0.083,0.23,0.165,0.342,0.251c0.117,0.086,0.229,0.174,0.342,0.264
			c0.116,0.091,0.23,0.184,0.342,0.277c0.116,0.096,0.23,0.193,0.342,0.291c0.116,0.101,0.23,0.204,0.342,0.307
			c0.117,0.106,0.231,0.213,0.342,0.323c0.117,0.114,0.23,0.228,0.342,0.343c0.117,0.12,0.23,0.241,0.343,0.365
			c0.116,0.127,0.23,0.257,0.341,0.388c0.117,0.136,0.231,0.275,0.342,0.415c0.117,0.146,0.232,0.294,0.343,0.444
			c0.117,0.159,0.231,0.321,0.341,0.485c0.117,0.173,0.233,0.348,0.342,0.525c0.119,0.192,0.233,0.386,0.343,0.583
			c0.118,0.214,0.233,0.431,0.342,0.651c0.12,0.244,0.234,0.493,0.341,0.745c0.124,0.29,0.238,0.587,0.343,0.887
			c0.127,0.368,0.242,0.74,0.341,1.123c0.146,0.559,0.261,1.133,0.342,1.722c0.1,0.718,0.152,1.457,0.152,2.217
			c0,0.781-0.053,1.541-0.152,2.281c-0.08,0.61-0.195,1.204-0.342,1.783c-0.099,0.398-0.213,0.788-0.341,1.169
			c-0.105,0.31-0.219,0.614-0.343,0.915c-0.107,0.262-0.22,0.521-0.341,0.775c-0.109,0.227-0.224,0.452-0.342,0.673
			c-0.11,0.203-0.224,0.405-0.343,0.602c-0.11,0.185-0.225,0.366-0.342,0.546c-0.11,0.17-0.224,0.338-0.341,0.503
			c-0.111,0.156-0.226,0.308-0.343,0.461c-0.111,0.144-0.225,0.288-0.342,0.43c-0.111,0.135-0.225,0.269-0.341,0.401
			c-0.113,0.128-0.226,0.254-0.343,0.378c-0.112,0.12-0.225,0.239-0.342,0.356c-0.111,0.114-0.225,0.224-0.342,0.336
			c-0.112,0.106-0.225,0.213-0.342,0.318c-0.112,0.102-0.226,0.203-0.342,0.301c-0.112,0.098-0.226,0.193-0.342,0.287
			c-0.111,0.092-0.225,0.183-0.342,0.273c-0.112,0.088-0.225,0.175-0.342,0.261c-0.112,0.084-0.226,0.167-0.342,0.248
			c-0.112,0.081-0.226,0.16-0.342,0.238c-0.113,0.077-0.226,0.152-0.342,0.228c-0.113,0.073-0.226,0.145-0.341,0.218
			c-0.113,0.069-0.227,0.138-0.343,0.206c-0.112,0.067-0.226,0.133-0.341,0.198c-0.114,0.064-0.227,0.127-0.343,0.191
			c-0.113,0.062-0.227,0.123-0.342,0.183c-0.114,0.059-0.226,0.117-0.341,0.175c-0.113,0.056-0.228,0.112-0.343,0.166
			c-0.113,0.054-0.227,0.107-0.342,0.159c-0.113,0.054-0.227,0.105-0.341,0.155c-0.114,0.05-0.228,0.099-0.343,0.147
			c-0.112,0.049-0.226,0.095-0.342,0.14c-0.113,0.046-0.226,0.091-0.341,0.134c-0.114,0.045-0.227,0.089-0.343,0.131
			c-0.113,0.041-0.227,0.082-0.342,0.121c-0.113,0.041-0.227,0.08-0.341,0.118c-0.114,0.038-0.227,0.076-0.343,0.113l-0.342,0.108
			c-0.113,0.034-0.227,0.068-0.341,0.101c-0.115,0.032-0.228,0.065-0.343,0.097c-0.113,0.032-0.228,0.062-0.342,0.092
			c-0.113,0.03-0.227,0.058-0.341,0.087c-0.114,0.029-0.227,0.058-0.343,0.084c-0.113,0.027-0.227,0.052-0.342,0.078l-0.342,0.074
			c-0.114,0.023-0.226,0.048-0.341,0.07c-0.114,0.023-0.228,0.043-0.343,0.065l-0.342,0.061l-0.342,0.058
			c-0.113,0.018-0.227,0.035-0.342,0.053c-0.114,0.016-0.226,0.034-0.342,0.05c-0.113,0.016-0.227,0.031-0.341,0.045l-0.343,0.041
			c-0.114,0.014-0.227,0.027-0.342,0.039c-0.113,0.012-0.228,0.023-0.341,0.034l-0.342,0.031l-0.343,0.027l-0.341,0.023
			l-0.342,0.021l-0.343,0.015c-0.113,0.006-0.226,0.011-0.342,0.016c-0.113,0.003-0.227,0.005-0.341,0.008l-0.343,0.007
			l-0.342,0.003l-0.161,0.001h-0.181h-0.342h-0.342h-0.341h-0.343h-0.342h-0.341h-0.342h-0.343h-0.341h-0.342h-0.343h-0.342h-0.341
			h-0.343h-0.342h-0.341h-0.343h-0.342h-0.342h-0.342h-0.342h-0.341h-0.343h-0.342h-0.341h-0.342H241.6h-0.342h-0.342h-0.342h-0.342
			h-0.341h-0.343h-0.342h-0.341h-0.343h-0.342h-0.342h-0.341h-0.343h-0.342h-0.341h-0.343h-0.342h-0.341h-0.343h-0.342h-0.342
			h-0.342h-0.342h-0.341h-0.343h-0.342h-0.341h-0.342h-0.343h-0.342h-0.341h-0.343h-0.342h-0.341h-0.343h-0.342h-0.341h-0.343
			h-0.342h-0.342h-0.342h-0.342h-0.341h-0.343h-0.342h-0.342h-0.341h-0.343h-0.342H224.5h-0.342h-0.342h-0.342h-0.342h-0.342h-0.341
			h-0.343h-0.342h-0.342h-0.341h-0.343h-0.342h-0.342h-0.342h-0.342h-0.341h-0.343h-0.342h-0.342h-0.342h-0.342h-0.342h-0.342
			h-0.342h-0.341h-0.342h-0.343h-0.342h-0.341h-0.343h-0.342h-0.342h-0.342h-0.342h-0.341h-0.343h-0.342h-0.342h-0.342h-0.342
			h-0.342h-0.342h-0.342h-0.342h-0.341h-0.343h-0.342h-0.342h-0.342H207.4h-0.342h-0.342h-0.342h-0.341h-0.343h-0.342h-0.342h-0.342
			h-0.342h-0.342h-0.342h-0.342h-0.342h-0.342h-0.342h-0.342h-0.342h-0.342h-0.342h-0.342h-0.342h-0.342h-0.341h-0.343h-0.342
			h-0.342h-0.342h-0.342h-0.342h-0.342h-0.342h-0.738v72.239h0.738h0.342h0.342h0.342h0.342h0.342h0.342h0.342h0.343h0.341h0.342
			h0.342h0.342h0.342h0.342h0.342h0.342h0.342h0.342h0.342h0.342h0.342h0.342h0.342h0.342h0.342h0.342h0.343h0.341h0.342h0.342
			h0.342h0.342h0.342h0.342h0.342h0.343h0.341h0.342h0.342h0.342h0.342h0.342h0.342h0.342h0.342h0.343h0.341h0.342h0.342h0.342
			h0.342h0.343h0.341h0.342h0.343h0.342h0.341h0.342h0.342h0.342h0.342h0.342h0.342h0.342h0.343h0.341h0.342h0.342h0.342h0.342
			h0.343h0.341h0.342h0.342h0.343h0.341h0.342h0.342h0.342h0.342h0.342h0.342h0.342h0.343h0.341h0.342h0.342h0.343h0.341h0.342
			h0.342h0.342h0.342h0.343h0.341h0.342h0.343h0.341h0.342h0.343h0.341h0.342h0.343h0.342h0.341h0.342h0.343h0.341h0.342h0.342
			h0.342h0.342h0.343h0.341h0.342h0.343h0.341h0.342h0.343h0.341h0.342h0.342h0.343h0.341h0.342h0.343h0.341h0.342h0.342h0.342
			h0.342h0.343h0.342h0.341h0.342h0.343h0.341h0.342h0.342h0.342h0.342h0.343h0.341h0.342h0.343h0.341h0.342h0.343h0.342h0.27
			l0.071-0.001l0.343-0.004c0.114-0.001,0.228-0.002,0.342-0.005l0.341-0.008l0.342-0.014c0.114-0.004,0.228-0.007,0.343-0.013
			c0.114-0.005,0.227-0.014,0.341-0.02l0.342-0.021c0.115-0.008,0.229-0.017,0.342-0.025c0.114-0.009,0.228-0.02,0.342-0.03
			c0.114-0.01,0.229-0.019,0.342-0.031c0.115-0.011,0.228-0.023,0.343-0.035c0.114-0.013,0.228-0.026,0.341-0.039
			c0.115-0.013,0.229-0.025,0.342-0.039c0.115-0.016,0.228-0.034,0.343-0.048l0.342-0.049l0.341-0.05l0.343-0.057
			c0.114-0.019,0.227-0.038,0.342-0.056c0.114-0.021,0.227-0.044,0.341-0.065l0.342-0.066l0.343-0.068
			c0.114-0.024,0.228-0.05,0.341-0.074c0.115-0.025,0.228-0.049,0.342-0.076l0.342-0.081l0.342-0.083l0.342-0.086
			c0.115-0.03,0.229-0.062,0.343-0.094c0.113-0.029,0.227-0.06,0.341-0.091c0.115-0.033,0.228-0.067,0.342-0.1l0.342-0.102
			c0.115-0.035,0.229-0.069,0.343-0.105l0.341-0.112c0.114-0.037,0.229-0.072,0.342-0.111c0.115-0.038,0.228-0.08,0.343-0.119
			c0.113-0.041,0.228-0.08,0.341-0.122l0.342-0.126c0.116-0.042,0.229-0.085,0.343-0.129c0.113-0.044,0.227-0.088,0.341-0.132
			c0.115-0.045,0.228-0.093,0.342-0.14c0.115-0.047,0.229-0.092,0.343-0.14c0.115-0.047,0.228-0.098,0.341-0.148
			c0.115-0.05,0.228-0.098,0.342-0.149l0.343-0.155l0.341-0.161c0.115-0.054,0.229-0.108,0.342-0.162
			c0.116-0.055,0.229-0.113,0.343-0.17c0.113-0.057,0.229-0.112,0.341-0.171c0.115-0.058,0.228-0.119,0.342-0.181
			c0.115-0.059,0.229-0.118,0.343-0.179c0.114-0.063,0.228-0.126,0.341-0.189c0.115-0.063,0.23-0.127,0.343-0.192
			c0.115-0.064,0.227-0.131,0.341-0.197l0.342-0.203c0.115-0.068,0.229-0.137,0.342-0.208c0.115-0.07,0.229-0.141,0.342-0.213
			c0.115-0.071,0.229-0.144,0.342-0.217c0.115-0.074,0.228-0.15,0.342-0.226c0.115-0.075,0.229-0.151,0.342-0.228
			c0.115-0.077,0.229-0.157,0.342-0.237c0.115-0.079,0.229-0.159,0.342-0.239c0.116-0.082,0.229-0.167,0.342-0.251
			c0.115-0.083,0.229-0.166,0.342-0.252c0.116-0.085,0.229-0.173,0.343-0.262c0.114-0.087,0.229-0.175,0.341-0.265
			c0.116-0.091,0.229-0.183,0.342-0.276c0.116-0.092,0.23-0.184,0.343-0.278c0.114-0.096,0.227-0.193,0.341-0.289
			c0.115-0.099,0.229-0.197,0.342-0.296c0.116-0.1,0.229-0.202,0.343-0.303c0.114-0.103,0.228-0.207,0.342-0.312
			c0.115-0.106,0.229-0.211,0.341-0.317c0.115-0.11,0.229-0.22,0.343-0.33c0.114-0.112,0.228-0.222,0.341-0.334
			c0.116-0.115,0.229-0.232,0.342-0.349c0.116-0.118,0.23-0.235,0.343-0.354c0.116-0.122,0.228-0.245,0.341-0.367
			c0.115-0.124,0.229-0.251,0.342-0.376c0.115-0.128,0.23-0.256,0.343-0.387c0.116-0.132,0.228-0.267,0.342-0.402
			c0.115-0.136,0.229-0.271,0.342-0.409c0.116-0.141,0.228-0.282,0.342-0.424c0.115-0.145,0.228-0.293,0.341-0.44
			c0.116-0.149,0.23-0.298,0.342-0.449c0.116-0.155,0.23-0.313,0.342-0.469c0.117-0.162,0.23-0.324,0.342-0.487
			c0.117-0.166,0.23-0.332,0.342-0.501c0.116-0.172,0.23-0.345,0.342-0.52c0.117-0.18,0.23-0.362,0.342-0.544
			c0.117-0.188,0.231-0.377,0.343-0.567c0.116-0.196,0.23-0.391,0.341-0.589c0.116-0.204,0.232-0.409,0.342-0.616
			c0.117-0.213,0.231-0.43,0.342-0.648c0.118-0.226,0.231-0.455,0.343-0.684c0.116-0.241,0.231-0.482,0.342-0.724
			c0.116-0.255,0.231-0.511,0.342-0.77c0.117-0.272,0.232-0.546,0.341-0.821c0.118-0.295,0.233-0.59,0.342-0.888
			c0.118-0.319,0.234-0.639,0.343-0.964c0.12-0.356,0.233-0.716,0.342-1.078c0.12-0.399,0.234-0.802,0.341-1.209
			c0.124-0.469,0.238-0.944,0.343-1.421c0.128-0.588,0.242-1.18,0.341-1.779c0.148-0.889,0.263-1.79,0.343-2.701
			c0.091-1.035,0.14-2.082,0.14-3.141V0H231.426z"/>
	</defs>
	<clipPath id="SVGID_2_">
		<use xlink:href="#SVGID_1_"  overflow="visible"/>
	</clipPath>
	
		<linearGradient id="SVGID_3_" gradientUnits="userSpaceOnUse" x1="1.745751e-006" y1="212.605" x2="1" y2="212.605" gradientTransform="matrix(87.4053 0 0 87.4053 196.0598 -18476.502)">
		<stop  offset="0" style="stop-color:#007B40"/>
		<stop  offset="1" style="stop-color:#55B330"/>
	</linearGradient>
	<rect x="196.06" clip-path="url(#SVGID_2_)" fill="url(#SVGID_3_)" width="87.405" height="212.605"/>
</g>
<g>
	<defs>
		<path id="SVGID_4_" d="M35.366,0l-0.151,0.003c-0.114,0-0.227,0.001-0.342,0.004c-0.113,0.001-0.227,0.001-0.341,0.004
			c-0.114,0.002-0.228,0.009-0.341,0.012l-0.342,0.014c-0.113,0.005-0.228,0.009-0.341,0.015c-0.113,0.006-0.227,0.014-0.341,0.022
			c-0.114,0.007-0.228,0.013-0.342,0.021c-0.114,0.008-0.227,0.018-0.341,0.028l-0.341,0.03c-0.114,0.011-0.228,0.019-0.342,0.03
			c-0.114,0.012-0.227,0.027-0.341,0.039l-0.342,0.04l-0.341,0.042c-0.114,0.015-0.228,0.032-0.342,0.048
			c-0.113,0.016-0.227,0.03-0.341,0.047c-0.114,0.018-0.227,0.037-0.341,0.056l-0.342,0.056c-0.113,0.02-0.228,0.039-0.341,0.059
			c-0.114,0.021-0.228,0.044-0.341,0.065c-0.114,0.023-0.229,0.043-0.342,0.067c-0.114,0.022-0.228,0.047-0.341,0.071l-0.342,0.075
			c-0.114,0.025-0.228,0.049-0.341,0.075c-0.115,0.027-0.228,0.056-0.341,0.084c-0.115,0.028-0.228,0.054-0.342,0.083
			s-0.228,0.06-0.341,0.09l-0.342,0.092c-0.114,0.032-0.228,0.063-0.342,0.095c-0.114,0.032-0.226,0.067-0.341,0.101
			c-0.113,0.034-0.228,0.067-0.341,0.102c-0.114,0.035-0.228,0.072-0.341,0.108L24.29,1.789l-0.341,0.114
			c-0.114,0.04-0.228,0.08-0.342,0.121c-0.113,0.04-0.228,0.079-0.341,0.12c-0.114,0.042-0.228,0.086-0.341,0.129l-0.342,0.131
			l-0.341,0.135l-0.341,0.139c-0.115,0.047-0.229,0.094-0.342,0.142c-0.114,0.049-0.228,0.099-0.342,0.15
			c-0.114,0.049-0.228,0.098-0.341,0.149c-0.114,0.052-0.227,0.106-0.342,0.159c-0.113,0.053-0.227,0.105-0.341,0.159
			c-0.114,0.055-0.227,0.111-0.341,0.166l-0.341,0.17c-0.114,0.057-0.228,0.115-0.342,0.173c-0.114,0.06-0.228,0.121-0.341,0.18
			c-0.114,0.062-0.229,0.121-0.342,0.182c-0.114,0.063-0.227,0.128-0.341,0.192c-0.114,0.063-0.229,0.125-0.341,0.19
			c-0.115,0.066-0.228,0.135-0.342,0.202s-0.229,0.133-0.341,0.202c-0.115,0.069-0.228,0.14-0.341,0.211
			c-0.115,0.071-0.229,0.141-0.342,0.214c-0.115,0.072-0.228,0.146-0.342,0.22c-0.114,0.075-0.228,0.15-0.341,0.225
			c-0.115,0.077-0.228,0.154-0.342,0.232s-0.227,0.157-0.341,0.237c-0.114,0.08-0.227,0.161-0.341,0.244L14.39,6.925
			c-0.114,0.085-0.229,0.17-0.342,0.257c-0.114,0.086-0.228,0.174-0.341,0.262c-0.114,0.089-0.229,0.178-0.342,0.268
			c-0.114,0.092-0.229,0.183-0.341,0.275c-0.114,0.094-0.229,0.189-0.341,0.284c-0.115,0.096-0.229,0.191-0.341,0.289
			C12.227,8.659,12.113,8.759,12,8.859c-0.115,0.1-0.229,0.2-0.341,0.302c-0.116,0.104-0.228,0.211-0.342,0.317
			c-0.115,0.105-0.229,0.21-0.342,0.317c-0.115,0.11-0.227,0.223-0.341,0.334c-0.114,0.112-0.229,0.223-0.342,0.338
			c-0.114,0.115-0.227,0.232-0.341,0.349c-0.115,0.12-0.228,0.239-0.341,0.359c-0.114,0.122-0.229,0.243-0.342,0.366
			c-0.115,0.126-0.228,0.253-0.341,0.382c-0.114,0.129-0.228,0.257-0.342,0.388c-0.114,0.133-0.228,0.268-0.341,0.404
			C8.13,12.852,8.015,12.99,7.903,13.13c-0.114,0.14-0.23,0.281-0.341,0.424c-0.116,0.147-0.229,0.296-0.342,0.444
			c-0.115,0.152-0.229,0.304-0.341,0.457c-0.115,0.155-0.23,0.31-0.342,0.468c-0.116,0.163-0.228,0.327-0.341,0.493
			c-0.116,0.167-0.229,0.337-0.341,0.507c-0.115,0.174-0.23,0.349-0.342,0.524c-0.115,0.181-0.229,0.364-0.342,0.547
			c-0.116,0.19-0.228,0.382-0.341,0.575c-0.116,0.198-0.229,0.397-0.341,0.596c-0.116,0.207-0.229,0.416-0.342,0.625
			c-0.116,0.218-0.229,0.436-0.341,0.656c-0.116,0.229-0.23,0.459-0.342,0.691c-0.116,0.242-0.229,0.486-0.341,0.732
			c-0.117,0.258-0.23,0.519-0.341,0.78c-0.117,0.278-0.231,0.558-0.341,0.84c-0.119,0.301-0.231,0.604-0.342,0.909
			c-0.119,0.329-0.232,0.661-0.341,0.995c-0.12,0.365-0.233,0.731-0.342,1.101c-0.121,0.414-0.235,0.832-0.341,1.253
			c-0.124,0.491-0.239,0.986-0.341,1.486C0.253,30.558,0,32.969,0,35.436v87.512c0.244,0.118,0.489,0.236,0.734,0.352l0.341,0.161
			l0.341,0.16l0.342,0.158l0.341,0.157l0.342,0.157l0.341,0.153l0.341,0.152l0.341,0.15l0.342,0.151l0.341,0.147l0.342,0.147
			l0.341,0.145l0.341,0.143l0.342,0.142l0.342,0.139l0.341,0.139l0.341,0.137l0.342,0.136l0.341,0.132l0.342,0.133l0.341,0.13
			l0.341,0.129l0.341,0.126l0.342,0.126l0.341,0.124l0.342,0.121l0.341,0.121l0.341,0.118l0.342,0.118l0.341,0.115l0.342,0.113
			l0.342,0.111L12,127.802l0.342,0.108l0.341,0.107l0.341,0.104l0.341,0.103l0.342,0.1l0.341,0.099l0.342,0.099l0.341,0.095
			l0.341,0.094l0.341,0.091l0.342,0.09l0.341,0.089l0.342,0.086l0.342,0.086l0.341,0.081l0.341,0.081l0.342,0.079l0.341,0.076
			l0.341,0.076l0.342,0.073l0.341,0.071l0.342,0.069l0.341,0.068l0.341,0.064l0.341,0.063l0.342,0.062l0.341,0.06l0.342,0.058
			l0.342,0.055l0.341,0.053l0.341,0.051l0.342,0.049l0.341,0.048l0.341,0.045l0.342,0.043l0.341,0.042l0.342,0.038l0.341,0.037
			l0.341,0.035l0.341,0.034l0.342,0.03l0.342,0.028l0.341,0.027l0.342,0.024l0.341,0.023l0.341,0.02l0.342,0.017l0.341,0.016
			l0.342,0.014l0.341,0.01l0.341,0.009l0.342,0.008l0.341,0.005l0.341,0.003l0.214,0.001l0.128-0.001
			c0.114-0.002,0.228-0.003,0.341-0.005l0.342-0.007c0.114-0.004,0.228-0.006,0.341-0.011c0.115-0.004,0.228-0.01,0.342-0.016
			c0.113-0.006,0.227-0.013,0.341-0.021c0.114-0.006,0.228-0.014,0.341-0.023c0.115-0.008,0.228-0.019,0.342-0.029
			c0.114-0.011,0.228-0.021,0.341-0.032l0.341-0.038c0.115-0.014,0.229-0.029,0.342-0.043c0.114-0.016,0.228-0.031,0.341-0.047
			l0.341-0.052c0.115-0.018,0.229-0.038,0.342-0.059c0.114-0.019,0.229-0.04,0.341-0.061c0.115-0.022,0.229-0.045,0.342-0.068
			c0.115-0.024,0.228-0.049,0.341-0.075c0.115-0.025,0.229-0.052,0.342-0.078c0.114-0.028,0.228-0.055,0.342-0.085
			c0.114-0.029,0.227-0.061,0.341-0.093c0.114-0.031,0.227-0.063,0.341-0.097c0.114-0.033,0.228-0.068,0.342-0.103
			c0.114-0.036,0.227-0.073,0.341-0.111c0.114-0.038,0.228-0.078,0.341-0.118c0.115-0.042,0.228-0.082,0.341-0.125
			c0.115-0.043,0.229-0.087,0.342-0.132c0.115-0.046,0.229-0.092,0.341-0.14c0.115-0.048,0.229-0.097,0.341-0.149
			c0.116-0.051,0.229-0.104,0.342-0.156c0.115-0.055,0.229-0.111,0.341-0.167c0.115-0.057,0.229-0.115,0.342-0.174
			c0.115-0.061,0.229-0.123,0.341-0.185c0.115-0.064,0.229-0.128,0.342-0.194c0.115-0.068,0.229-0.137,0.341-0.206
			c0.115-0.071,0.229-0.145,0.342-0.218c0.115-0.077,0.228-0.152,0.341-0.23c0.115-0.08,0.228-0.161,0.342-0.243
			c0.115-0.085,0.228-0.171,0.341-0.258c0.115-0.088,0.229-0.179,0.341-0.271c0.116-0.093,0.229-0.191,0.341-0.287
			c0.116-0.101,0.23-0.202,0.342-0.305c0.116-0.106,0.23-0.216,0.341-0.325c0.116-0.114,0.23-0.229,0.342-0.346
			c0.116-0.122,0.23-0.245,0.341-0.37c0.116-0.129,0.23-0.259,0.341-0.393c0.116-0.139,0.231-0.279,0.342-0.421
			c0.117-0.151,0.23-0.305,0.341-0.459c0.117-0.163,0.231-0.327,0.341-0.493c0.118-0.178,0.232-0.359,0.343-0.542
			c0.116-0.193,0.231-0.39,0.341-0.59c0.118-0.217,0.232-0.439,0.341-0.663c0.119-0.245,0.234-0.495,0.342-0.748
			c0.12-0.285,0.235-0.573,0.341-0.865c0.124-0.344,0.237-0.694,0.341-1.05c0.13-0.446,0.244-0.901,0.341-1.364
			c0.158-0.75,0.272-1.521,0.342-2.312c0.054-0.621,0.083-1.254,0.083-1.897V72.234h0.258h0.342h0.341h0.341h0.341h0.342h0.341
			h0.343h0.341h0.341h0.342h0.341h0.341h0.342h0.341h0.342h0.341h0.341h0.341h0.341h0.342h0.342h0.341h0.342h0.341h0.342h0.341
			h0.341h0.342h0.341h0.342h0.341h0.341h0.341h0.342h0.341h0.342h0.341h0.342h0.341h0.342h0.341h0.342h0.341h0.341h0.341H65.6h0.341
			h0.341h0.342h0.341h0.342h0.341h0.342h0.341h0.342h0.341h0.342h0.341h0.341h0.341h0.342h0.341h0.342h0.341h0.342h0.341h0.342
			h0.341h0.342h0.341h0.342h0.34h0.342h0.341H75.5h0.342h0.341h0.341h0.342h0.341h0.342h0.342h0.341h0.342h0.341h0.341h0.341h0.342
			h0.17v41.114c0,1.194-0.056,2.369-0.17,3.524c-0.083,0.829-0.195,1.646-0.342,2.451c-0.098,0.54-0.212,1.075-0.341,1.604
			c-0.104,0.425-0.217,0.848-0.341,1.265c-0.106,0.357-0.22,0.713-0.341,1.064c-0.108,0.309-0.223,0.616-0.342,0.919
			c-0.108,0.277-0.223,0.549-0.341,0.82c-0.11,0.251-0.224,0.499-0.342,0.745c-0.11,0.229-0.224,0.456-0.342,0.682
			c-0.109,0.21-0.224,0.419-0.341,0.627c-0.11,0.196-0.225,0.391-0.342,0.584c-0.11,0.183-0.224,0.365-0.341,0.546
			c-0.111,0.172-0.225,0.343-0.341,0.512c-0.112,0.162-0.225,0.325-0.342,0.485c-0.111,0.154-0.224,0.307-0.341,0.46
			c-0.111,0.145-0.225,0.289-0.341,0.433c-0.112,0.137-0.226,0.274-0.342,0.411c-0.112,0.132-0.225,0.264-0.34,0.395
			c-0.114,0.127-0.226,0.254-0.342,0.38c-0.112,0.12-0.227,0.237-0.341,0.356c-0.113,0.116-0.227,0.232-0.342,0.347
			c-0.113,0.111-0.225,0.222-0.341,0.333c-0.112,0.106-0.227,0.21-0.342,0.315c-0.113,0.103-0.226,0.209-0.341,0.309
			c-0.112,0.099-0.227,0.197-0.342,0.295c-0.112,0.095-0.226,0.191-0.341,0.285c-0.113,0.093-0.227,0.184-0.342,0.275
			c-0.111,0.09-0.226,0.177-0.341,0.265c-0.113,0.086-0.226,0.173-0.342,0.257c-0.111,0.084-0.227,0.166-0.341,0.248
			c-0.113,0.081-0.226,0.162-0.341,0.242c-0.113,0.077-0.227,0.153-0.341,0.23c-0.114,0.077-0.227,0.152-0.342,0.228
			c-0.112,0.072-0.227,0.144-0.341,0.216c-0.114,0.072-0.227,0.143-0.342,0.213c-0.112,0.069-0.227,0.137-0.341,0.205
			c-0.114,0.067-0.227,0.134-0.342,0.199c-0.112,0.066-0.226,0.131-0.341,0.194c-0.113,0.064-0.227,0.126-0.342,0.188
			c-0.113,0.062-0.225,0.123-0.341,0.185c-0.112,0.059-0.227,0.117-0.342,0.175c-0.113,0.059-0.226,0.118-0.341,0.176
			c-0.112,0.055-0.227,0.11-0.341,0.165c-0.113,0.055-0.227,0.11-0.342,0.164l-0.341,0.159l-0.341,0.153
			c-0.114,0.052-0.226,0.104-0.341,0.154c-0.113,0.049-0.229,0.096-0.342,0.143l-0.341,0.144l-0.342,0.139
			c-0.112,0.045-0.227,0.088-0.341,0.133c-0.114,0.045-0.226,0.09-0.342,0.134c-0.112,0.043-0.228,0.084-0.341,0.126l-0.342,0.125
			c-0.114,0.041-0.226,0.083-0.341,0.124c-0.112,0.039-0.228,0.076-0.342,0.116l-0.341,0.115l-0.341,0.114
			c-0.112,0.036-0.228,0.071-0.341,0.106l-0.342,0.107l-0.341,0.105c-0.113,0.034-0.229,0.067-0.342,0.1l-0.341,0.099
			c-0.114,0.032-0.227,0.065-0.341,0.096c-0.113,0.032-0.228,0.061-0.342,0.092l-0.341,0.091c-0.114,0.03-0.227,0.06-0.342,0.09
			c-0.112,0.028-0.228,0.056-0.341,0.083l-0.342,0.084c-0.114,0.028-0.226,0.057-0.342,0.085c-0.111,0.026-0.227,0.05-0.341,0.075
			l-0.341,0.078c-0.114,0.025-0.226,0.053-0.341,0.077l-0.341,0.071l-0.342,0.071c-0.114,0.023-0.227,0.047-0.341,0.07l-0.342,0.066
			l-0.341,0.065l-0.341,0.063c-0.115,0.022-0.227,0.043-0.342,0.064c-0.113,0.02-0.228,0.038-0.341,0.058l-0.341,0.056
			c-0.115,0.019-0.227,0.039-0.343,0.058l-0.341,0.055l-0.342,0.051l-0.341,0.05c-0.114,0.018-0.226,0.036-0.341,0.053l-0.341,0.046
			l-0.342,0.045l-0.341,0.046l-0.342,0.044l-0.341,0.04l-0.341,0.041l-0.341,0.039l-0.342,0.039l-0.341,0.035l-0.341,0.034
			l-0.343,0.035l-0.341,0.032l-0.341,0.029l-0.342,0.031l-0.341,0.029l-0.341,0.028l-0.342,0.024l-0.341,0.024l-0.342,0.025
			l-0.341,0.022l-0.341,0.021l-0.341,0.019l-0.342,0.02l-0.341,0.018l-0.342,0.016l-0.341,0.014l-0.342,0.016l-0.341,0.015
			l-0.342,0.012l-0.341,0.01l-0.342,0.01l-0.341,0.011l-0.341,0.009l-0.342,0.005l-0.341,0.008l-0.341,0.005l-0.341,0.007
			l-0.342,0.002l-0.341,0.002l-0.342,0.002l-0.341,0.001l-0.21,0.002h-0.132l-0.341-0.002l-0.342-0.001l-0.341-0.002l-0.342-0.004
			l-0.341-0.003l-0.341-0.005l-0.342-0.005l-0.341-0.007l-0.341-0.008l-0.342-0.007l-0.341-0.009l-0.341-0.01l-0.342-0.01
			l-0.341-0.011l-0.342-0.012l-0.341-0.013l-0.342-0.013l-0.341-0.015l-0.341-0.015l-0.342-0.015l-0.341-0.016l-0.341-0.018
			l-0.342-0.018l-0.341-0.018l-0.342-0.021l-0.341-0.021l-0.341-0.021l-0.342-0.021l-0.341-0.023l-0.342-0.023l-0.342-0.025
			l-0.341-0.025l-0.341-0.026l-0.341-0.025l-0.342-0.028l-0.341-0.028l-0.342-0.028l-0.341-0.029l-0.341-0.03l-0.342-0.031
			l-0.341-0.031l-0.341-0.033l-0.342-0.034l-0.342-0.033l-0.341-0.035l-0.342-0.034l-0.341-0.037l-0.341-0.036l-0.341-0.037
			l-0.342-0.04l-0.341-0.037l-0.342-0.041l-0.341-0.039l-0.341-0.043l-0.342-0.04l-0.341-0.044l-0.341-0.043l-0.342-0.044
			l-0.342-0.045l-0.341-0.046l-0.342-0.046l-0.341-0.046l-0.341-0.048l-0.341-0.049l-0.342-0.048l-0.341-0.052l-0.342-0.049
			l-0.341-0.052l-0.341-0.053l-0.341-0.053L12,140.368l-0.341-0.055l-0.342-0.055l-0.342-0.056l-0.341-0.057l-0.342-0.058
			l-0.341-0.057l-0.341-0.06l-0.342-0.059l-0.341-0.062l-0.342-0.061l-0.341-0.062l-0.341-0.063l-0.341-0.065l-0.342-0.064
			l-0.341-0.067l-0.342-0.066l-0.341-0.068l-0.341-0.068l-0.342-0.069l-0.342-0.07l-0.341-0.071l-0.341-0.072l-0.342-0.072
			l-0.341-0.075l-0.342-0.074l-0.341-0.076l-0.341-0.077l-0.341-0.078l-0.342-0.08l-0.341-0.08l-0.342-0.083l-0.341-0.083
			l-0.341-0.085C0.253,137.999,0,137.929,0,137.929v74.676h0.734h0.341h0.341h0.342h0.341h0.342h0.341h0.341h0.341h0.342h0.341
			h0.342H4.83h0.341h0.342h0.342h0.341h0.341h0.342H7.22h0.342h0.341h0.341h0.341h0.342h0.341H9.61h0.341h0.341h0.342h0.341h0.342
			h0.342H12h0.342h0.341h0.341h0.341h0.342h0.341h0.342h0.341h0.341h0.341h0.342h0.341h0.342h0.342h0.341h0.341h0.342h0.341h0.341
			h0.342h0.341h0.342h0.341h0.341h0.341h0.342h0.341h0.342h0.342h0.341h0.341h0.342h0.341h0.341h0.342h0.341h0.342h0.341h0.341
			h0.341h0.342h0.342h0.341h0.342h0.341h0.341h0.342h0.341h0.342h0.341h0.341h0.342h0.341h0.341h0.342h0.341h0.342h0.341h0.342
			h0.341h0.341h0.342h0.341h0.341h0.342h0.341h0.341h0.342h0.341h0.342h0.341h0.342h0.341h0.342h0.341h0.342h0.341h0.341h0.341
			h0.342h0.341h0.341h0.342h0.341h0.342h0.341h0.342h0.341h0.342h0.341h0.342h0.341h0.341h0.341h0.342h0.341h0.342h0.341h0.341
			h0.342h0.341h0.341h0.343h0.341h0.341h0.342h0.341h0.341h0.341h0.342h0.341h0.342h0.341h0.341h0.341h0.342h0.341h0.026
			c0.106,0,0.21-0.004,0.317-0.005l0.341-0.004c0.113-0.002,0.227-0.003,0.341-0.006c0.114-0.003,0.227-0.009,0.342-0.013
			c0.113-0.004,0.227-0.008,0.341-0.012l0.341-0.019l0.342-0.022c0.113-0.006,0.228-0.013,0.341-0.022
			c0.114-0.008,0.228-0.02,0.342-0.029l0.341-0.031c0.113-0.011,0.228-0.021,0.341-0.032c0.115-0.013,0.228-0.026,0.341-0.04
			c0.115-0.012,0.229-0.024,0.341-0.04c0.115-0.013,0.229-0.028,0.342-0.045l0.342-0.047c0.114-0.016,0.228-0.032,0.341-0.049
			c0.115-0.018,0.228-0.038,0.342-0.057c0.114-0.018,0.227-0.035,0.341-0.056l0.342-0.06c0.113-0.022,0.227-0.045,0.341-0.067
			c0.114-0.022,0.227-0.042,0.341-0.065c0.114-0.023,0.228-0.049,0.342-0.075l0.341-0.074l0.342-0.078
			c0.113-0.028,0.227-0.055,0.341-0.084c0.113-0.028,0.228-0.053,0.341-0.083c0.114-0.029,0.228-0.061,0.341-0.092
			c0.115-0.031,0.229-0.061,0.342-0.093l0.341-0.098l0.342-0.101c0.113-0.034,0.228-0.066,0.341-0.101
			c0.115-0.036,0.228-0.075,0.342-0.112c0.113-0.036,0.227-0.072,0.341-0.11l0.342-0.117l0.341-0.12
			c0.114-0.042,0.227-0.081,0.342-0.123c0.113-0.043,0.227-0.086,0.341-0.13c0.114-0.043,0.228-0.086,0.341-0.131
			c0.114-0.044,0.228-0.091,0.341-0.137c0.114-0.047,0.229-0.093,0.342-0.14l0.341-0.144l0.341-0.149
			c0.115-0.051,0.229-0.1,0.342-0.152c0.115-0.052,0.228-0.106,0.341-0.16c0.114-0.053,0.229-0.105,0.342-0.159
			c0.115-0.055,0.228-0.113,0.341-0.169c0.115-0.057,0.228-0.113,0.342-0.17c0.114-0.058,0.227-0.117,0.341-0.177l0.342-0.18
			c0.114-0.061,0.227-0.123,0.341-0.185c0.114-0.063,0.228-0.127,0.342-0.191c0.114-0.064,0.227-0.128,0.341-0.194
			s0.228-0.133,0.341-0.202c0.114-0.067,0.228-0.134,0.341-0.203c0.115-0.07,0.229-0.141,0.342-0.213
			c0.114-0.072,0.228-0.141,0.341-0.213c0.115-0.073,0.228-0.15,0.342-0.225s0.228-0.149,0.341-0.224
			c0.115-0.078,0.228-0.157,0.342-0.237c0.114-0.077,0.228-0.155,0.341-0.236c0.115-0.08,0.228-0.165,0.342-0.247
			c0.113-0.083,0.228-0.165,0.341-0.248c0.115-0.087,0.227-0.174,0.342-0.26c0.113-0.088,0.227-0.173,0.341-0.262
			c0.114-0.09,0.227-0.182,0.342-0.274c0.113-0.091,0.227-0.182,0.34-0.275c0.115-0.095,0.228-0.191,0.342-0.288
			c0.113-0.096,0.229-0.19,0.341-0.288c0.115-0.1,0.228-0.201,0.341-0.303c0.114-0.101,0.229-0.202,0.342-0.306
			c0.115-0.104,0.228-0.21,0.341-0.318c0.115-0.107,0.229-0.213,0.341-0.323c0.115-0.109,0.229-0.221,0.342-0.333
			c0.115-0.113,0.228-0.227,0.341-0.342c0.115-0.117,0.229-0.232,0.342-0.35c0.115-0.12,0.228-0.241,0.342-0.363
			c0.114-0.123,0.228-0.244,0.341-0.369c0.115-0.127,0.228-0.256,0.342-0.385c0.114-0.13,0.228-0.261,0.341-0.394
			c0.114-0.133,0.228-0.267,0.341-0.403c0.115-0.139,0.228-0.28,0.341-0.42c0.115-0.143,0.229-0.286,0.342-0.43
			c0.115-0.148,0.228-0.297,0.341-0.447c0.115-0.152,0.229-0.308,0.342-0.462c0.115-0.158,0.229-0.316,0.341-0.475
			c0.114-0.164,0.229-0.328,0.341-0.493c0.116-0.17,0.229-0.343,0.341-0.516c0.116-0.176,0.23-0.353,0.342-0.533
			c0.116-0.183,0.23-0.367,0.341-0.552c0.117-0.191,0.23-0.384,0.341-0.578c0.117-0.201,0.23-0.403,0.343-0.607
			c0.116-0.21,0.229-0.423,0.341-0.635c0.116-0.221,0.229-0.444,0.342-0.667c0.116-0.234,0.229-0.468,0.341-0.705
			c0.116-0.247,0.23-0.496,0.341-0.746c0.117-0.265,0.231-0.531,0.341-0.798c0.118-0.284,0.231-0.57,0.342-0.858
			c0.118-0.307,0.231-0.618,0.341-0.93c0.119-0.338,0.233-0.677,0.342-1.019c0.12-0.377,0.234-0.757,0.341-1.14
			c0.122-0.437,0.235-0.877,0.341-1.32c0.126-0.525,0.24-1.056,0.341-1.591c0.135-0.703,0.25-1.412,0.342-2.129
			c0.191-1.49,0.29-3.008,0.29-4.55V0H35.366z"/>
	</defs>
	<clipPath id="SVGID_5_">
		<use xlink:href="#SVGID_4_"  overflow="visible"/>
	</clipPath>
	
		<linearGradient id="SVGID_6_" gradientUnits="userSpaceOnUse" x1="9.094947e-013" y1="212.605" x2="1" y2="212.605" gradientTransform="matrix(87.398 0 0 87.398 0 -18474.9414)">
		<stop  offset="0" style="stop-color:#1D2970"/>
		<stop  offset="1" style="stop-color:#006DBA"/>
	</linearGradient>
	<rect y="0" clip-path="url(#SVGID_5_)" fill="url(#SVGID_6_)" width="87.398" height="212.605"/>
</g>
<g>
	<defs>
		<path id="SVGID_7_" d="M133.398,0l-0.15,0.003c-0.115,0-0.228,0.002-0.342,0.004c-0.114,0.002-0.228,0.001-0.341,0.004
			c-0.115,0.003-0.228,0.009-0.342,0.012l-0.341,0.014c-0.115,0.005-0.228,0.009-0.342,0.016c-0.114,0.005-0.227,0.013-0.342,0.021
			c-0.113,0.007-0.227,0.014-0.341,0.021c-0.114,0.008-0.227,0.018-0.341,0.028l-0.342,0.03c-0.113,0.011-0.227,0.019-0.341,0.03
			c-0.114,0.012-0.228,0.027-0.341,0.04l-0.342,0.039l-0.341,0.042c-0.114,0.015-0.228,0.032-0.342,0.049
			c-0.113,0.016-0.228,0.03-0.341,0.047c-0.115,0.017-0.228,0.036-0.341,0.055l-0.341,0.057l-0.342,0.058
			c-0.115,0.021-0.228,0.045-0.342,0.066c-0.114,0.022-0.228,0.043-0.341,0.066c-0.114,0.023-0.227,0.048-0.342,0.072l-0.341,0.074
			c-0.114,0.026-0.228,0.05-0.342,0.076c-0.114,0.027-0.227,0.056-0.341,0.084c-0.113,0.028-0.227,0.054-0.341,0.083
			c-0.114,0.028-0.228,0.06-0.342,0.09l-0.341,0.092c-0.114,0.032-0.229,0.062-0.341,0.095c-0.114,0.032-0.229,0.067-0.342,0.102
			c-0.114,0.033-0.229,0.066-0.341,0.101c-0.114,0.035-0.228,0.072-0.342,0.109l-0.341,0.111c-0.114,0.038-0.228,0.074-0.341,0.113
			c-0.115,0.04-0.228,0.08-0.342,0.121c-0.114,0.04-0.228,0.079-0.341,0.12c-0.115,0.042-0.227,0.087-0.342,0.13
			c-0.114,0.042-0.228,0.086-0.342,0.13c-0.114,0.044-0.227,0.09-0.341,0.136l-0.342,0.139c-0.113,0.047-0.227,0.094-0.341,0.142
			c-0.114,0.048-0.227,0.099-0.341,0.149c-0.113,0.05-0.228,0.098-0.341,0.149c-0.115,0.052-0.228,0.107-0.342,0.159
			c-0.113,0.054-0.228,0.106-0.341,0.16c-0.114,0.055-0.229,0.11-0.342,0.166l-0.341,0.169l-0.341,0.174
			c-0.115,0.059-0.228,0.121-0.342,0.181s-0.228,0.121-0.341,0.182c-0.115,0.062-0.227,0.127-0.342,0.191
			c-0.114,0.063-0.228,0.126-0.341,0.19c-0.115,0.066-0.227,0.134-0.342,0.202c-0.114,0.068-0.228,0.133-0.341,0.202
			c-0.114,0.069-0.227,0.141-0.342,0.211c-0.114,0.071-0.227,0.141-0.341,0.213c-0.114,0.073-0.227,0.148-0.341,0.222
			c-0.114,0.075-0.228,0.149-0.342,0.225c-0.114,0.076-0.228,0.154-0.341,0.231c-0.114,0.079-0.229,0.158-0.341,0.238
			c-0.114,0.08-0.229,0.162-0.342,0.243c-0.114,0.083-0.229,0.165-0.341,0.249c-0.114,0.085-0.228,0.17-0.342,0.256
			c-0.114,0.087-0.228,0.174-0.341,0.262c-0.115,0.089-0.228,0.179-0.341,0.27c-0.115,0.09-0.229,0.181-0.342,0.274
			c-0.115,0.095-0.228,0.189-0.341,0.284c-0.115,0.096-0.228,0.191-0.342,0.288c-0.115,0.099-0.228,0.199-0.342,0.299
			c-0.114,0.101-0.227,0.202-0.341,0.304c-0.115,0.104-0.227,0.21-0.342,0.315c-0.113,0.106-0.227,0.211-0.341,0.318
			c-0.114,0.111-0.227,0.222-0.341,0.335c-0.114,0.111-0.228,0.223-0.341,0.337c-0.115,0.116-0.229,0.233-0.342,0.35
			c-0.114,0.118-0.229,0.237-0.341,0.358c-0.114,0.121-0.229,0.243-0.341,0.367c-0.115,0.126-0.229,0.254-0.342,0.382
			c-0.114,0.128-0.229,0.257-0.341,0.388c-0.115,0.133-0.228,0.268-0.341,0.403c-0.116,0.137-0.229,0.276-0.341,0.415
			c-0.115,0.141-0.23,0.282-0.343,0.424c-0.115,0.147-0.228,0.297-0.341,0.445c-0.115,0.151-0.228,0.303-0.342,0.456
			c-0.114,0.155-0.229,0.311-0.341,0.468c-0.116,0.163-0.228,0.328-0.342,0.493c-0.115,0.168-0.228,0.337-0.341,0.507
			c-0.114,0.175-0.228,0.349-0.341,0.526c-0.115,0.181-0.229,0.363-0.341,0.546c-0.116,0.19-0.23,0.381-0.342,0.573
			c-0.115,0.198-0.229,0.398-0.341,0.598c-0.115,0.207-0.23,0.415-0.342,0.625c-0.115,0.217-0.23,0.436-0.341,0.656
			c-0.115,0.228-0.23,0.458-0.341,0.69c-0.116,0.242-0.232,0.487-0.342,0.733c-0.117,0.258-0.231,0.518-0.341,0.781
			c-0.117,0.277-0.231,0.557-0.342,0.839c-0.118,0.3-0.231,0.604-0.341,0.908c-0.118,0.329-0.232,0.66-0.342,0.993
			c-0.119,0.366-0.233,0.733-0.342,1.103c-0.12,0.416-0.234,0.833-0.341,1.254c-0.124,0.492-0.238,0.987-0.341,1.486
			c-0.479,2.325-0.732,4.733-0.732,7.2v46.391c0.238-0.205,0.483-0.409,0.732-0.61c0.113-0.091,0.227-0.182,0.341-0.272
			c0.114-0.089,0.227-0.178,0.341-0.266c0.115-0.087,0.227-0.174,0.342-0.26c0.113-0.083,0.227-0.167,0.342-0.25
			c0.113-0.083,0.227-0.165,0.341-0.247c0.114-0.08,0.226-0.16,0.342-0.239l0.341-0.235c0.112-0.076,0.227-0.151,0.342-0.227
			l0.341-0.223c0.113-0.073,0.227-0.146,0.341-0.218c0.113-0.071,0.228-0.141,0.342-0.211c0.112-0.07,0.227-0.14,0.341-0.209
			c0.113-0.067,0.227-0.136,0.342-0.203c0.113-0.066,0.227-0.132,0.341-0.197s0.227-0.13,0.341-0.194l0.341-0.19l0.342-0.184
			c0.114-0.062,0.227-0.122,0.341-0.183c0.114-0.059,0.228-0.117,0.342-0.176l0.341-0.173l0.343-0.169l0.341-0.166
			c0.113-0.055,0.226-0.11,0.341-0.164l0.341-0.157l0.342-0.156l0.341-0.151l0.341-0.15l0.342-0.146l0.341-0.142l0.341-0.14
			l0.341-0.136l0.342-0.135c0.114-0.044,0.227-0.086,0.341-0.13l0.342-0.129c0.113-0.042,0.227-0.083,0.342-0.124
			c0.113-0.043,0.226-0.084,0.341-0.125l0.342-0.119l0.341-0.119c0.112-0.039,0.227-0.077,0.341-0.114l0.342-0.115
			c0.112-0.037,0.227-0.073,0.341-0.11l0.342-0.108l0.341-0.106l0.341-0.104l0.342-0.101l0.341-0.1l0.341-0.097l0.342-0.095
			l0.341-0.094l0.342-0.091l0.341-0.089l0.342-0.087l0.341-0.086l0.342-0.083l0.341-0.082l0.341-0.08l0.342-0.079l0.341-0.075
			l0.342-0.075l0.341-0.073l0.341-0.07l0.341-0.071l0.342-0.067l0.341-0.066l0.342-0.065l0.342-0.063l0.341-0.062l0.342-0.06
			l0.341-0.059l0.341-0.057l0.342-0.056l0.341-0.055l0.342-0.052l0.341-0.052l0.341-0.049l0.342-0.049l0.341-0.049l0.341-0.045
			l0.342-0.045l0.341-0.043l0.342-0.042l0.341-0.042l0.342-0.039l0.342-0.038l0.341-0.039l0.341-0.035l0.341-0.035l0.342-0.034
			l0.341-0.032l0.342-0.032l0.341-0.031l0.341-0.028l0.342-0.029l0.341-0.026l0.341-0.026l0.342-0.027l0.342-0.023l0.341-0.022
			l0.342-0.023l0.341-0.021l0.342-0.018l0.341-0.02l0.341-0.017l0.342-0.017l0.341-0.017l0.342-0.014l0.341-0.014l0.341-0.014
			l0.341-0.012l0.342-0.01l0.341-0.012l0.342-0.008l0.341-0.009l0.342-0.008l0.342-0.006l0.34-0.006l0.342-0.005l0.341-0.004
			l0.342-0.004l0.341-0.002l0.341-0.002h0.342l0.341-0.001l0.341,0.001l0.342,0.002l0.341,0.001l0.342,0.003l0.341,0.005
			l0.342,0.005l0.342,0.004l0.341,0.008l0.341,0.006l0.342,0.007l0.341,0.009l0.342,0.009l0.341,0.01l0.341,0.01l0.342,0.012
			l0.34,0.011l0.342,0.012l0.342,0.015l0.341,0.014l0.342,0.013l0.167,0.008l0.174,0.009l0.342,0.016l0.342,0.018l0.34,0.018
			l0.342,0.021l0.341,0.02l0.342,0.024l0.341,0.022l0.341,0.025l0.342,0.025l0.342,0.028l0.34,0.027l0.342,0.029l0.341,0.031
			l0.342,0.03l0.341,0.032l0.342,0.032l0.342,0.035l0.342,0.034l0.34,0.037l0.342,0.036l0.341,0.037l0.342,0.038l0.341,0.04
			l0.341,0.039l0.342,0.042l0.34,0.042l0.342,0.042l0.342,0.045l0.341,0.043l0.342,0.046l0.341,0.046l0.342,0.046l0.342,0.048
			l0.34,0.048l0.342,0.048l0.342,0.05l0.341,0.051l0.341,0.051l0.341,0.053l0.342,0.052l0.342,0.053l0.34,0.055l0.342,0.055
			l0.341,0.056l0.342,0.055l0.341,0.058l0.342,0.058l0.342,0.057l0.342,0.06l0.34,0.06l0.342,0.06l0.341,0.061l0.342,0.062
			l0.341,0.063l0.341,0.063l0.342,0.063l0.34,0.064l0.342,0.066l0.342,0.066l0.341,0.066l0.342,0.067l0.341,0.068l0.342,0.069
			l0.342,0.069l0.34,0.07l0.342,0.07l0.342,0.072l0.341,0.071l0.341,0.073l0.341,0.073l0.342,0.075l0.342,0.075l0.34,0.075
			l0.342,0.077l0.341,0.077l0.342,0.078l0.341,0.079l0.342,0.08l0.342,0.081l0.342,0.083l0.338,0.083v15l-0.338-0.17l-0.342-0.17
			l-0.342-0.17l-0.342-0.167l-0.341-0.165l-0.342-0.164l-0.341-0.162l-0.342-0.161l-0.34-0.159l-0.342-0.157l-0.342-0.155
			l-0.341-0.153l-0.341-0.151l-0.341-0.152l-0.342-0.147l-0.342-0.146l-0.34-0.145l-0.342-0.142l-0.342-0.141l-0.341-0.138
			l-0.342-0.137l-0.341-0.135l-0.342-0.132l-0.342-0.132l-0.34-0.128l-0.342-0.127l-0.341-0.125l-0.341-0.123l-0.342-0.121
			l-0.341-0.119l-0.342-0.116l-0.34-0.116l-0.342-0.113l-0.342-0.111l-0.342-0.109l-0.341-0.107l-0.342-0.106l-0.341-0.102
			l-0.342-0.101l-0.34-0.099l-0.342-0.097L161.243,84l-0.341-0.093l-0.341-0.091l-0.341-0.089l-0.342-0.087l-0.342-0.086
			l-0.34-0.083l-0.342-0.082l-0.342-0.079l-0.341-0.077l-0.342-0.076l-0.341-0.074l-0.342-0.071l-0.342-0.07l-0.34-0.067
			l-0.342-0.067l-0.341-0.064l-0.341-0.062l-0.342-0.059l-0.341-0.06l-0.342-0.056l-0.34-0.055l-0.342-0.053l-0.342-0.05
			l-0.342-0.049l-0.341-0.047l-0.342-0.045l-0.341-0.044l-0.342-0.042l-0.34-0.04l-0.342-0.038l-0.342-0.037l-0.341-0.034
			l-0.341-0.034l-0.342-0.03l-0.341-0.03l-0.342-0.027l-0.207-0.016l-0.133-0.01l-0.342-0.022l-0.342-0.023l-0.341-0.019
			l-0.342-0.017l-0.341-0.016l-0.342-0.011l-0.342-0.011l-0.34-0.008l-0.342-0.004l-0.341-0.005c-0.115,0-0.227,0.001-0.341,0.002
			l-0.342,0.001l-0.341,0.004l-0.342,0.008l-0.341,0.009c-0.115,0.003-0.228,0.009-0.341,0.014
			c-0.114,0.004-0.229,0.008-0.342,0.013l-0.342,0.019l-0.341,0.021l-0.342,0.023l-0.341,0.027c-0.113,0.01-0.228,0.017-0.342,0.028
			s-0.227,0.024-0.341,0.034l-0.341,0.035l-0.342,0.04l-0.341,0.041l-0.341,0.046l-0.342,0.048l-0.341,0.051
			c-0.115,0.018-0.228,0.037-0.342,0.056c-0.113,0.019-0.228,0.037-0.341,0.057c-0.115,0.021-0.228,0.043-0.341,0.064
			c-0.114,0.021-0.229,0.041-0.342,0.064c-0.115,0.022-0.227,0.048-0.341,0.071c-0.114,0.024-0.228,0.048-0.342,0.072
			c-0.114,0.025-0.227,0.052-0.341,0.079l-0.342,0.08c-0.114,0.028-0.227,0.057-0.341,0.086c-0.114,0.029-0.228,0.058-0.341,0.088
			c-0.115,0.031-0.229,0.063-0.341,0.095l-0.342,0.098c-0.115,0.034-0.229,0.068-0.341,0.103c-0.114,0.035-0.229,0.07-0.342,0.106
			c-0.114,0.037-0.228,0.076-0.341,0.114c-0.114,0.037-0.229,0.075-0.341,0.115c-0.116,0.04-0.228,0.083-0.342,0.124
			s-0.229,0.082-0.341,0.125c-0.116,0.043-0.228,0.089-0.342,0.134c-0.114,0.045-0.228,0.09-0.341,0.136
			c-0.116,0.048-0.228,0.097-0.342,0.146c-0.114,0.049-0.228,0.097-0.342,0.148c-0.115,0.052-0.227,0.105-0.341,0.157
			c-0.114,0.054-0.228,0.107-0.341,0.161c-0.115,0.056-0.228,0.113-0.342,0.169c-0.114,0.058-0.227,0.117-0.341,0.176
			c-0.114,0.06-0.229,0.119-0.341,0.181c-0.115,0.063-0.229,0.128-0.342,0.191c-0.113,0.066-0.229,0.13-0.341,0.197
			c-0.115,0.067-0.229,0.136-0.342,0.206c-0.114,0.071-0.228,0.142-0.341,0.214c-0.115,0.073-0.23,0.146-0.341,0.22
			c-0.116,0.077-0.228,0.156-0.341,0.234c-0.116,0.08-0.23,0.161-0.342,0.242c-0.115,0.082-0.229,0.165-0.342,0.249
			c-0.115,0.087-0.228,0.175-0.341,0.265c-0.116,0.089-0.228,0.181-0.342,0.273c-0.114,0.094-0.229,0.187-0.341,0.283
			c-0.116,0.099-0.228,0.199-0.342,0.3c-0.115,0.104-0.228,0.208-0.341,0.314c-0.115,0.107-0.228,0.216-0.341,0.324
			c-0.115,0.113-0.23,0.225-0.342,0.341c-0.116,0.118-0.228,0.239-0.341,0.361c-0.116,0.124-0.23,0.251-0.341,0.377
			c-0.116,0.132-0.23,0.264-0.342,0.398c-0.115,0.138-0.23,0.277-0.341,0.418c-0.115,0.146-0.23,0.293-0.342,0.442
			c-0.115,0.155-0.23,0.31-0.341,0.469c-0.116,0.163-0.23,0.329-0.341,0.497c-0.116,0.176-0.231,0.353-0.342,0.533
			c-0.116,0.188-0.23,0.379-0.341,0.572c-0.118,0.203-0.231,0.408-0.342,0.616c-0.117,0.221-0.231,0.445-0.342,0.67
			c-0.117,0.241-0.231,0.484-0.341,0.731c-0.118,0.265-0.233,0.532-0.342,0.805c-0.119,0.301-0.232,0.608-0.341,0.917
			c-0.12,0.344-0.234,0.692-0.341,1.045c-0.123,0.411-0.237,0.828-0.341,1.252c-0.13,0.527-0.242,1.067-0.342,1.616
			c-0.147,0.815-0.261,1.651-0.341,2.51c-0.092,0.993-0.139,2.016-0.139,3.068c0,1.051,0.047,2.072,0.139,3.065
			c0.08,0.858,0.194,1.695,0.341,2.508c0.1,0.549,0.212,1.088,0.342,1.616c0.104,0.424,0.218,0.84,0.341,1.251
			c0.106,0.354,0.221,0.701,0.341,1.044c0.109,0.309,0.222,0.615,0.341,0.917c0.109,0.272,0.224,0.54,0.342,0.805
			c0.11,0.246,0.224,0.489,0.341,0.73c0.111,0.226,0.225,0.449,0.342,0.67c0.111,0.208,0.224,0.413,0.342,0.616
			c0.111,0.192,0.225,0.383,0.341,0.571c0.111,0.18,0.226,0.357,0.342,0.533c0.111,0.167,0.225,0.334,0.341,0.498
			c0.111,0.158,0.226,0.313,0.341,0.468c0.112,0.149,0.227,0.297,0.342,0.441c0.111,0.141,0.226,0.281,0.341,0.419
			c0.112,0.133,0.226,0.265,0.342,0.396c0.111,0.128,0.225,0.254,0.341,0.378c0.113,0.122,0.225,0.243,0.341,0.362
			c0.112,0.114,0.227,0.226,0.342,0.338c0.113,0.111,0.226,0.219,0.341,0.326c0.113,0.106,0.226,0.21,0.341,0.313
			c0.114,0.1,0.226,0.201,0.342,0.3c0.112,0.096,0.227,0.189,0.341,0.282c0.114,0.092,0.226,0.183,0.342,0.274
			c0.113,0.089,0.226,0.177,0.341,0.264c0.113,0.085,0.227,0.167,0.342,0.25c0.112,0.081,0.226,0.161,0.342,0.241
			c0.113,0.078,0.225,0.158,0.341,0.233c0.111,0.076,0.226,0.148,0.341,0.222c0.113,0.071,0.227,0.143,0.341,0.213
			c0.113,0.069,0.227,0.139,0.342,0.206c0.112,0.067,0.228,0.132,0.341,0.196c0.113,0.065,0.227,0.13,0.342,0.192
			c0.112,0.061,0.227,0.122,0.341,0.181c0.114,0.059,0.227,0.118,0.341,0.175s0.227,0.114,0.342,0.17
			c0.113,0.055,0.227,0.107,0.341,0.161c0.114,0.052,0.226,0.106,0.341,0.156c0.114,0.052,0.228,0.099,0.342,0.149
			c0.114,0.048,0.226,0.098,0.342,0.146c0.113,0.045,0.227,0.09,0.341,0.135c0.114,0.045,0.226,0.091,0.342,0.135
			c0.112,0.042,0.227,0.083,0.341,0.126c0.114,0.04,0.226,0.082,0.342,0.122c0.112,0.04,0.227,0.077,0.341,0.115
			c0.113,0.039,0.227,0.077,0.341,0.114c0.113,0.036,0.228,0.071,0.342,0.106c0.112,0.035,0.226,0.069,0.341,0.103
			c0.113,0.034,0.228,0.066,0.342,0.098c0.112,0.032,0.226,0.063,0.341,0.095c0.113,0.031,0.227,0.058,0.341,0.088
			c0.114,0.029,0.227,0.059,0.341,0.086l0.342,0.08c0.114,0.027,0.227,0.054,0.341,0.079c0.114,0.024,0.228,0.048,0.342,0.071
			c0.114,0.025,0.226,0.05,0.341,0.072c0.113,0.023,0.228,0.042,0.342,0.064c0.113,0.021,0.226,0.043,0.341,0.064
			c0.113,0.02,0.228,0.038,0.341,0.057c0.114,0.018,0.227,0.038,0.342,0.056c0.113,0.017,0.227,0.034,0.341,0.051l0.342,0.048
			l0.341,0.045l0.341,0.042l0.342,0.039l0.341,0.034c0.114,0.012,0.227,0.024,0.341,0.035c0.114,0.01,0.229,0.018,0.342,0.028
			l0.341,0.027l0.342,0.024l0.341,0.02l0.342,0.019c0.113,0.006,0.228,0.009,0.342,0.014c0.113,0.004,0.226,0.011,0.341,0.013
			l0.341,0.009l0.342,0.008l0.341,0.005l0.342,0.001c0.114,0.001,0.226,0.002,0.341,0.001l0.341-0.004l0.342-0.005l0.34-0.007
			l0.342-0.011l0.342-0.011l0.341-0.017l0.342-0.016l0.341-0.019l0.342-0.023l0.342-0.023l0.133-0.009l0.207-0.016l0.342-0.027
			l0.341-0.031l0.342-0.032l0.341-0.033l0.341-0.036l0.342-0.036l0.342-0.038l0.34-0.042l0.342-0.042l0.341-0.043l0.342-0.046
			l0.341-0.05l0.342-0.048l0.342-0.052l0.342-0.054l0.34-0.055l0.342-0.057l0.341-0.059l0.342-0.061l0.341-0.063l0.341-0.064
			l0.342-0.066l0.34-0.07l0.342-0.069l0.342-0.073l0.341-0.074l0.342-0.076l0.341-0.078l0.342-0.08l0.342-0.082l0.34-0.084
			l0.342-0.085l0.342-0.088l0.341-0.09l0.341-0.091l0.341-0.093l0.342-0.095l0.342-0.098l0.34-0.099l0.342-0.102l0.341-0.102
			l0.342-0.106l0.341-0.108l0.342-0.108l0.342-0.111l0.342-0.114l0.34-0.114l0.342-0.117l0.341-0.118l0.342-0.121l0.341-0.123
			l0.341-0.124l0.342-0.126l0.34-0.129l0.342-0.13l0.342-0.132l0.341-0.135l0.342-0.135l0.341-0.138l0.342-0.14l0.342-0.141
			l0.34-0.144l0.342-0.145l0.342-0.147l0.341-0.148l0.341-0.15l0.341-0.153l0.342-0.154l0.342-0.157l0.34-0.156l0.342-0.16
			l0.341-0.16l0.342-0.162l0.341-0.166l0.342-0.164l0.342-0.168l0.342-0.168l0.338-0.169v14.989l-0.338,0.084l-0.342,0.082
			l-0.342,0.081l-0.342,0.08l-0.341,0.079l-0.342,0.079l-0.341,0.077l-0.342,0.077l-0.34,0.075l-0.342,0.076l-0.342,0.073
			l-0.341,0.073l-0.341,0.073l-0.341,0.072l-0.342,0.071l-0.342,0.071l-0.34,0.07l-0.342,0.069l-0.342,0.068l-0.341,0.069
			l-0.342,0.066l-0.341,0.068l-0.342,0.066l-0.342,0.065l-0.34,0.064l-0.342,0.064l-0.341,0.063l-0.341,0.063l-0.342,0.061
			l-0.341,0.062l-0.342,0.061l-0.34,0.059l-0.342,0.06l-0.342,0.058l-0.342,0.058l-0.341,0.056l-0.342,0.057l-0.341,0.056
			l-0.342,0.055l-0.34,0.054l-0.342,0.054l-0.342,0.053l-0.341,0.051l-0.341,0.052l-0.341,0.051l-0.342,0.049l-0.342,0.05
			l-0.34,0.048l-0.342,0.047l-0.342,0.047l-0.341,0.046l-0.342,0.046l-0.341,0.044l-0.342,0.044l-0.342,0.042l-0.34,0.043
			l-0.342,0.041l-0.341,0.04l-0.341,0.039l-0.342,0.039l-0.341,0.037l-0.342,0.037l-0.34,0.037l-0.342,0.034l-0.342,0.034
			l-0.342,0.032l-0.341,0.033l-0.342,0.03l-0.341,0.03l-0.342,0.03l-0.34,0.027l-0.342,0.028l-0.342,0.025l-0.341,0.025
			l-0.341,0.024l-0.342,0.023l-0.341,0.021l-0.342,0.02l-0.34,0.018l-0.342,0.019l-0.342,0.017l-0.174,0.008l-0.167,0.008
			l-0.342,0.013l-0.341,0.015l-0.342,0.014l-0.342,0.012l-0.34,0.011l-0.342,0.013l-0.341,0.01l-0.341,0.009l-0.342,0.009
			l-0.341,0.009l-0.342,0.008l-0.341,0.006l-0.341,0.007l-0.342,0.005l-0.342,0.004l-0.341,0.005l-0.342,0.003l-0.341,0.001
			l-0.342,0.003l-0.341,0.001l-0.341-0.001h-0.342l-0.341-0.003l-0.341-0.002l-0.342-0.003l-0.341-0.004l-0.342-0.006l-0.34-0.005
			l-0.342-0.007l-0.342-0.008l-0.341-0.008l-0.342-0.009l-0.341-0.011l-0.342-0.011l-0.341-0.011l-0.341-0.014l-0.341-0.015
			l-0.342-0.013l-0.341-0.017l-0.342-0.018l-0.341-0.016l-0.341-0.02l-0.342-0.019l-0.341-0.019l-0.342-0.024l-0.341-0.022
			l-0.342-0.024l-0.342-0.025l-0.341-0.027l-0.341-0.026l-0.342-0.029l-0.341-0.028l-0.341-0.031l-0.342-0.033l-0.341-0.03
			l-0.342-0.034l-0.341-0.035l-0.341-0.035l-0.341-0.039l-0.342-0.039l-0.342-0.039l-0.341-0.042l-0.342-0.041l-0.341-0.044
			l-0.342-0.045l-0.341-0.045l-0.341-0.049l-0.342-0.048l-0.341-0.049l-0.341-0.053l-0.342-0.052l-0.341-0.055l-0.342-0.055
			l-0.341-0.057l-0.341-0.059l-0.342-0.059l-0.341-0.063l-0.342-0.063l-0.342-0.065l-0.341-0.065l-0.342-0.068l-0.341-0.07
			l-0.341-0.071l-0.341-0.073l-0.342-0.074l-0.341-0.076l-0.342-0.079l-0.341-0.079l-0.341-0.083l-0.342-0.083l-0.341-0.086
			l-0.342-0.085l-0.341-0.09l-0.342-0.091l-0.341-0.093l-0.342-0.095l-0.341-0.099l-0.341-0.099l-0.342-0.1l-0.341-0.105
			l-0.341-0.104l-0.342-0.11c-0.114-0.037-0.229-0.072-0.341-0.11c-0.115-0.038-0.228-0.075-0.342-0.113l-0.341-0.114l-0.341-0.12
			c-0.115-0.04-0.229-0.079-0.342-0.119c-0.115-0.041-0.228-0.083-0.341-0.124l-0.342-0.125c-0.115-0.043-0.227-0.086-0.342-0.129
			l-0.341-0.13l-0.342-0.135l-0.341-0.135l-0.341-0.141l-0.341-0.143l-0.342-0.145l-0.341-0.148l-0.341-0.151l-0.342-0.157
			l-0.341-0.158c-0.115-0.055-0.228-0.109-0.341-0.163l-0.341-0.165l-0.343-0.169l-0.341-0.174
			c-0.114-0.059-0.228-0.116-0.342-0.176c-0.114-0.061-0.227-0.121-0.341-0.181l-0.342-0.187l-0.341-0.188l-0.341-0.194
			c-0.114-0.066-0.228-0.131-0.341-0.197c-0.115-0.068-0.229-0.135-0.342-0.204l-0.341-0.208c-0.114-0.07-0.229-0.14-0.342-0.21
			c-0.114-0.073-0.228-0.146-0.341-0.219l-0.341-0.223c-0.115-0.075-0.23-0.151-0.342-0.228l-0.341-0.233
			c-0.116-0.08-0.228-0.16-0.342-0.24c-0.114-0.081-0.228-0.163-0.341-0.245c-0.115-0.085-0.229-0.167-0.342-0.251
			c-0.115-0.086-0.227-0.173-0.342-0.26c-0.114-0.087-0.227-0.176-0.341-0.266c-0.114-0.091-0.228-0.181-0.341-0.272
			c-0.249-0.201-0.494-0.404-0.732-0.61v81.814h0.732h0.341h0.341h0.342h0.342h0.341h0.342h0.341h0.342h0.341h0.341h0.342h0.341
			h0.342h0.341h0.341h0.341h0.342h0.341h0.342h0.341h0.343h0.341h0.341h0.341h0.342h0.341h0.341h0.342h0.341h0.341h0.341h0.342
			h0.341h0.342h0.342h0.341h0.342h0.341h0.341h0.342h0.341h0.342h0.341h0.341h0.342h0.341h0.341h0.342h0.341h0.342h0.341h0.342
			h0.341h0.342h0.341h0.341h0.342h0.341h0.342h0.341h0.341h0.341h0.342h0.341h0.342h0.342h0.341h0.342h0.341h0.341h0.342h0.341
			h0.342h0.341h0.341h0.342h0.341h0.341h0.342h0.341h0.342h0.341h0.342h0.342h0.341h0.341h0.341h0.342h0.341h0.342h0.341h0.341
			h0.342h0.341h0.341h0.342h0.342h0.341h0.342h0.341h0.342h0.341h0.341h0.342h0.341h0.342h0.341h0.341h0.341h0.342h0.341h0.342
			h0.341h0.342h0.342h0.34h0.342h0.341h0.342h0.341h0.341h0.342h0.341h0.341h0.342h0.341h0.342h0.341h0.342h0.342h0.341h0.341h0.342
			h0.341h0.342h0.341h0.341h0.342h0.34h0.342h0.342h0.341h0.342h0.341h0.342h0.342h0.34h0.342h0.341h0.342h0.022
			c0.107,0,0.213-0.003,0.319-0.004l0.341-0.005c0.114-0.002,0.229-0.003,0.342-0.006c0.114-0.003,0.228-0.009,0.342-0.013
			c0.113-0.004,0.227-0.007,0.34-0.012l0.342-0.019l0.341-0.022c0.115-0.006,0.229-0.013,0.342-0.022
			c0.115-0.008,0.227-0.02,0.341-0.028l0.342-0.032c0.114-0.011,0.228-0.021,0.342-0.032c0.114-0.013,0.227-0.026,0.342-0.04
			c0.112-0.012,0.226-0.024,0.34-0.04c0.114-0.013,0.228-0.028,0.342-0.045l0.341-0.047c0.114-0.016,0.228-0.032,0.342-0.049
			c0.113-0.018,0.227-0.038,0.341-0.057c0.113-0.018,0.228-0.035,0.341-0.056l0.342-0.061l0.34-0.066
			c0.115-0.022,0.229-0.042,0.342-0.066c0.115-0.023,0.228-0.049,0.342-0.074l0.341-0.074l0.342-0.079
			c0.114-0.027,0.227-0.054,0.341-0.083c0.114-0.028,0.228-0.054,0.342-0.083c0.114-0.031,0.227-0.062,0.342-0.093
			c0.113-0.03,0.227-0.06,0.34-0.093l0.342-0.097l0.342-0.101c0.113-0.034,0.227-0.067,0.341-0.102s0.227-0.075,0.341-0.111
			c0.113-0.037,0.228-0.073,0.341-0.111l0.342-0.117l0.342-0.12c0.113-0.042,0.227-0.081,0.34-0.123
			c0.115-0.043,0.228-0.086,0.342-0.13c0.114-0.043,0.229-0.085,0.341-0.13c0.115-0.044,0.228-0.092,0.342-0.138l0.341-0.14
			l0.342-0.144l0.342-0.149c0.113-0.051,0.228-0.1,0.342-0.152c0.114-0.051,0.226-0.106,0.34-0.16
			c0.114-0.053,0.228-0.105,0.342-0.159c0.114-0.055,0.227-0.112,0.341-0.169c0.114-0.057,0.228-0.112,0.342-0.17
			c0.113-0.058,0.227-0.117,0.341-0.177l0.341-0.179l0.342-0.186l0.34-0.191c0.115-0.064,0.229-0.128,0.342-0.194
			c0.115-0.066,0.228-0.134,0.342-0.202c0.114-0.067,0.229-0.134,0.341-0.203c0.116-0.069,0.228-0.141,0.342-0.213
			c0.113-0.072,0.228-0.141,0.341-0.213c0.115-0.074,0.228-0.15,0.342-0.225c0.114-0.075,0.228-0.149,0.342-0.225
			c0.114-0.077,0.227-0.156,0.34-0.236c0.114-0.079,0.228-0.156,0.342-0.235c0.114-0.081,0.227-0.166,0.342-0.248
			c0.113-0.083,0.228-0.165,0.341-0.25c0.115-0.085,0.227-0.173,0.341-0.259c0.114-0.088,0.229-0.173,0.341-0.261
			c0.115-0.09,0.229-0.183,0.342-0.274c0.114-0.092,0.229-0.183,0.342-0.275c0.114-0.094,0.227-0.191,0.34-0.287
			c0.115-0.097,0.229-0.191,0.342-0.289c0.116-0.1,0.228-0.203,0.341-0.303c0.115-0.101,0.23-0.202,0.342-0.306
			c0.116-0.104,0.227-0.211,0.341-0.318c0.115-0.107,0.229-0.214,0.342-0.323c0.115-0.111,0.228-0.221,0.342-0.333
			c0.115-0.114,0.228-0.228,0.342-0.342c0.114-0.117,0.227-0.233,0.34-0.35c0.115-0.12,0.228-0.242,0.342-0.364
			c0.113-0.122,0.228-0.244,0.341-0.368c0.115-0.128,0.228-0.257,0.341-0.386c0.116-0.13,0.229-0.26,0.342-0.393
			c0.114-0.134,0.229-0.268,0.341-0.404c0.115-0.139,0.229-0.28,0.342-0.421c0.114-0.142,0.229-0.284,0.342-0.429
			c0.113-0.149,0.228-0.296,0.34-0.446c0.115-0.153,0.229-0.308,0.342-0.462c0.115-0.159,0.229-0.317,0.341-0.476
			c0.116-0.163,0.23-0.327,0.342-0.492c0.115-0.171,0.228-0.344,0.341-0.517c0.116-0.176,0.229-0.353,0.342-0.532
			c0.115-0.184,0.229-0.368,0.342-0.553c0.115-0.192,0.229-0.383,0.34-0.577c0.116-0.201,0.229-0.403,0.342-0.607
			c0.116-0.212,0.229-0.422,0.342-0.637c0.115-0.22,0.229-0.442,0.341-0.667c0.116-0.233,0.23-0.467,0.341-0.704
			c0.116-0.248,0.23-0.495,0.341-0.746c0.117-0.265,0.231-0.53,0.342-0.799c0.117-0.283,0.231-0.568,0.342-0.856
			c0.117-0.308,0.231-0.619,0.34-0.931c0.12-0.337,0.234-0.676,0.342-1.018c0.121-0.378,0.233-0.758,0.341-1.14
			c0.123-0.437,0.235-0.878,0.342-1.321c0.126-0.526,0.239-1.056,0.341-1.592c0.135-0.703,0.25-1.412,0.342-2.128
			c0.191-1.489,0.289-3.006,0.289-4.546V0H133.398z"/>
	</defs>
	<clipPath id="SVGID_8_">
		<use xlink:href="#SVGID_7_"  overflow="visible"/>
	</clipPath>
	
		<linearGradient id="SVGID_9_" gradientUnits="userSpaceOnUse" x1="9.776674e-006" y1="212.605" x2="1" y2="212.605" gradientTransform="matrix(87.4011 0 0 87.4011 98.0311 -18475.6094)">
		<stop  offset="0" style="stop-color:#6E2B2F"/>
		<stop  offset="1" style="stop-color:#E30138"/>
	</linearGradient>
	<rect x="98.032" y="0" clip-path="url(#SVGID_8_)" fill="url(#SVGID_9_)" width="87.4" height="212.605"/>
</g>
</svg>
