<?xml version="1.0" encoding="utf-8"?>
<!DOCTYPE svg PUBLIC "-//W3C//DTD SVG 1.1//EN" "http://www.w3.org/Graphics/SVG/1.1/DTD/svg11.dtd">
<svg version="1.1" id="Layer_1" xmlns="http://www.w3.org/2000/svg" xmlns:xlink="http://www.w3.org/1999/xlink" x="0px" y="0px"
	 width="140px" height="100px" viewBox="0 0 140 100" enable-background="new 0 0 150 100" xml:space="preserve">
<g>
	<path fill="#E30D17" d="M55.667,53.833c0-11.826,5.525-22.355,14.126-29.169c-6.343-5.024-14.355-8.033-23.075-8.033
		c-20.546,0-37.202,16.656-37.202,37.202s16.656,37.202,37.202,37.202c8.72,0,16.733-3.008,23.075-8.033
		C61.191,76.188,55.667,65.659,55.667,53.833z"/>
	<path fill="#EB610A" d="M55.667,53.833c0,11.826,5.525,22.355,14.126,29.169c8.602-6.814,14.126-17.343,14.126-29.169
		s-5.525-22.355-14.126-29.169C61.191,31.478,55.667,42.007,55.667,53.833z"/>
	<path fill="#F69F00" d="M127.107,74.186v-1.269h-0.513v-0.349H128v0.349h-0.513v1.269H127.107z M129.826,74.186v-1.123
		l-0.364,0.968h-0.402l-0.364-0.966v1.12h-0.379v-1.618h0.544l0.402,1.037l0.4-1.037h0.544v1.618H129.826z"/>
	<path fill="#F69F00" d="M92.868,16.632c-8.72,0-16.733,3.008-23.075,8.033c8.602,6.814,14.126,17.343,14.126,29.169
		s-5.525,22.355-14.126,29.169c6.343,5.024,14.355,8.033,23.075,8.033c20.546,0,37.202-16.656,37.202-37.202
		S113.414,16.632,92.868,16.632z"/>
</g>
</svg>
