<?xml version="1.0" encoding="utf-8"?>
<!DOCTYPE svg PUBLIC "-//W3C//DTD SVG 1.1//EN" "http://www.w3.org/Graphics/SVG/1.1/DTD/svg11.dtd">
<svg version="1.1" id="Слой_1" xmlns="http://www.w3.org/2000/svg" xmlns:xlink="http://www.w3.org/1999/xlink" x="0px" y="0px"
	 width="255.527px" height="159.839px" viewBox="0 0 255.527 159.839" enable-background="new 0 0 255.527 159.839"
	 xml:space="preserve">
<g>
	<defs>
		<rect id="SVGID_1_" width="255.527" height="159.839"/>
	</defs>
	<clipPath id="SVGID_2_">
		<use xlink:href="#SVGID_1_"  overflow="visible"/>
	</clipPath>
	<path clip-path="url(#SVGID_2_)" fill="#E21836" d="M50.041,0h63.779c8.903,0,14.44,7.257,12.363,16.189L96.49,143.675
		c-2.096,8.901-11.01,16.164-19.919,16.164H12.799c-8.891,0-14.441-7.263-12.363-16.164L30.141,16.189
		C32.218,7.257,41.127,0,50.041,0"/>
	<path clip-path="url(#SVGID_2_)" fill="#00447C" d="M108.513,0h73.344c8.902,0,4.887,7.257,2.793,16.189l-29.688,127.486
		c-2.083,8.901-1.434,16.164-10.354,16.164H71.264c-8.919,0-14.44-7.263-12.344-16.164L88.607,16.189
		C90.715,7.257,99.605,0,108.513,0"/>
	<path clip-path="url(#SVGID_2_)" fill="#007B84" d="M178.948,0h63.778c8.915,0,14.452,7.257,12.359,16.189l-29.689,127.486
		c-2.095,8.901-11.015,16.164-19.929,16.164h-63.749c-8.92,0-14.453-7.263-12.364-16.164l29.694-127.486
		C161.125,7.257,170.027,0,178.948,0"/>
	<path clip-path="url(#SVGID_2_)" fill="#FEFEFE" d="M66.698,40.855c-6.558,0.067-8.495,0-9.114-0.146
		c-0.238,1.13-4.664,21.546-4.676,21.563c-0.953,4.13-1.646,7.075-4.001,8.976c-1.337,1.106-2.898,1.639-4.708,1.639
		c-2.908,0-4.603-1.445-4.887-4.184l-0.055-0.94c0,0,0.887-5.533,0.887-5.564c0,0,4.645-18.605,5.476-21.064
		c0.044-0.14,0.056-0.213,0.067-0.28c-9.042,0.079-10.644,0-10.754-0.146c-0.061,0.201-0.285,1.354-0.285,1.354l-4.743,20.969
		l-0.407,1.779l-0.788,5.817c0,1.726,0.339,3.134,1.013,4.325c2.161,3.776,8.325,4.341,11.812,4.341
		c4.492,0,8.707-0.954,11.555-2.697c4.943-2.921,6.237-7.487,7.39-11.544l0.535-2.081c0,0,4.785-19.324,5.598-21.837
		C66.644,40.995,66.656,40.922,66.698,40.855 M82.978,56.443c-1.153,0-3.261,0.28-5.154,1.208c-0.687,0.353-1.337,0.76-2.023,1.166
		l0.619-2.234l-0.339-0.376c-4.015,0.813-4.914,0.922-8.623,1.444l-0.311,0.207c-0.431,3.571-0.813,6.255-2.409,13.274
		c-0.608,2.587-1.239,5.199-1.872,7.779l0.171,0.328c3.801-0.2,4.954-0.2,8.258-0.146l0.267-0.291
		c0.42-2.15,0.474-2.654,1.404-7.008c0.437-2.064,1.347-6.6,1.797-8.215c0.825-0.383,1.64-0.759,2.417-0.759
		c1.852,0,1.626,1.615,1.555,2.259c-0.08,1.08-0.754,4.609-1.446,7.639l-0.462,1.955c-0.322,1.445-0.674,2.848-0.996,4.28
		l0.14,0.286c3.746-0.2,4.889-0.2,8.088-0.146l0.377-0.291c0.578-3.358,0.747-4.256,1.773-9.145l0.516-2.246
		c1.003-4.397,1.506-6.626,0.748-8.442C86.671,56.935,84.746,56.443,82.978,56.443 M101.166,61.046
		c-1.992,0.382-3.262,0.638-4.524,0.802c-1.251,0.201-2.472,0.382-4.396,0.65l-0.153,0.138l-0.139,0.111
		c-0.201,1.433-0.341,2.672-0.607,4.128c-0.225,1.507-0.572,3.219-1.136,5.678c-0.437,1.883-0.663,2.538-0.911,3.2
		c-0.243,0.663-0.51,1.307-1.001,3.158l0.115,0.171l0.096,0.157c1.799-0.086,2.975-0.146,4.185-0.157
		c1.208-0.043,2.459,0,4.396,0.011l0.17-0.138l0.181-0.153c0.28-1.67,0.322-2.119,0.494-2.933c0.169-0.874,0.461-2.083,1.178-5.314
		c0.339-1.517,0.717-3.03,1.068-4.578c0.365-1.542,0.747-3.061,1.111-4.578l-0.054-0.184L101.166,61.046z M101.208,54.84
		c-1.81-1.068-4.985-0.729-7.123,0.746c-2.131,1.446-2.374,3.498-0.57,4.58c1.778,1.038,4.966,0.729,7.085-0.759
		C102.727,57.93,102.993,55.897,101.208,54.84 M112.151,79.574c3.661,0,7.414-1.009,10.239-4.003
		c2.173-2.428,3.17-6.041,3.514-7.529c1.124-4.931,0.249-7.233-0.85-8.636c-1.669-2.137-4.62-2.823-7.681-2.823
		c-1.84,0-6.224,0.182-9.649,3.339c-2.459,2.278-3.596,5.369-4.281,8.331c-0.692,3.019-1.488,8.454,3.51,10.476
		C108.495,79.392,110.718,79.574,112.151,79.574 M111.865,68.479c0.844-3.734,1.841-6.868,4.384-6.868
		c1.993,0,2.138,2.331,1.251,6.078c-0.158,0.832-0.885,3.924-1.87,5.241c-0.687,0.971-1.5,1.56-2.398,1.56
		c-0.268,0-1.858,0-1.883-2.361C111.337,70.963,111.575,69.772,111.865,68.479 M135.057,79.093l0.285-0.29
		c0.406-2.15,0.472-2.656,1.371-7.008c0.449-2.065,1.379-6.601,1.816-8.216c0.827-0.384,1.627-0.76,2.43-0.76
		c1.839,0,1.615,1.615,1.542,2.259c-0.067,1.082-0.741,4.609-1.446,7.639l-0.437,1.955c-0.334,1.446-0.698,2.848-1.019,4.282
		l0.139,0.286c3.759-0.201,4.859-0.201,8.076-0.147l0.389-0.29c0.565-3.36,0.717-4.258,1.774-9.146l0.503-2.247
		c1.007-4.397,1.518-6.624,0.772-8.44c-0.826-2.035-2.763-2.526-4.506-2.526c-1.154,0-3.273,0.278-5.156,1.207
		c-0.673,0.353-1.348,0.759-2.01,1.166l0.576-2.234l-0.308-0.377c-4.015,0.815-4.932,0.923-8.636,1.445l-0.284,0.207
		c-0.45,3.571-0.816,6.254-2.412,13.275c-0.608,2.586-1.239,5.198-1.87,7.779l0.169,0.328
		C130.623,79.039,131.759,79.039,135.057,79.093 M162.674,79.239c0.236-1.154,1.639-7.99,1.652-7.99c0,0,1.195-5.017,1.269-5.199
		c0,0,0.376-0.522,0.752-0.729h0.553c5.222,0,11.119,0,15.741-3.4c3.144-2.332,5.294-5.775,6.253-9.96
		c0.249-1.026,0.432-2.246,0.432-3.466c0-1.603-0.321-3.189-1.251-4.428c-2.357-3.297-7.05-3.358-12.468-3.382
		c-0.017,0-2.671,0.024-2.671,0.024c-6.934,0.086-9.715,0.061-10.858-0.079c-0.097,0.505-0.278,1.404-0.278,1.404
		s-2.485,11.513-2.485,11.531c0,0-5.944,24.478-6.224,25.632C159.146,79.124,161.629,79.124,162.674,79.239 M167.276,58.787
		c0,0,2.642-11.49,2.629-11.446l0.086-0.589l0.037-0.449l1.056,0.108c0,0,5.447,0.468,5.574,0.481
		c2.151,0.831,3.036,2.975,2.417,5.774c-0.563,2.557-2.223,4.707-4.353,5.745c-1.756,0.88-3.906,0.953-6.121,0.953h-1.433
		L167.276,58.787z M183.722,68.691c-0.699,2.976-1.501,8.411,3.472,10.348c1.585,0.674,3.006,0.875,4.45,0.802
		c1.526-0.083,2.939-0.847,4.248-1.948c-0.119,0.452-0.237,0.905-0.355,1.358l0.226,0.291c3.577-0.15,4.687-0.15,8.562-0.121
		l0.352-0.267c0.565-3.327,1.098-6.557,2.569-12.922c0.717-3.048,1.432-6.067,2.167-9.103l-0.115-0.335
		c-4.001,0.742-5.07,0.901-8.92,1.446l-0.292,0.238c-0.039,0.31-0.079,0.606-0.116,0.903c-0.599-0.966-1.466-1.792-2.805-2.307
		c-1.712-0.673-5.731,0.195-9.187,3.341C185.55,62.662,184.384,65.74,183.722,68.691 M192.125,68.874
		c0.856-3.667,1.841-6.77,4.391-6.77c1.611,0,2.46,1.487,2.288,4.024c-0.137,0.633-0.285,1.3-0.46,2.054
		c-0.255,1.089-0.533,2.17-0.801,3.252c-0.274,0.74-0.593,1.438-0.942,1.902c-0.657,0.93-2.217,1.507-3.116,1.507
		c-0.255,0-1.828,0-1.882-2.32C191.591,71.369,191.828,70.179,192.125,68.874 M236.011,56.765l-0.31-0.353
		c-3.959,0.802-4.676,0.93-8.313,1.421L227.12,58.1c-0.012,0.044-0.023,0.11-0.042,0.171l-0.012-0.061
		c-2.708,6.248-2.629,4.901-4.834,9.819c-0.011-0.224-0.011-0.363-0.024-0.601l-0.552-10.663l-0.346-0.353
		c-4.148,0.802-4.246,0.93-8.077,1.421l-0.297,0.267c-0.042,0.128-0.042,0.268-0.068,0.42l0.026,0.054
		c0.478,2.447,0.363,1.902,0.843,5.763c0.224,1.895,0.523,3.801,0.746,5.673c0.378,3.132,0.589,4.674,1.051,9.454
		c-2.587,4.269-3.199,5.884-5.689,9.631l0.016,0.037l-1.753,2.774c-0.2,0.292-0.382,0.492-0.637,0.578
		c-0.28,0.139-0.644,0.163-1.149,0.163h-0.971l-1.445,4.804l4.954,0.086c2.909-0.013,4.738-1.373,5.721-3.202l3.115-5.338h-0.049
		l0.328-0.376C220.07,84.11,236.011,56.765,236.011,56.765 M183.721,119.852h-2.102l7.779-25.728h2.58l0.82-2.652l0.079,2.948
		c-0.096,1.822,1.337,3.437,5.102,3.169h4.355l1.498-4.954h-1.639c-0.941,0-1.379-0.237-1.324-0.747l-0.079-2.999h-8.063v0.016
		c-2.608,0.054-10.393,0.25-11.969,0.67c-1.907,0.491-3.917,1.936-3.917,1.936l0.789-2.653h-7.542l-1.572,5.266l-7.883,26.122h-1.53
		l-1.5,4.919h15.023l-0.503,1.639h7.402l0.492-1.639h2.077L183.721,119.852z M177.558,99.351c-1.208,0.334-3.456,1.348-3.456,1.348
		l1.999-6.575h5.993l-1.447,4.791C180.647,98.915,178.796,99.023,177.558,99.351 M177.672,108.746c0,0-1.882,0.236-3.121,0.515
		c-1.221,0.37-3.509,1.536-3.509,1.536l2.064-6.842h6.025L177.672,108.746z M174.314,119.914h-6.011l1.743-5.776h5.992
		L174.314,119.914z M188.791,103.955h8.665l-1.245,4.032h-8.779l-1.319,4.408h7.683l-5.818,8.191
		c-0.407,0.602-0.772,0.815-1.178,0.984c-0.407,0.207-0.942,0.45-1.561,0.45h-2.131l-1.464,4.828h5.574
		c2.898,0,4.609-1.318,5.873-3.049l3.989-5.459l0.856,5.543c0.183,1.039,0.929,1.647,1.434,1.883
		c0.558,0.279,1.135,0.76,1.949,0.832c0.874,0.037,1.505,0.067,1.925,0.067h2.739l1.645-5.404h-1.08
		c-0.621,0-1.689-0.104-1.87-0.299c-0.183-0.236-0.183-0.599-0.281-1.153l-0.869-5.556h-3.558l1.561-1.858h8.763l1.348-4.408h-8.114
		l1.264-4.032h8.089l1.5-4.974h-24.114L188.791,103.955z M115.606,121.036l2.022-6.728h8.312l1.519-5.004h-8.319l1.27-4.141h8.13
		l1.506-4.846h-20.343l-1.475,4.846h4.622l-1.233,4.141h-4.634l-1.536,5.089h4.62l-2.695,8.901c-0.364,1.179,0.17,1.628,0.509,2.175
		c0.347,0.533,0.699,0.887,1.488,1.087c0.815,0.182,1.373,0.291,2.131,0.291h9.371l1.67-5.544l-4.154,0.571
		C117.585,121.874,115.363,121.778,115.606,121.036 M116.56,88.828l-2.107,3.806c-0.451,0.832-0.857,1.349-1.222,1.586
		c-0.322,0.2-0.959,0.284-1.882,0.284h-1.1l-1.469,4.871h3.651c1.755,0,3.102-0.643,3.746-0.965c0.692-0.37,0.874-0.159,1.408-0.675
		l1.233-1.068h11.398l1.512-5.071h-8.343l1.457-2.768H116.56z M133.387,121.134c-0.195-0.28-0.055-0.773,0.242-1.799l3.115-10.311
		h11.082c1.615-0.024,2.781-0.042,3.54-0.097c0.815-0.085,1.701-0.376,2.666-0.898c0.997-0.547,1.507-1.124,1.938-1.786
		c0.48-0.66,1.251-2.107,1.913-4.336l3.916-13.049l-11.5,0.067c0,0-3.542,0.523-5.101,1.099c-1.573,0.643-3.821,2.44-3.821,2.44
		l1.038-3.576h-7.104l-9.946,32.986c-0.353,1.281-0.589,2.21-0.644,2.768c-0.018,0.602,0.759,1.197,1.262,1.647
		c0.596,0.449,1.476,0.376,2.32,0.449c0.887,0.067,2.15,0.109,3.892,0.109h5.46l1.676-5.659l-4.888,0.462
		C133.921,121.65,133.543,121.37,133.387,121.134 M138.754,102.059h11.64l-0.739,2.319c-0.104,0.055-0.353-0.114-1.538,0.026
		h-10.079L138.754,102.059z M141.086,94.281h11.738l-0.844,2.793c0,0-5.533-0.054-6.419,0.109c-3.898,0.675-6.175,2.758-6.175,2.758
		L141.086,94.281z M149.915,112.146c-0.096,0.347-0.248,0.558-0.461,0.717c-0.236,0.152-0.619,0.206-1.189,0.206h-1.66l0.099-2.824
		h-6.899l-0.281,13.808c-0.01,0.997,0.086,1.573,0.815,2.035c0.729,0.578,2.975,0.651,5.999,0.651h4.323l1.562-5.169l-3.764,0.206
		l-1.252,0.073c-0.171-0.073-0.334-0.14-0.516-0.321c-0.159-0.157-0.425-0.061-0.382-1.058l0.029-3.539l3.947-0.164
		c2.132,0,3.042-0.693,3.819-1.353c0.743-0.633,0.985-1.361,1.265-2.345l0.662-3.134h-5.424L149.915,112.146z"/>
</g>
</svg>
