<?xml version="1.0" encoding="utf-8"?>
<!-- Generator: Adobe Illustrator 17.0.0, SVG Export Plug-In . SVG Version: 6.00 Build 0)  -->
<!DOCTYPE svg PUBLIC "-//W3C//DTD SVG 1.1//EN" "http://www.w3.org/Graphics/SVG/1.1/DTD/svg11.dtd">
<svg version="1.1" id="Слой_1" xmlns="http://www.w3.org/2000/svg" xmlns:xlink="http://www.w3.org/1999/xlink" x="0px" y="0px"
	 width="1000.05px" height="323.653px" viewBox="0 0 1000.05 323.653" enable-background="new 0 0 1000.05 323.653"
	 xml:space="preserve">
<polygon fill="#c7c7c7" points="433.352,318.984 352.341,318.984 403.011,5.679 484.018,5.679 "/>
<g>
	<defs>
		<rect id="SVGID_1_" width="1000.047" height="323.653"/>
	</defs>
	<clipPath id="SVGID_2_">
		<use xlink:href="#SVGID_1_"  overflow="visible"/>
	</clipPath>
	<path clip-path="url(#SVGID_2_)" fill="#c7c7c7" d="M727.023,13.339C711.044,7,685.7,0.001,654.363,0.001
		c-80.001,0-136.337,42.66-136.683,103.651c-0.664,45,40.335,69.994,70.999,84.999c31.343,15.332,41.996,25.338,41.996,39.005
		c-0.318,20.99-25.326,30.664-48.649,30.664c-32.343,0-49.673-4.988-76.01-16.666l-10.667-5.005l-11.336,70.33
		c19,8.656,54.005,16.338,90.349,16.674c85.002,0,140.342-42,140.997-106.997c0.323-35.665-21.326-62.993-68-85.325
		c-28.334-14.335-45.687-24.001-45.687-38.669c0.332-13.334,14.677-26.992,46.662-26.992c26.335-0.669,45.686,5.662,60.344,11.997
		l7.327,3.326L727.023,13.339z"/>
	<path clip-path="url(#SVGID_2_)" fill="#c7c7c7" d="M834.693,207.991c6.672-17.999,32.344-87.66,32.344-87.66
		c-0.337,0.669,6.658-18.332,10.658-29.996l5.661,26.996c0,0,15.342,74.995,18.673,90.66H834.693z M934.691,5.679h-62.662
		c-19.323,0-34.004,5.661-42.342,25.995L709.356,318.979h85.002c0,0,13.995-38.669,17.003-46.997h104.011
		c2.326,10.999,9.666,46.997,9.666,46.997h75.008L934.691,5.679z"/>
	<path clip-path="url(#SVGID_2_)" fill="#c7c7c7" d="M284.678,5.679l-79.336,213.644l-8.669-43.33
		C182.005,125.996,136.004,71.677,84.67,44.667l72.669,273.985h85.667L370.34,5.679H284.678z"/>
	<path clip-path="url(#SVGID_2_)" fill="#e7e7e7" d="M131.672,5.679H1.334L0,12.009c101.672,26,169.007,88.671,196.673,163.997
		L168.339,32.015C163.674,12.005,149.339,6.339,131.672,5.679"/>
</g>
</svg>
