<?xml version="1.0" standalone="no"?>
<!DOCTYPE svg PUBLIC "-//W3C//DTD SVG 20010904//EN"
 "http://www.w3.org/TR/2001/REC-SVG-20010904/DTD/svg10.dtd">
<svg version="1.0" xmlns="http://www.w3.org/2000/svg"
 width="700.000000pt" height="700.000000pt" viewBox="0 0 700.000000 700.000000"
 preserveAspectRatio="xMidYMid meet">
<metadata>
Created by potrace 1.11, written by Peter Selinger 2001-2013
</metadata>
<g transform="translate(0.000000,700.000000) scale(0.100000,-0.100000)"
fill="#000000" stroke="none">
<path d="M3617 6863 c-19 -19 -78 -19 -312 2 -11 0 -29 -3 -40 -9 -25 -13 -22
-12 -135 -20 -52 -3 -106 -8 -120 -10 -39 -7 -125 -16 -224 -22 -58 -4 -97
-12 -108 -21 -10 -9 -31 -13 -54 -11 -31 2 -43 10 -62 38 l-23 35 -137 0 c-96
0 -145 -4 -165 -13 -29 -15 -39 -16 -157 -27 -41 -4 -85 -11 -97 -16 -13 -5
-23 -6 -23 -3 0 2 -12 -1 -27 -9 -18 -8 -61 -12 -121 -11 -77 1 -97 -2 -116
-17 -41 -32 -75 -41 -92 -24 -13 12 -20 13 -47 2 -35 -14 -79 -88 -86 -142 -1
-16 -9 -41 -16 -55 -7 -14 -16 -42 -19 -64 -3 -21 -10 -44 -14 -50 -26 -42
-97 -127 -118 -141 -27 -17 -60 -84 -72 -144 -11 -58 -8 -189 5 -202 7 -7 26
-13 43 -14 35 -3 64 -33 49 -51 -11 -14 -2 -40 25 -72 26 -29 35 -68 24 -106
-13 -51 3 -170 32 -232 24 -49 25 -61 5 -80 -16 -17 -18 -62 -6 -156 4 -36 3
-59 -3 -61 -6 -2 -3 -29 8 -70 10 -37 15 -75 11 -84 -4 -10 -9 -38 -10 -63 -7
-89 -17 -131 -31 -137 -8 -3 -14 -19 -14 -39 0 -40 -15 -45 -24 -9 -7 29 -27
25 -21 -4 2 -11 -7 -32 -20 -47 -23 -27 -24 -27 -49 -10 -14 9 -26 21 -26 27
0 18 -41 70 -53 66 -5 -1 -11 -11 -13 -21 -1 -10 -14 -35 -28 -57 -14 -21 -26
-45 -26 -54 0 -8 -17 -23 -38 -34 -46 -24 -83 -61 -59 -61 11 0 14 -6 10 -22
-8 -32 -29 -54 -66 -69 -36 -15 -116 -71 -164 -117 -23 -21 -33 -39 -33 -60 0
-16 -7 -35 -16 -43 -33 -27 -41 -69 -27 -139 14 -64 16 -68 99 -156 12 -12 31
-38 43 -58 13 -20 33 -39 46 -42 13 -3 47 -29 74 -57 82 -83 108 -107 148
-136 42 -30 141 -81 158 -81 6 0 36 -24 66 -52 51 -48 57 -58 64 -108 5 -30 8
-86 7 -124 -2 -38 2 -74 8 -81 6 -8 9 -31 6 -52 -4 -28 -1 -44 13 -62 l19 -24
13 24 c7 13 14 35 16 48 3 34 11 38 44 18 39 -22 76 -22 88 1 5 9 12 46 15 82
4 35 10 68 14 72 9 9 32 -9 66 -54 16 -21 34 -38 41 -38 13 0 32 -39 37 -75 1
-11 -4 -41 -11 -67 -10 -35 -12 -93 -8 -225 3 -98 8 -186 12 -196 5 -13 -1
-27 -21 -48 -57 -60 -100 -22 -106 94 -2 53 -6 67 -18 67 -9 0 -20 4 -26 9 -5
6 -26 12 -46 14 -55 6 -68 22 -68 78 0 36 4 49 15 49 15 0 38 33 29 42 -2 3 2
11 11 18 19 16 19 38 1 82 -21 50 -41 64 -62 44 -18 -19 -23 -73 -14 -147 5
-41 3 -52 -10 -59 -9 -5 -27 -30 -41 -56 -22 -44 -24 -59 -23 -183 0 -131 12
-362 19 -369 5 -5 45 64 45 79 0 12 2 12 9 0 7 -11 15 -9 40 10 27 20 33 21
41 9 5 -8 10 -22 11 -30 0 -8 2 -24 5 -35 7 -35 6 -142 -1 -165 -6 -20 -11
-21 -55 -15 -46 6 -48 6 -55 -22 -4 -15 -9 -42 -11 -60 -3 -34 -30 -83 -45
-83 -18 0 -8 -50 14 -76 27 -31 57 -28 57 5 0 27 15 34 34 15 20 -20 20 -68
-1 -151 -13 -52 -14 -70 -4 -85 6 -10 9 -23 6 -28 -4 -6 -2 -10 4 -10 15 0 32
-97 37 -220 2 -63 7 -135 9 -159 3 -24 1 -49 -4 -55 -5 -6 -14 -28 -19 -49 -8
-29 -7 -40 3 -51 8 -8 16 -25 19 -39 2 -14 9 -34 15 -46 16 -30 52 -13 75 35
11 21 25 43 33 47 10 6 8 15 -10 42 -12 19 -28 35 -35 35 -21 0 -29 40 -19 89
11 54 23 72 42 64 8 -2 26 7 39 22 l26 27 11 -28 c13 -34 16 -50 23 -123 9
-83 27 -130 59 -157 23 -19 32 -22 43 -13 10 8 11 16 4 29 -6 10 -10 38 -10
62 1 34 3 39 11 25 19 -33 29 -17 29 47 0 48 -5 69 -20 89 -38 48 -23 67 55
67 50 0 75 -19 75 -57 0 -15 7 -34 16 -44 20 -22 25 -151 8 -200 -11 -32 -9
-43 17 -110 16 -41 35 -78 42 -84 20 -15 25 -36 16 -67 -4 -16 -3 -30 2 -33
27 -17 -27 -95 -65 -95 -9 0 -26 -16 -38 -36 -12 -20 -34 -41 -48 -48 -23 -9
-26 -15 -19 -34 8 -22 13 -23 52 -16 83 15 81 16 80 -56 -1 -36 3 -70 8 -76 5
-6 10 -35 12 -65 2 -52 1 -53 -30 -62 -26 -8 -32 -15 -31 -34 4 -42 22 -46 80
-20 29 14 56 23 61 20 11 -7 8 -51 -4 -55 -6 -2 4 -18 22 -36 23 -23 41 -32
59 -30 21 3 26 9 31 46 4 32 14 50 43 77 21 19 35 38 32 43 -3 6 1 15 9 22 18
15 3 54 -33 88 -15 15 -26 38 -29 60 -2 20 -8 53 -13 72 -13 47 -12 86 2 110
10 16 8 32 -10 90 -24 74 -23 96 6 81 10 -5 29 -7 43 -4 40 7 53 -35 46 -147
-4 -50 -3 -90 1 -91 59 -6 91 -26 98 -64 3 -19 10 -35 14 -35 5 0 11 -13 15
-29 6 -28 28 -46 45 -36 4 2 1 31 -6 62 -21 86 -24 104 -31 148 -8 55 -6 106
6 118 6 6 7 -3 5 -25 -4 -26 0 -39 16 -53 25 -22 36 -14 55 41 9 25 10 43 4
51 -6 6 -12 23 -15 38 -3 15 -15 40 -27 56 -14 20 -18 32 -11 37 27 17 32 83
19 242 -4 52 -12 101 -18 108 -13 16 -16 131 -5 196 14 78 14 88 6 130 -5 23
-5 43 1 50 14 17 3 136 -15 163 -8 13 -12 23 -9 23 4 0 -3 14 -16 31 -19 27
-21 39 -15 102 3 40 9 85 12 101 2 15 -1 34 -7 42 -11 14 -8 93 6 166 4 19 0
30 -12 37 -15 8 -18 24 -18 103 0 51 -3 98 -7 103 -9 14 8 98 26 134 9 16 18
45 20 64 10 80 37 93 116 56 32 -15 68 -22 125 -23 66 -2 92 -8 148 -34 37
-17 67 -36 67 -41 0 -6 11 -11 24 -11 40 0 38 -16 -3 -29 -21 -6 -46 -11 -55
-11 -9 0 -16 -7 -16 -15 0 -18 156 -148 183 -152 12 -2 37 -16 56 -31 19 -15
50 -36 67 -47 95 -59 204 -138 204 -149 0 -19 38 -37 93 -43 55 -7 72 -20 81
-64 3 -17 17 -32 39 -42 19 -9 40 -23 47 -32 7 -8 19 -15 26 -15 8 0 14 -4 14
-8 0 -17 82 -92 100 -92 11 0 24 -8 29 -18 6 -11 31 -34 56 -53 25 -19 77 -58
116 -87 38 -29 69 -51 69 -47 0 15 58 -27 64 -47 3 -13 32 -41 66 -63 164
-110 187 -119 216 -90 14 13 13 18 -6 45 -15 21 -17 30 -8 31 38 2 80 7 84 11
11 11 -10 36 -50 62 -61 39 -120 101 -113 120 10 26 42 18 96 -24 80 -64 131
-45 54 19 -63 53 -112 105 -107 113 3 4 20 8 39 8 18 0 35 6 38 13 3 9 9 9 24
0 22 -12 48 -2 48 19 0 9 17 14 48 15 69 2 77 7 77 48 0 19 5 35 10 35 6 0 10
6 10 13 0 7 5 18 11 24 14 14 61 -9 86 -41 10 -12 26 -25 36 -29 10 -4 23 -19
29 -35 7 -16 26 -34 50 -46 64 -30 38 -54 -33 -30 -34 11 -36 11 -32 -10 3
-16 -3 -24 -28 -35 -18 -8 -60 -41 -93 -73 l-61 -59 47 -45 c51 -48 51 -48 32
-144 -2 -14 -5 -49 -6 -79 0 -45 3 -58 21 -72 19 -15 19 -19 6 -32 -13 -13
-10 -18 24 -40 35 -23 91 -101 91 -126 0 -43 -104 44 -115 97 -5 23 -12 32
-27 32 -18 0 -19 2 -7 16 11 14 11 18 -2 28 -9 6 -23 23 -33 37 -15 24 -22 26
-59 22 -71 -9 -75 -17 -26 -53 24 -18 56 -37 72 -42 21 -8 30 -20 38 -53 14
-54 39 -82 81 -90 39 -8 61 -22 77 -52 6 -13 18 -23 26 -23 8 0 15 -6 15 -13
0 -14 -37 -52 -57 -58 -10 -3 -9 -10 2 -29 7 -14 21 -40 29 -57 8 -18 22 -33
30 -33 8 0 24 -16 36 -36 42 -66 100 -83 100 -29 0 25 1 26 22 10 13 -8 24
-20 24 -25 1 -6 2 -13 3 -16 0 -3 17 3 37 15 41 25 65 17 86 -27 9 -19 31 -34
74 -52 67 -28 70 -30 155 -112 46 -46 65 -58 89 -58 30 0 31 2 25 29 -5 24 -2
30 14 36 11 3 30 1 41 -5 28 -15 48 -7 60 25 5 14 16 25 25 25 22 0 19 11 -14
55 -28 37 -28 39 -10 54 18 16 18 18 -1 91 -23 90 -24 109 -4 135 13 18 17 19
41 5 15 -8 30 -29 35 -45 5 -20 22 -39 52 -57 35 -21 47 -35 58 -69 7 -24 21
-52 30 -61 10 -10 18 -31 18 -47 0 -21 8 -36 29 -50 26 -19 32 -20 67 -7 24 8
44 23 52 39 13 28 38 38 82 34 19 -1 26 3 28 20 6 45 44 34 138 -38 28 -21 58
-39 68 -39 20 0 32 26 18 43 -5 6 -12 29 -16 50 -4 20 -11 37 -16 37 -6 0 -10
6 -10 13 0 8 -20 40 -45 73 -24 32 -45 63 -45 68 0 5 -7 18 -17 28 -15 17 -14
21 15 67 l30 49 -116 99 c-64 54 -123 105 -132 113 -23 21 -127 109 -180 152
-25 20 -59 56 -75 79 -16 24 -41 58 -54 76 -24 30 -26 31 -38 13 -18 -25 -32
-19 -123 52 -41 32 -126 92 -189 133 -63 41 -119 84 -125 96 -11 21 -27 32
-109 70 -26 13 -64 42 -83 66 -19 24 -42 43 -50 43 -8 0 -38 22 -67 50 -28 27
-57 50 -64 50 -6 0 -37 29 -70 66 -32 36 -80 79 -108 97 -27 18 -77 56 -110
86 -33 29 -84 67 -113 83 -28 17 -55 35 -60 42 -4 7 -53 42 -109 79 -57 37
-103 70 -103 75 0 4 -34 25 -76 47 -42 22 -107 65 -144 95 -69 57 -95 76 -120
87 -24 10 -101 74 -141 115 -19 21 -41 38 -47 38 -7 0 -27 17 -46 38 -19 21
-56 48 -82 62 -27 13 -63 38 -81 57 -19 18 -40 33 -48 33 -8 0 -23 8 -33 18
-10 9 -38 30 -62 46 -25 16 -82 65 -127 108 -45 43 -86 78 -92 78 -5 0 -16 6
-23 13 -7 7 -29 24 -48 37 -46 33 -81 63 -157 136 -52 50 -61 64 -56 85 9 37
32 49 94 49 53 0 59 2 99 43 50 49 75 85 67 94 -12 12 -58 5 -77 -12 -15 -14
-29 -16 -67 -10 -79 11 -95 16 -89 31 3 7 1 16 -4 19 -31 19 14 62 72 69 18 3
56 8 83 11 28 4 55 10 60 14 6 5 28 13 50 19 22 5 76 26 120 46 55 25 95 36
128 36 33 0 49 5 53 15 3 8 30 29 60 46 30 17 52 35 49 40 -8 11 -88 12 -100
1 -6 -5 -39 -19 -75 -32 -36 -13 -91 -36 -123 -52 -64 -32 -100 -33 -105 -5
-8 41 71 89 112 68 28 -15 80 -3 171 39 104 48 139 50 142 9 3 -32 8 -33 64
-21 28 7 61 12 74 12 24 0 47 -21 29 -27 -5 -2 -41 -26 -78 -53 -38 -28 -79
-50 -91 -50 -12 0 -25 -3 -29 -7 -12 -12 -119 -13 -133 -1 -9 7 -14 2 -19 -19
-4 -15 -16 -41 -27 -57 -16 -23 -17 -30 -6 -37 8 -5 23 -9 34 -9 35 0 169 34
183 47 6 6 47 19 90 28 42 10 92 26 110 36 18 10 40 19 48 19 27 0 88 39 149
95 33 31 73 59 88 62 16 3 31 12 34 19 5 14 29 20 116 30 73 8 110 26 114 56
1 13 14 32 28 42 30 24 131 66 157 66 29 0 88 34 138 79 25 23 61 46 80 53 19
6 40 17 45 24 13 16 70 31 112 29 29 -1 34 4 48 42 21 54 114 150 185 191 30
17 66 42 80 55 41 38 157 114 228 149 65 32 111 71 112 95 0 6 19 26 43 44 72
56 117 111 153 189 19 41 39 83 45 92 5 10 9 45 9 78 0 33 4 60 10 60 18 0 10
19 -20 47 -32 31 -43 67 -28 97 12 22 -7 97 -31 124 -9 10 -41 37 -71 61 -30
23 -77 64 -105 90 -27 26 -62 52 -76 58 -31 14 -119 125 -119 152 0 29 -38 70
-88 92 -49 23 -65 35 -74 60 -3 8 -39 35 -79 59 -39 24 -80 52 -89 62 -24 26
-122 63 -214 83 -44 9 -82 18 -86 20 -15 9 -115 22 -235 30 -49 3 -117 8 -150
10 -70 6 -192 12 -430 21 -93 3 -189 7 -212 8 -24 1 -48 -4 -56 -11z m438
-967 c89 -14 125 -32 125 -63 0 -22 -197 -209 -270 -257 -36 -24 -72 -51 -79
-60 -8 -10 -64 -58 -125 -109 -61 -50 -124 -104 -141 -119 -16 -15 -60 -47
-97 -70 -37 -24 -68 -49 -68 -55 0 -7 -4 -13 -8 -13 -5 0 -14 -11 -21 -24 -8
-14 -29 -28 -55 -36 -22 -7 -70 -28 -106 -47 -149 -81 -184 -118 -185 -198 0
-38 -2 -41 -55 -67 -69 -34 -84 -34 -104 -3 -16 25 -44 32 -61 17 -6 -5 -32
-17 -60 -27 -27 -9 -79 -30 -115 -45 -36 -15 -82 -30 -103 -33 -34 -5 -38 -4
-32 11 24 59 43 121 38 126 -7 6 -6 703 0 776 3 28 10 48 22 55 9 5 38 26 64
46 25 20 57 40 70 44 13 4 40 22 61 41 43 39 104 60 202 70 61 6 72 4 91 -13
31 -29 67 -46 67 -33 0 5 11 10 24 10 14 0 58 7 98 16 40 8 91 17 113 20 22 3
46 7 53 9 6 3 12 -2 12 -11 0 -13 3 -13 29 1 32 16 118 30 251 41 47 3 86 7
87 8 6 5 240 -2 278 -8z m-302 -845 c4 0 7 -10 7 -20 0 -13 -15 -26 -44 -41
-24 -11 -55 -31 -68 -44 -34 -33 -56 -39 -68 -16 -18 33 -3 60 32 60 10 0 33
15 52 34 32 30 46 35 89 27z m-1167 -471 c6 -6 24 -13 39 -16 16 -3 32 -7 37
-10 13 -8 9 -34 -6 -34 -29 0 -36 -67 -8 -76 9 -4 45 -19 80 -35 62 -28 80
-49 41 -49 -11 0 -32 -9 -46 -19 -24 -20 -92 -38 -170 -45 -51 -5 -53 3 -20
83 14 34 29 55 40 57 23 3 47 23 47 39 0 14 -42 35 -69 35 -10 0 -21 -9 -24
-19 -7 -29 -55 -57 -76 -44 -20 13 -27 53 -9 53 8 0 29 16 48 36 29 31 59 51
81 53 3 1 10 -4 15 -9z m517 -329 c20 -2 1 -18 -46 -38 -83 -34 -90 -35 -83
-17 3 8 6 18 6 20 0 10 83 42 99 39 9 -2 19 -4 24 -4z m-165 -59 c14 -10 -33
-35 -86 -47 -30 -6 -33 -5 -30 12 2 12 13 19 36 21 17 2 32 7 32 13 0 11 30
12 48 1z m-998 -1228 c14 -41 6 -84 -15 -84 -9 0 -20 21 -30 55 -14 45 -14 57
-3 69 17 18 34 5 48 -40z m424 -156 c18 -21 18 -22 0 -35 -10 -7 -36 -19 -56
-25 -37 -11 -38 -12 -32 -55 4 -38 2 -43 -16 -44 -11 -1 -26 -2 -32 -3 -22 -3
-40 33 -35 69 5 39 22 65 42 65 7 0 20 11 29 25 21 33 73 34 100 3z m1302
-235 c9 -16 26 -34 36 -41 23 -17 25 -87 2 -96 -42 -16 -70 -6 -92 33 -21 38
-22 40 -5 57 10 10 19 26 19 36 3 34 4 38 13 38 5 0 17 -12 27 -27z m-272 -69
c9 -23 -18 -16 -57 17 -55 45 -49 69 7 28 25 -17 47 -38 50 -45z m-1684 16 c0
-15 0 -17 11 -52 11 -40 23 -142 22 -185 -2 -39 -17 -69 -43 -83 -17 -9 -20
-5 -31 32 -6 24 -11 52 -11 63 1 11 1 56 1 101 0 88 12 134 36 134 8 0 15 -4
15 -10z m455 -218 c0 -107 -3 -135 -15 -142 -16 -10 -30 9 -51 68 -8 26 -8 36
3 49 8 10 14 44 14 87 1 39 2 81 3 94 l1 22 23 -22 c21 -22 22 -31 22 -156z
m1408 114 c53 -24 83 -33 113 -35 7 -1 15 -18 19 -38 5 -21 10 -45 11 -53 2
-8 1 -23 -2 -33 -6 -18 -7 -18 -27 1 -12 10 -60 41 -106 68 -85 50 -143 111
-119 125 12 8 22 5 111 -35z m-1966 -378 c46 -51 55 -94 24 -122 -35 -32 -83
3 -61 44 13 24 13 53 0 45 -6 -4 -10 7 -10 24 0 37 18 40 47 9z m2584 -128
c24 -14 25 -30 0 -30 -10 0 -21 9 -24 20 -6 23 -3 24 24 10z m582 -151 c5 -19
7 -20 36 -5 16 9 41 16 54 16 22 0 24 -4 26 -50 2 -58 -12 -70 -76 -65 -57 4
-83 14 -83 30 0 7 -5 15 -11 17 -22 7 16 78 41 78 4 0 10 -9 13 -21z m-485
-59 c40 -19 72 -40 72 -47 0 -18 -3 -17 -34 12 -20 19 -37 25 -62 23 -32 -2
-63 20 -64 45 0 10 -1 11 88 -33z m-2540 -112 c19 -19 12 -118 -9 -118 -4 0
-9 14 -11 32 -3 29 -4 31 -19 15 -10 -10 -15 -26 -12 -41 6 -31 -12 -35 -27
-7 -15 30 -13 37 25 73 20 18 33 38 30 45 -6 16 7 17 23 1z m500 -210 c5 -7
13 -51 17 -98 4 -54 12 -91 22 -102 11 -12 13 -27 9 -52 -9 -48 -22 -53 -41
-16 -16 32 -45 41 -45 14 0 -9 -6 -14 -12 -11 -10 3 -12 30 -10 101 1 60 -2
96 -8 96 -18 0 -10 31 15 55 27 28 38 31 53 13z m180 -96 c6 -9 12 -28 12 -43
0 -15 6 -29 13 -32 9 -3 9 -8 1 -16 -21 -23 -99 73 -87 107 6 16 43 6 61 -16z
m-288 -317 c0 -5 -5 -3 -10 5 -5 8 -10 20 -10 25 0 6 5 3 10 -5 5 -8 10 -19
10 -25z m184 -61 c7 -17 0 -34 -14 -34 -11 0 -21 30 -14 41 8 14 21 11 28 -7z
m-87 -146 c-3 -7 -5 -2 -5 12 0 14 2 19 5 13 2 -7 2 -19 0 -25z"/>
<path d="M4814 1983 c-3 -10 -9 -25 -14 -34 -5 -10 -2 -19 9 -26 15 -9 17 -5
18 33 2 46 -4 57 -13 27z"/>
<path d="M1542 933 c-4 -10 -7 -24 -6 -30 1 -7 2 -21 3 -32 1 -14 7 -17 26
-13 20 3 25 10 25 32 0 56 -29 82 -48 43z"/>
<path d="M1932 913 c-8 -15 -9 -56 -3 -136 1 -13 7 -16 27 -13 47 9 54 22 38
69 -8 23 -17 49 -21 57 -3 8 -7 19 -7 24 -2 18 -25 17 -34 -1z"/>
<path d="M1772 434 c3 -37 11 -62 25 -75 19 -20 20 -20 42 -1 19 14 22 24 17
48 -8 37 -48 84 -71 84 -15 0 -17 -7 -13 -56z"/>
</g>
</svg>
