<?xml version="1.0" encoding="utf-8"?>
<!-- Generator: Adobe Illustrator 16.2.0, SVG Export Plug-In . SVG Version: 6.00 Build 0)  -->
<!DOCTYPE svg PUBLIC "-//W3C//DTD SVG 1.1//EN" "http://www.w3.org/Graphics/SVG/1.1/DTD/svg11.dtd">
<svg version="1.1" id="Layer_1" xmlns="http://www.w3.org/2000/svg" xmlns:xlink="http://www.w3.org/1999/xlink" x="0px" y="0px"
	 width="186.307px" height="30.5px" viewBox="0 0 186.307 30.5" enable-background="new 0 0 186.307 30.5" xml:space="preserve">
<g>
	<path fill="#FFCC00" d="M172.007,28.401c7.203,0,13.041-5.831,13.041-13.031c0-7.203-5.838-13.041-13.041-13.041H14.09
		l-0.104,26.072H172.007z"/>
	<linearGradient id="SVGID_1_" gradientUnits="userSpaceOnUse" x1="14.1758" y1="1.0762" x2="14.1758" y2="22.6667">
		<stop  offset="0.0054" style="stop-color:#939598"/>
		<stop  offset="1" style="stop-color:#000000"/>
	</linearGradient>
	<circle fill="url(#SVGID_1_)" cx="14.176" cy="15.37" r="13.04"/>
	<g>
		<path fill="#FFCC05" d="M7.335,11.366c0-1.646,1.382-3.024,3.124-3.024c1.724,0,3.14,1.378,3.14,3.024
			c0,1.686-1.416,3.024-3.14,3.024C8.717,14.39,7.335,13.051,7.335,11.366z M18.255,8.569h2.241l-10.44,13.599h-2.24L18.255,8.569z
			 M11.745,11.366c0-0.69-0.577-1.265-1.285-1.265s-1.264,0.574-1.264,1.265c0,0.707,0.556,1.262,1.264,1.262
			S11.745,12.073,11.745,11.366z M17.892,16.364c1.724,0,3.122,1.379,3.122,3.025c0,1.666-1.398,3.008-3.122,3.008
			c-1.745,0-3.123-1.342-3.123-3.008C14.769,17.743,16.147,16.364,17.892,16.364z M17.892,20.636c0.708,0,1.282-0.555,1.282-1.266
			c0-0.688-0.574-1.263-1.282-1.263c-0.71,0-1.265,0.574-1.265,1.263C16.627,20.082,17.182,20.636,17.892,20.636z"/>
	</g>
	<g>
		<path d="M40.999,9.875v11.254h-1.523v-4.669c-0.489,0.149-0.963,0.258-1.422,0.325c-0.459,0.066-1.002,0.101-1.631,0.101
			c-1.242,0-2.183-0.271-2.821-0.814s-0.958-1.425-0.958-2.645V9.875h1.53v3.556c0,0.85,0.178,1.438,0.533,1.766
			s0.928,0.491,1.716,0.491c0.536,0,1.051-0.036,1.546-0.108s0.997-0.178,1.507-0.317V9.875H40.999z"/>
		<path d="M50.466,15.911h-5.155v4.02h5.944v1.198h-7.467V9.875h7.382v1.198h-5.859v3.641h5.155V15.911z"/>
		<path d="M54.564,16.615v4.514h-1.522V9.875h4.305c1.201,0,2.134,0.309,2.799,0.928c0.664,0.618,0.997,1.433,0.997,2.442
			c0,1.025-0.333,1.843-0.997,2.454c-0.665,0.61-1.598,0.916-2.799,0.916H54.564z M54.564,15.417h2.782
			c0.763,0,1.332-0.205,1.709-0.613c0.376-0.409,0.563-0.925,0.563-1.547c0-0.623-0.189-1.143-0.567-1.559
			c-0.379-0.417-0.947-0.625-1.705-0.625h-2.782V15.417z"/>
		<path d="M71.692,21.128h-1.522v-4.97h-5.465v4.97h-1.522V9.875h1.522v5.086h5.465V9.875h1.522V21.128z"/>
		<path d="M80.712,18.23h-4.716l-1.066,2.898h-1.554l4.352-11.254h1.307l4.282,11.254h-1.554L80.712,18.23z M76.468,16.955h3.788
			l-1.855-5.125h-0.046L76.468,16.955z"/>
		<path d="M85.853,21.128h-1.615l2.636-4.813c-0.727-0.278-1.279-0.675-1.658-1.189s-0.568-1.139-0.568-1.869
			c0-1.071,0.354-1.902,1.063-2.495c0.709-0.592,1.685-0.888,2.926-0.888h3.603v11.254h-1.523v-4.406h-2.52L85.853,21.128z
			 M90.714,11.073h-2.079c-0.804,0-1.416,0.192-1.836,0.579s-0.63,0.917-0.63,1.593c0,0.675,0.212,1.224,0.634,1.646
			c0.423,0.422,1.028,0.634,1.816,0.634h2.095V11.073z"/>
		<path d="M107.472,21.128h-1.53V11.073h-5.473v10.056h-1.522V9.875h8.525V21.128z"/>
		<path d="M111.245,21.128h-1.615l2.636-4.813c-0.727-0.278-1.279-0.675-1.658-1.189s-0.568-1.139-0.568-1.869
			c0-1.071,0.354-1.902,1.063-2.495c0.709-0.592,1.685-0.888,2.926-0.888h3.603v11.254h-1.523v-4.406h-2.52L111.245,21.128z
			 M116.106,11.073h-2.079c-0.804,0-1.416,0.192-1.836,0.579s-0.63,0.917-0.63,1.593c0,0.675,0.212,1.224,0.634,1.646
			c0.423,0.422,1.028,0.634,1.816,0.634h2.095V11.073z"/>
		<path d="M127.863,11.073h-3.617v10.056h-1.523V11.073h-3.609V9.875h8.75V11.073z"/>
		<path d="M138.027,21.128h-1.522v-4.97h-5.465v4.97h-1.522V9.875h1.522v5.086h5.465V9.875h1.522V21.128z"/>
		<path d="M147.797,9.875h1.522v11.254h-1.522v-8.58l-0.047-0.016l-5.418,8.596h-1.522V9.875h1.522v8.571l0.046,0.016L147.797,9.875
			z"/>
		<path d="M152.111,9.875h1.53V19.93h5.473V9.875h1.522v11.254h-8.525V9.875z M162.134,23.903h-1.522v-4.011h1.522V23.903z"/>
		<path d="M170.522,18.23h-4.716l-1.066,2.898h-1.554l4.352-11.254h1.307l4.282,11.254h-1.554L170.522,18.23z M166.278,16.955h3.788
			l-1.855-5.125h-0.046L166.278,16.955z"/>
	</g>
</g>
</svg>
