<?xml version="1.0" encoding="UTF-8" standalone="no"?>
<svg
   xmlns:dc="http://purl.org/dc/elements/1.1/"
   xmlns:cc="http://creativecommons.org/ns#"
   xmlns:rdf="http://www.w3.org/1999/02/22-rdf-syntax-ns#"
   xmlns:svg="http://www.w3.org/2000/svg"
   xmlns="http://www.w3.org/2000/svg"
   xml:space="preserve"
   enable-background="new 0 0 39.59 40"
   viewBox="0 0 39.59 40"
   height="40px"
   width="39.59px"
   y="0px"
   x="0px"
   id="Layer_1"
   version="1.1"><metadata
     id="metadata13"><rdf:RDF><cc:Work
         rdf:about=""><dc:format>image/svg+xml</dc:format><dc:type
           rdf:resource="http://purl.org/dc/dcmitype/StillImage" /><dc:title></dc:title></cc:Work></rdf:RDF></metadata><defs
     id="defs11" /><path
     style="fill:#241f1c"
     id="path3"
     d="M38.084,19.871c0,9.938-8.059,17.996-18.002,17.996c-9.939,0-17.998-8.059-17.998-17.996  c0-9.943,8.059-18.004,17.998-18.004C30.026,1.867,38.084,9.927,38.084,19.871z"
     fill="#FFCC05" /><g
     id="g5"><path
       style="fill:#ffcc05;fill-opacity:1"
       id="path7"
       d="M10.641,14.343c0-2.273,1.908-4.176,4.313-4.176c2.381,0,4.334,1.902,4.334,4.176c0,2.326-1.953,4.174-4.334,4.174   C12.549,18.517,10.641,16.669,10.641,14.343z M26.301,10.576h2.037L13.926,29.347h-2.035L26.301,10.576z M16.729,14.343   c0-0.953-0.797-1.746-1.775-1.746c-0.977,0-1.744,0.793-1.744,1.746c0,0.975,0.768,1.74,1.744,1.74   C15.932,16.083,16.729,15.318,16.729,14.343z M25.215,21.242c2.379,0,4.309,1.904,4.309,4.176c0,2.301-1.93,4.152-4.309,4.152   c-2.41,0-4.313-1.852-4.313-4.152C20.903,23.146,22.805,21.242,25.215,21.242z M25.215,27.14c0.977,0,1.77-0.766,1.77-1.748   c0-0.949-0.793-1.742-1.77-1.742c-0.98,0-1.746,0.793-1.746,1.742C23.469,26.375,24.235,27.14,25.215,27.14z" /></g></svg>