<?xml version="1.0" encoding="UTF-8"?>
<svg width="147px" height="134px" viewBox="0 0 147 134" version="1.1" xmlns="http://www.w3.org/2000/svg" xmlns:xlink="http://www.w3.org/1999/xlink">
    <!-- Generator: Sketch 49 (51002) - http://www.bohemiancoding.com/sketch -->
    <title>Group</title>
    <desc>Created with Sketch.</desc>
    <defs></defs>
    <g id="4.-Вход-и-Регистрация" stroke="none" stroke-width="1" fill="none" fill-rule="evenodd" stroke-linecap="round" stroke-linejoin="round">
        <g id="4.-Широкоформатный-экран" transform="translate(-1282.000000, -622.000000)" stroke-width="1.8">
            <g id="Group" transform="translate(1283.000000, 623.000000)">
                <polyline id="Shape" stroke="#333333" points="71.4788732 98.1155197 127.640845 64.7254213 127.640845 131.505618 15.3169014 131.505618 15.3169014 64.7254213 71.4788732 98.1155197"></polyline>
                <polyline id="Shape" stroke="#333333" points="30.6338028 73.7664326 30.6338028 26.7120787 112.323944 26.7120787 112.323944 73.7664326"></polyline>
                <path d="M89.1694756,54.938681 C89.0758853,49.5952907 84.6719408,44.8314607 79.2333035,44.8314607 C76.0889287,44.8314607 73.3163156,46.4518906 71.4913043,48.8299072 C69.667593,46.4518906 66.8949798,44.8314607 63.7493052,44.8314607 C58.3106679,44.8314607 53.9067234,49.5926917 53.814433,54.938681 C53.814433,54.938681 53.8352308,55.3714021 53.8404303,55.5156424 C54.3278799,69.1353102 71.3509189,74.7191011 71.3509189,74.7191011 C71.3509189,74.7191011 88.6274316,69.1418075 89.1382788,55.5390327 C89.146078,55.3856961 89.1694756,54.938681 89.1694756,54.938681 Z" id="Page-1" stroke="#333333"></path>
                <path d="M15.3169014,64.7254213 L30.6338028,51.369382" id="Shape" stroke="#333333"></path>
                <path d="M127.640845,64.7254213 L112.323944,51.369382" id="Shape" stroke="#333333"></path>
                <path d="M20.6267606,0.410955056 C20.6267606,5.54789326 24.8133803,9.65744382 29.9190141,9.65744382 C24.8133803,9.65744382 20.6267606,13.7669944 20.6267606,18.9039326 L20.7288732,18.9039326 C20.7288732,13.7669944 16.5422535,9.65744382 11.4366197,9.65744382 C16.5422535,9.65744382 20.7288732,5.54789326 20.7288732,0.410955056" id="Shape" stroke="#FC9424"></path>
                <path d="M6.8415493,29.7942416 C6.8415493,33.1846208 9.59859155,35.9585674 12.9683099,35.9585674 C9.59859155,35.9585674 6.8415493,38.732514 6.8415493,42.1228933 L6.94366197,42.1228933 C6.94366197,38.732514 4.18661972,35.9585674 0.816901408,35.9585674 C4.08450704,35.9585674 6.8415493,33.1846208 6.8415493,29.7942416" id="Shape" stroke="#FC9424"></path>
                <path d="M124.78169,8.42457865 C124.78169,11.8149579 127.538732,14.5889045 130.908451,14.5889045 C127.538732,14.5889045 124.78169,17.3628511 124.78169,20.7532303 L124.883803,20.7532303 C124.883803,17.3628511 122.126761,14.5889045 118.757042,14.5889045 C122.126761,14.5889045 124.883803,11.8149579 124.78169,8.42457865" id="Shape" stroke="#FC9424"></path>
                <path d="M135.197183,28.1504213 C135.197183,33.2873596 139.383803,37.3969101 144.489437,37.3969101 C139.383803,37.3969101 135.197183,41.5064607 135.197183,46.6433989 L135.299296,46.6433989 C135.299296,41.5064607 131.112676,37.3969101 126.007042,37.3969101 C131.112676,37.3969101 135.299296,33.2873596 135.299296,28.1504213" id="Shape" stroke="#FC9424"></path>
            </g>
        </g>
    </g>
</svg>