<svg width="33" height="33" viewBox="0 0 33 33" fill="none" xmlns="http://www.w3.org/2000/svg">
<circle cx="16.5" cy="16.5" r="16" stroke="white"/>
<path d="M24.2193 22.1281C23.1408 21.2169 21.4343 20.3586 21.3524 18.8135C21.3524 18.8003 21.3524 18.8003 21.3524 18.7871C21.6255 18.4834 21.7483 18.0212 21.7074 17.6383C21.6937 17.4798 21.6528 17.3346 21.5709 17.2157C21.6937 17.1893 21.8576 17.2025 21.9668 17.1893C22.1715 17.1629 22.39 17.0969 22.4992 16.9252C22.5265 16.8856 22.5265 16.8592 22.5265 16.8328C22.6221 16.7667 22.6221 16.6347 22.4719 16.5951C21.4616 16.3442 20.8473 15.4066 20.2466 14.6539C19.6459 13.9144 19.1135 13.2673 18.7313 12.4222C19.2091 12.6071 19.7279 12.541 20.2739 12.5146C20.3968 12.5014 20.506 12.3826 20.3968 12.2769C19.1818 11.1545 18.1306 9.89998 17.2432 8.51343C17.2432 8.51343 17.2296 8.50022 17.2159 8.50022C17.2705 8.39458 17.3115 8.28894 17.3251 8.17009C17.3524 7.9588 17.2569 7.80034 17.1204 7.68149C17.8576 6.98161 16.8337 5.80634 16.5333 5.10646C16.4651 4.948 16.233 4.97441 16.192 5.13287C16.0555 5.97801 15.4685 6.78353 16.0009 7.57585C15.7415 7.77393 15.6459 8.13047 15.8098 8.4474C15.8371 8.50022 15.878 8.55304 15.919 8.60586C15.9053 8.60586 15.9053 8.61907 15.8917 8.63227C15.4548 9.21331 15.0589 9.82075 14.6357 10.4018C14.1306 11.1149 13.407 11.445 12.7518 11.9864C12.6971 12.026 12.6698 12.1053 12.7244 12.1581C13.0794 12.5807 13.5982 12.7523 14.1169 12.6731C13.8439 13.3334 13.5572 13.9408 13.0657 14.535C12.4651 15.2481 11.7279 15.8292 11.0316 16.4234C10.9497 16.4894 10.9634 16.5951 11.0589 16.6479C11.5094 16.8724 11.9736 16.9252 12.4105 16.8724C11.878 18.3382 10.9224 19.5266 9.78929 20.6095C9.73469 20.6623 9.70738 20.7547 9.78929 20.8075C10.349 21.2169 11.0453 21.2037 11.7142 20.9924C11.5777 21.1641 11.4821 21.349 11.4685 21.5602C11.2364 22.6827 9.93946 23.3298 9.05209 23.9372C8.94288 24.0032 9.02479 24.1485 9.12035 24.1749C9.80295 24.3334 10.7449 24.3201 11.5504 24.0957C11.4958 24.2013 11.4412 24.3069 11.3866 24.4126C11.3593 24.4786 11.4002 24.5446 11.4548 24.571C11.5231 24.6107 11.605 24.6503 11.6869 24.6767C11.7006 24.6899 11.7142 24.7031 11.7279 24.7031C12.3695 25.0332 13.1477 24.7295 13.762 24.4786C14.1169 24.3201 14.4582 24.1221 14.7722 23.8844C14.7995 23.858 14.8405 23.8316 14.8678 23.8051C14.8405 24.0296 14.8405 24.2541 14.8132 24.4654C14.7586 25.0332 14.4855 25.5746 14.3217 26.1161C14.2944 26.1953 14.349 26.2745 14.4309 26.2877C15.1954 26.4594 15.878 26.2745 16.5879 26.0632C17.3115 26.2745 18.076 26.3273 18.7995 26.0764C18.8678 26.05 18.8951 25.984 18.8814 25.918C18.6903 25.3237 18.6084 24.6767 18.6084 24.0692C18.7449 24.0957 18.8678 24.0957 18.9907 24.0825C19.0726 24.0692 19.1272 23.99 19.1135 23.9108C19.0726 23.6731 19.0316 23.4354 19.0043 23.2109C20.0692 23.5807 21.448 24.6899 22.39 23.6071C22.4446 23.541 22.39 23.4486 22.3354 23.409C21.8849 23.1317 21.4616 22.8015 21.1613 22.3922C22.1988 22.6563 23.2364 22.9864 24.192 22.3262C24.2876 22.2865 24.2876 22.1809 24.2193 22.1281ZM16.4241 5.58185C16.7927 6.2025 17.3388 7.04764 16.8473 7.52303C16.7654 7.49662 16.6971 7.47021 16.6152 7.457C16.5879 7.457 16.5606 7.457 16.5333 7.457H16.5197C16.4514 7.4438 16.3695 7.4438 16.3012 7.457C15.919 6.87597 16.2193 6.21571 16.4241 5.58185ZM21.1067 22.0753C21.0657 22.062 21.0248 22.0752 20.9975 22.0885C20.8473 21.8111 20.7518 21.4942 20.7381 21.1509C20.7381 20.966 20.3968 20.966 20.3968 21.1509C20.4378 22.2205 21.1477 22.9864 22.0214 23.5542C21.2159 24.2541 19.8644 23.1581 19.0043 22.894C19.0043 22.7355 19.0043 22.5771 19.0316 22.4186C19.0589 22.2337 18.7176 22.2337 18.6903 22.4186C18.6084 22.894 18.6903 23.343 18.7722 23.8183C18.1579 23.7787 17.448 23.0921 17.1886 22.6299C17.1067 22.4714 16.7927 22.5903 16.8883 22.7619C16.9565 22.894 17.0521 23.026 17.1613 23.1449C16.8883 23.4486 16.6016 23.7523 16.2193 23.924C15.7688 24.1221 15.4958 23.6731 15.332 23.343C15.332 23.3165 15.3047 23.2901 15.2773 23.2901C15.2773 23.2769 15.2637 23.2769 15.2637 23.2637C15.3729 23.0789 15.4821 22.894 15.6186 22.7223C15.7552 22.5638 15.4412 22.445 15.332 22.5771C14.8541 23.1581 14.6221 23.6731 13.9258 24.056C13.3934 24.3466 12.5197 24.7559 11.919 24.4522C11.8917 24.4258 11.8644 24.3994 11.8234 24.3994C11.7961 24.3994 11.7688 24.3862 11.7415 24.373C11.8098 24.2409 11.8917 24.0957 11.9736 24.0032C12.0009 23.9636 12.0145 23.9372 12.0145 23.8976C12.3695 23.7391 12.6835 23.5278 12.9019 23.2637C13.0248 23.1053 12.7244 22.9732 12.6152 23.1185C12.0009 23.8712 10.5538 24.0825 9.54356 23.9504C10.3081 23.4486 11.2364 22.894 11.6323 22.0753C11.9736 22.5506 12.6562 22.6959 13.1886 22.4318C13.8029 22.1281 13.8985 21.4282 13.6528 20.8604C13.5163 20.5566 13.2978 20.3322 13.0384 20.2661C13.1886 20.1473 13.3388 20.0152 13.4616 19.8964C13.6118 19.7511 13.3524 19.5662 13.2296 19.6983C12.8337 20.0945 12.3558 20.385 11.8371 20.6095C11.4958 20.7679 11.1272 20.834 10.7449 20.8472C10.5265 20.8736 10.349 20.7943 10.2262 20.6227C10.3627 20.5038 10.4855 20.3718 10.6084 20.2397C11.564 19.2361 12.3285 18.1401 12.7791 16.846C12.7927 16.8195 12.7927 16.8063 12.7791 16.7799C13.4753 16.6083 14.1169 16.1593 14.6221 15.6311C14.7586 15.4858 14.4582 15.3538 14.3354 15.4858C13.5982 16.2517 12.506 16.8856 11.4275 16.4894C12.0965 15.9216 12.7654 15.3406 13.3524 14.6803C13.9395 14.02 14.2125 13.3069 14.5265 12.541C14.5538 12.5146 14.5675 12.4882 14.5675 12.4618C14.6084 12.3562 14.663 12.2373 14.704 12.1317C14.7859 11.96 14.4446 11.8808 14.3763 12.0524C14.3354 12.1449 14.2944 12.2505 14.2535 12.3562C13.9531 12.4618 13.6664 12.4486 13.3797 12.3165C12.8337 12.1053 13.3797 11.894 13.5436 11.7883C13.8712 11.5638 14.2125 11.3658 14.4855 11.0753C15.1272 10.3754 15.605 9.55664 16.1647 8.80394C16.3422 8.90958 16.5606 8.936 16.7791 8.85676C16.861 8.83035 16.9292 8.79074 16.9975 8.73792C17.8302 10.0188 18.8132 11.1941 19.9326 12.2637C19.4685 12.3033 18.9907 12.3165 18.5948 12.026C18.5128 11.96 18.4036 11.9864 18.349 12.0392C18.2808 12.0656 18.2398 12.1053 18.2671 12.1845C18.7176 13.3201 19.4548 14.1653 20.2193 15.1161C20.7654 15.7895 21.3388 16.5026 22.1852 16.7931C22.0077 17.0044 21.6118 16.8856 21.3661 16.978C21.1204 16.7931 20.7927 16.7271 20.4241 16.7799C20.3968 16.7799 20.3695 16.7931 20.3558 16.8063C19.7279 16.9516 19.4002 17.6515 19.4685 18.2589C19.5504 18.9588 20.3012 19.3153 20.9565 19.0644C20.9838 19.0512 21.0111 19.038 21.0384 19.0248C21.2432 20.4774 22.7449 21.3225 23.8371 22.2073C22.9907 22.6959 22.0077 22.2997 21.1067 22.0753Z" fill="white" stroke="white" stroke-miterlimit="10"/>
<path d="M16.9796 19.2607L17.1069 19.2905L17.2324 19.2542C17.4152 19.2013 17.4458 19.2535 17.4479 19.257C17.4479 19.2571 17.448 19.2571 17.448 19.2571C17.4841 19.2965 17.5423 19.4156 17.5423 19.6372C17.5423 19.8469 17.4883 20.0778 17.3931 20.2642C17.2976 20.4513 17.1895 20.5412 17.1099 20.5717C16.7135 20.6936 16.2554 20.3792 16.2112 20.0088L16.2111 20.0081C16.181 19.7583 16.2665 19.5402 16.4033 19.4042C16.5323 19.2761 16.7248 19.2011 16.9796 19.2607Z" fill="white" stroke="white"/>
<path d="M11.6385 21.2511L11.6745 21.1133L11.6326 20.9771C11.5897 20.8383 11.5958 20.7561 11.6061 20.7137C11.6155 20.6753 11.6345 20.6426 11.6736 20.609C11.768 20.5277 11.9778 20.4492 12.2981 20.4492C12.6053 20.4492 12.9393 20.5229 13.2105 20.6538C13.4876 20.7874 13.6366 20.9482 13.6883 21.0841C13.7738 21.3287 13.7263 21.6138 13.5541 21.8659C13.3804 22.1204 13.1073 22.2973 12.8167 22.3314L12.8167 22.3314L12.8134 22.3318C12.417 22.3809 12.0704 22.255 11.856 22.0531C11.6523 21.861 11.5503 21.5882 11.6385 21.2511Z" fill="white" stroke="white"/>
<path d="M20.8004 16.9761L20.9275 17.0061L21.0531 16.9701C21.37 16.8793 21.4903 16.9645 21.552 17.0321C21.6492 17.1384 21.7352 17.3617 21.7345 17.695C21.7338 18.0167 21.6507 18.3673 21.5025 18.6528C21.3518 18.9431 21.1643 19.1119 20.9871 19.1719L20.9871 19.1719L20.9842 19.1729C20.674 19.2801 20.324 19.2221 20.0264 19.0314C19.727 18.8395 19.5266 18.5424 19.4865 18.236C19.437 17.8301 19.5759 17.4645 19.8133 17.2293C20.0437 17.001 20.3831 16.8775 20.8004 16.9761Z" fill="white" stroke="white"/>
<path d="M14.458 17.0157H14.4598C14.4542 17.0158 14.4527 17.0157 14.458 17.0157ZM14.4931 17.1642L14.6662 16.9967C14.8153 16.9876 14.9596 16.9985 15.0646 17.0326C15.1284 17.0533 15.1534 17.0747 15.1604 17.0823C15.1605 17.0823 15.1606 17.0824 15.1607 17.0825C15.1627 17.0844 15.1717 17.0929 15.1752 17.1304C15.1837 17.2213 15.1572 17.3503 15.0776 17.4906C14.9987 17.6298 14.8886 17.7423 14.7849 17.8054L14.7849 17.8054L14.7803 17.8083C14.6531 17.8876 14.5079 17.9183 14.3989 17.9047C14.3076 17.8932 14.2504 17.8559 14.2108 17.7748L14.2108 17.7748L14.2082 17.7696C14.1293 17.6132 14.115 17.4186 14.1645 17.2642C14.1949 17.1693 14.2448 17.0977 14.3179 17.0512L14.4931 17.1642Z" fill="white" stroke="white"/>
<path d="M17.5703 14.714L17.7508 14.6331C17.853 14.6246 17.9436 14.6362 18.0142 14.6613C18.1075 14.6944 18.1716 14.7508 18.2098 14.847C18.3015 15.0919 18.2397 15.3773 18.0907 15.5153L18.0907 15.5153L18.0894 15.5166C18.0173 15.5839 17.9039 15.624 17.7557 15.609C17.6049 15.5938 17.4625 15.524 17.373 15.4316C17.2949 15.3481 17.2596 15.2178 17.2994 15.0603C17.3405 14.8976 17.4482 14.7688 17.5703 14.714Z" fill="white" stroke="white"/>
<path d="M16.561 11.3526V11.5326V11.8526H16.561H16.561H16.561H16.561H16.561H16.561H16.561H16.561H16.561H16.561H16.561H16.561H16.561H16.561H16.561H16.561H16.561H16.561H16.561H16.561H16.561H16.561H16.561H16.561H16.561H16.561H16.561H16.561H16.561H16.561H16.561H16.561H16.561H16.561H16.561H16.561H16.561H16.561H16.561H16.561H16.561H16.561H16.561H16.561H16.561H16.561H16.561H16.561H16.561H16.561H16.561H16.561H16.561H16.5611H16.5611H16.5611H16.5611H16.5611H16.5611H16.5611H16.5611H16.5611H16.5611H16.5611H16.5611H16.5611H16.5611H16.5611H16.5611H16.5611H16.5611H16.5611H16.5611H16.5611H16.5611H16.5611H16.5611H16.5611H16.5611H16.5611H16.5612H16.5612H16.5612H16.5612H16.5612H16.5612H16.5612H16.5612H16.5612H16.5612H16.5612H16.5612H16.5612H16.5612H16.5612H16.5612H16.5612H16.5612H16.5612H16.5613H16.5613H16.5613H16.5613H16.5613H16.5613H16.5613H16.5613H16.5613H16.5613H16.5613H16.5613H16.5613H16.5613H16.5613H16.5614H16.5614H16.5614H16.5614H16.5614H16.5614H16.5614H16.5614H16.5614H16.5614H16.5614H16.5614H16.5615H16.5615H16.5615H16.5615H16.5615H16.5615H16.5615H16.5615H16.5615H16.5615H16.5615H16.5616H16.5616H16.5616H16.5616H16.5616H16.5616H16.5616H16.5616H16.5616H16.5616H16.5617H16.5617H16.5617H16.5617H16.5617H16.5617H16.5617H16.5617H16.5618H16.5618H16.5618H16.5618H16.5618H16.5618H16.5618H16.5618H16.5619H16.5619H16.5619H16.5619H16.5619H16.5619H16.5619H16.5619H16.562H16.562H16.562H16.562H16.562H16.562H16.562H16.5621H16.5621H16.5621H16.5621H16.5621H16.5621H16.5622H16.5622H16.5622H16.5622H16.5622H16.5622H16.5622H16.5623H16.5623H16.5623H16.5623H16.5623H16.5624H16.5624H16.5624H16.5624H16.5624H16.5624H16.5625H16.5625H16.5625H16.5625H16.5625H16.5626H16.5626H16.5626H16.5626H16.5626H16.5626H16.5627H16.5627H16.5627H16.5627H16.5627H16.5628H16.5628H16.5628H16.5628H16.5629H16.5629H16.5629H16.5629H16.5629H16.563H16.563H16.563H16.563H16.5631H16.5631H16.5631H16.5631H16.5631H16.5632H16.5632H16.5632H16.5632H16.5633H16.5633H16.5633H16.5633H16.5634H16.5634H16.5634H16.5634H16.5635H16.5635H16.5635H16.5635H16.5636H16.5636H16.5636H16.5637H16.5637H16.5637H16.5637H16.5638H16.5638H16.5638H16.5638H16.5639H16.5639H16.5639H16.564H16.564H16.564H16.5641H16.5641H16.5641H16.5641H16.5642H16.5642H16.5642H16.5643H16.5643H16.5643H16.5644H16.5644H16.5644H16.5645H16.5645H16.5645H16.5646H16.5646H16.5646H16.5647H16.5647H16.5647H16.5648H16.5648H16.5648H16.5649H16.5649H16.5649H16.565H16.565H16.565H16.5651H16.5651H16.5651H16.5652H16.5652H16.5652H16.5653H16.5653H16.5654H16.5654H16.5654H16.5655H16.5655H16.5656H16.5656H16.5656H16.5657H16.5657H16.5657H16.5658H16.5658H16.5659H16.5659H16.5659H16.566H16.566H16.5661H16.5661H16.5662H16.5662H16.5662H16.5663H16.5663H16.5664H16.5664H16.5665H16.5665H16.5665H16.5666H16.5666H16.5667H16.5667H16.5668H16.5668H16.5669H16.5669H16.5669H16.567H16.567H16.5671H16.5671H16.5672H16.5672H16.5673H16.5673H16.5674H16.5674H16.5675H16.5675H16.5676H16.5676H16.5677H16.5677H16.5678H16.5678H16.5679H16.5679H16.568H16.568H16.5681H16.5681H16.5682H16.5682H16.5683H16.5683H16.5684H16.5684H16.5685H16.5686H16.5686H16.5687H16.5687H16.5688H16.5688H16.5689H16.5689H16.569H16.569H16.5691H16.5692H16.5692H16.5693H16.5693H16.5694H16.5694H16.5695H16.5696H16.5696H16.5697H16.5697H16.5698H16.5699H16.5699H16.57H16.57H16.5701H16.5702H16.5702H16.5703H16.5704H16.5704H16.5705H16.5705H16.5706H16.5707H16.5707H16.5708H16.5709H16.5709H16.571H16.5711H16.5711H16.5712H16.5713H16.5713H16.5714H16.5715H16.5715H16.5716H16.5717H16.5717H16.5718H16.5719H16.5719H16.572H16.5721H16.5721H16.5722H16.5723H16.5724H16.5724H16.5725H16.5726H16.5726H16.5727H16.5728H16.5729H16.5729H16.573H16.5731H16.5731H16.5732H16.5733H16.5734H16.5734H16.5735H16.5736H16.5737H16.5738H16.5738H16.5739H16.574H16.5741H16.5741H16.5742H16.5743H16.5744H16.5745H16.5745H16.5746H16.5822H16.6393C16.75 11.8571 16.8265 11.8879 16.8632 11.9147C16.881 11.9277 16.8864 11.9371 16.8883 11.9411C16.8898 11.9442 16.8965 11.9584 16.8947 11.9938C16.877 12.224 16.7226 12.4525 16.5514 12.5263C16.4652 12.5586 16.337 12.5595 16.2188 12.5124C16.1026 12.466 16.0597 12.4017 16.0482 12.3621C15.9787 12.0764 16.1813 11.789 16.4246 11.7554L16.4574 11.7509L16.4894 11.7421C16.4686 11.7478 16.4467 11.7514 16.4242 11.7526C16.3646 11.756 16.3012 11.7434 16.2442 11.7131C16.1781 11.6779 16.1467 11.6333 16.1361 11.6161L16.3841 11.4623L16.408 11.4475L16.561 11.3526Z" fill="white" stroke="white"/>
<path d="M17.3037 7.99051C17.2727 8.38447 17.0186 8.78482 16.6847 8.92244C16.5121 8.99271 16.2838 8.99062 16.0807 8.90751C15.88 8.82539 15.7583 8.68898 15.7189 8.54224L15.7189 8.54224L15.7185 8.54077C15.6017 8.11158 15.8544 7.62769 16.2566 7.46921L16.3031 7.57419H16.6285H16.6286H16.6286H16.6287H16.6288H16.6289H16.629H16.629H16.6291H16.6292H16.6293H16.6294H16.6294H16.6295H16.6296H16.6297H16.6297H16.6298H16.6299H16.63H16.63H16.6301H16.6302H16.6302H16.6303H16.6304H16.6305H16.6305H16.6306H16.6307H16.6308H16.6308H16.6309H16.631H16.631H16.6311H16.6312H16.6312H16.6313H16.6314H16.6315H16.6315H16.6316H16.6317H16.6317H16.6318H16.6319H16.6319H16.632H16.6321H16.6321H16.6322H16.6323H16.6323H16.6324H16.6325H16.6325H16.6326H16.6326H16.6327H16.6328H16.6328H16.6329H16.633H16.633H16.6331H16.6331H16.6332H16.6333H16.6333H16.6334H16.6335H16.6335H16.6336H16.6336H16.6337H16.6338H16.6338H16.6339H16.6339H16.634H16.6341H16.6341H16.6342H16.6342H16.6343H16.6343H16.6344H16.6345H16.6345H16.6346H16.6346H16.6347H16.6347H16.6348H16.6349H16.6349H16.635H16.635H16.6351H16.6351H16.6352H16.6352H16.6353H16.6353H16.6354H16.6355H16.6355H16.6356H16.6356H16.6357H16.6357H16.6358H16.6358H16.6359H16.6359H16.636H16.636H16.6361H16.6361H16.6362H16.6362H16.6363H16.6363H16.6364H16.6364H16.6365H16.6365H16.6366H16.6366H16.6367H16.6367H16.6368H16.6368H16.6369H16.6369H16.637H16.637H16.6371H16.6371H16.6372H16.6372H16.6373H16.6373H16.6374H16.6374H16.6375H16.6375H16.6376H16.6376H16.6377H16.6377H16.6378H16.6378H16.6378H16.6379H16.6379H16.638H16.638H16.6381H16.6381H16.6382H16.6382H16.6383H16.6383H16.6383H16.6384H16.6384H16.6385H16.6385H16.6386H16.6386H16.6387H16.6387H16.6387H16.6388H16.6388H16.6389H16.6389H16.639H16.639H16.6391H16.6391H16.6391H16.6392H16.6392H16.6393H16.6393H16.6394H16.6394H16.6394H16.6395H16.6395H16.6396H16.6396H16.6397H16.6397H16.6397H16.6398H16.6398H16.6399H16.6399H16.64H16.64H16.64H16.6401H16.6401H16.6402H16.6402H16.6402H16.6403H16.6403H16.6404H16.6404H16.6404H16.6405H16.6405H16.6406H16.6406H16.6407H16.6407H16.6407H16.6408H16.6408H16.6409H16.6409H16.6409H16.641H16.641H16.6411H16.6411H16.6411H16.6412H16.6412H16.6413H16.6413H16.6413H16.6414H16.6414H16.6415H16.6415H16.6415H16.6416H16.6416H16.6417H16.6417H16.6417H16.6418H16.6418H16.6419H16.6419H16.6419H16.642H16.642H16.6421H16.6421H16.6421H16.6422H16.6422H16.6423H16.6423H16.6423H16.6424H16.6424H16.6425H16.6425H16.6425H16.6426H16.6426H16.6427H16.6427H16.6427H16.6428H16.6428H16.6429H16.6429H16.6429H16.643H16.643H16.6431H16.6431H16.6431H16.6432H16.6432H16.6433H16.6433H16.6433H16.6434H16.6434H16.6435H16.6435H16.6436H16.6436H16.6436H16.6437H16.6437H16.6438H16.6438H16.6438H16.6439H16.6439H16.644H16.644H16.644H16.6441H16.6441H16.6442H16.6442H16.6443H16.6443H16.6443H16.6444H16.6444H16.6445H16.6445H16.6445H16.6446H16.6446H16.6447H16.6447H16.6448H16.6448H16.6448H16.6449H16.6449H16.645H16.645H16.6451H16.6451H16.6451H16.6452H16.6452H16.6453H16.6453H16.6454H16.6454H16.6454H16.6455H16.6455H16.6456H16.6456H16.6457H16.6457H16.6458H16.6458H16.6458H16.6459H16.6459H16.646H16.646H16.6461H16.6461H16.6462H16.6462H16.6463H16.6463H16.6463H16.6464H16.6464H16.6465H16.6465H16.6466H16.6466H16.6467H16.6467H16.6468H16.6468H16.6469H16.6469H16.647H16.647H16.6471H16.6471H16.6471H16.6472H16.6472H16.6473H16.6473H16.6474H16.6474H16.6475H16.6475H16.6476H16.6476H16.6477H16.6477H16.6478H16.6478H16.6479H16.6479H16.648H16.648H16.6481H16.6481H16.6482H16.6482H16.6483H16.6484H16.6484H16.6485H16.6485H16.6486H16.6486H16.6487H16.6487H16.6488H16.6488H16.6489H16.6489H16.649H16.649H16.6491H16.6492H16.6492H16.6493H16.6493H16.6494H16.6494H16.6495H16.6495H16.6496H16.6497H16.6497H16.6498H16.6498H16.6499H16.6499H16.65H16.6501H16.6501H16.6502H16.6502H16.6503H16.6503H16.6504H16.6505H16.6505H16.6506H16.6506H16.6507H16.6508H16.6508H16.6509H16.651H16.651H16.6511H16.6511H16.6512H16.6513H16.6513H16.6514H16.6514H16.6515H16.6516H16.6516H16.6517H16.6518H16.6518H16.6519H16.652H16.652H16.6521H16.6522H16.6522H16.6523H16.6524H16.6524H16.6525H16.6526H16.6526H16.6527H16.6528H16.6528H16.6529H16.653H16.653H16.6531H16.6532H16.6532H16.6533H16.6534H16.6535H16.6535H16.6536H16.6537H16.6537H16.6538H16.6539H16.654H16.654H16.6541H16.6542H16.6543H16.6543H16.6544H16.6545H16.6546H16.6546H16.6547H16.6548H16.6549H16.6549H16.655H16.6551H16.6552H16.6552H16.6553H16.6554H16.6555H16.6556H16.6556H16.6557H16.6558V7.57431L16.6668 7.57407C16.8854 7.56926 17.0669 7.62681 17.1747 7.70559C17.2623 7.76966 17.3119 7.85028 17.3037 7.99051Z" fill="white" stroke="white"/>
</svg>
