<svg id="Layer_1" data-name="Layer 1" xmlns="http://www.w3.org/2000/svg" viewBox="0 0 189.19 42.88"><defs><style>.cls-1{fill:#2e3282;fill-rule:evenodd;}</style></defs><title>logo</title><path class="cls-1" d="M152.48,40.45c-.6-1.57,1.33-.83,1.72-1.14,0,0-1.64,1.37-1.72,1.14m-6.1-3.27c-.08,0-.26-.27-.26-.27,0-.3-.6.49-.59-.27,0-.52,1.83.42,1.62.53A1.17,1.17,0,0,1,146.39,37.18ZM150.86,35c-.06,0-.31-.5-.51-.53-1.26-.21-.82.08-1-.53a11.74,11.74,0,0,0-.69-1.52c-.13-.14,0-.82-.08-1s-1.1-.19-1-.53c.27-.62-.25-3.35.44-3.64a9.92,9.92,0,0,0,.59-.9c0-.3.33.18.08.37s-.22,1.86.18,1.86a8.1,8.1,0,0,0,.85-2.39c0-.08.34,0,.36.08.1.4,1.57.53,1.72.61s-.28.71.26.82c.11,0,.59.35.85.16s.3-.67.69-.42c.24.15.79-.14,1,0,1,.57,1.29,3.76.34,4.52-.17.13-.21.94-.44,1-.56.1-1.27,1.13-1.44,1.06C152.29,33.68,151.79,35.43,150.86,35Zm-6.28-.61c-.14,0-.82-1.25,0-1.25,0,0,.3.51.44.45C145.61,33.3,145.48,34.42,144.59,34.34Zm-1.47-2c-.08,0-.39-.46.44-.53.07,0-.08-.27-.08-.27-.51,0,.38-.63,0-.72-.08,0,.08-.57.15-.35.22.68,1.27-.55,1.21.19,0,.06-.44.8-.77.8C143.28,30.6,144.37,32.45,143.12,32.29Zm1.91-.53s-.44-.72-.1-.72C145.52,30.44,145.46,31.76,145,31.76Zm.77-.27c-.39-.44.06-1.08.18-1C146.27,30.74,146.42,31.49,145.79,31.49Zm-.08-2.31c-.26-.27-.74-.42-.36-.61.76-.39.78-.7.88-.88C146.52,27.16,146,29.45,145.72,29.18Zm3,0c-.08,0,0-.42,0-.42C148.91,28.76,148.94,29.26,148.7,29.18ZM146.23,40c-.29-.14.64-.19-.1-.42-.1,0-.06-.38-.41-.27-.52.16-.29-.08-.54-.35-.07-.07-.49-.28-.51-.37-.12-.5-.08-1.15-.41-1.41s-.33,0-.51-.8c0-.1-.35-.34-.36-.37-.12-.42,0-.43-.26-.69s-.64-.2-.41-.8c.11-.28-.59-.83-.11-.72s.25-.15.36-.27.19.05.26,0-.58-.69-.62-.72c-.22-.17-.27-1.27-.08-1.33.61-.19.05-.15.44-.45s0-.53.15-.8c.06-.11.28.09.36,0s-.11-1.63-.1-1.75.09,0,.1,0c.27-.7.45,0,.59-.19.29-.43-.83,0-.51-.8.06-.14,0-.42.08-.53.15-.28.22.44.36.16s-.08-.25.15-.43c.43-.33-.29-.65.1-1.06.18-.18,0-.78.16-1s.24-.86.44-1.06.18.18.18.19.49-.72.59-.8c.33-.26.25-.33.77-.45,0,0,.23-.34.26-.35.67-.21.55-.41,1-.82.09-.09.07-.32.18-.43s.5-.42.51-.45,0-.19,0-.27a1.93,1.93,0,0,1,.59.19c.33.33.29-.4.44-.11.24.5-.09.47.26.11s1-.11,1.47-.19a6,6,0,0,1,1.36-.19s0,.23.26,0a1.22,1.22,0,0,1,1.29-.27c.07,0,0,.38.08.45s.29.23.36.19c.62-.37.69.08,1,.16.69.16,1.44.14,1.8.64.12.16.45.12.59.27.37.38.91.6,1.29,1,.17.18.44.13.62.27a8.67,8.67,0,0,1,1,1,7.84,7.84,0,0,1,.59.53,8.07,8.07,0,0,0,.62.8s1,1.42,1.11,1.17c.14-.42-.25-.65,0-.9s-.32-.47-.33-.69a11.37,11.37,0,0,0-.1-1.78c0-.15-.1-1.35.1-1.44s.37-.11.59-.35-.46-1.2.26-1.52c0,0,.3-.49.33-.53a.74.74,0,0,1,.88-.16c.33.22.32-.74.33-.8a1.58,1.58,0,0,1,.52-.11c.19.06.28.64.44.8s1,.08,1,.37,0,.57.08.61c.44.19-.15-.69.51-.35.23.12.63.5,1,.16s.36.46.51.53a3.14,3.14,0,0,1,.85.53,4.41,4.41,0,0,0,.62.45,7.94,7.94,0,0,1,.7.61c.29.29.21.18.33.72s.35.12.59.37.31.17.69.35.24.41.44.61.66.36.93.64.38.66.88.88c.17.08.47.91.67,1.06s.23,0,.26.08c.11.2.24.71.44.8.44.19.56.66.88,1s.2.31.33.64c0,0,.45.24.51.27s.22.51.26.53a7.68,7.68,0,0,1,.7.53c.17.13.22.54.41.69s.42.23.44.27a2.06,2.06,0,0,0,.59.72c.17.17.35.29.51.45.32.33.5.83.8,1.14.14.15.38,0,.51.19s.61.09.67,0,0-.53.1-.72,0-1,.59-.72c.05,0,.06.87.25.56s0-1.14.34-1.44-.06-.33.1-.53.48,0,.59-.19.25-1,.51-1.06c.52-.22.25,1.18.18,1.44,0,0-.09,0-.1,0-.05.21,0,1.14.36.8s0-.92.33-1,1-.06.26-.35c-.23-.1.14-.89.18-.9.89-.22.32.08.44-.88,0,0,.25,0,.16-.35s-.31-1.2,0-1.44a2.48,2.48,0,0,0,.44-.88c.06-.85-.3-1,.34-1.25.1,0,.91-.22.26-.35s-.25.17-.41-.27c-.09-.23-.42.1-.44,0a2.55,2.55,0,0,1,.33-1.78c.17-.4-.08-.33.44-.45,0,0,.33-.42.26-.45-.66-.24-.49.15-.77-.43-.15-.3-.65.11-.69.27a.61.61,0,0,0,0,.35c.33,1.12-.17.69-.26,1s.09.63-.26.27-.28.25-.18.27c.64.12.27,0,.54.27.54.56-.65.58-.18,1.06.19.19.47.65.08.88-.12.07-.19.56-.26.72-.3.71-.38-1.47-.44-1.25-.26,1,0,1.39-.08,2.31-.07.59-1.12.48-.52-.35a1.41,1.41,0,0,0-.08-1.17c-.26-.27-.06-.95.08-1.22a4.73,4.73,0,0,0,.18-2.76s-.29-.61-.44-.45.05.16,0,.19c-.82.46-.06-1-.08-1.06a5.76,5.76,0,0,0-.26-.61c-.34-.27.59-.12.26-.72-.2-.36-.1-.32-.51-.45s.11-1.66-.26-1.94.09-.24.16-.45c.16-.57.3-.18.44-.45s-.38-.29-.44-.35c-.3-.31.69-.17.77-.19.27-.05-.42-.33-.26-.43s.21.08.26,0c.18-.32-.2-.67.51-.53a1.24,1.24,0,0,1,.8.35c.3.24.65.25.93.53s.09,0,.26.45c0,.08.71,0,.77,0a1.14,1.14,0,0,1,.36-.19c.22-.1-.21-.78.34-.88s.77.38,1.47.27c.09,0-.11-.38.51-.27.46.08.42.44.59.8s.05.66.26.88c.54.55-.13.42-.15.64,0,.07-.11.87-.1.88.1.27.25.81,0,1.06s0,.24-.26.08-.24.43-.33.45c-.64.12-.51.11-.26.45.11.15.71-.1.34.43-.26.35.4.27.18.8a.24.24,0,0,0,0,.19c.42,1-.34.32-.44.88s.44.79,0,1-.28-.2-.44-.27a.37.37,0,0,0-.51.37c.13.08.33,0,.44.08a4.4,4.4,0,0,1-.18,1.06,1,1,0,0,0,0,.45c.18.78-.18,1.15-.08,1.94,0,.3.16.24,0,.61s0,.92-.18,1.25c0,0-.08,1.16-.08,1.17.12.18.25-.18.26-.18.32-.1.52.68.44,1,0,.06-.33.11-.36.08s0-.73-.41-.35c-.19.19-.7.07-.44.35s-.16.5-.18.61a3.61,3.61,0,0,1-.26,1.25c-.18.43.39.5.44.45.27-.28-.26,0,.26-.19,0,0,.2-1.44.51-1,.1.15-.39,1.24-.44,1.36s0,2.62-.67,2c-.18-.15,0-.31.08-.35.37-.38-.12-1.21-.51-.8a.63.63,0,0,0,0,.72c.19.2.28.9.44,1.22s-.36.44-.1.9-.08.48-.15.8c-.11.5-.07,1.37-.36,1.68-.14.15-.14.78-.33,1s-.72,0-.77.19c-.11.38-.09.82-.18,1.22-.15.66-.17.38-.67.64s0-.58-.36-.19-.3.67-.77.88-.56.22-1-.08-.21.22-.34-.53c0,0-.32-.32-.33-.35-.17-.23-1.34-.08-1.8-.19s-.18.08-.44.35c-.51.53-.45-.33-.51-.35-.59-.11-.7-.12-1-.45s-.57,0-.18-.43-.68-.68-.77-.8a1.15,1.15,0,0,1-.08-.9c.07-.11.56,0,.59-.08.15-.51-.27,0-.44-.53-.05-.19-.14-.18-.26-.27s-.3-.86-.41-.9-.2.07-.26,0,.1-.3,0-.34c-.86-.43-.65.85-1.21.27a1.57,1.57,0,0,1-.33-.61c-.09-.23-.06-.78-.18-.9s-.24-.49-.44-.69-.73-.31-1-.72c-.12-.22-.08-.34-.26-.53s-.52-.61-.85-.27-.54-.37-.69-.53.08-1.18-.52-.72-.62-.3-.77-.35c-.52-.16-.17.57-.34.61-.59.14-.81,0-.69.72.06.35-.14.49-.08.72a14.2,14.2,0,0,0,.08,1.49c.75.23.7.3.88,1.17,0,0,.15.05.15.08.08.48-.18.44,0,.88s-.09.6,0,.91a4.43,4.43,0,0,0,.18.88c.41.42-.24,1,0,1.25a8.81,8.81,0,0,1,.18,1.94c0,.14-.75,0-.87-.08s.06-.39-.15,0c-.51.92-.53-.47-.8-.19a6,6,0,0,0-.26,1.25c.05.23.29.49,0,.8-.12.12,0,.47-.08.64s-1-.28-1.11.08.05.16.08.19c.3.31-.46.57-.18.69.61.27-.5.31-.51.27-.16-.42.13-1.2-.08-1.41s-.29-.63-.52-.53c-.49.22-.88-.65-1.11-.53s-.5.39-.88,0c-.13-.14-.83,0-.85.19s.23.84-.26.69a9.85,9.85,0,0,0-.44-1.22.57.57,0,0,1-.08-.83s.43-1.79.41-1.86-.15-.13-.15-.16c-.06-.93.26-1.9-.18-2.5a.77.77,0,0,0-.18-.19c-.27-.2-.09-.28-.15-.69,0,0-.18-.16-.18-.19a6.16,6.16,0,0,1,.18-2.47,6.92,6.92,0,0,1,.33-1,3.42,3.42,0,0,0,.18-1.7c0-.56-.85,0-.7-.88,0-.08.38,0,.08-.27s.09-1.23-.26-1.41-.07.27-.16.35-.41-.17-.51.35c-.06.3-.1,1.55-.18,1.6s-.39-.21-.44-.08a.79.79,0,0,0,0,.45,1.52,1.52,0,0,1-.26,1.41c-.25.26.09.21,0,.53a2.7,2.7,0,0,1-.26.8c-.15.15-.88.11-.93.37s-.09.85-.18.88c-.48.15-.2.1-.52.35s-.35.67-.51.8-.51.15-.51.19a1.22,1.22,0,0,1-.36.8c-.24.25-.34,0-.52.45a8.92,8.92,0,0,1-.85.61c-.36.16-.52.12-.77.37a5.21,5.21,0,0,1-1,.69,6.75,6.75,0,0,0-1.21.37c-.18.08-.48.34-.67.42s-.66.07-.77.19c-.38.39-.76.1-1.29.26a1.57,1.57,0,0,1-1-.08s0-.1,0-.11c-.42-.13-.56.37-1-.16s-.14-.09,0-.37c0,0-.59-.86-.69-.8a1.4,1.4,0,0,0-.08.9c.31.43-.23.22-.26.35s.07.32,0,.45c-.26.46-.29-.62-.33-.64-.38-.16-.21,0-.36-.35a6.39,6.39,0,0,0-1.54-.53A1.33,1.33,0,0,1,146.23,40Zm22.85,5.8s-.11-.55.08-.37S169.2,45.5,169.08,45.8Zm-1.54-.27s-.35-.73-.26-.9S169.08,45.53,167.54,45.53Zm11-8.53c-.28,0-.28-.65-.18-.8S179.41,37.11,178.52,37Zm2.32-.45c-.05-.27-.47-1.3-.08-1.14.15.06.16.37.41.61s.74.45.18.45C181.35,36.47,180.85,36.6,180.84,36.55Zm-7.13-1.75c-.14,0-.22-1.2.33-.8C174,34.5,174.22,34.87,173.71,34.79Zm-9.19-.27s-.09,0-.1-.11C164.35,33.82,164.91,34.53,164.53,34.53Zm7.72-.72c-.31-.27-.62-.66-.41-1S172.6,34.12,172.25,33.81Zm13.48-.72s-.33-.75-.08-.88C186.52,31.76,186.58,33.12,185.73,33.09Zm2.75-1.51s-.26-1.07-.08-1.22c.37-.29.46-6.34,1.72-5a8.27,8.27,0,0,1-1,3c-.19.15-.14,1.46-.18,1.6-.13.4.55.41.36.72S188.93,31.58,188.48,31.58Zm-25.24-1.86c0-.21.35-.27,0-.27Zm11.24-2.47s-1-.78-.18-.72C174.36,26.53,175,27.24,174.48,27.24Zm.85-.19s-.77-1.11-.41-1C175,26.11,176,27.06,175.33,27.06Zm10.75-2.21c0,.52,0-1.09.15-1.25.41-.38,0,1.25,0,1.06C186.24,23.86,186.09,24.24,186.09,24.85Zm1.47-5.42c-.5-.21.15-1.71.15-.53C187.71,18.89,187.82,19.54,187.55,19.42Zm-39.44,26.8v-.08h-.18v-.08h-.16V46h-.36v-.08H147V45.8h-.1v-.37h-.08v-.08h-.08v-.19h.33v.45h.08v.08h.18v-.16h.08v-.11h.18v.11h.08v.08h.62v-.08h.08v-.37H148v-.08h-.44V45h-.34v-.11h-.18v-.08h-.18v-.08h-.15v-.11h-.36v-.08H146v.08h-.1v.11h-.08v.08h-.18v.08h-.08V45h-.08v.08h-.69V45h-.18v-.11h-.51v-.08h-.33v.08h-.36v-.08H143v-.08h-.26v-.11h-.18v-.27h-.08v-.53h-.26v.11H142V44h-.18v.08h-1v.11h-.34V44.1h-.08V44h-.1v-.08h-.18v-.11h-.52v.11h-.15V44h-.26v.27h-.1v.08h-.15v.11h-.36v.08h-.41v.08h-.44v-.08h-.08V44.2h.08v-.37h-.08v-.08h-.26v.08H137v-.08h-.16v-.08h-.36v-.19h-.26v.08H136v-.08h-.33v.19h.08v.08h.1v.08h.08v.11h.33V44h.1v.08h.93v.27h-.08v.11h-.26v.16h.18v.19h-.88v-.08h-1v-.11h-.33v-.08h-.36v-.19H135V44.1h-.15V44h-.1v-.08h-.15v-.11h-.18v.11h-.08V44h-.1v.08h-.34v-.43H134v-.26h-.08V43.3h-.18v-.08h-.15v-.11h-.77v.11h-.1v.08h-.08v.45h-.08v.08h-.1V44h-.41v-.08h-.18v-.11h-.51v-.08h-.18v-.08H131v.08h-.36v.08h-.33v-.08h-.08v-.08h-.1v-.26h-.08V43.3H130v-.08h-.1v-.11h-.18V43h-.08v-.19h-.44v.45h-.08v.18H129v.08h-.7v-.08h-.18v-.08h-.26V43.3h-.08v-.08h-.08v-.11h-.18V43h-1V43h-.18v-.11h-.15v-.08h-.69v-.08h-.08v-.11h-.69V42.5h-.18v.08h-.51V42.5h-.85v-.08h-.36v-.11h-.41V42h-.1V42h-.08v-.08h-.08v-.45h-.1v-.08H122v-.11h-.44v-.16h-.08V41h-.26v-.16h-.08v-.11H121v-.08H121v-.08h-.08v-.19h-.1v-.26h.1v-.19h-.1v-.16h-.08v-.11h-.08v-.08h-.1V39h.1V39h.08v-.11h.08v-.08h.1v-.35H121v-.37h-.08V38h-.1v-.11h-.08V37.8h-.18v-.72h.1v-.16h.16v-.11h.1v-.08H121v-.45h-.08V36H121v-.08h.11v-.08h.08v-.11h.08v-.08h.1v-.08h.08V35.4h.18v-.08h.08v-.19h.08v-.35H122v.08h.08v.19h.1v.08h.67v-.08H123V35h.34v.11h.18V35h.18v-.08h.08v-.08h.08v-.11h.1v-.08h.08v-.08h.18v-.11h.16v-.08h.44v-.08h.1v-.19h.34v.08h.08v.1h.1v.16h-.18v.64h-.08v.16h.08v.11h.51v-.11h.08v-.16h.1V35H126v-.16h.08v-.19h.18v-.08h.18v-.11h.08v-.08h.08v-.08h.18v-.1h.34V34h-.08v-.11H127v-.27h.08v-.08h.08v-.08h.1v-.19h.08v-.19h.33v.19h.51v.19h-.08v.08H128v.08h-.1V34h.1v.08h.08v.19h.08v.16h-.08v.11H128v.08h-.1v.08h-.08v.19h-.08V35h-.1v.11h-.08v.08h-.08v.19l.51.08v.08h.15v.11h.1v.35h.26v.35h.08v.11h.51v.08h.51v.08h.18v.11h.33v.08h.52v.08H131v.11h.15V37h.18v-.08h.25V37h.08v.08h.18v.11H132v.08h.18v-.08h1v.08h.18v.45h-.1v.34h.1v.11h.08v.08l.18-.08v-.45h.15v-.11h.18v-.08h.26v.08h.08v.11h.44v.08h.18V38H135v.08H135v.19h.28v-.08h.08v-.11h.08v-.45h1.39v.11h.41v.08h.18v.27h-.08v.11h-.1v.16h.1v.1h.08v.35h.08v.08h.26v-.08h.1V38.7H138v-.11h.08v-.08h.18v.34h.18v-.08h.08v-.19h.08v-.26h.1v-.16h.08v-.11h1v.11h.51v.08h.88v.08h.15v.1h.62v.08H142v.19h.08v.08h.18V39h.08V39H143v.19H143v.16h.18v-.08h.08v-.08h.51V39H144v.35h.08v.26h.08v.19h.1v.08h.16V40h.18v-.11h.08v-.08h.1v-.08h.33v-.11h.18v-.08h.26v.19h.08v.42h-.08v.27h.34v.11h.36v-.11h.08v-.08h.08v-.06l.36.09v.24h.08v.08h.26v.11h.18v.08h.15v.19h.1v.08h.26v.08h.41v.11h.1v.27h.08v.08h.26v.08h.59v.11h.1V42h.08V42h.08v.11h.1v.16h-.1v.11h-.08v.16h-.08v.11h-.1v.42h-.08v.11h-.33v-.11h-.62v-.34h.1v-.19h-.1V42.5h-.08v-.08H148v-.11h-.18v.11h-.08v.08h-.1v.34h-.08V43h-.26V43h-.08v.08H147v.11h-.18v.08h-.08v.18h.08v.08h.33v-.08h.1v-.08h.26v.16h.08v.19h.69v-.08h.08v-.11h.18v-.08h.26v.19h.08v.27h.18v-.11h.08v-.08h.08v-.08h.36v.08h.08v.08h.08v.27H150V44h.36v.08h.08v.11h.1v.08h.08v.08h.08v.11h.26v.16h-.08v.11h-.08v.08h-.36v.45h-.08v.08h-.1v.08h-.08v.11h-.08v.08H150v.08h-.08v.11h-.08V46h-.44v-.35h.08v-.19h-.08v-.08h-.26V46h.08v.19h-.08v.08h-.26v-.08h-.33v.08Zm.26-1.76c-.16-.06.57-.68.44-.37C148.74,44.24,148.77,44.63,148.37,44.47Zm-9.7-.27-.1-.11C138.56,43.37,139.6,44.2,138.67,44.2Zm12.45-.64s-.73-.08-.33-.35.87.18.41-.45,2,.94.77.8Zm-8.93-.45a2.12,2.12,0,0,0-1-.27c-.76.23-.25-.63-.33-.88-.24-.67,1.12-.4,1.29-.45.58-.18.18.9.33.9C144.46,42.42,142.45,43.32,142.19,43.11Zm7.8-.42c-.39-1.79,1.54.23.44,0C150.29,42.66,150,42.74,150,42.69ZM133.93,42s-.47-.56-.08-.35c.21.11,1-.53.51-.53,0,0-.17-.25,0-.37.45-.33,1.69-.26.77.72A1.33,1.33,0,0,1,133.93,42Zm4-.08s-.33-.09-.26-.37C138,40.45,139.46,41.89,138,41.89Zm1.72,0c-.21-.26-1,.4-1-.53,0-.36,1,.15,1,.16C140.46,41.83,139.86,42.1,139.7,41.89ZM135,40.3c-.06,0-.62-.41,0-.45a7,7,0,0,1,1.06.35A2.36,2.36,0,0,1,135,40.3ZM139.78,39s-.71-.19-.77-.19c-.82.06.22-.76.26-.26a2.87,2.87,0,0,0,.77.11C140.36,38.61,140,39,139.78,39Zm-6-.61c0,.09.39-.26-.08-.26S133.81,38.22,133.75,38.43Zm-6.43-2.76c0-.06-.21-.27,0-.27C127.32,35.14,127.18,35.52,127.32,35.67Zm-2.57-1.78c0-.23.26-.5.26,0Zm-1.47-.08c0-.28-.09-.35.18-.35C123.46,33.74,123.55,33.81,123.28,33.81Zm2.16-.19c0-.24,0-.88.26-.88,0-.2,1.18-.64,1.18-1.25h-.26c0-.57-.41.11-.41.35h-.62c0-.31.49-1.06.77-1.06,0-.48.52.26.52-.53.71,0,.32-.88,1-.88,0-.14.62-.52.62-.8.69,0,.5-.61.77-.61,0-.19.16-.11.34-.11,0,.65.62-1,.62-.42.09,0,.59.32.59-.11.2,0,.13-.27-.26-.27,0-.73,0-.61.69-.61,0,.31-.76.61-.1.61,0,0,.93-1,.44-1v-.43c.72,0-.18-.77-.18-.27-1.1,0,.13.53-.41.53,0,.75-1.39-.38-1.39.43-.12,0-.34.39-.34-.16-.31,0-.67-.9-.1-.9,0-.42.8-.47.8,0,.78,0,.8-.88,1.44-.88,0,.38.52-.1.52.19.26,0,0,.39,0,.53.63,0-.1-1,.88-1,.46-.47-.26-.79-.26-.45-.18,0-.7.69-.7-.08a.9.9,0,0,0,.7-.8.51.51,0,0,0,.41-.45c.45,0-.58-.72.18-.72,0-.23.63-.8-.18-.8,0,.38-.41-.35-.41,0-.53,0-.33.9-1,.9,0,.16-.77,0-.77.35-.14,0-.85-.16-.85.11a4.38,4.38,0,0,0-.8.53c-.56,0-1.11.16-1.7.16,0-.11,0-.08-.1-.08,0-.59-.85.82-.85.08-.25,0-1.72.18-1.72-.08-.31,0-.37-.27-.7-.27,0,.08-.68.27-.85.27,0,0-.52-.46-.52-.19-.74,0-1.47,0-1.47-.8.41,0,.51.33.51-.35-.16,0-.77.18-.77-.11-.64,0-.77-.08-.77-.8a.34.34,0,0,0,.26-.27c.31,0,1.29,0,1.29-.35-.1,0-.41-.23-.41-.35h-1c0-.75.07-.9.77-.9,0-.07,1.36-1,1.36-.43.53,0,.18-.27.77-.27,0-.12.57-.19.69-.19,0-.38-.4-.35-.77-.35,0-.37-.7.31-.7-.53.06,0,.59-.33.59,0,.6,0,1,.39,1-.37,1,0,1.61.19,2.6.19,0-.24,1.7.27,1.7-.19.52,0,1-.54,1,.53.89,0,.4-.53,1.13-.53,0,.55.76.27,1.11.27,0,.42.26.19.44.19,0-.77,1.7.3,1.7-.08.55,0,.7.19.7.8.26,0,.26.24.26.53.12,0,1.39.29,1.39,0,.14,0,0-.27.51-.27,0-.23.26-.13.26-.53,0,0-.85-.53-.44-.53,0-.55,1-.69,1,.16.28,0,.14-.53.59-.53,0-.24.85-.06.85-.45.53,0-.41-.69.62-.69,0,.13,0,.88-.26.88,0,1.27.27,0,.41,0s.8-1.1.8-.53c.82,0-.19,1.44.33,1.44v.27c.49,0,.29.27.59.27,0-.76-.3-1.52.44-1.52,0,.07.26.34.26.53.76,0,.26.15.26.61a2.87,2.87,0,0,0-.33.45c-.48,0-.67.72-.44.72,0,.65.59.14.59.53.15,0,.36.2.36-.19.07,0,.67-.57.67,0-.4,0,.38.72,0,.72,0,.35-.77.51-.77.88-.23,0,0,.61-.67.61,0,.06-.74.27-.36.27,0,.94.48-.08,1-.08,0-.15.77-.32.77.19,0,0-.59.72-.77.72,0,.27-.69,0-.69.53-.14,0,0,.61-.51.61,0,.26-.77.44-.77.72-.19,0-.77-.24-.77,0-.2,0-1,.54-1,.8-.33,0,.42.61.1.61,0,.32-1.29.57-1.29.27-.34,0,.21-.45-.36-.45,0,0-.34-.89-.34-.42a5.22,5.22,0,0,0-1.54,1.41c-.73,0,.13,1-.26,1,0,.24-.38,0-.44,0,0-.65-.26-.51-.26-.19-.59,0,.65.9,0,.9,0-.44-.59.18-.59.35-.23,0-.7.53-.7.8-.39,0-.7.88-.44.88,0,.64,0,.72-.59.72,0-.25.26-.72.08-.72,0-1-.79.45-.93.45s-.62.4-.62.72c-.73,0-.35,1-.77,1,0,.23-.51,0-.51.37-.11,0-.59.71-.59,0,0,0,.87-.64.41-.64,0-.11-.3-.53-.08-.53,0-.22.46-.69-.08-.69,0,.35-.51.28-.51.8a2.76,2.76,0,0,0-1.13,1.06c-.28,0-.51.72-.77.72A2.27,2.27,0,0,1,125.44,33.62ZM124,33.46c0-.08-.37-.27-.1-.27,0-.77.68-.11.36-.11C124.23,33.45,124.34,33.46,124,33.46Zm.15-.8a1,1,0,0,1,.88-1c0,.24.33-.09.33.16.54,0-.77,1.22-.77.53C124,32.37,124.56,32.66,124.13,32.66Zm.88-1.25c0-.31,0-.27.26-.27C125.26,31.46,125.31,31.42,125,31.42Zm2.24-.11c0-.24-.92-.69.15-.69a1.37,1.37,0,0,1,.52-.37c0,.47-.52.55-.52,1.06Zm.93-1.22c0-.23.44-.63.44-.19C128.47,29.9,128.37,30.09,128.17,30.09Zm2.68-.8c0-.1-.27-.18-.34-.18,0-.86.08-.53.67-.53,0-.85-.07-1.25.7-1.25,0-.39.7.07.7-1,.78,0,.61-.43,1.29-.43,0-.64.67,0,.33,0,0,1-1.54.63-1.54,1.33.2,0,.7.61-.08.61,0-.45-.52.52-.52.64C131.2,28.49,131.62,29.29,130.85,29.29Zm-3.45-.64c0-.35.62-1.38.62-.42C127.58,28.23,128.16,28.65,127.4,28.65Zm1-.61c0-.37-.15-.8.44-.8,0-.6.05-.64.59-.64,0,.46-.34.41-.34.64C128.6,27.24,129,28,128.43,28Zm4.3-3.19c0-.1-.16-.37.1-.37C132.83,24.15,133.24,24.85,132.72,24.85Zm5.25-.11c0-.06-.14-.43.08-.43,0-.08.74-.8.44-.8,0-1,.58-.27,1-.27,0,1-1,.64-1,1.41C138.29,24.66,138.21,24.74,138,24.74Zm-4.55-.69c0-.19-.58-.45.18-.45C133.6,23.78,133.93,24.05,133.42,24.05Zm1.11-4.28c0-.09-.39-.42.1-.42,0-.07.77-.74.77,0C135.24,19.35,135,19.77,134.53,19.77Zm4.22-2.66V17C139.21,17,139.21,17.11,138.74,17.11ZM98.12,47.47c0-.13-.48-.61-.18-.61,0-.6,0-.72.51-.72,0,.21.06.27.26.27a10.48,10.48,0,0,0-.26-2.21c0-.4-.43.27-.51.27,0,.5-.86-.37-.33-.37,0-.32.19-1.06-.1-1.06,0-.12-.52-.77-.52-.35-.09,0-.08,0-.08.08-.38,0-.34-1.25.26-1.25,0-.52.69-.13.69-.53-.42,0-.55-.61-.26-.61,0,0,.39-.61.08-.61,0-.35-.24-1.33-.08-1.33,0-.08-.36-1.13-.36-.37-.38,0,0-1-.51-1,0-.32-.67.16-.67-.8-.35,0-.36-.24-.36.53.35,0-.15,1.25-.15.8-.17,0,0-.08-.26-.08,0,.17-.26.8-.26.45-.42,0-.18-3-.18-3.46.43,0-.31-2.69.18-2.69,0-.17,0-.35-.18-.35,0-.29.13-1.67-.18-1.67,0-.23-.19-1.44.1-1.44,0-.18-.27-.8,0-.8,0-.24.48-2.13.26-2.13,0-.15-.3-.8,0-.8,0-.26.05-2.39-.18-2.39,0-.25-.09-.72.18-.72,0-.49-.08-1.94.34-1.94,0,.42.52-.19.69-.19,0-.74,1.44-.63,1.44-.35.13,0,.26.83.26-.45.38,0,.58.08.87.08,0,.28.26.66.26,0,.11,0,.52-.21.52.11.24,0,.77.5.77.08.25,0,.77-.86.77.08.85,0,1.12,1.52,1.29,1.52,0,.27,1.37.89,1.37,1.25.31,0,.36.66.36,1,.33,0,.46,1.06.77,1.06,0,.13.06.08.18.08,0,.31.31.88.59.88,0,.83.52.13.52,1.06.25,0,1.11,1.25,1.11,1.51.37,0,.69,0,.69.37.25,0,.59.84.59,1.06.32,0,.12.88.62.88,0,0,.77.37.77.61,0,0,.67.53,0,.53,0,.86.51.09.51.8.06,0,.59.52.59-.08.15,0,.51-.15.51.19.29,0-.1,1.06.51,1.06,0,0,.26-.36.26-.53.5,0,.24-1.17.51-1.17,0-.4-.21-2,.18-2,0-.13,0-3.11-.33-3.11,0-.2-.15-1.86,0-1.86,0-.61-.69,0-.69-.53-.35,0-.2-1.7-.44-1.7,0-.2-.55-1.25-.08-1.25,0-.63-.51-.13-.51.19-.58,0-.7,0-.7-.61a.35.35,0,0,1-.33-.37c.34,0,.12-1,.51-1,0-.45.59.5.59-.37-.56,0-1.29-.19-1.29-.8.65,0,.69.37,1.21.37,0,.2.26.84.26.43.83,0,1,.29,1-1,.33,0-.33-.64,0-.64,0-.59-.44.12-.44-.8.36,0,.7.13.7-.45.38,0,1.47-.47,1.47,0,.49,0,.77.19.77.72.41,0-.36.95-.36,1-.16,0-1.29,0-1.29.19-.42,0,.26.64.26.8.34,0,1,.54,1-.11.14,0,.62.29.62,0h.08c0-.2,1.47-.78,1.47-.27.37,0-.11-.27.41-.27,0,.78.7-.61.7.11.34,0,.26,1.06.26,1.33,1,0,.34,1,.77,1,0,.47-.08.79-.08,1.33-.35,0,.55,1.78,0,1.78,0,.21-.1,0-.1.27.36,0-.26.53.1.53,0,.35.15.28.15.53.26,0-.15,1.33-.15,1.6.13,0,.38.8.08.8,0,.27-.29,1.36.08,1.36,0,.11.68,1.22.26,1.22,0,.23-.2,1.17.1,1.17,0,.42-.15,1.22.26,1.22,0,.64-.77.65-.77.82-.56,0,.28-.72-.18-.72v-.27c.75,0,0-.63,0-.9.63,0-.29-.43-.33-.43,0-.18-.31-1,0-1,0-.23-.14-1.06.15-1.06,0-.78-.33-.38-.33-1.25-.11,0-.18-.65-.18-.8-.19,0-.15,1-.15,1.25-.56,0,.07-.72-.36-.72,0-.65-.16.48-.16.72-.51,0-.18,1-.18,1.41-.64,0-.41-1-.7-1,0-.89-.33-.88-.33-2-.24,0,.18-.88-.18-.88,0-.56,0-2.66-.59-2.66,0-.43-.51-.14-.51.43-.14,0-.36.39-.36.53.16,0,.26.27.26.45-.31,0,0,.88-.52.88,0-.06-.78-.88-.15-.88,0-.28-.26-.69-.26-1.06-.28,0-.44-.73-.44.53a8.13,8.13,0,0,1,.33,1.14c-.49,0-.51-.38-.51.53.1,0,.26.27.26,0,.69,0,.6,2.69,1,2.69,0,1.22.7-.23.7.27.3,0,.33.56.33.88-.74,0,.36,1,.36,1.06,1.06,0,0,.53.51.53,0,.85-.16.27-.51.27V31c.06,0,.38,2.13,1,2.13,0,.18,0,1.52.26,1.52,0,.2.17,0,.26,0,0-.31,0-.72.26-.72,0-.32.19-1.33-.18-1.33,0-.3.18-1.06-.18-1.06,0,0-.62-.72-.15-.72,0-1,.35-.43.85-.43,0,.12.17.35-.18.35,0,.21-.14,1,.18,1,0,.15.12.42.26.42,0,.64.18.71.18,1.17-.23,0,.48,2.31.51,2.31,0,.38.67.46.67,1.22.38,0,0,1.1,0,1.36.05,0,1,.42.51.42a6.26,6.26,0,0,0,.36,1.52c0,1,.3,2.58-.77,2.58,0,.19-.18.61-.18.8-.67,0-1,.07-1-.64-.15,0-1.54-.54-1.54-.34-1.07,0,0-.8-.52-.8,0-.28-.59-.2-.59.45-.24,0,0,.69.34.69,0,.19.21,1.09.1,1.09,0,.29-.7-.79-.7-.19-.5,0,0-.53-.51-.53,0,.23-.7.42-.7.08a1.82,1.82,0,0,1-.52-.53c-.81,0,.11-.61-1.1-.61,0-.29-1.36-.8-1.65-.8,0-.63-.59-.68-.59-1.06-.25,0,.12-1.06-.26-1.06,0-.56.59-.14.59.08-.21,0,.35,1.06.7,1.06,0-.21.2-1.59-.08-1.59,0-.39.33-.27.33-.72,0,0-.76-1.33-1.1-1.33-.15.11-.11.15-.11.34-.79,0,.26.5.26.8.39,0-.41.58-.41.11,0,0-.59-.72-.87-.72,0-.26-.44.08-.18.08,0,.22,1.55,1.09.1,1.09,0,.28.39.53.16.53,0,.57-1.18-.42-1.18-.8-.31,0-.5-.83-.77-.83,0-.17-.51-.26-.51-.88-.24,0-.53-.88-1-.88,0-.27-.23-.37-.51-.37,0,.49-.52.49-.52.11-.32,0-.77-1.09-.77-1.52-.44,0-.6-.19-.88-.19,0-.72-.59-.68-.59-1-.85,0-.18.65-.18,1.14-.31,0-.58.45.1.45,0,.3-.47.53-.69.53v.61c.32,0,.37-.08.69-.08,0,.21.15,2.21-.1,2.21,0,.29.1.11.1.27.25,0-.17,1.06.15,1.06,0,.24,0,.72-.26.72,0,.38.9,1.25-.26,1.25,0-.24-.33-.28-.33.08,0,0,.44,1.26.44,1.33.2,0,.15,1.91.15,2,.47,0,.05,2,.44,2,0,1.23-.13,0-.44,0,0-.21-.51-.23-.51-.91-.06,0-.67-1-.67-.42-.54,0-.71.53-.26.53,0,.16-.51.84-.51.53-.46,0,.25-1.06-.51-1.06,0,.08-.21,1.06.08,1.06,0,1,.28,1-.85,1,0-1.22-.7,0-.7-.43C97.73,46.6,98.76,47.47,98.12,47.47Zm-2.24-2.39c0-.19.17-.61-.08-.61V43.41c.2,0,.59,1.35.59,1.67Zm4.73-5.24c0-.16-.51-.8-.51-1.06-.2,0-.23-1.7,0-1.7,0-.33.51.07.51.27.31,0-.22,1.17.15,1.17v1.14C101,39.66,100.91,39.84,100.62,39.84Zm8.16-2.58c0-.09-.53-.45-.1-.45C108.67,37.13,109,36.79,108.77,37.26Zm1-.08c0-.17-.87-.45-.18-.45,0,.22.5.27.18.27Zm.34-.37c0-.15-.44-.22-.44-.61-.13,0-.18-.27.1-.27,0,.32.41.37.41.72C110.32,36.65,110.15,36.63,110.06,36.81Zm-9.88-1.59c0-.27-.08-.51-.08-.8-.46,0-.44-.31-.44-.8.26,0-.25-.53.25-.53,0,.28.14.72.44.72C100.36,34.11,100.55,35.22,100.18,35.22Zm4.89-.08c0-.07-.31-.35-.08-.35C105,34.34,105.62,35.14,105.07,35.14ZM96,33.62a.2.2,0,0,0-.15-.16c0-.66-.41-2,.33-2C96.14,31.76,96.6,33.62,96,33.62Zm8,0c0-.08-.45-.35,0-.35C104,33.39,104.33,33.62,104,33.62Zm6.61-1.25c0-.42-.21-.27.18-.27C110.75,32.36,110.82,32.37,110.57,32.37ZM95.88,31c0-.07-.2-.42-.26-.42,0-.2,0-1.25.18-1.25,0-.58.51-.39.51,0C96,29.37,96.72,31,95.88,31Zm18.55-.42c0-.13-.47-1.06,0-1.06,0-.15,0-.11.18-.11C114.61,30,115.63,30.62,114.43,30.62Zm.69-3.56a3.13,3.13,0,0,0-.51-.72c0-.43.08-.81.08-1.33.65,0,.17,1.17.62,1.17,0,.17.08,0,.08.16C115.52,26.34,115.36,27.06,115.12,27.06ZM112,23.52c0-.25-.54-.53.16-.53,0-1.19.67.35.36.35C112.55,23.46,112.18,23.52,112,23.52Zm.08-1.44c0-.64.26-1.22.26,0Zm4.48-3.91c0-.16-.24,0,0-.27C116.79,17.91,116.29,17.94,116.59,18.18Zm.26-.69a4.29,4.29,0,0,0-1-.45c0-.42.52-.45.93-.45,0,.18.18.07.18.37C117.34,17,117.37,17.48,116.85,17.48Zm-5.76-.27c0-.27-.52,0-.52-.37-.39,0,.44-1.22.44-.61.4,0,.52.59.52,1ZM85.92,13a4.84,4.84,0,0,0-1.47-.45,1.18,1.18,0,0,0-1-1c0-.4-1-.15-1-.45-.49,0-1.36-1.17-1.36-1.68-.3,0-.81-1,.08-1L81.52,8c0-.61.52.43.52-.27H82c0-.63.53-.27,1-.27,0-.39-.43-.8.26-.8,0-.4.89,0,1.11,0,0-.28.87-.2.87.19.29,0,.68.19,1,.19,0,.4,1,1.06.33,1.06,0-.3-1-.07-1-.45-.74,0,.51.82.51.53.59,0,.28.45.7.45,0,.37,1.36.71,1.36,1,.12,0,1,.8,1,.8,0,.46.62.35.62.9-.36,0,.26.53-.1.53,0,.16-2.24-.17-2.24-.64-.69,0,.36,1.16.36,1.25.31,0,.56.53.26.53,0,.63-1.54-.35-1.65-.35C86.34,13.12,86.42,13,85.92,13Zm-.51-3.38c0-.33-.69-.09-.69-.8-.45,0-.7-.11-.7-.53-.08,0-.57-.37-.26-.37,0-.38.7.25.7.27.8,0,.39.53,1.29.53,0-.39,1.41.72.77.72C86.52,9.67,85.58,9.67,85.41,9.67ZM85,7.7c0-.14-.56-.53.18-.53,0,.84.26,0-.33,0C84.9,7.43,84.89,7.54,85,7.7ZM65.39,45.27c0-.21-2.16-.83-2.16-.53-.58,0-.83-1-1.36-1,0,.35.58,1-.18,1,0-.18-.23-.9,0-.9,0-.27-1.54,0-1.54-.35-.2,0-.23-.37-.51-.37,0,.35-1-.27-1,.19-.55,0,.14-.72.18-.72v-.27h1c0-.76-.69-.74-.69-1.14H59c0-.62.59,0,.59-.53.11,0,.51.15.51-.08.23,0,.49-.45.18-.45,0-.22-.42-.45.26-.45,0,.31.46-.16.15-.16,0-.27-.67.22-.67-.19-.34,0-.44,1-.44.08-.44,0-.12-1.06-.44-1.06,0-.17-.08,0-.08-.16-.41,0,.08-.88.08-1.17-.45,0,.29-.8,0-.8,0-.22-.51.24-.51-.27-.24,0,0-2.62,0-2.84.73,0,.1-1,.1-1.14-.46,0-.7-.57-.7.35-1.14,0-.58-2-.87-2,0-.78-.34-.79-.34-1.49.27,0-.08-.4-.08-.45-.26,0,0-.61.08-.61,0-.4-.18-.81-.18-1.17-.13,0-1.22-5.42-.67-5.42,0-.28,0-1.49.15-1.49,0-.43.77-.6.77-.9.09,0,.77-.3.77-.08.16,0,.39-.53.62-.53,0-.91,1.29-.52,1.29-.88,0,0,.26-.14.26-.19,1.18,0,1.61-.45,2.83-.45,0,.13.37.64.18.64,0,.51-.44.62-.44,1.22-.63,0,.26.5.26.11.36,0,1.9-.4,1.9-.64-.76,0,.26-1-.1-1,0-.43-.59.74-.59.27-.08,0-.26-.27-.44-.27,0-.8.38-1,1.13-1,0-.33,1,.09,1-.45-.36,0-.45-.08-.77-.08,0-.59-1.31.08-1.54.08,0,.36-.8-.31-.8.27-1.06,0,.52-.72.69-.72,0-.1,2.06.15,2.06-.61.63,0,.49-.27,1.21-.27,0-.2,1.29.16,1.29-.19a4.52,4.52,0,0,1,.51-.08c0,.35.41.45.77.45v.08h.26c0-1,1.11.08.69.08,0,.54.09.8.59.8,0-.67-.72-.69,1-.69a5.34,5.34,0,0,0,.77.43c0-.28.77-.21.77.11.36,0,1.47,0,1.47.43.15,0,0,.11.26.11,0,.18,1.54.2,1.54.88.37,0,1,.29,1,.64.41,0,.4,1.22.67,1.22,0,.52.36.74.36,1,.59,0-.39,2.47-.69,2.47,0,.15-.59,1-.18,1,0,.44-.67.33-.67.64-.12,0-.59.8-.87.8,0,.45-1.29.64-1.29.88a10.83,10.83,0,0,0-1,.88c-.28,0-.6.64-1,.64,0,.46.87.47.87.72.27,0,2.32.36,2.32.61.23,0,1.11.29,1.11.45A5.69,5.69,0,0,1,78,29.9c.52,0,1.21,1.18,1.21,1.68.63,0,.44.21.44.64,0,0,.33.09.33.16,1.14,0,.8,1.44,1,1.44,0,1,.26,1,.26,1.86-.2,0-.56,1.33-.85,1.33,0,.09-.25.45-.33.45,0,.71-.62.56-.62,1-.62,0-.49.8-.93.8,0,.22-.44-.11-.44.35-.1,0-.26.18-.26.27-.56,0-.55.88-1,.88,0,.29-.1.11-.1.26-.43,0-1.62.41-1.62.8-.11,0-.28.27-.7.27,0,.23-.16.53-.41.53,0,.21-1.42.83-1.83.83,0,.21-1.54.34-1.54.61a6.13,6.13,0,0,0-1.7.61c-.75,0-1.46.27-2.24.27,0,.33-.87-.31-.87.27C65.72,45.16,65.66,45.27,65.39,45.27ZM58.16,42c0-.51.26-.11.26-.72.16,0,.77.27.44.27C58.86,42,58.62,42,58.16,42Zm-.33-1.41c0-.18-.69-.8.08-.8,0,.46.07.42.51.42C58.42,40.49,58.12,40.56,57.83,40.56Zm17.52-.27c0-.37.06-.37.44-.37,0-.65.52-.51.52-.16C75.9,39.76,75.75,40.3,75.35,40.3Zm-9.8-1s-.65-.45.18-.45C65.73,38.45,66.91,39.31,65.55,39.31Zm-.41-.72c0-.07-.35-.61-.44-.61,0-.75-.18-1-.18-1.7.31,0-.26-1.35-.26.11-.26,0-.51.78-.51-.27.5,0-.34-.8.26-.8,0,.43.44-.53.1-.53,0-.83-.1-1.35-.1-2.13.31,0-.21-.56.51-.56,0,.34,1.72.17,1.72.56.63,0,1,.08,1.62.08,0,.55.58,0,.62,0,0-.46.41-.19.69-.19,0,.36,1.29-.06,1.29.27.14,0,.41.64.77.64,0,.07.29.61.08.61,0,.31-1,.67-1,1.25-.68,0-.8.88-1,.88,0,.46-.85.86-.85,1.14-.54,0-.12.37-.87.37,0,.33-1.44.34-1.44.8C65.93,38.51,65.5,38.59,65.13,38.59ZM62,38.51c0-.13-.08,0-.08-.27-.17,0-1.07-3.56-.7-3.56,0-.67-.08-1.38-.08-1.86.68,0,.21,1,.51,1,0,.32,0,.61.26.61,0,.28-.22,2.85.26,2.85C62.2,37.71,62.95,38.51,62,38.51Zm-1.36-.64c0-.16-.08,0-.08-.16-.31,0-.18-1.47-.18-1.78.19,0,.44,0,.44.19,0,0,.61,1.68.26,1.68v.08Zm2.14-.61c0-.24-.52-.35-.52-.8-.19,0,.13-1.94-.15-1.94,0-.63-.46-.8.51-.8,0,.13.08,0,.08.27.14,0,.22,2.82.51,2.82C63.23,37.16,63.13,37.26,62.79,37.26Zm-4.71-.53c0-.15-.44-.25-.44-.8-.1,0,.06-2,.44-2,0,.35.29,2.66.18,2.66v.19ZM61,32.56c0-.17-.2-.45.18-.45,0-.36-.24-1,.26-1,0,.08.17.53-.08.53C61.35,32.11,61.82,32.56,61,32.56Zm10.83-5.85c0-.31-.59.15-.59-.37-.35,0,0-.69-.36-.69,0-.57,1,.1,1-.27.44,0,.7.59.7,1.06C72.16,26.44,72.18,26.71,71.82,26.71ZM68,25.38c0-.16-.09-1.17-.33-1.17,0-.94.85.8.85.19.49,0,.69-.24.69.53-.09,0-.69.53-.69.08C67.88,25,68.5,25.38,68,25.38Zm-4.71-1c0-.07-.11-.61-.26-.61,0-.47-.29-2.15-.69-2.15,0,0-.37-.35-.1-.35,0-.15.8-.25.8-.53.4,0-.7-.72-.18-.72,0-.18.77-.23.77-.69.46,0,.13.53.44.53,0,.65,1.29-.69,1.29-.27,0,0,.41.37.41.08.89,0,1.33-.53,2.31-.53,0,.17,1-.08,1.13-.08,0-.91.52-.19.26-.19,0,.24-.64,1.33-.85,1.33,0,.27-1.06.65-1.06,1-.11,0-.85.63-.85.8-.62,0-.73.8-1.36.8,0,.75-.87.55-.87,1C64.09,23.78,63.62,24.4,63.33,24.4Zm-2.75-5.58c0-.65-.18-.9.41-.9,0,.36.87,0,.87-.27.48,0,.65.53.33.53,0,.31-1,0-1,.53C61,18.71,61,18.81,60.58,18.81ZM64.7,18c.48,0,0-.49,0-.19-.12,0,.18-.31.18.19Zm1.21-1s-.21-.35.08-.35c0-.21.77-.41.77.16C66.61,16.85,66.18,17,65.91,17Zm2.31-.19s-.9-.45-.18-.45v.11c.37,0-.07-.27.62-.27,0,.16.64.53.15.53v.08Zm3-1c0-.07-.3-.27-.36-.27,0-1.55.57-.16.69-.16C71.57,15.75,71.8,15.86,71.23,15.86ZM12.8,47.74c0-.06-.71-.53-.33-.53,0-1-1,.78-1-.45.7,0,.44-.3.44-.8-.16,0-.08-.78-.08-1-.4,0-.87.45-.87-.19.61,0,.31-.61.88-.61,0-.26.33,0,.33-.45-.26,0,.22-.72-.18-.72,0,0-.69-1.33-.33-1.33,0-.32.16-1.33-.18-1.33,0-.66-.11-.61-.77-.61,0,.19-.18-.09-.18.35.41,0-.2,1.51.1,1.51v.27c-1,0-.45-2.13-1-2.13,0,.28-.23.26-.51.26,0,.22-.38,1,.08,1,0,0,.44.45.08.45,0,.55-.67,1.12-.67,0-.49,0,.27-1,0-1,0-.32,0-2.47-.26-2.47V37.8c-.35,0,.66-1.6-.18-1.6,0,.92-.94-.35-.44-.35,0-.06.13-.27.18-.27,0-1.58.77-.22.77-.9.14,0,0-1.41-.08-1.41,0-.32-.47.19-.52.19,0-.47-.2.43-.36.43,0-.45-.31-3.38,0-3.38,0-.18.31-.61.51-.61,0,.74,0,.8.69.8,0,.15.21.08.33.08,0,.22,0,1.06.18,1.06,0,.58,1-.43.59-.43,0-.51-.18-2.77.1-2.77,0-.31,0-.8-.36-.8,0-.26-.59-.86-.59-.53H9.12c0,2.2-1,.17-1,1.06.24,0-.26.71-.26.19-.27,0,.19-.72-.18-.72,0-.26.16-1,0-1,0-.2.05-.8-.15-.8,0-.05-.52-.33-.52-.53-.39,0-1.57-.67-1.57-1-.37,0-.6-.8-1.11-.8a7.43,7.43,0,0,0-1-1.17c0-.17-.3-1-.08-1,0-.43.33,0,.33-.8,0,0,.63-.69.87-.69,0-.27.85-.11.85-.8-.51,0,.42-.53.51-.53,0-.41.44-.52.44-1,.55,0,.24.72.85.72a.22.22,0,0,1,.18-.19c0-1.38.33.9.33-.45.27,0,.26-1,.26-1.33.41,0-.39-1.06,0-1.06,0-.35-.26-1.41.1-1.41v-.27c-.25,0-.47-1.7-.26-1.7,0-.92-.36-.57-.36-1.14.35,0-.41-.6-.41-.27-.47,0-.21-2.39.41-2.39a5.43,5.43,0,0,1,.62-.72c0-.8.34-.56.34-1.25.25,0,0-.72.85-.72,0,.44.7-.09.7-.16h1.21c0-.25,2.06-.14,2.06-.45H15c0,.65.93.46.93.27,1.27,0,2.4-.27,3.63-.27,0-.42,2.39.28,2.39-.19.16,0,7.05.11,7.05.45.38,0,1.88.46,1.88.72a9.78,9.78,0,0,1,1,.61c0,.53,1.13.23,1.13,1.25.2,0,.39.8.93.8a14.11,14.11,0,0,0,1.54,1.25c0,.08.44.8.1.8,0,.83.41.33.41.88-.21,0,.14.9-.15.9a5.75,5.75,0,0,1-.52,1.14,5.64,5.64,0,0,1-1,.88c0,.29-.26.42-.26.53a10.09,10.09,0,0,0-2.16,1.44A2.57,2.57,0,0,0,30.43,18c-.27,0-1,0-1,.27-.72,0-.94.88-1.72.88,0,.07-1,.31-1,.53-.25,0,.15.35-.26.35,0,.27-1.29,0-1.29.37-.69,0-1,1.14-1.88,1.14,0,.31-1.54.38-1.54.64-.34,0-1.39.54-1.39,0,.15,0,.37-.63.26-.72-.78,0-1.19.61-1.88.61,0,.38-1.54,0-1.54.64.14,0,.08.13.08.27.19,0,1.13.26,1.13-.11,1,0,0,.42,0,.72-.19,0,0,.08-.18.08,0,.42-1.11-.26-1.11.64.14,0,.29.35.41.35a8,8,0,0,0,1.8,1.41,6.4,6.4,0,0,0,1.39,1.17c0,.2.67.18.67.61.21,0,1.13.55,1.13.8h.18a6.42,6.42,0,0,0,1.54,1.17A4.72,4.72,0,0,0,26,31c0,.25,1.47.87,1.47,1.17.21,0,1.21.66,1.21.88a3.27,3.27,0,0,1,1.36,1.17,3.21,3.21,0,0,1,1,.8c.43,0,.36.61.77.61,0,.19.87.24.87.72a5.68,5.68,0,0,1,1.21.8c.42,0,.41.36.41-.53.18,0,.62.13.62-.19.28,0,.81-.45.26-.45,0,.19-.19.11-.36.11,0-1.1,0-.45-.33-.45,0-.5-.59.23-.59-.08-.18,0-.63-.64-.1-.64,0,.35.49-.08.18-.08,0-.28-.33-1-.33-.45-.49,0,.2-3.8.26-3.8,0-.75.67-1.27.67-2,.21,0,.36-.22.36.27.26.36.65-1.06.93-1.06,0-.19.26-.55.26-.8.17,0,.25-1.6.62-1.6,0-.25.33-1.33.51-1.33,0-.09.59-.29.59-.53.78,0,0-.88.77-.88v-.11c.28,0-.52-1.14.26-1.14,0,.47.77-.09.77-.45.5,0,.83-.53,1.54-.53,0-.33.62.32.62-.45.53,0,.26.09.26.45.13,0,.13.35,0,.35,0,.72,1.21-.94,1.21.11.46,0,.58-.72,1.18-.72,0-.27,1.72.38,1.72-.19.57,0,.51.45.85.45,0-.35,1-.53,1,.45.21,0,.77,0,.77.27.2,0,.44.58.44-.27.58,0,.53.8,1.11.8,0,.31.77.19.77,1.06.22,0,1,.78,1,1a3.74,3.74,0,0,1,.77,1.06c.36,0,.77.53.77.88.36,0,1.44,1.86.69,1.86,0,.46-.31,1.06.33,1.06,0,.29.1.11.1.27.4,0,.59,1.78.51,1.78,0,.17.31,1,0,1,0,.31-.44,0-.44-.27-.84,0-.1,1.25,0,1.25,0,.47.08.72.08,1.22.44,0-.47,1.7.18,1.7,0-.76.89.43.33.43,0,.14.26.53,0,.53,0,.39-.33.33-.33-.16-.47,0-.31.35-.77.35-.21.22,0,.8-.44.8,0,.34-.67,1.2-.67.8-.32,0,.29-.61-.26-.61,0,.06-.27.26,0,.26,0,.38-.36.5-.36,1.06-.72,0-.38-.53-1-.53a1.5,1.5,0,0,1-.67.61c0,.37-.88,0-.88,1-.88,0-.63.88-1.62.88,0-.44-.51,1.07-.51,0-.46,0-.38.45-1,.45,0,0-1,.56-1,.27-.69,0-.64.35-1.21.35,0,.54-.51.19-.51,0-.09,0-2.42,0-2.42-.27-1,0-1.56-.43-2.47-.43,0,0-.65.8-.18.8,0,.42.59.71.59,1.14.33,0,.07.37-.15.37,0,.94-1.54-1.35-1.54-.11-.32,0-.7-.19-.7.27,0,0-.69.44-.69.11-.53,0,0-.72-.51-.72,0-1-.85-.53-.85-1.25-.09,0-.44-.42-.44-.08-.39,0,.08,1.09.08,1.41-.11,0-.08,0-.08.11-.47,0,.73.69,0,.69,0,.83-.77-.19-.77.53.36,0-.33.44-.33.11-.32,0-.48-.72-.87-.72,0-.43-1-.2-1-.8-.17,0,0-.11-.15-.11,0-.31-.62.47-.62,0-.15,0-.33-.52-.33.19-.69,0-.46-.72-1-.72,0-.38-.33-.4-.33-.69.18,0,.74-.45.18-.45,0-.51-.87-.42-.87-.72-.21,0,0-.69-.52-.69,0-.16-1.35-.64.1-.64,0,.13.59.78.59.26-.46,0-.08-1.44-.08-1.67-.08,0-.89-.72-.36-.72,0-.21.79-.8,1-.8,0-.3-.15-.17-.15-.61.39,0-.77-1.35-.77-.45h-.1c0,.69-.19.45-.85.45,0,.69-.51-.11-.51.27-1.12,0-.08.36-.08.61.1,0,1,.61.33.61,0,0-1-1-1-.27.2,0,.33.64.77.64,0,.26,1,.53-.26.53-.14.15.47.53.1.53,0,.49-1.57-.76-1.57-.8-.29,0,0-.45-.67-.45,0-.19-1.54-1-1.54-1.25-.63,0-.58-.69-1-.69,0-.28-.62-.14-.62-.72-.13,0-.08-.07-.08-.19-.32,0-1,0-1-.35a9.2,9.2,0,0,1-1.29-.88c-.29,0-.39-.45-1-.45,0-.23-1-.69-1-1,.25,0,1.31-.27.44-.27,0-.29-1.65-.74-1.65-.45-.67,0-1.44-1-1.44.37-.12,0-.52,1.06-.18,1.06,0,.41-.26,1.25.18,1.25,0,.24-.34,1.33,0,1.33,0,.31-.31,1.49,0,1.49,0,.25.15-.06.15.27.22,0,.34,1.17.1,1.17,0,.34.15.38.15.72-.12,0-.27,1.67,0,1.67,0,.38.23,2.21-.15,2.21,0,.43.33.14.33.82.48,0-.26,1.17-.26.61-.15,0-.08-.39-.08-.53-.47,0,.15,1.88.15,2.21-.57,0-.23-.53-.52-.53,0-.47-.19-.61-.67-.61,0-.27.17-1.51-.1-1.51,0-.3-.41.17-.41-.08-.58,0,.36,1.25-.1,1.25,0,.4.18,1,.18,1.41.23,0,.6.72.26.72,0,.67-.51,0-.51,1.06C13,47.66,13.07,47.74,12.8,47.74Zm-2.32-1.33v-.08c-.24,0-.18-.67-.18-.91C10.68,45.42,11.15,46.41,10.49,46.41Zm2.24-2.47c0-.23-.44-1.17-.26-1.17,0-1.3.15.27.59.27a.09.09,0,1,1,.18,0c.25,0-.52.08-.52-.35,0,0-.26-1.12-.26.08C12.28,42.77,12.72,43.7,12.72,43.94Zm.08,0c.29,0-.13-.64.36-.64C12.86,43.3,12.87,43.6,12.8,43.94Zm-1.47-.19c0-.19-.19-1.06.18-1.06C11.52,43.26,12.14,43.75,11.34,43.75Zm-2.57-.64c0-.27-.23-.61.26-.61C9,42.8,9.34,43.11,8.76,43.11ZM13.68,43c0-.09-.33-.35.08-.35C13.75,42.8,14,43,13.68,43Zm-.26-1.25c0-.12-.36-.79-.36-.16-.37,0-.08-.94-.08-1.25-.49,0,.33-.82.33-.53.25,0,0,1.41.36,1.41C13.68,41.44,13.6,41.78,13.42,41.78ZM30,41.17c0-.42-.51-.22-.51-.88-.45,0,0-.37,0-.11.33,0,.85.69.85,1Zm-19-.08c0-1.3.18-1.3.18,0ZM14.53,41c0-.37-.44-.15-.44-.8.42,0,.51.14.51.64C14.79,40.83,14.76,41,14.53,41ZM9.64,39.39c0-.05-.31-.53,0-.53,0-.22.26,0,.26-.53.6,0,.08,1.62.08.53C9.48,38.86,10.09,39.39,9.64,39.39ZM26.8,38.33c0-.25-.93-.35-.93-.88.32,0,.36.42.93.42,0,.53.39,0-.08,0,0-.3-1,.11-.26.11C26.46,38.07,26.68,38.27,26.8,38.33Zm2.86-.27c0-.19-.44.07-.44-.34-.44,0,.26-1,.26-.27.28,0,.17-.19.69-.19C30.17,37.84,30.42,38.06,29.65,38.06Zm-4-1.52c0-.45-.12-.16.26-.16C26,36.61,25.92,36.55,25.69,36.55Zm4.81,0s-1.12-.35-.69-.35c0-.74.44-.39.44,0C30.67,36.2,30.91,36.55,30.5,36.55ZM9,36.39c0-.2-.08,0-.08-.19-.33,0,.43-.53-.08-.53,0-.9.84.45.59.45C9.46,36.27,9.19,36.39,9,36.39Zm32.83-.72c0-.25-.69-.38-.69-1.14,0,0-.19-2.77.33-2.77,0-.7.62-1.07.62-1.78.22,0,.08-1,.44-1,0-.24.15,0,.15-.19.27,0-.7-1.41.44-1.41,0-.27.76-.72,1-.72,0-.5.85-.49.85.08.51,0,.12,1.7.51,1.7,0-.55.77-.14.77-.9.24,0,1.31-.06,1.31.27,1.32,0,1,2,1.36,2,0,.17,0,1.41.18,1.41,0,.6-.87.7-.87.19-.18,0-.28-2-.51-2,0-.47-.61.53-.15.53a19.39,19.39,0,0,1-.18,3c0,.34-.44.52-.44,1-.56,0-.38.53-.69.53,0,.35-.51.53-.51.72-.16,0-1.36.06-1.36.27,0,0-.7.55-.7.19C43.11,35.59,42.55,35.67,41.85,35.67ZM35,35.48c.63,0,.41-.65.41-1.33-.26,0-.59-1.19-.59-.08-.4,0,.23,1.14,0,1.14,0,.44.2-.35-.08-.35,0-.17-.08-.8.08-.8,0-1.1.33.08.59.08C35.39,34.84,35.61,35.48,35,35.48Zm-22.43-.61c0-.07-.53-.88-.15-.88,0-2,0-1,.33-1C12.72,33.46,13,34.87,12.54,34.87Zm-2.91-.34c0-.06-.34-.8-.1-.8,0-.43-.19-1.36.26-1.36C9.79,32.89,10.41,34.53,9.64,34.53Zm13-.27c0-.25-1.65-.75-1.65-1.43.51,0,.93.53,1.57.53C22.53,33.51,23,34.26,22.61,34.26ZM22.27,33s-.55-.72-.1-.72c0-1.06.33.08.62.08C22.79,32.86,22.94,33,22.27,33Zm12.2-.19s-.45-.53-.1-.53c0-.44.48-.27.7-.27C35.06,32.84,35.19,32.82,34.47,32.82Zm-13.92-.16c0-.13-.51-.15-.51-.56C20.14,32.11,21.09,32.66,20.55,32.66Zm-7.49-1.09c0-.06-.33-.35-.08-.35,0-.38.1-.53.44-.53,0-.36.67-.38.67-.08.4,0-.3.42-.59.42C13.5,31.51,13.77,31.58,13.06,31.58Zm-1.88-1.41c0-.12-.36-.8-.1-.8C11.08,28.85,11.75,30.17,11.18,30.17ZM8.5,29.82c0-.2-.25-1.17.1-1.17,0-.62.76.8.26.8C8.87,29.75,8.8,29.82,8.5,29.82Zm26.22-.53c0-.6.27-.27,0-.27Zm.08,0c.37,0,.18-.43.18,0Zm12.63-.18c0-.56-.29-1.06.18-1.06C47.61,28.37,47.79,29.1,47.43,29.1Zm-30.49-7c0-.53.52-.13.52-.45C18.35,21.63,17.3,22.08,16.94,22.08Zm1-.35c0-.3,1-.71,1-.27C18.48,21.47,18.45,21.74,18,21.74Zm2.91-.19c.38,0-.59-.19.18-.19,0-.4,1.57-.69.15-.69,0,.11-1.7.58-1.7.8-1.08,0,.41-1.14.41-.53.24,0,1.29-.37,1.29-.53.32,0,.69-.37.69.27.33,0,1.13-.37,1.13,0-.56,0-.87.69-1.39.69C21.65,21.65,21.1,21.33,20.88,21.55ZM15,21.1c0-.19.26-.67.26-.88.59,0,.65-.45-.1-.45,0,.32-.67.79-.67.11.42,0,.38-.64,1-.64,0,.28.59,0,.59.37-.32,0-.26.19-.26.53.36,0,1.5.53.69.53C16.51,21,15.33,21.1,15,21.1Zm-.1-2.55c0-.13.47-1,.18-1a15.67,15.67,0,0,0,0-2.84c0-.71.08-1.57.08-2.39.12,0,.77-.45.77-.61.64,0,.63-.64,1.13-.64,0,0,1.36-.36,1.36,0,.11,0,.36.39.36.08.59,0,1.29-.27,1.88-.27,0,.16,0,.11.18.11,0-.34,3.17-.45,3.52-.45,0,.21,1.18,0,1.18.45.27,0-.13.53-.33.53a3.87,3.87,0,0,1-1.47,1.41,11.32,11.32,0,0,1-1.54,1.33,9.06,9.06,0,0,1-1.47,1.06c0,.2-.33.27-.33.45-.41,0-2.06.92-2.06,1.25-.25,0,.25.72-.33.72,0,.08-.56.27-.7.27a.41.41,0,0,0-.33-.37c0,.3-1.39.63-1.39.8C15.18,18.44,15.15,18.55,14.86,18.55Zm7-1.52c0-.3-.17-.53.36-.53,0-.2.77-.82.77-.11-.07,0-.67.45-.77.45C22.27,17,22.08,17,21.91,17ZM86.52,44.36s-1.2-.42-.26-.42c0,.34.52-.19.18-.19,0,0-.36-.53-.1-.53,0-.49.44.11.44-.37-.44,0-.64-.61-1.21-.61v.88c-.58,0-.28-1.33-.26-1.33,0-.21.19-1,0-1,0-.68-1.11-.23-1.11-1.06.38,0,.49-.53-.08-.53,0-.65-.62,1.13-.62.35-.18,0,0-1-.26-1,0,0-.62-.61,0-.61,0-.31,0-.45-.26-.45,0-.93.26-1.1.26-1.86-.31,0-.14-1.25-.52-1.25,0-.55-.12-1.33.44-1.33,0,.61.39,0,.41,0,0-2.25-.3-.61-.59-.61,0-.22-.36-.8,0-.8,0-.48.26-.25.26-.72-.54,0,.55-1.52-.26-1.52,0-.52,0-3.11.44-3.11,0-.17-.25-.69,0-.69,0-.9.33-.94.33-.11.1,0,.26.27.26,0,.24,0,.41-1,0-1,0,.1-.44.27-.44.08-.21,0,.18-1.75.18-1.94-.15,0-.08-.39-.08-.53.52,0,0-1.89.85-1.89,0,.4.44.82.44.27a4.38,4.38,0,0,1,.33-1.94c0-.68.69.45.69.53.49,0-.1-.61.59-.61,0,.44.3,1.06.69,1.06,0,.2-.15,1.06.08,1.06,0,0,.26.78.26.27.48,0-.38-.53.26-.53,0-.14,1.05-.73,1.05-1.06.06,0,.26-.28.26,0,.26,0,.27.69-.1.69,0,.52-.16.42-.16.8.26,0,.34.38.34-.27.62,0,.34-.41.34-.88.61,0,.5.8.36.8,0,.58-.47.88.26.88,0-1.11.31-.35.85-.35,0,.42.85.78.85,1,.29,0,0,.8.36.8,0,.05.34.45.08.45,0,.59-.44.46-.44.8.81,0,.26,1.91.26,2.47-.31,0,.1,2-.26,2,0,.19-.52,1.49-.15,1.49,0,.86-.62,1-.62,1.78-.61,0-.28.35.26.35,0,.79-.26,1.3-.26,2,.28,0,.18,2.66-.08,2.66,0,.55-.75.29-.44.61.75,0-.14,1.09.18,1.09,0,1.34.08,2.46.08,3.88-.28,0-.51-.9-.51-1.22.36,0-.26-1.56-.26-.8-.08,0-.41.82-.41-.19-.89,0,.14,1.14-.26,1.14,0,.31,0,.27.26.27,0-1.63.42-.35.26-.35v.19c-.31,0,0,.43.15.43V43c-.49,0-.59,0-.59.53-.7,0-.15-.8-.69-.8,0,.09-1.29,1-1.29.53-.45,0-.33,0-.33.45-.58,0-.36.29-.36.69Zm1.72-4.44v-.08h-.1v-.08h-.08v-.53h.08v-.11h.18v.11h.44v.08h.08v.45H88.5v.08h-.1v.08ZM83.87,39v-.88h.08V38h.18v.19h.08v.26h-.08v.16H84V39Zm4.71-.8v-.08H88.5v-.64h-.1v-.45h.1v-.16h-.1v-.11h-.08v-.27h.18v-.16h-.1v-.11h-.08v-.35h-.08v-.08h-.1v-.11h-.08v-.27h.08v-.43h-.08V35H88v-.27h.08v-.35h.08v-.08h.26v.08h.1v.08h.08v.19h.18v-.19h.08v-.08h.1v-.08H89v-.37h.08v-.08h.26V34h-.08v.08h-.08v.08h-.1v.37h.1V35h-.1v.19H89v.19h-.08v.08h-.1v.08h-.08v.19h.08v.72h-.08v.08H88.5v.19h.15v.08h.1v.08h.08v.11h.1v.35h-.1v1ZM90,38.06V38h-.51v-.26h-.08v-.91h.08v-.08h.08v-.08h.26v.08H90v.08h.08v.53h.26v-.08h0v.08h-.26v-.53H90v-.08h-.18v-.08H89.6v.08h-.08v.08h-.08v.91h.08V38Zm.08,0h.1V38h.08V37.8h.08v-.19h.1v-.08h.08v-.08h0v.08h-.08v.08h-.1v.19H90.3V38h-.08Zm-.26-2.31v-.27H90V35.4H90v-.08h.08v-.19H90v-.08H90v-.19H89.6v-.08h-.08v-1h.08v-.19h.1v-.35h-.1v-.19L89.53,33h-.08v.19h-.1v.08h-.26v-.35H89v-.19h.08v-.08h.1v-.11h.16v-.08h.18v.19h.08v.27h.26v.8H90v.08H90V34H90v.27h.59v.08h.08v.19h.1v.08h.08V35h-.08v.11h-.1v.08h-.08v.08h-.08v.11h-.1v.08H90.3v.08h-.08v.19h-.1v.08Zm.69-3.91v-.61h.18v.08h.08v.19h-.08v.35Zm-5.84-.43v-.53h-.08V30.7h.08v-.19h.18v.11H85v.08H85V31H85v.35H84.9v.11ZM83.51,31V31h-.08v-.19h.08V30.7h.08v-.08h.1v-.11h.26v-.27h.18v.45H84v.19h-.08V31h-.08V31Zm8.16-6.46v-.11h-.08v-.27h.08v-.08h.1v-.08h.08l.08.08v.35h-.08v.11Z" transform="translate(-3.28 -4.86)"/></svg>