<svg width="498" height="75" viewBox="0 0 498 75" fill="none" xmlns="http://www.w3.org/2000/svg">
<g clip-path="url(#clip0)">
<path d="M13.1 70.62C13.1 71.03 12.98 72.19 13.44 72.19V72.33C14.68 72.33 13.8 70.62 13.1 70.62Z" fill="black"/>
<path d="M10.23 66.59C11.31 66.59 10.71 66.04 10.71 65.53C9.80996 65.53 10.23 66.13 10.23 66.59Z" fill="black"/>
<path d="M211.93 21.06C211.93 20.54 211.59 20.73 211.59 20.41C210.84 20.41 209.87 20.45 209.87 21.2C210.03 21.2 211.78 21.87 211.78 21.99C212.74 21.98 212.7 21.06 211.93 21.06Z" fill="black"/>
<path d="M200.08 20.87C200.08 21.59 201.04 21.04 201.04 21.52H201.85C201.85 20.84 201.64 19.8 200.89 19.8C200.89 18.75 199.34 20.87 200.08 20.87Z" fill="black"/>
<path d="M143.03 47.89C143.03 47.78 142.49 47.62 142.41 47.62C142.41 46.87 142.77 46.5 141.59 46.5C141.59 45.63 140.31 43.59 139.34 43.59C139.34 43.33 137.51 41.13 137.27 41.13C137.27 40.84 135.63 40.34 135.21 40.34C135.21 39.91 131.4 39.27 130.89 39.27C130.89 38.83 129.26 38.83 129.26 38.03C130.07 38.03 130.66 36.91 131.18 36.91C131.18 36.86 133 35.39 133.1 35.39C133.1 34.98 135.5 34.65 135.5 33.86C136.03 33.86 136.9 32.47 137.13 32.47C137.13 31.94 138.38 32.12 138.38 31.36C137.62 31.36 138.72 29.9 138.72 29.64C139.28 29.64 141.12 25.34 140.02 25.34C140.02 24.92 139.35 24.53 139.35 23.63C138.85 23.63 138.86 21.51 138.1 21.51C138.1 20.9 137.02 20.4 136.33 20.4C136.33 19.22 133.45 19.18 133.45 18.88C132.92 18.88 133.26 18.69 132.97 18.69C132.97 17.93 130.92 17.95 130.23 17.95C130.23 17.41 128.79 17.28 128.79 17.77C128.6 17.77 127.35 17.02 127.35 17.02C124.23 17.02 125.58 17.06 125.58 18.23C124.64 18.23 124.47 17.77 124.47 16.84C125.24 16.84 123.17 14.93 123.17 16.7H122.69V16.56C122.02 16.56 121.26 16.37 121.26 15.77C120.82 15.77 120.5 15.91 120.3 15.91C120.3 16.5 117.9 15.88 117.9 16.23C116.56 16.23 116.81 16.69 115.65 16.69C115.65 18.01 111.81 17.59 111.81 17.76C111.49 17.76 108.54 19 110.51 19C110.51 18 112 19.17 112 18.54C112.44 18.54 114.88 17.37 114.88 18.4C115.49 18.4 115.66 18.54 116.32 18.54C116.32 19.49 114.4 18.75 114.4 19.33C113 19.33 112.29 19.65 112.29 21.04C112.62 21.04 112.95 21.51 113.11 21.51C113.11 22.33 114.21 20.3 114.21 21.04C114.89 21.04 112.99 22.71 114.4 22.71C114.4 23.12 111.53 23.81 110.85 23.81C110.85 24.5 109.18 23.63 110.37 23.63C110.37 22.59 111.19 22.39 111.19 21.51C111.55 21.51 110.86 20.63 110.86 20.4C108.58 20.4 107.79 21.19 105.58 21.19C105.58 21.27 105.16 21.52 105.1 21.52C105.1 22.14 102.7 21.45 102.7 23.05C102.27 23.05 101.84 23.97 101.55 23.97C101.55 23.58 100.29 24.11 100.11 24.11C100.11 24.64 98.67 24.94 98.67 25.68C98.33 25.68 98.38 27.79 98.38 28.28C97.35 28.28 99.39 37.71 99.63 37.71C99.63 38.34 99.96 39.06 99.96 39.75C99.74 39.75 99.33 40.81 99.82 40.81C99.82 40.9 100.46 41.6 99.96 41.6C99.96 42.83 100.59 42.85 100.59 44.2C101.13 44.2 100.08 47.77 102.22 47.77C102.22 46.17 102.67 47.16 103.52 47.16C103.52 47.48 104.69 49.15 103.33 49.15C103.33 49.54 102.87 54.1 103.33 54.1C103.33 54.98 104.29 54.19 104.29 54.57C104.83 54.57 103.45 55.96 104.29 55.96C104.29 56.47 103.39 57.99 104.14 57.99C104.14 58.28 104.29 57.98 104.29 58.27C104.88 58.27 104.29 60.11 105.11 60.11C105.11 61.68 105.29 59.97 105.92 59.97C105.92 60.67 107.16 59.82 107.16 60.3C107.73 60.3 106.88 61.12 106.88 60.58C105.62 60.58 106.4 60.98 106.4 61.37C106.98 61.37 106.49 62.16 106.07 62.16C106.07 62.55 105.31 62.29 105.11 62.29C105.11 63.29 104 62.15 104 63.22H104.14C104.14 63.91 105.44 63.88 105.44 65.21H103.53V65.67C103.46 65.67 102.16 66.92 103.19 66.92C103.19 66.13 105.11 67.2 105.11 66.59C105.65 66.59 105.7 67.24 106.07 67.24C106.07 67.82 108.94 67.38 108.94 67.84C108.51 67.84 108.94 69.11 108.94 69.42C110.36 69.42 109.28 68.31 109.28 67.71C110.28 67.71 110.74 69.42 111.83 69.42C111.83 68.91 115.86 69.98 115.86 70.34C116.37 70.34 116.47 70.16 116.63 70.16C116.63 69.15 118.26 70.27 118.26 69.7C119.71 69.7 121.04 69.23 122.43 69.23C122.43 69.02 125.24 68.17 125.6 68.17C125.6 67.71 128.48 67.47 128.48 67.11C129.24 67.11 131.89 66.04 131.89 65.67C132.36 65.67 132.65 65.15 132.65 64.75C133.42 64.75 133.75 64.29 133.94 64.29C133.94 63.62 136.17 62.9 136.96 62.9C136.96 62.62 137.16 62.95 137.16 62.44C138.05 62.44 138.04 60.91 139.08 60.91C139.08 60.77 139.37 60.45 139.56 60.45C139.56 59.65 140.37 60.23 140.37 59.85C141.19 59.85 140.94 58.46 142.1 58.46C142.1 57.72 143.25 57.99 143.25 56.74C143.41 56.74 143.88 56.11 143.88 55.96C144.42 55.96 145.09 53.64 145.46 53.64C145.46 52.22 144.98 52.06 144.98 50.4C144.53 50.4 145.16 47.89 143.03 47.89ZM127.34 18.42C127.34 18.97 127.78 19.16 126.72 19.16C126.72 19.04 126.16 18.7 126.05 18.7C126.05 16 127.11 18.42 127.34 18.42ZM120.77 20.09V20.27C121.45 20.27 120.63 19.8 121.92 19.8C121.92 20.09 123.11 20.73 122.21 20.73V20.87H121.11C121.11 20.86 119.42 20.09 120.77 20.09ZM116.93 20.59C116.93 20.22 118.37 19.87 118.37 20.87C118.09 20.87 117.29 21.19 116.79 21.19C116.79 21.11 116.4 20.59 116.93 20.59ZM114.64 22.43C114.79 22.41 114.99 22.65 114.85 22.8C114.85 22.85 114.87 22.85 114.87 22.9H114.54C114.73 22.9 114.8 22.85 114.85 22.8C114.82 22.53 114.73 22.43 114.64 22.43C114.58 22.44 114.53 22.47 114.53 22.58C114.41 22.58 114.52 22.44 114.64 22.43ZM107.62 22.73C107.62 23.36 109.25 22.8 109.25 22.26C110.15 22.26 110.45 23.18 109.87 23.18C109.87 23.71 108.1 23.18 108.1 24.1C107.55 24.1 107.54 24.29 106.86 24.29C106.86 23.17 106.53 22.73 107.62 22.73ZM108.44 45.77C108.44 45.91 108.75 46.7 108.3 46.7C108.3 47.45 109.17 48.23 107.63 48.23C107.63 47.94 107.25 47.44 107.96 47.44C107.96 46.81 107.51 45.77 108.44 45.77ZM107.82 57.34V57.47H107C107 57.19 106.86 57.49 106.86 57.2C106.28 57.2 106.52 54.64 106.52 54.1C106.88 54.1 107.34 54.09 107.34 54.42C107.4 54.42 108.47 57.34 107.82 57.34ZM109.54 58.59C109.54 58.37 109.4 58.54 109.4 58.12C109.08 58.12 107.41 51.92 108.1 51.92C108.1 50.76 107.96 49.53 107.96 48.68C109.24 48.68 108.35 50.39 108.92 50.39C108.92 50.93 108.88 51.45 109.4 51.45C109.4 51.94 109 56.4 109.88 56.4C109.88 57.18 111.27 58.59 109.54 58.59ZM110.98 56.41C110.98 55.99 110.02 55.8 110.02 55.02C109.67 55.02 110.26 51.64 109.73 51.64C109.73 50.55 108.87 50.25 110.69 50.25C110.69 50.47 110.84 50.29 110.84 50.72C111.11 50.72 111.24 55.62 111.8 55.62C111.8 56.23 111.61 56.41 110.98 56.41ZM111.99 34.02C111.99 33.9 111.79 32.96 111.51 32.96C111.51 32.14 110.97 29.21 110.21 29.21C110.21 29.14 109.53 28.61 110.02 28.61C110.02 28.34 111.5 28.17 111.5 27.68C112.24 27.68 110.2 26.43 111.17 26.43C111.17 26.11 112.61 26.04 112.61 25.23C113.46 25.23 112.84 26.16 113.43 26.16C113.43 27.29 115.83 24.97 115.83 25.69C115.92 25.69 116.6 26.34 116.6 25.84C118.26 25.84 119.07 24.91 120.91 24.91C120.91 25.21 122.78 24.77 123.02 24.77C123.02 23.19 123.99 24.45 123.5 24.45C123.5 24.87 122.3 26.76 121.92 26.76C121.92 27.23 119.96 27.89 119.96 28.47C119.74 28.47 118.37 29.56 118.37 29.87C117.22 29.87 117 31.25 115.83 31.25C115.83 32.55 114.2 32.21 114.2 32.96C113.39 32.95 112.51 34.02 111.99 34.02ZM120.77 35.72C120.77 35.43 120.6 33.69 120.14 33.69C120.14 32.06 121.73 35.08 121.73 34.02C122.65 34.02 123.03 33.6 123.03 34.95C122.87 34.95 121.73 35.87 121.73 35.09C120.45 35.08 121.62 35.72 120.77 35.72ZM116.12 59.97C116.12 59.92 114.92 59.18 116.46 59.18C116.45 58.48 118.66 59.97 116.12 59.97ZM126.86 50.86C126.86 51.41 125.08 52.02 125.08 53.04C123.81 53.04 123.58 54.57 123.16 54.57C123.16 55.36 121.58 56.05 121.58 56.56C120.57 56.56 121.35 57.21 119.95 57.21C119.95 57.78 117.26 57.8 117.26 58.6C116.82 58.6 116.02 58.74 115.34 58.74C115.34 58.61 114.69 57.67 114.53 57.67C114.53 56.37 114.19 55.93 114.19 54.71C114.77 54.71 113.71 52.36 113.71 54.89C113.22 54.89 112.75 56.25 112.75 54.43C113.69 54.43 112.11 53.05 113.23 53.05C113.23 53.8 114.06 52.12 113.43 52.12C113.43 50.67 113.23 49.78 113.23 48.42C113.81 48.42 112.84 47.45 114.19 47.45C114.19 48.05 117.41 47.75 117.41 48.42C118.57 48.42 119.36 48.56 120.43 48.56C120.43 49.52 121.51 48.56 121.58 48.56C121.58 47.76 122.34 48.24 122.87 48.24C122.87 48.87 125.27 48.13 125.27 48.7C125.52 48.7 126.03 49.81 126.71 49.81C126.72 49.92 127.27 50.86 126.86 50.86ZM127.82 38.04C127.82 37.49 126.71 38.31 126.71 37.39C126.06 37.39 126.68 36.18 126.04 36.18C126.04 35.18 127.96 36.36 127.96 35.72C128.79 35.72 129.25 36.74 129.25 37.57C128.46 37.58 128.49 38.04 127.82 38.04ZM134.4 61.69C134.4 61.04 134.51 61.04 135.21 61.04C135.21 59.9 136.17 60.15 136.17 60.76C135.41 60.76 135.15 61.69 134.4 61.69Z" fill="black"/>
<path d="M172.54 67.1V68.95C173 68.95 172.68 69.69 172.68 70.01H173.63C173.64 69.46 172.92 67.1 172.54 67.1Z" fill="black"/>
<path d="M165.29 29.86C165.29 29.49 163.71 28.88 163.71 28.14C162.7 28.14 162.13 26.81 162.13 28.74C160.77 28.74 161.64 28.23 161.64 27.22C161.91 27.22 162.11 25.83 160.98 25.83C160.98 26.64 161.5 27.35 160.35 27.35C160.35 28.48 160.2 27.82 159.72 27.82C159.72 27.16 160.01 27.34 160.01 26.43C160.71 26.43 160.68 25.23 160.2 25.23C160.2 24.74 159.84 25.23 159.72 25.23C159.72 25.81 157.76 26.84 157.76 27.08C156.56 27.08 158.17 28.01 157.28 28.01C157.28 28.9 156.8 27.63 156.8 27.54C156.38 27.54 156.66 26.04 156.66 25.69C155.93 25.69 155.36 24.6 155.36 23.84C154.08 23.84 155.17 24.91 154.26 24.91C154.26 24.77 152.97 22.8 152.97 23.99C152.68 23.99 152.06 27.37 152.34 27.37C152.34 28.33 151.53 27.6 151.53 26.91C149.96 26.91 150.91 30.19 149.95 30.19C149.95 30.45 149.8 31.11 150.09 31.11C150.09 31.45 149.37 34.49 149.76 34.49C149.76 34.83 150.57 34.53 150.57 34.35C151.33 34.35 151.02 36.02 150.57 36.02C150.57 36.48 150.27 36.02 150.09 36.02C150.09 34.56 149.47 34.64 149.47 36.2C149 36.2 149.47 37.1 149.47 37.41C148.64 37.41 148.65 41.92 148.65 42.82C150.17 42.82 148.13 45.46 149.13 45.46C149.13 46.26 148.65 45.87 148.65 46.7C147.97 46.7 148.65 47.7 148.65 48.09C149.2 48.09 149.76 45.24 149.76 49.15C149.71 49.15 148.99 50.21 148.99 49.15C147.95 49.15 148.17 50.51 148.17 51.46C148.88 51.46 148.54 53.64 149.13 53.64C149.13 54.97 148.65 55.27 148.65 56.88C149.19 56.88 149.13 57.12 149.13 57.67C147.97 57.67 149.13 58.66 149.13 58.74C149.61 58.74 149.27 60.45 149.61 60.45C149.61 61.81 150.76 58.73 150.76 59.85C151.81 59.85 151.61 60.77 150.9 60.77C150.9 62.23 152.97 61.43 152.97 62.62C153.33 62.62 152.97 63.92 152.97 64.29C152.92 64.29 152.37 66.61 153.45 66.61V65.08C154.51 65.08 154.89 66.15 155.71 66.15C155.71 66.99 154.9 65.95 154.9 66.79C154.41 66.79 155.09 67.66 155.09 67.72C155.72 67.72 154.75 68.64 154.75 68.04C152.99 68.04 155.23 68.73 155.23 68.78H155.85C155.85 68.08 155.44 67.58 156.52 67.58C156.52 66.79 156.3 66.79 157.14 66.79C157.14 67.65 159.54 66.03 159.54 65.87C160.55 65.87 159.53 67.25 160.83 67.25C160.83 66.38 161.01 66.33 161.93 66.33V64.29C161.72 64.29 161.07 63.55 161.64 63.55V63.23C161.95 63.23 161.16 61 161.16 63.83C160.6 63.83 160.68 63.92 160.68 63.37C161.43 63.37 159.5 61.38 161.16 61.38C161.16 63.13 161.79 61.7 161.93 61.7C161.93 60.36 163.08 63.08 162.41 63.08C162.41 63.65 162.85 65.21 163.37 65.21C163.37 62.73 163.23 60.78 163.23 58.45C162.65 58.45 164.29 56.55 162.89 56.55C162.31 55.99 163.7 56.46 163.7 55.49C164.18 55.49 164.36 50.86 163.85 50.86C163.85 49.69 164.33 48.81 164.33 47.43C163.34 47.43 162.72 46.83 163.85 46.83C163.85 45.38 165 45.22 165 43.73C164.32 43.73 165.29 41.46 165.29 41.14C165.96 41.14 165.19 37.71 165.77 37.71C165.77 36.74 166.8 33.41 165.29 33.41C165.29 32.81 166.11 33.04 166.11 32.02C166.61 32.02 165.96 31.32 165.96 31.23C165.33 31.24 165.83 29.86 165.29 29.86ZM149.61 45.58V45.44H149.46V45.11H149.61V44.98H149.75V44.84H149.94V44.65H150.42V44.2H150.76V44.99H150.56V45.31H150.42V45.45H150.28V45.59H149.61V45.58ZM150.9 58.45H150.76V58.73H150.56V59.51H150.28V57.99H150.42V57.66H150.76V57.99H150.9V58.45ZM152.48 45.45H152.34V46.05H152.2V46.23H151.86V45.3H151.72V44.98H151.86V44.65H152.2V44.84H152.34V44.98H152.48V45.45ZM159.54 60.76H158.92V60.9H158.72V61.04H158.43V60.9H158.24V60.76H158.1V59.84H158.24V59.65H158.57V59.84H159.39V59.98H159.54V60.76V60.76ZM159.73 56.41H159.54V58.12H159.06V57.98H158.92V56.87H158.72V56.08H158.92V55.81H158.72V55.62H158.58V55.15H158.92V55.34H159.21V55.47H159.4V55.61H159.55V55.8H159.74V56.41H159.73ZM160.5 50.72H160.35V50.86H160.2V51H160.01V51.64H160.2V52.38H160.01V52.7H159.87V53.03H159.72V53.17H159.53V53.31H159.38V53.63H159.53V54.88H159.38V55.02H158.9V54.88H158.7V54.7H158.56V54.1H158.42V53.96H158.23V53.78H158.09V53.32H158.23V52.58H158.09V52.4H157.94V51.94H158.09V51.33H158.23V51.19H158.71V51.33H158.91V51.47H159.05V51.8H159.38V51.47H159.53V51.33H159.72V51.19H159.87V50.54H160.01V50.4H160.49V50.72H160.5ZM161.79 57.8L160.83 57.66H161.79V57.8ZM162.13 57.8H161.93L162.13 57.66V57.8ZM163.23 52.39H163.08V52.57H162.89V52.71H162.74V52.85H162.6V53.03H162.41V53.17H162.26V53.31H162.12V53.63H161.92V53.77H161.44V53.31H161.63V53.17H161.78V53.03H161.92V52.7H161.78V52.56H161.63V52.23H160.97V52.09H160.82V50.4H160.97V50.07H161.16V49.47H160.97V49.15L160.82 49.01H160.68V49.33H160.49V49.47H160.01V48.87H159.87V48.54H160.01V48.4H160.2V48.21H160.49V48.07H160.82V48.39H160.97V48.86H161.45V50.24H161.64V50.38H161.79V50.7H161.64V51.16H162.75V51.3H162.9V51.63H163.09V51.77H163.24V52.39H163.23ZM163.23 46.37H163.08V46.98H162.74V45.91H163.08V46.05H163.23V46.37ZM165.29 34.15H165.15V34.34H164.81V34.15H164.67V33.69H164.81V33.54H165V33.41H165.14L165.28 33.54V34.15H165.29Z" fill="black"/>
<path d="M314.31 48.68C313.92 49.25 314.51 49.92 315.08 50.4C315.75 50.94 314.57 48.3 314.31 48.68Z" fill="black"/>
<path d="M149.61 11.75C150.37 11.75 151.38 12.75 151.38 13.46C151.64 13.46 154.11 14.02 154.11 14.25C155.03 14.25 154.88 14.38 154.88 13.46C155.07 13.46 157.95 15.16 157.95 14.06C158.51 14.06 158.05 13.14 157.47 13.14C157.47 12.98 155.51 10.96 156.8 10.96C156.8 11.78 160.98 12.35 160.98 12.08C161.64 12.08 160.5 11.15 161.17 11.15C161.17 10.18 160.02 10.37 160.02 9.58C159.92 9.58 158.32 8.19 158.1 8.19C158.1 7.77 155.56 7.17 155.56 6.53C154.79 6.53 155.36 5.74 154.26 5.74C154.26 6.25 151.92 4.81 153.3 4.81C153.3 5.49 155.22 5.09 155.22 5.6C156.4 5.6 154.59 4.44 154.59 3.75C153.94 3.75 153.21 3.42 152.67 3.42C152.67 2.76 151.04 2.61 151.04 3.1C150.63 3.1 148.97 2.41 148.97 3.1C147.7 3.1 148.49 3.82 148.49 4.49C147.7 4.49 146.71 3.85 146.71 4.95H146.86C146.86 6.16 145.9 4.36 145.9 5.41C145.9 5.41 145.28 6.32 145.28 6.34C143.62 6.34 144.57 8.06 145.14 8.06C145.14 8.94 146.76 10.97 147.68 10.97C147.69 11.49 149.61 11.07 149.61 11.75ZM152.2 4.03C152.28 4.03 152.33 4.05 152.4 4.06C152.51 4.04 152.64 4.03 152.82 4.03C152.82 4.17 152.83 4.26 152.83 4.35C153 4.63 152.87 4.9 152.83 4.35C152.76 4.23 152.62 4.12 152.39 4.07C152.31 4.09 152.24 4.11 152.2 4.13C152.2 4.3 152.2 4.45 152.23 4.56C152.34 4.71 152.48 4.86 152.48 4.96C152.33 4.82 152.26 4.7 152.23 4.56C152.12 4.4 152.04 4.24 152.2 4.13C152.2 4.09 152.2 4.07 152.2 4.03ZM150.08 5.41C150.08 4.75 151.37 5.85 151.37 5.88C152.86 5.88 152.1 6.8 153.77 6.8C153.77 6.12 156.39 8.05 155.21 8.05C155.21 8.38 153.46 8.37 153.14 8.37C153.14 7.79 151.85 8.21 151.85 6.98C151.01 6.98 150.55 6.8 150.55 6.06C150.41 6.06 149.49 5.41 150.08 5.41Z" fill="black"/>
<path d="M221.04 28.93C221.04 30.11 220.84 29.53 220.08 29.53C220.08 30.86 221.44 30.92 222.81 30.92C222.81 30.44 223.77 31.18 223.77 31.25C224.08 31.25 225.35 30.93 225.35 30.78C225.95 30.78 226.07 31.25 226.64 31.25C226.64 31.71 229.4 31.39 229.85 31.39C229.85 32.68 231.44 30.22 231.44 31.25C231.63 31.25 231.63 31.2 231.63 31.39C232.73 31.39 233.76 31.11 234.79 31.11C234.79 31.06 236.13 30.19 236.28 30.19C236.28 29.73 237.59 30.01 237.86 30.01C237.86 29.43 239.3 29.67 239.3 29.41C240.47 29.41 240.1 27.84 241.08 27.84C241.08 27.23 241.85 28.5 241.85 27.84C243.35 27.84 242.18 28.83 242.18 29.23C240.76 29.23 242.68 30.48 241.85 30.48C241.85 30.86 241.4 31.27 241.08 31.27C241.08 31.85 240.37 32.66 239.79 32.66C239.79 34 240.76 32.79 241.08 32.79C241.08 32.21 242.41 32.76 241.56 33.58C239.75 33.58 241.1 35.3 239.93 35.3C239.93 35.06 240.42 34.38 239.93 34.38C239.93 33.87 238.97 34.72 238.97 34.06C237.78 34.06 237.73 35.58 236.29 35.58C236.29 34.76 234.8 34.85 234.8 35.58C233.74 35.58 234.42 37.16 235 37.16C235 38.11 235.39 37.43 235.63 37.43C235.63 36.03 238.22 37.99 238.22 36.7C239.24 36.7 236.94 35.77 238.99 35.77C238.99 34.89 240.67 36.23 239.32 36.23V36.97C240.24 36.97 238.51 38.65 238.51 38.69C237.28 38.69 238.7 38.17 238.7 37.63C237.37 37.63 237.4 37.43 237.4 38.69C238.12 38.69 238.26 39.15 237.88 39.15C237.88 39.89 236.94 39.33 236.78 39.33C236.78 38.27 235.63 41.21 235.63 40.08C235.31 40.08 235 39.94 235 40.26C234.49 40.26 234.84 41.32 233.56 41.32C233.56 41.81 232.41 42.47 232.41 42.71C231.09 42.71 231.81 44.24 230.49 44.24C230.49 45.61 229.53 44.32 229.53 45.16C229 45.16 228.09 46.48 228.09 47.02H229.24C229.24 46.61 230.01 45.43 230.01 46.42H230.49C230.49 47.49 228.28 48.25 228.28 48.59C227.86 48.59 227.8 49.7 227.8 50.12C228.11 50.12 229.53 49.54 229.53 49.38C230.02 49.38 230.44 48.13 230.97 48.13C230.97 47.78 232.66 46.28 233.08 46.28C233.08 45.37 234.04 45.5 234.04 44.89C235.03 44.89 234.18 45.71 234.18 46.09C233.76 46.09 234.32 46.82 234.32 47.01C235.18 47.01 233.59 48.12 233.55 48.12C233.55 49.34 234.45 48.12 234.65 48.12C234.65 47.42 235.61 47.87 235.61 47.47C236.4 47.47 235.68 45.8 237.05 45.8C237.05 45.24 238.2 44.78 238.2 44.55C238.46 44.55 239.93 42.09 239.93 43.77C240.26 43.77 239.79 44.58 239.79 45.03C240.89 45.03 240.89 44.89 240.89 43.77C240.39 43.77 240.97 42.25 241.7 42.25C241.7 41.77 242.56 40.85 243 40.85C243 40.56 244.1 39.49 244.1 40.25C245.3 40.25 243 38.68 244.1 38.68C244.1 38.11 244.58 37.88 244.58 39C244.69 39 245.39 39.41 245.39 39C246.11 39 244.52 37.29 245.87 37.29C245.87 36.97 248.34 34.84 248.75 34.84C248.75 34.03 249.38 35.53 249.38 35.58C250.43 35.58 249.42 36.37 250.05 36.37C250.05 36.91 252.44 36.46 252.44 35.91C253.04 35.91 251.63 34.84 252.25 34.84C252.25 34.4 253.65 33.45 254.03 33.45C254.03 33.04 255.12 33.45 255.47 33.45C255.47 32.96 256.91 32.66 256.91 32.2C257.89 32.2 257.61 31.13 257.87 31.13C257.87 30.26 259.16 30.67 259.16 30.21C259.5 30.21 260.58 28.96 260.6 28.96C260.6 28.09 259.16 28.38 259.16 28.64C258.28 28.64 257.39 30.41 257.39 28.78C256.68 28.78 258.06 28.41 258.06 28.32C259.31 28.32 258.86 27.25 259.3 27.25C259.3 26.6 260.74 26.33 260.74 25.72C261.44 25.72 259.99 24.48 260.74 24.48C260.74 23.48 259.62 24.48 259.5 24.48C259.5 25.15 259.1 24.8 258.83 24.8C258.83 24.12 257.72 25.01 257.72 23.87C257.29 23.87 257.65 22.62 258.54 22.62C258.54 22.53 259.15 21.84 259.16 21.84C259.16 21.04 260.09 20.78 258.69 20.78C258.69 20.45 258.21 19.98 258.21 19.85C256.83 19.85 257.4 21.17 257.4 22.49C256.83 22.49 257.21 22.03 256.29 22.03V21.57C255.31 21.57 257.2 19.07 255.67 19.07C255.67 18.09 254.18 19.86 254.18 20C253.92 20 253.42 22.2 253.42 20C253.89 20 253.9 18.69 253.9 18.47C251.97 18.47 253.73 19.68 252.75 19.68C252.75 20.35 251.17 20.04 251.17 20.46C250.32 20.46 250.58 21.39 250.07 21.39C250.07 19.91 248.3 20.15 248.3 21.11C247.53 21.11 249.03 22.04 249.11 22.04C249.11 22.73 248.63 22.56 248.63 22.96C247.62 22.96 247.93 23.42 247.67 23.42C247.67 23.94 245.3 23.42 245.07 23.42C245.07 22.91 245.07 22.5 244.59 22.5C244.59 21.45 244.32 21.11 243.29 21.11C243.29 21.77 240.12 19.91 240.12 21.25C239.79 21.25 239.3 21.66 239.3 20.93C238.65 20.93 237.24 21.42 237.24 20.47C235.87 20.47 236.8 21.4 235.13 21.4C235.13 19.53 234.31 20.47 233.35 20.47C233.35 21.26 230.19 20.37 230.19 20.79C228.35 20.79 227.28 20.47 225.34 20.47C225.34 21.8 224.53 21.11 223.42 21.11C223.42 20.55 222.42 21.11 222.32 21.11C222.32 22.59 223.62 21.39 223.62 22.04C224.31 22.04 225.06 21.98 225.06 22.64C224.83 22.64 223.77 22.76 223.77 22.97C222.67 22.97 223.31 23.43 222.32 23.43C222.32 22.37 219.78 24.06 219.78 24.17C218.46 24.17 218.34 24.45 218.34 25.74H220.26C220.26 25.94 220.84 26.35 221.03 26.35C221.03 26.99 219.21 26.95 218.63 26.95C218.63 27.13 218.34 27.41 218.15 27.41C218.15 28.66 218.39 28.8 219.59 28.8C219.6 29.23 220.74 28.93 221.04 28.93ZM231.45 46.05H231.16C231.16 45.63 229.45 44.85 231.45 44.85C231.45 44.75 232.24 44.2 232.41 44.2C232.41 45.02 231.45 45.15 231.45 46.05ZM232.89 43.92C232.89 43.53 233.71 42.82 233.71 43.6C233.45 43.6 233.26 43.92 232.89 43.92ZM252.6 21.05C253.47 21.05 253.47 21.33 252.6 21.33V21.05ZM251.32 33.87C251.32 33.73 252.7 32.49 252.13 32.49C252.13 30.83 253.22 32.03 253.91 32.03C253.91 33.78 251.99 33.15 251.99 34.48C251.75 34.48 251.62 34.62 251.18 34.62C251.17 34.52 250.9 33.87 251.32 33.87ZM244.93 25.22C244.93 25.1 246.37 23.93 246.37 25.22C246.07 25.22 245.58 25.96 244.74 25.96C244.74 25.8 244.02 25.22 244.93 25.22ZM241.57 34.15C241.57 33.59 242.34 34.8 241.38 34.8C241.38 34.62 241.08 34.15 241.57 34.15ZM243.5 36.66C243.5 35.54 244.74 36.66 244.12 36.66C244.12 38.39 241.25 37.75 241.25 38.97C241.62 38.97 242.56 40.04 241.1 40.04C241.1 39.26 240.14 40.94 240.14 41.15C238.56 41.15 239.32 42.54 237.89 42.54C237.89 42.37 237.39 42.22 237.26 42.22C237.26 40.71 237.4 41.29 238.51 41.29C238.51 39.82 238.39 39.11 239.81 39.11C239.81 38.44 241.1 39.24 241.1 37.4C242.56 37.39 242.23 36.66 243.5 36.66ZM242.68 33.41C242.68 33.08 241.6 32.63 243.02 32.63C243.01 32.94 243.63 33.41 242.68 33.41Z" fill="black"/>
<path d="M271.17 41.6C271.17 41.6 271.02 42.3 271.17 42.35C271.62 42.48 271.57 41.6 271.17 41.6Z" fill="black"/>
<path d="M352.41 19.48C352.02 19.11 352.18 18.44 351.93 17.95C351.61 17.33 351.69 16.71 350.83 16.56C349.67 16.36 350.04 17 349.87 17.02C348.58 17.23 348.31 16.36 347.14 16.56C346.12 16.73 346.93 17.91 346.52 18.09C346.13 18.25 346.15 18.2 345.84 18.41C345.73 18.5 344.46 18.55 344.4 18.41C344.1 17.67 344.45 18.14 343.92 17.63C343.41 17.14 342.77 17.11 342.2 16.7C341.64 16.29 341.66 16.27 340.71 16.1C339.38 15.86 340.09 16.46 339.75 17.02C339.67 17.16 339.4 16.94 339.27 17.02C338.96 17.2 340.24 17.67 339.75 17.77C339.6 17.79 337.75 17.55 338.31 18.09C338.41 18.19 339.37 18.22 339.12 18.68C338.87 19.16 338.61 18.49 338.31 19.47C338.2 19.83 337.18 19.64 338.02 20.26C338.7 20.75 337.95 23.48 338.5 23.64C339.27 23.86 339.1 23.81 339.46 24.43C340.08 25.47 338.34 25.21 338.98 25.68C339.05 25.73 339.44 26.71 339.46 26.74C339.5 26.83 338.07 29.39 339.61 28.6C339.7 28.54 339.53 28.35 339.61 28.28C339.89 28.01 340.41 29 340.43 29.07C340.86 30.44 340.67 32.77 340.09 33.87C339.84 34.36 339.46 35.53 339.94 36.01C340.27 36.31 340.4 37.65 340.09 38.05C338.97 39.49 340.92 39.68 341.06 38.65C341.28 37.04 340.72 36.41 341.2 34.62C341.3 34.24 341.46 38.04 342.01 36.8C342.13 36.52 342.27 35.67 342.49 35.55C343.21 35.15 342.69 34.36 342.34 34.03C341.46 33.19 343.68 33.15 342.67 32.18C342.17 31.68 342.85 31.91 341.67 31.71C341.48 31.67 341.38 30.64 342 31.25C342.65 31.88 342.38 31.1 342.48 30.78C342.64 30.28 343.58 31.03 342.96 29.07C342.89 28.87 342.89 28.66 342.96 28.46C343.05 28.19 343.98 27.47 344.26 28C344.78 29 344.47 28.32 345.7 28.74C345.84 28.79 345.27 29.51 345.22 29.53C344.24 29.75 344.71 29.62 344.4 30.32C344 31.22 343.5 31.77 343.77 33.42C343.8 33.59 344.42 33.01 344.59 33.42C344.9 34.18 344.3 33.7 345.36 33.88C346.59 34.1 345.07 34.41 344.88 34.49C343.69 34.98 344.36 35.18 344.26 36.67C344.24 36.94 343.67 38.02 343.44 38.19C342.87 38.6 343.27 40.12 343.44 40.69C343.61 41.24 343.16 41.23 343.15 41.29C342.93 42.97 344 42.44 342.34 42.82C342.26 42.84 341.56 44.23 342 44.39C343.29 44.89 342.13 44.9 341.52 45C340.92 45.1 341.35 46.26 340.9 46.71C340.28 47.3 340.13 45.69 340.23 45.32C340.24 45.26 340.4 45.38 340.43 45.32C340.56 44.88 341.06 42.45 340.09 42.82C339.59 43 339.39 44.17 339.13 44.67C338.92 45.08 338.15 44.84 338.02 45C337.73 45.35 338.26 45.61 337.83 45.92C337.12 46.42 337.6 47.82 337.21 48.42C336.86 48.96 336.83 47.5 336.73 47.45C335.7 46.88 336.03 48.17 335.62 48.7C335.37 49.03 335.65 49.65 335.43 49.95C335.32 50.1 334.3 50.06 334.18 49.95C333.93 49.71 333.49 49.88 333.22 49.62C332.66 49.08 332.32 48.2 331.73 47.64C331.43 47.35 331.09 47.15 330.77 46.85C330.33 46.43 329.95 46.23 329.67 45.6C329.64 45.54 328.96 45.21 328.85 45.13C328.48 44.88 328.39 44.15 328.08 43.93C327.67 43.63 327.2 43.24 326.79 43C326.72 42.97 326.38 42.11 326.3 42.08C326.18 42.03 325.36 41.66 325.35 41.61C325.1 41.06 325.14 40.9 324.73 40.51C324.14 39.94 323.92 39.13 323.1 38.8C322.72 38.64 322.49 37.75 322.28 37.41C322.24 37.33 321.91 37.35 321.8 37.27C321.44 37.01 320.87 35.56 320.55 35.42C319.63 35.04 319.54 34.5 318.92 33.89C318.42 33.41 317.67 33.24 317.2 32.78C316.83 32.42 316.96 31.96 316.39 31.72C315.67 31.42 315.6 31.61 315.1 31.12C314.65 30.69 314.2 31.33 313.99 30.47C313.77 29.53 313.9 29.74 313.37 29.22C313.05 28.91 312.44 28.42 312.07 28.15C311.79 27.94 311.1 27.59 310.92 27.36C310.71 27.09 309.73 26.6 309.34 26.44C309.06 26.32 309.07 24.85 308.38 25.51C307.77 26.1 307.03 25.43 306.6 25.23C305.37 24.64 306.46 26.17 305.64 25.84C305.48 25.77 305.53 25.02 305.5 24.77C305.42 24.26 303.86 24.4 303.58 24.12C303.29 23.85 303.12 22.84 302.76 22.74C302.58 22.69 301.81 22.9 301.8 22.92C301.77 23.02 301.78 24.7 301.18 24.32C300.67 23.98 299.9 24.25 299.55 24.59C299.48 24.66 298.97 25.49 298.93 25.52C297.58 26.08 299.05 27.58 298.45 28.16C298.03 28.57 297.96 28.52 297.35 28.76C296.97 28.91 297.09 31 297.15 31.26C297.38 32.2 297.28 33.2 297.35 34.36C297.37 34.74 298.5 35.06 297.97 35.56C297.51 36.01 298.23 36.4 297.97 37.14C297.81 37.58 295.93 35.12 295.9 35.1C295.51 34.73 295.09 34.14 294.75 33.71C294.53 33.43 293.93 33.06 293.65 32.78C292.97 32.13 292.53 31.69 291.73 31.12C291.39 30.88 290.9 30.97 290.58 30.66C289.88 29.99 288.87 29.61 288.19 28.95C287.93 28.7 287.3 28.76 287.08 28.48C286.4 27.61 285.01 27.66 283.73 27.37C283.09 27.24 282.97 26.45 281.81 27.09C281.68 27.17 281.25 26.85 281.15 26.76C280.98 26.65 281.13 26.02 281 25.97C279.95 25.62 279.03 26.02 278.61 26.44C278.19 26.84 278.18 26.45 278.12 26.44C277.57 26.34 275.98 26.7 275.58 26.76C274.64 26.9 273.35 26.59 272.85 27.09C272.19 27.72 272.82 27.76 272.37 26.91C272.1 26.4 272.16 27.68 271.55 27.09C271.48 27.02 270.49 26.71 270.45 26.76C270.36 26.89 270.5 27.08 270.45 27.23C270.43 27.29 269.63 27.88 269.49 28.01C269.3 28.2 269.32 28.59 269.15 28.75C268.4 29.47 268.63 29.82 267.37 30.18C267.32 30.19 266.95 30.76 266.89 30.78C265.9 31 266.06 31.13 265.44 31.57C265.26 31.7 264.51 33.15 264.34 32.96C264.33 32.95 264.39 32.27 264.01 32.63C263.64 32.99 263.68 34.01 263.19 34.48C262.84 34.83 263.23 35.87 262.9 36.19C262.16 36.91 263.51 37.47 262.71 38.05C262.28 38.35 262.63 38.41 262.42 38.79C262.16 39.27 262.02 38.02 261.75 38.51C261.64 38.7 261.72 39.2 261.61 39.44C261.02 40.76 263.12 40.08 262.57 40.83C262.31 41.19 261.97 39.95 261.47 41.16C261.45 41.22 261.28 41.1 261.27 41.16C261.25 41.38 261.47 44.22 261.47 44.22C261.33 44.38 260.91 44.03 260.79 44.22C260.52 44.67 260.95 45.28 260.51 45.61C259.78 46.13 260.82 46.07 259.69 46.39C259.33 46.49 259.42 48.41 259.83 48.71C259.9 48.76 261.22 49.8 260.99 49.96C260.86 50.05 260.62 49.85 260.52 49.96C260.31 50.15 260.93 50.65 259.84 50.43C258.94 50.24 260.24 51.19 260.04 51.68C259.62 52.71 260.27 52.55 260.81 53.07C261.28 53.52 261.06 53.54 261.29 54.27C261.31 54.33 261.92 54.75 261.96 54.92C262.31 56.25 262.01 55.65 262.92 56.31C263.55 56.76 263.47 57.89 263.69 58.77C263.73 58.92 264.53 59.3 264.65 59.41C265.12 59.87 264.69 60.29 265.66 60.01C266.32 59.82 266.22 60.42 266.42 60.48C267.81 60.88 266.06 60.97 266.61 61.21C267.05 61.4 267.54 61.43 267.86 61.41C268.24 61.36 270.69 62.23 270.74 62.33C271.03 62.99 270.7 62.66 271.41 62.93C271.49 62.96 271.54 64.84 272.04 64.05C272.17 63.82 271.99 63.51 272.04 63.26C272.08 63.04 273.1 63.41 272.51 62.65C272.34 62.43 272.46 61.19 272.65 61.08C272.84 60.98 273.99 62.38 273.94 62.47C273.68 62.96 273.4 62.42 273.94 63.11C274.66 64.04 274.94 63.16 275.72 63.39C275.78 63.41 275.66 63.56 275.72 63.57C276.33 63.75 276.91 63.88 277.5 63.71C278.49 63.43 279.19 63.93 279.89 63.25C280.1 63.05 280.97 63.07 281.33 62.92C281.68 62.78 282.24 62.32 282.58 62.18C283.31 61.88 283.99 61.72 284.84 61.53C285.11 61.47 286.39 60.54 286.61 60.33C287.08 59.89 287.39 59.96 288.05 59.68C288.19 59.63 289.6 58.69 289.63 58.62C289.95 57.89 290.13 58.27 290.59 57.83C291.06 57.38 291.08 57.22 291.27 56.44C291.28 56.38 292.08 56.22 292.22 56.12C292.53 55.89 292.66 55.11 293.18 54.73C293.78 54.3 293.24 54.39 294.14 54.13C294.31 54.09 294.43 52.89 294.48 52.6C294.57 52.14 295.93 52.21 296.2 51.95C296.45 51.71 296.58 50.89 296.69 50.56C296.87 50 296.23 50.08 296.69 49.64C297.29 49.06 297.4 48.12 297.16 47.18C297.11 46.93 297.06 46.64 297.16 46.4C297.26 46.18 297.66 46.73 297.99 46.54C298.14 46.45 298.21 44.29 298.33 43.76C298.53 42.86 299.04 43.37 299.28 43.16C299.44 43.02 299.03 42.3 299.57 42.56C300.22 42.87 299.47 44.59 300.05 45.02C300.63 45.43 299.93 45.34 299.9 45.48C299.61 47.07 301.13 46.02 301.2 47C301.31 48.42 301.23 49.15 300.86 49.96C300.59 50.57 300.46 50.92 300.24 51.67C299.82 53.11 299.73 54.14 299.9 55.98C299.91 56.02 300.22 56.24 300.24 56.3C300.37 57.02 300.03 57.15 300.53 57.5C300.7 57.62 300.74 57.68 300.86 57.83C301.67 58.88 301.08 60.56 301.2 62.18C301.2 62.23 301.49 62.44 301.49 62.46C301.53 62.59 300.73 65.68 300.72 65.69C300.26 66.29 300.47 66.74 300.86 67.13C301.1 67.36 301.64 69.24 301.67 69.26C302.59 69.52 302.09 68.59 302.15 68.06C302.19 67.77 303.49 67.49 303.74 67.74C304.44 68.41 304.75 68.03 305.37 67.74C305.79 67.54 306.51 69.05 307.43 68.66C307.85 68.49 308.21 69.42 308.39 69.58C308.77 69.95 308.23 71.3 308.53 72.04C308.56 72.12 310.62 72.04 309.49 71.58C308.98 71.36 310.39 70.92 309.83 70.37C309.78 70.33 309.52 70.43 309.68 70.05C309.96 69.42 311.72 69.97 311.75 69.91C311.9 69.61 311.68 69 311.9 68.8C312.44 68.27 311.99 67.81 311.9 67.41C311.84 67.2 312.28 65.32 312.38 65.24C312.88 64.75 312.92 67.16 313.87 65.57C313.96 65.41 314 65.33 314.02 65.28C314 65.36 314 65.47 314.16 65.57C314.4 65.73 315.74 65.95 315.79 65.7C315.88 65.26 315.61 62.47 315.45 62.32C315 61.89 316.22 60.89 315.45 60.15C315.28 59.99 315.19 58.84 315.12 58.62C314.95 58.09 315.45 57.78 315.12 57.05C314.78 56.3 315.27 56.37 315.12 55.52C315.11 55.47 314.84 55.4 314.83 55.38C314.49 53.87 314.59 53.74 313.2 53.34C313.04 53.29 313.12 50.97 313.05 50.75C312.93 50.35 313.31 50.11 313.2 49.49C312.98 48.33 313.39 48.49 314.48 48.25C314.8 48.18 314.13 46.91 315.11 47.18C315.4 47.27 315.22 48.75 316.55 47.79C317.65 46.99 317.21 48.75 317.51 49.04C317.8 49.31 318.21 50.53 318.8 49.96C319.41 49.36 320.12 50.17 320.38 50.43C320.72 50.75 320.63 50.97 320.86 51.35C321.28 52.06 322.1 52.08 322.64 52.6C323 52.95 323.1 53.46 323.46 53.8C323.69 54.02 323.62 54.98 323.8 55.38C324.01 55.86 324.07 56.1 324.42 56.44C325.47 57.45 325.07 55.23 326.67 55.98C326.86 56.06 326.55 56.42 326.67 56.57C326.77 56.69 327.01 56.52 327.15 56.57C327.36 56.65 327.6 57.92 327.92 58.14C328.14 58.3 328.3 58.28 328.4 58.6C328.71 59.58 329.5 58.63 329.22 59.52C329.15 59.71 328.24 59.47 328.11 59.66C327.85 60.03 328.06 60.99 328.26 61.23C328.42 61.44 330.6 61.75 329.7 62.62C328.96 63.33 329.6 62.95 330.03 63.37C330.63 63.95 330.84 63.97 331.94 64.15C332.06 64.17 331.95 65.67 332.9 64.75C333.37 64.29 332.71 63.92 333.72 64.15C334.58 64.34 336.76 64.07 337.07 64.47C337.1 64.51 337.69 65.03 337.69 65.07C337.93 66.37 337.57 65.45 338.32 66C339.05 66.52 339.17 66.52 340.09 66.14C340.97 65.78 340.96 65.16 341.53 64.61C342.23 63.92 341.36 65.34 342.2 64.94C343.13 64.49 343.17 64.98 343.45 63.83C343.62 63.13 343.58 62.38 343.78 61.71C343.88 61.42 344.98 61.62 345.22 61.38C345.59 61.02 345.58 59.92 345.84 59.66C346.38 59.14 346.3 57.62 346.52 56.74C346.64 56.19 347.29 56.19 346.81 55.36C346.33 54.56 347.4 54.57 347 53.78C346.72 53.22 346.54 52 346.18 51.65C345.91 51.38 345.9 50.68 346.18 50.4C346.93 49.68 347.83 51.12 347.14 51.79C347.07 51.86 346.66 52.13 346.99 52.39C348.33 53.44 348.06 49.31 348.24 48.88C348.33 48.68 349.25 46.77 349.06 46.52C348.48 45.73 348.1 48.23 348.1 48.23C347.88 48.3 347.78 48.32 347.72 48.33C347.78 48.33 347.82 48.36 347.62 48.56C347.53 48.65 346.47 48.52 346.81 47.78C347.2 46.92 347.09 46.9 347.29 45.6C347.33 45.4 348.17 45.06 347.62 44.53C347.13 44.06 348.09 44.27 348.44 43.93C349.13 43.26 348.99 44.32 349.21 44.53C349.25 44.58 349.85 44.5 349.88 44.39C350.04 43.87 349.66 42.51 349.06 42.69C349.05 42.69 348.81 43.33 348.58 43.01C348.57 43 348.71 41 348.73 40.98C349.02 40.41 348.79 39.4 349.06 38.81C349.36 38.16 349.13 38.27 349.06 37.74C348.88 36.36 349.53 35.73 349.21 34.37C349.14 34.11 349.14 33.84 349.21 33.58C349.22 33.55 349.69 31.86 349.54 31.73C349.34 31.55 348.97 31.72 348.73 31.59C348.61 31.53 348.92 30.63 349.68 30.94C349.97 31.06 349.45 31.84 350.5 31.41C351.32 31.06 350.35 30.52 350.5 29.69C350.68 28.72 352.09 29.91 351.31 28.16C351.26 28.06 351.26 27.94 351.31 27.84C351.72 26.92 350.5 27.07 350.98 26.45C351.69 25.54 350.56 25.98 350.35 25.71C349.89 25.12 349.64 25.13 350.83 24.92C351.01 24.89 350.98 23.88 351.45 24.13C351.96 24.41 351.53 24.38 351.93 23.99C352.4 23.54 352.12 22.6 351.93 22.14C351.93 22.14 352.1 20.73 352.12 20.61C352.17 20.21 353.41 20.44 352.41 19.48ZM341.18 34.48C341.18 33.28 340.97 33.59 340.91 34.38C340.89 34.87 340.89 35.19 340.89 34.8C340.89 34.65 340.9 34.51 340.91 34.38C340.94 33.73 341 32.78 341.18 32.62C341.93 31.96 341.18 34.79 341.18 34.48ZM343.63 25.36C342.7 24.99 343.91 22.38 343.91 24.44C343.91 24.44 344.13 25.57 343.63 25.36ZM264.13 45.58C265.24 44.52 265.14 46.83 264.32 46.83C264.32 46.83 263.5 45.58 264.13 45.58ZM260.76 47.76C260.61 47.74 260.03 46.95 261.58 46.83C261.7 46.82 261.44 46.37 261.44 46.37C260.5 46.37 262.15 45.26 261.44 45.12C261.3 45.09 261.59 44.13 261.73 44.52C262.14 45.7 264.09 43.56 263.99 44.85C263.98 44.95 263.17 46.24 262.55 46.24C261.07 44.81 263.1 48.03 260.76 47.76ZM263.5 51.32C263.24 51.3 261.98 49.15 263.5 49.15C263.5 49.15 264.06 50.03 264.32 49.94C265.41 49.52 265.17 51.46 263.5 51.32ZM264.94 41.28C266.34 40.6 266.39 40.07 266.57 39.76C267.11 38.82 266.09 42.81 265.62 42.35C265.13 41.87 264.24 41.61 264.94 41.28ZM265.76 46.37C265.03 45.61 265.87 44.5 266.1 44.66C266.64 45.06 266.92 46.37 265.76 46.37ZM266.86 56.27C266.71 56.23 266.38 55.81 266.38 55.81C266.38 55.28 265.25 56.66 265.27 55.34C265.29 54.43 268.68 56.07 268.3 56.26C267.95 56.44 267.28 56.41 266.86 56.27ZM278.23 61.96C277.1 59.23 280.71 60.5 281.44 59.97C281.48 59.95 278.39 62.36 278.23 61.96ZM282.88 47.15C282.57 47.38 282.49 48.79 282.06 48.87C281.02 49.03 279.7 50.84 279.37 50.72C277.85 50.17 276.93 53.22 275.19 52.38C275.08 52.32 274.62 51.51 274.24 51.45C271.89 51.08 272.71 51.59 272.32 50.53C272.19 50.16 271.25 48.12 271.02 47.89C270.78 47.65 271.01 46.46 270.88 46.23C270.64 45.81 268.82 45.89 269.1 45.3C269.6 44.22 268.63 39.46 269.91 38.96C270.04 38.91 271.01 37.39 271.01 37.39C271.01 36.87 271.63 37.7 271.15 38.04C270.8 38.29 270.75 41.28 271.48 41.28C272.24 39.92 272.76 38.64 273.07 37.12C273.1 36.97 273.7 37.07 273.74 37.25C273.94 37.95 276.68 38.17 276.96 38.32C277.46 38.58 276.43 39.56 277.44 39.76C277.65 39.79 278.55 40.36 279.02 40.04C279.68 39.57 279.58 38.87 280.32 39.29C280.76 39.55 281.78 39.06 282.24 39.29C284.13 40.28 284.66 45.82 282.88 47.15ZM298.29 43.27V42.81C298.94 42.81 298.29 42.9 298.29 43.27ZM300.68 51.65C300.68 51.65 300.51 51.6 300.5 51.46C300.35 50.41 301.4 51.65 300.68 51.65ZM309.18 71.27C309.18 71.27 308.97 70.31 309.32 70.62C309.64 70.89 309.4 70.74 309.18 71.27ZM319.25 38.97C319.25 38.97 317.4 37.61 318.91 37.72C319.04 37.73 320.29 38.97 319.25 38.97ZM320.83 38.64C320.83 38.64 319.4 36.72 320.06 36.92C320.29 37 322.07 38.64 320.83 38.64ZM326.79 55.95C326.26 55.88 326.27 54.82 326.45 54.56C326.65 54.26 328.45 56.14 326.79 55.95ZM332.06 55.02C332.06 55.02 331.11 55.26 331.1 55.16C331 54.69 330.22 52.91 330.95 53.17C331.23 53.27 331.26 53.81 331.72 54.23C332.21 54.68 333.11 55.02 332.06 55.02ZM340.22 49.15C340.17 49.15 339.61 47.85 340.07 47.63C341.71 46.83 341.81 49.19 340.22 49.15ZM346.65 40.96C346.3 41.22 346.39 43.5 346.31 43.74C346.07 44.44 347.34 44.45 346.98 45C346.76 45.33 346.18 46.52 345.35 46.52C345.35 46.52 344.86 44.65 345.21 44.39C345.9 43.88 346.06 33.36 348.42 35.74C348.62 35.93 347.34 40.45 346.65 40.96Z" fill="black"/>
<path d="M224.88 49.33C224.38 49.33 225.07 49.66 225.07 49.79C225.74 49.79 225.55 49.76 225.55 49.14C226.15 49.15 224.88 47.98 224.88 49.33Z" fill="black"/>
<path d="M96.59 53.5C95.39 53.5 97.0901 50.54 96.2601 50.54C96.2601 49.67 96.1201 49.23 96.1201 48.41C95.9301 48.41 94.5401 46.24 96.1201 46.24C96.1201 46.66 96.9401 47.24 96.9401 46.7C97.5201 46.7 96.9401 45.29 96.9401 44.99C97.0801 44.99 96.7301 41.88 95.9801 41.88C95.9801 41.6 95.7901 41.93 95.7901 41.42C94.5901 41.42 95.1601 40.36 95.1601 39.57C96.5501 39.57 94.5401 36.33 93.8701 36.33C93.8701 35.72 93.1001 34.8 92.4301 34.8C92.4301 34.56 91.1601 32.95 90.9901 32.95C90.9901 32.6 89.6301 31.24 89.2101 31.24C89.2101 29.72 87.7701 29.93 87.7701 29.39C86.6901 29.39 86.8001 28 85.7101 28C85.7101 29.46 85.2701 28.46 84.8901 28.46C84.8901 28.05 83.8401 28 83.4501 28C83.4501 26.29 81.6801 26.59 81.6801 27.21C81.0401 27.21 81.16 26.42 80.09 26.42C80.09 27.4 76.8801 26.28 76.8801 26.74C75.7501 26.74 75.5401 27.99 74.6701 27.99C74.6701 26.17 72.4101 29.06 72.4101 27.81C72.6601 27.81 72.6601 27.21 72.4101 27.21C72.4101 26.57 72.9301 26.42 71.9301 26.42C71.9301 27.76 70.7801 26.64 70.7801 27.21C69.4501 27.21 68.8301 28.13 67.9001 28.13C67.9001 28.75 66.4601 29.75 66.4601 28.92C65.0101 28.92 66.5101 30.91 65.9801 30.91V31.1C64.5201 31.1 66.0001 32.63 64.5401 32.63C64.5401 33.05 63.4401 33.4 63.4401 33.55C63.0901 33.55 62.4801 35.43 62.4801 35.87C61.7901 35.87 61.6401 38.65 61.3301 38.65C61.3301 39.08 60.8501 39.7 60.8501 40.04C60.3301 40.04 59.6101 42.52 59.1201 41.89C59.1201 41.06 58.8301 41.43 58.4501 41.43C58.4501 42.65 57.2001 43.55 57.2001 44.86C57.1001 44.86 55.8101 51.47 56.7201 51.47C56.7201 50.49 57.3501 51.77 57.3501 52.26C57.9201 52.26 57.0101 53 57.0101 52.4C56.0201 52.4 56.8701 53.51 57.2001 53.51C57.2001 54.05 58.3101 52.78 58.3101 53.65C58.8501 53.65 58.9401 52.52 58.9401 54.43C59.2501 54.43 59.6101 54.58 59.6101 54.25C60.6401 54.25 59.6501 55.04 59.1301 55.04C59.1301 55.6 58.3101 55.37 57.9801 55.37C57.9801 56.91 58.0001 56.29 57.2101 56.29C57.2101 56.17 55.1801 54.9 54.9601 54.9C54.9601 54.08 53.3301 53.99 53.3301 53.65C52.5501 53.65 52.6901 52.59 51.8901 52.59C51.8901 52.39 50.2401 51.2 49.9701 51.2C49.9701 50.81 47.9001 49.17 47.4301 49.17C47.4301 48.8 45.5601 47.65 45.1701 47.65C45.1701 47.13 42.4401 46.04 42.4401 45.61C41.9501 45.61 39.2701 43.82 39.2701 43.48C38.8901 43.48 36.4001 41.6 36.4001 41.45H36.0701C36.0701 41.02 34.3401 40.06 33.9601 40.06C33.9601 39.3 32.7101 39.34 32.7101 38.99C32.4901 38.99 30.1201 37.18 30.1201 36.95C29.6401 36.95 26.7601 34.63 26.7601 34.5C26.5201 34.5 26.2501 33.9 25.9901 33.9C25.9901 32.33 28.0501 33.54 28.0501 32.79C28.3401 32.79 28.0401 32.65 28.3901 32.65C28.3901 32.13 30.1901 31.4 28.3901 31.4C28.3901 32.04 26.6401 31.58 26.2801 31.58C26.2801 31.35 26.3901 31.12 26.1301 31.12C26.1301 29.98 29.0101 30.67 29.0101 30.01C30.2901 30.01 31.0701 28.94 32.5101 28.94C32.7301 29.1 32.3201 30.19 32.0301 30.19C32.0301 31.14 33.9901 30.19 34.6201 30.19C34.6201 29.74 37.5001 29.63 37.5001 29.08C39.1601 29.08 39.7101 27.09 41.0101 27.09C41.0101 26.4 43.4101 26.91 43.4101 26.44C44.1701 26.44 43.4101 25.84 43.8901 25.84C43.8901 25.46 45.6601 25.03 45.6601 24.91C47.1301 24.91 47.5301 23.38 48.8801 23.38C48.8801 22.9 50.1501 22.92 50.6601 22.92C50.6601 22.17 52.5801 20.28 53.3401 20.28C53.3401 20.1 56.9101 17.78 57.3701 17.78C57.3701 17.58 57.8501 17.36 57.8501 16.85C57.9701 16.85 59.6301 15.46 59.6301 15.32C59.7201 15.32 60.5901 13.53 60.5901 13.33C61.1501 13.33 60.4801 11.75 60.8801 11.75C60.8801 10.8 60.1201 11.67 60.1201 10.23C60.7501 10.23 59.9301 8.97 59.9301 8.84C59.7501 8.84 57.0001 6.77 57.0001 6.66C56.0001 6.66 55.6501 5.28 55.2801 5.28C55.2801 3.5 53.1701 4.03 53.1701 3.1C53.0601 3.1 51.6601 2.04 51.3901 2.04C51.3901 1.59 48.5901 0.79 47.8901 0.79C47.8901 0.18 35.0301 0 34.7401 0C34.7401 0.81 30.2801 -0.4 30.2801 0.33C27.9901 0.33 25.8801 0.79 23.5101 0.79C23.5101 1.13 21.7801 1.47 21.7801 0.33H18.5601C18.5601 0.87 14.7201 0.67 14.7201 1.12H12.4601C12.4601 1.23 11.1601 2.14 11.1601 1.39C9.52005 1.39 10.0401 2.64 9.57005 2.64C9.57005 3.84 8.95005 3.42 8.95005 4.81C8.88005 4.81 7.80005 5.98 7.80005 6.06C6.64005 6.06 6.16005 10.23 7.03005 10.23C7.03005 9.64 8.46005 10.69 7.80005 10.69C7.80005 11.7 8.47005 11.07 8.47005 12.68C8.08005 12.68 8.48005 15.64 8.95005 15.64V16.11C8.27005 16.11 8.76005 17.95 8.76005 18.56C8.03005 18.56 9.52005 20.41 8.76005 20.41C8.76005 20.98 8.78005 22.73 8.28005 22.73C8.28005 25.09 7.66005 21.11 7.66005 23.52C7.53005 23.52 7.32005 23.69 7.32005 23.84C6.18005 23.84 6.77005 22.59 5.73005 22.59C5.73005 23.4 4.92005 23.6 4.92005 24.31C4.74005 24.31 3.01005 25.23 3.96005 25.23C3.96005 26.44 2.38005 26.15 2.38005 26.62C1.92005 26.62 0.780054 27.82 0.750054 27.82C0.750054 29.23 0.120054 28.47 0.120054 29.2C-0.289946 29.2 0.270054 30.62 0.270054 30.91C0.390054 30.91 2.05005 32.81 2.05005 32.95C2.99005 32.95 3.42005 34.34 4.11005 34.34C4.11005 34.83 6.31005 36.01 7.04005 36.01C7.04005 36.36 8.00005 36.85 8.00005 36.93C8.39005 36.93 8.29005 37.97 8.29005 38.32C8.59005 38.32 8.29005 39.57 8.29005 40.03C8.99005 40.03 8.13005 41.27 8.63005 41.27C8.63005 42.19 9.57005 40.95 9.11005 40.95C9.11005 39.39 10.8901 42.92 10.8901 39.1H11.0301C11.0301 38.53 12.1301 39.57 12.1301 40.03C12.7201 40.03 12.8001 40.87 12.8001 41.42C12.2701 41.42 12.6101 45.33 12.6101 46.23C13.4001 46.23 11.5101 47.98 11.5101 46.97C11.1001 46.97 11.1701 45.51 11.1701 45.12C10.9301 45.12 10.5501 45.24 10.5501 44.99C9.28005 44.99 9.25005 44.89 9.25005 43.6C8.87005 43.6 8.29005 44.35 8.29005 44.66C7.71005 44.66 8.29005 49.76 8.29005 50.54C8.59005 50.54 8.96005 48.99 8.96005 49.8C9.04005 49.8 9.92005 48.91 9.92005 49.47C10.0301 49.47 10.3201 51.93 10.0701 51.93C10.0701 53.12 8.63005 50.74 8.63005 53.5C8.53005 53.5 8.29005 53.85 8.29005 53.96C7.34005 53.96 9.11005 56.17 9.11005 54.57C10.6701 54.57 8.79005 57.35 9.44005 57.35V57.67C9.85005 57.67 9.92005 61.42 9.92005 61.97C10.4301 61.97 9.02005 63.68 9.92005 63.68C9.92005 65.63 11.1701 64.65 11.1701 63.68C11.8401 63.68 11.0301 62.95 11.0301 62.89C10.1801 62.89 10.8901 61.6 10.8901 61.23C11.4101 61.23 11.8501 61.26 11.8501 60.77C12.9201 60.77 11.8701 64.47 13.7701 64.47V64.01C13.2101 64.01 14.3501 61.37 13.5801 61.37C13.5801 60.61 13.9201 61.1 13.9201 60.77C15.1601 60.77 15.3601 60.69 15.3601 61.84C15.9901 61.84 15.6901 63.6 15.6901 64.16C15.0201 64.16 16.3101 66.46 16.3101 66.48C17.0501 66.48 16.1701 67.73 16.6501 67.73C16.6501 68.56 16.0301 68.06 16.0301 68.51C14.9801 68.51 15.5401 69.58 14.4001 69.58C14.4001 70.69 15.3001 69.9 16.0301 69.9C16.0301 70.22 15.8701 71.57 16.1701 71.57C16.1701 72.43 16.6501 72.96 15.3601 72.96C15.3601 75.1 17.1301 71.98 17.1301 73.74C16.4301 73.74 17.7501 74.56 17.7501 74.67C18.2401 74.67 18.1701 74.53 18.5701 74.53C18.5701 72.65 19.5301 73.85 19.5301 72.68C20.1801 72.68 19.4901 71.43 19.0501 71.43C19.0501 70.75 18.7201 69.66 18.7201 68.97C19.5701 68.97 17.8201 66.79 18.9101 66.79C18.9101 67.23 19.6801 66.41 19.6801 66.93C20.1901 66.93 19.8701 69.09 19.8701 69.56C20.7701 69.56 21.1201 69.8 21.1201 70.63C21.6601 70.63 21.0201 71.56 22.0801 71.56C22.0801 70.99 20.9201 67.72 21.7901 67.72C21.7901 67.97 21.6501 68.65 21.9401 68.65C21.9401 69.61 23.3101 67.58 22.4201 67.58C22.4201 66.38 21.8001 66.89 21.8001 66.15C22.5101 66.15 22.0901 62.96 22.0901 62.3C21.5901 62.3 21.8701 59.39 22.0901 59.39C22.0901 58.8 21.8001 58.74 21.8001 58.14C22.2301 58.14 22.0101 56.1 21.6101 56.1C21.6101 55.54 21.3201 56.07 21.3201 55.64C20.7401 55.64 21.3201 53.58 21.3201 53.05C20.6901 53.05 21.3201 51.15 21.3201 50.74C20.5001 50.74 20.9801 49.28 20.9801 48.56C20.3501 48.56 21.0901 46.71 21.3201 46.71C21.3201 44.25 22.7501 46.07 24.0101 46.07C24.0101 45.57 27.0801 46.35 27.0801 46.85C28.7101 46.85 26.7301 47.31 26.2701 47.31C26.2701 47.82 28.0401 48.62 28.0401 49.03C29.0901 49.03 29.2801 49.82 29.8101 49.82C29.8101 49.86 31.9801 51.35 32.2101 51.35C32.2101 51.96 33.5201 51.95 34.1301 51.95C34.1301 52.16 34.0401 52.27 34.2701 52.27C34.2701 53.28 35.4201 53.03 35.4201 53.52C36.2601 53.52 36.1701 54.72 37.3401 54.72C37.3401 55.07 40.2201 56.56 40.2201 56.89C41.4101 56.89 40.9201 57.68 41.4601 57.68C41.4601 57.75 44.3901 59.92 44.3901 59.07C45.0801 59.07 43.9301 58.4 44.2001 58.14C46.5701 58.14 44.6801 57.66 44.6801 57.22C43.8501 57.22 43.6001 56.11 43.2401 56.11C43.2401 54.86 45.0201 56.53 45.0201 56.57C46.2101 56.57 44.5901 55.51 44.3901 55.51C44.3901 55.07 42.4401 54.44 44.5401 54.44C44.5401 53.78 45.5001 55.17 45.5001 53.98C46.7201 53.98 47.0901 54.4 47.0901 53.2H47.2801C47.2801 51.64 49.4401 53.98 48.7201 53.98C48.7201 54.75 49.0101 54.53 49.0101 55.05C48.5601 55.05 47.0901 56.08 47.0901 56.44C46.1101 56.44 47.6201 57.69 47.7601 57.69C47.7601 58.1 47.0501 60.61 47.9101 60.61C47.9101 61.5 46.8101 60.37 46.8101 60.14C44.0901 60.14 46.6101 60.98 46.6101 61.25C47.5201 61.25 47.1801 62.46 47.5701 62.46C47.5701 62.98 49.2001 62.82 49.2001 63.7C50.2401 63.7 49.2001 64.49 48.8701 64.49C48.8701 65 49.4901 65.04 49.4901 65.7C50.4101 65.7 49.9801 66.95 51.2601 66.95C51.2601 65.71 51.6101 66.62 51.8901 66.62C51.8901 67.44 53.0401 66.07 53.0401 66.62C53.3601 66.62 53.0101 66.8 53.3301 66.8C53.3301 67.83 55.1001 67.45 55.1001 68.19C55.8401 68.19 56.1401 69.44 56.7301 69.44C56.7301 70.02 58.0301 69.25 57.3601 69.25C57.3601 68 58.8001 69.76 58.8001 68.33C60.1501 68.33 57.9301 67.13 58.8001 67.13C58.8001 66.95 58.7401 66.95 58.9401 66.95C58.9401 66.4 58.0701 64.49 58.8001 64.49C58.8001 63.91 59.4401 64.63 59.6101 64.63C59.6101 65.88 61.1901 65.14 61.1901 66.81C62.2001 66.81 61.1601 68.06 62.1501 68.06C62.1501 68.64 63.3701 67.87 63.4501 67.87C63.4501 67.07 64.1401 67.41 64.7501 67.41C64.7501 65.24 67.6301 69.24 67.6301 67.59C68.0501 67.59 68.5401 66.95 67.9201 66.95C67.9201 66.2 66.8101 65.69 66.8101 64.96C65.9301 64.96 67.1501 63.62 67.1501 63.57C68.8501 63.57 69.9601 64.31 71.7601 64.31C71.7601 64.83 76.1001 64.78 76.2701 64.78C76.2701 65.1 77.2301 65.72 77.2301 64.78C78.2901 64.78 78.2001 64.18 79.4901 64.18C79.4901 64.68 81.4101 63.76 81.4101 63.71C82.6101 63.71 82.4601 62.92 83.3301 62.92C83.3301 64.77 84.2901 62.15 84.2901 62.92C86.1301 62.92 85.6801 61.4 87.3101 61.4C87.3101 59.75 88.9401 60.34 88.9401 59.68C89.1901 59.68 90.1801 58.84 90.1801 58.62C91.2501 58.62 90.6201 59.54 91.9601 59.54C91.9601 58.55 92.6301 58.35 92.6301 57.69C92.1201 57.69 92.6301 57.34 92.6301 57.23C93.6501 57.23 92.5101 58.3 93.1101 58.3C93.1101 59 94.3601 57.5 94.3601 56.9C95.1901 56.9 94.7801 55.89 95.1701 55.51C96.0301 55.51 95.7301 54.91 96.6101 54.91C96.6101 55.76 97.2401 55.87 97.2401 55.19C97.7301 55.19 97.2401 54.51 97.2401 54.27C98.2501 54.24 96.59 52.17 96.59 53.5ZM59.1301 42.41C59.1201 42.46 59.1101 42.46 59.1101 42.53H58.7801C58.9701 42.53 59.0701 42.47 59.1301 42.41ZM58.6401 42.07C58.6801 42.07 58.6801 42.05 58.7101 42.05C58.8201 41.78 58.9501 42 58.7101 42.05C58.6701 42.15 58.6401 42.29 58.6401 42.54V42.07ZM58.1601 48.68C58.1601 48.67 57.3301 47.76 57.9601 47.76C57.9601 46.99 58.8501 47.29 59.2601 47.29C59.2701 48.71 59.5101 48.68 58.1601 48.68ZM59.0001 50.06C58.8701 49.97 58.7801 50.14 58.7801 50.85C58.6001 50.85 58.5901 51.26 58.6001 51.64C58.6601 51.86 58.7301 52.09 58.7801 52.29C59.0601 52.54 58.7701 53.51 58.7701 52.84C58.9201 52.84 58.8701 52.6 58.7801 52.29C58.7401 52.25 58.6901 52.23 58.6301 52.23C58.6301 52.12 58.6101 51.88 58.6001 51.64C58.4901 51.22 58.4501 50.85 58.7801 50.85C58.7901 50.14 58.8701 49.98 59.0001 50.06C59.2301 50.2 59.5801 51 59.8901 51C59.5801 51 59.2301 50.2 59.0001 50.06ZM11.6701 50.25C11.6701 49.51 11.3301 47.89 12.1501 47.89C12.1501 48.79 13.3001 51.64 11.8601 51.64C11.8601 51.54 11.2201 50.25 11.6701 50.25ZM11.5301 54.42C11.5301 54.69 11.0201 54.88 10.7101 54.88C10.7101 54.54 10.5601 54.84 10.5601 54.56C9.93005 54.56 11.3601 53.63 10.4101 53.63C10.4201 52.07 11.9901 54.42 11.5301 54.42ZM12.4801 59.19C11.5701 59.19 12.7001 60.12 11.8601 60.12C11.8601 60.03 11.2801 59.19 11.8601 59.19C11.8601 58.81 12.3401 59.21 12.3401 58.27C13.4501 58.27 12.4801 61.09 12.4801 59.19ZM14.7401 44.05C14.7401 43.84 14.0601 42.67 14.5401 42.67C14.5401 41.76 15.8001 44.05 14.7401 44.05ZM16.9901 50.72C16.9901 47.26 17.0701 49.01 17.6101 49.01C17.6101 49.79 18.1401 52.25 17.2701 52.25C17.2801 52.13 16.2901 50.72 16.9901 50.72ZM17.2001 65.11C17.1601 65.23 17.1401 65.49 17.1401 65.99C17.1401 65.41 17.1601 65.16 17.2001 65.11C17.3201 64.73 17.5701 65.86 17.6201 65.86C17.6201 65.96 17.7001 66.02 17.7501 66.09C17.4501 65.65 17.2801 65.01 17.2001 65.11ZM17.7601 68.03C17.8401 67.66 17.8701 67.34 18.0201 67.14C17.8701 67.45 18.1501 68.03 17.7601 68.03ZM18.2701 66.43C18.2701 66.45 18.2401 66.44 18.2401 66.46C18.1201 66.46 18.0101 66.39 17.9101 66.29C18.0201 66.35 18.1501 66.41 18.2701 66.43C18.3101 66.24 18.5801 66.24 18.5801 66.46C18.8101 66.46 18.5701 66.49 18.2701 66.43ZM18.9101 64.28C18.9101 64.07 18.2401 62.9 18.2401 64.01C17.5401 64.01 18.0901 62.37 18.0901 61.83C17.1701 61.83 18.7201 60.4 18.7201 60.9C19.1801 60.9 18.7601 63.36 19.3901 63.36C19.3901 63.69 19.2601 64.28 18.9101 64.28ZM19.3901 66.46C19.3901 66.29 18.7701 65.86 19.5401 65.86C19.5301 66.04 20.0401 66.46 19.3901 66.46ZM19.0501 45.59C19.0501 46.4 19.5601 46.51 18.2401 46.51C18.2401 46.41 17.6301 45.91 18.0901 45.91C18.0901 45.23 18.2701 44.99 18.9001 44.99C18.9001 44.36 20.1501 44.32 20.1501 44.85C20.9001 44.85 19.6001 45.59 19.0501 45.59ZM21.1201 62.61C21.4701 62.61 21.4101 62.89 20.9801 62.89C20.9801 62.25 20.1701 62.63 20.1701 61.5C20.9401 61.5 21.1201 61.75 21.1201 62.61ZM27.4101 29.39C27.4101 28.87 29.3201 28.15 29.3201 28.93C28.3601 28.92 28.3001 29.39 27.4101 29.39ZM34.2601 28.74C34.2601 29.2 33.4301 28.8 32.9701 29.01C33.0201 29.04 33.0101 29.07 32.8201 29.07C32.8601 29.03 32.9201 29.04 32.9701 29.01C32.8201 28.92 32.1001 28.74 33.1601 28.74C33.1601 28.04 36.0801 27.54 33.4401 27.54C33.4401 27.73 30.2801 28.56 30.2801 28.93C28.2601 28.93 31.0501 26.94 31.0501 28C31.5101 28 33.4501 27.35 33.4501 27.07C34.0401 27.07 34.7501 26.43 34.7501 27.53C35.3801 27.53 36.8601 26.88 36.8601 27.53C35.8201 27.53 35.2401 28.74 34.2601 28.74ZM35.4201 20.87C35.4201 21.16 35.0601 21.19 34.7501 21.19C34.7501 20.67 34.4401 20.27 35.4201 20.27C35.4201 19.92 36.8601 18.84 36.8601 20.09C36.7201 20.09 35.6101 20.87 35.4201 20.87ZM24.6701 27.53C24.6701 28.18 22.4801 28.27 21.7901 28.27C21.7901 27.94 22.2701 27.09 22.2701 26.74C23.3701 26.74 23.4901 25.96 22.0801 25.96C22.0801 26.53 20.8301 27.33 20.8301 26.15C21.6201 26.15 21.5401 25.04 22.7501 25.04C22.7501 25.53 23.8501 24.97 23.8501 25.68C23.2501 25.68 23.3701 26.01 23.3701 26.61C24.0401 26.61 26.1701 27.53 24.6701 27.53ZM22.8901 23.64C22.1901 23.64 22.1401 23.82 21.6001 23.82C21.6001 23.61 22.4801 22.11 21.9401 22.11C21.9401 21.39 22.2601 17.16 21.9401 17.16C21.9401 15.93 22.0801 14.43 22.0801 13C22.3001 13 23.5201 12.21 23.5201 11.93C24.7201 11.93 24.7001 10.82 25.6301 10.82C25.6301 10.77 28.1701 10.19 28.1701 10.82C28.3701 10.82 28.8401 11.49 28.8401 10.96C29.9301 10.96 31.2501 10.5 32.3401 10.5C32.3401 10.77 32.3901 10.69 32.6701 10.69C32.6701 10.09 38.5701 9.9 39.2401 9.9C39.2401 10.26 41.4501 9.92 41.4501 10.69C41.9601 10.69 41.2001 11.61 40.8301 11.61C40.8301 12.07 38.5601 14.06 38.0901 14.06C38.0901 14.22 35.3701 16.38 35.2201 16.38C35.2201 16.52 32.6501 18.23 32.4801 18.23C32.4801 18.57 31.8601 18.71 31.8601 19.01C31.1001 19.01 28.0201 20.61 28.0201 21.19C27.5501 21.19 28.4901 22.44 27.4001 22.44C27.4001 22.58 26.3501 22.9 26.1001 22.9C26.1001 22.63 25.7901 22.25 25.4701 22.25C25.4801 22.78 22.8901 23.35 22.8901 23.64ZM26.4401 29.2C28.1001 29.2 26.1301 29.99 25.4801 29.99C25.4801 29.06 26.4401 29.75 26.4401 29.2ZM32.2001 48.41C32.2001 48.19 31.2401 48.15 31.2401 47.44C31.4501 47.43 33.2201 48.41 32.2001 48.41ZM36.0401 51.18C36.0401 50.74 32.9601 49.88 32.9601 48.68C33.9101 48.68 34.6901 49.6 35.8901 49.6C35.9001 49.88 36.8001 51.18 36.0401 51.18ZM35.4201 49.01C35.4201 49 34.4001 47.76 35.2301 47.76C35.2301 45.91 35.8501 47.89 36.3801 47.89C36.3801 48.74 36.6701 49.01 35.4201 49.01ZM41.8001 55.16C41.8001 54.38 41.5901 54.88 42.2801 54.88C42.2801 55.28 42.2201 55.16 41.8001 55.16ZM43.3901 57.87C43.2401 57.8 43.0901 57.72 42.9201 57.63C43.0001 57.64 43.0901 57.65 43.2301 57.65C43.2301 57.71 43.3201 57.8 43.3901 57.87C43.6501 58 43.8601 58.12 43.8601 58.27C43.7101 58.19 43.5301 58.03 43.3901 57.87ZM43.7001 57.44C43.7601 57.45 43.7901 57.47 43.8601 57.47C43.8601 57.48 43.8601 57.48 43.8601 57.49C44.4701 57.6 43.8701 58.31 43.8601 57.49C43.8201 57.48 43.7801 57.47 43.7201 57.47C43.7201 57.46 43.7101 57.46 43.7001 57.44C43.4801 57.42 43.3001 57.39 43.1601 57.31C42.9501 57.36 42.7801 57.45 42.7501 57.53C42.4201 57.33 42.1301 57.1 42.1301 56.73C42.5501 56.73 42.7201 57.1 43.1601 57.31C43.4101 57.26 43.6701 57.27 43.7001 57.44ZM48.3701 57.2C47.5501 57.2 48.8601 55.4 48.8601 56.73C49.3701 56.73 49.1701 56.41 50.1501 56.41C50.1501 57.41 50.6201 57.8 49.1901 57.8C49.1901 57.47 48.3701 57.92 48.3701 57.2ZM49.8101 63.22C49.8101 62.49 48.8501 62.83 48.8501 61.69C48.0101 61.69 48.8501 61.04 48.8501 61.5C49.4601 61.5 50.4301 62.7 50.4301 63.22H49.8101ZM50.7701 55.16C50.7701 55.08 48.6901 54.56 49.4701 54.56C49.4701 53.28 50.2901 53.88 50.2901 54.56C51.0801 54.56 51.5301 55.16 50.7701 55.16ZM83.9201 46.23C83.5801 46.23 83.4001 42.8 82.9601 42.8C82.9601 41.98 81.8301 43.72 82.6801 43.72C82.6801 44.08 82.6 48.86 82.34 48.86C82.34 49.45 81.5201 49.76 81.5201 50.52C80.4801 50.52 80.8101 51.44 80.2201 51.44C80.2201 52.04 79.2601 52.36 79.2601 52.69C78.9601 52.69 76.7101 52.8 76.7101 53.16C76.6701 53.16 75.4201 54.11 75.4201 53.48C74.2601 53.48 73.2201 53.62 71.9101 53.62C71.9101 53.18 70.6201 52.96 70.6201 51.63C70.5501 51.63 70.2701 46.82 71.2501 46.82C71.2501 45.59 72.4001 44.96 72.4001 43.72C72.8201 43.72 72.5501 42.06 73.2201 42.06C73.2201 41.65 73.5101 42.09 73.5101 41.73C74.0201 41.73 72.2101 39.27 74.3301 39.27C74.3301 38.8 75.7401 38.03 76.2401 38.03C76.2401 37.15 77.8301 37.17 77.8301 38.17C78.7801 38.17 78.0501 41.13 78.7901 41.13C78.7901 40.18 80.2201 40.88 80.2201 39.56C80.6801 39.56 82.6701 39.46 82.6701 40.02C85.1201 40.02 84.5001 43.44 85.2101 43.44C85.2101 43.74 85.1401 45.89 85.5501 45.89C85.5501 46.95 83.9201 47.13 83.9201 46.23Z" fill="black"/>
<path d="M14.4 63.07H14.74C14.74 60.81 14.4 60.81 14.4 63.07Z" fill="black"/>
<path d="M82.34 42.21C83 42.21 82.68 40.93 82.68 40.35C81.8 40.35 82.34 41.22 82.34 42.21Z" fill="black"/>
<path d="M216.86 58.73C217.84 58.73 216 57.99 215.9 57.99C215.9 57.54 216.6 55.63 215.9 55.63C215.9 54.29 214.65 54.16 214.65 53.5C214.59 53.5 213.27 49.47 213.69 49.47C213.69 48.67 213.36 48.54 213.36 47.44C213.11 47.44 212.88 46.96 212.88 46.7C212.28 46.7 212.54 45.35 212.54 44.99C213.19 44.99 212.88 44.59 212.88 44.38C211.96 44.38 211.3 43.42 211.3 45.12C210.43 45.12 211.58 46.3 211.58 46.37C212.25 46.37 211.92 47.7 211.92 48.22C212.6 48.22 212.25 49.97 212.25 50.53C211.74 50.53 211.77 51.23 211.77 51.78C211.61 51.78 211.3 52.12 211.3 51.78C210.81 51.78 210.82 49.45 210.82 49.14C209.6 49.14 209.02 45.44 208.9 45.44V44.98C209.56 44.98 209.86 45.99 209.86 44.51C208.99 44.51 210.87 43.59 208.9 43.59C208.9 43.53 206.85 41.74 208.22 41.74C208.22 41.2 208.17 40.21 207.6 40.21C207.6 39.35 206.3 41.88 206.3 39.75C205.64 39.75 205.81 35.08 204.53 35.08C204.53 35.54 204.23 35.08 204.05 35.08C204.05 33.5 204.1 34.15 205.01 34.15C205.01 33.9 204.42 32.16 204.39 32.16C204.39 29.96 204.68 31.23 205.2 31.23C205.2 31.89 205.68 32.6 205.68 33.08C204.53 33.08 205.97 34.5 205.97 34.6C206.95 34.6 206.35 33.08 206.93 33.08C206.93 32.75 206.75 32.29 206.45 32.29C206.45 32.05 206.87 31.37 207.12 31.37C207.12 30.38 208.08 29.88 208.08 30.62C209.11 30.62 209.18 34.28 209.18 35.25C209.86 35.25 209.08 36.78 209.51 36.78C209.51 38.67 210.14 38.66 210.14 40.2C210.68 40.2 210.25 41.87 211.44 41.87C211.44 41.11 210.82 39.42 211.77 39.42C211.77 39.01 212.06 37.04 212.06 38.17C212.87 38.17 211.67 39.42 212.73 39.42C212.73 39.05 212.65 37.24 213.01 37.24C213.01 37.5 213.14 38.63 213.35 38.63C213.35 40.15 213.97 39.45 213.97 40.8C213.42 40.8 213.68 42.25 213.68 42.66C213.1 42.66 213.68 44.05 213.68 44.37C213.76 44.37 215.48 45.11 214.3 45.11C214.3 45.59 215.69 46.69 214.3 46.69V47.15C215.16 47.15 213.58 48.4 214.63 48.4C214.63 48.09 216.07 48.09 216.07 46.97C215.31 46.97 215.59 45.57 215.59 44.84C215.03 44.84 215.39 43.21 215.39 42.8C216.18 42.8 214.91 40.86 214.91 40.67C214.22 40.67 214.76 38.78 214.76 38.31C215.32 38.31 214.85 36.92 214.61 36.92C214.61 36.45 215.38 34.14 214.9 34.14C214.9 33.7 214.61 33.83 214.61 33.22C213.95 33.22 215.09 32.29 214.42 32.29C214.42 31.81 214.61 32.19 214.61 31.83C215.64 31.83 213.97 28.73 214.61 28.73C214.61 27.8 214.76 27.22 214.76 26.42C213.95 26.42 215.16 24.75 213.32 24.75C213.32 24.29 213.48 22.44 212.84 22.44C212.84 21.19 211.54 23.61 211.54 22.26C210.57 22.26 211.47 22.72 210.77 22.72C210.77 21.83 208.04 22.82 208.04 23.18H207.89C207.89 23.69 207 23.18 206.74 23.18C206.74 24.31 205.59 23.36 204.97 23.36C204.97 23.09 203.7 21.98 204.49 21.98C204.49 21.64 206.58 21.66 206.89 21.66C206.89 21.59 208.32 19.95 207.56 19.95C207.56 19.03 207.02 18.69 206.12 18.69C206.12 17.89 204.08 18.69 203.39 18.69C203.39 19.71 202.76 19.48 202.09 19.48C202.09 21.09 202.9 19.83 202.9 20.87C202.29 20.87 203.51 21.98 202.9 21.98C202.9 24.15 202.54 23.64 200.99 23.64C200.99 24.37 200.51 23.25 200.51 22.9C199.54 22.9 199.46 22.25 198.26 22.25C198.26 23.31 199.62 23.63 200.65 23.63C200.65 25.15 199.55 23.5 199.55 24.29C198.82 24.29 199.23 25.95 198.6 25.95C198.6 26.37 198.94 26.6 199.22 26.6C199.22 27.59 199.43 27.66 200.52 27.66C200.52 27.11 201.47 26.24 201.47 27.34C200.59 27.34 201.62 29.17 201.62 29.52C202.07 29.52 201.78 32.48 202.43 32.48C202.43 33.37 203.73 32.35 203.73 33.41C203.44 33.41 203.73 36.3 203.73 36.65C204.26 36.65 204.35 41.83 204.35 42.06C203.62 42.06 204.01 44.89 204.01 45.58C203.5 45.58 203.99 47.62 203.05 47.62C203.05 47.91 202.57 48.46 202.57 48.54C201.44 48.54 202.15 46.69 201.61 46.69C201.61 46.11 200.93 46.36 200.65 46.36C200.65 47.4 199.66 46.5 199.55 46.5C199.55 45.28 198.6 46.62 198.6 45.11C199.85 45.11 198.63 44.19 198.6 44.19C198.6 43.76 197.16 43.17 197.16 43.13C196.23 43.13 196.59 41.6 196.01 41.6C196.01 41.22 195.38 39.76 194.91 39.76C194.91 39.12 194.31 39.11 193.62 39.11C193.62 38.65 192.02 36.47 191.55 36.47C191.55 34.85 190.59 36.07 190.59 34.62C190.06 34.62 189.48 33.63 189.48 33.1C189.26 33.1 189.15 33.19 189.15 32.96C188.56 32.96 188.32 31.11 187.71 31.11C187.71 30.54 187.63 29.4 187.04 29.4C187.04 28.78 184.5 27.69 184.5 27.23C184.19 27.23 183.68 24.59 182.09 24.59C182.09 22.95 181.13 24.45 180.66 24.45C180.66 25.19 179.67 24.32 179.22 24.32C179.22 23.77 178.47 24.13 178.26 24.13C178.26 25.28 177.78 24.62 177.78 24.13C177.23 24.13 176.86 23.99 176.15 23.99C176.15 26.23 175.92 24.78 175.67 24.78C175.67 24.28 172.99 24.1 172.99 25.38C172.65 25.38 171.69 26.44 171.69 25.7C170.92 25.7 171.06 28.22 171.06 29.08C170.56 29.08 170.73 29.88 170.73 30.33C171.17 30.33 171.06 34.04 171.06 34.49C170.51 34.49 171.06 35.61 171.06 35.88C171.47 35.88 170.58 39.16 170.58 39.58C170.08 39.58 170.58 40.66 170.58 40.97C170.03 40.97 170.38 43.06 170.38 43.47C170.96 43.47 170.72 45.89 170.72 46.38C170.99 46.38 171.05 46.68 171.05 46.98C170.15 46.98 171.51 51.65 170.72 51.65C170.72 52.5 170.26 57.66 171.05 57.66C171.05 58.27 171.53 57.16 171.53 56.88C171.96 56.88 171.7 57.02 172.01 57.02C172.01 57.8 172.95 55.63 172.3 55.63C172.3 54.29 172.33 54.7 172.97 54.7C172.97 56.37 174.22 55.54 174.22 56.09C175.19 56.09 174.48 57.8 175.18 57.8C175.18 56.47 175.85 58.32 175.85 58.45C175.55 58.45 175.99 60.16 175.99 60.76C176.59 60.76 175.85 61.75 175.85 61.83C175.31 61.83 175.54 62.9 176.33 62.9C176.33 63.6 175.04 62.92 175.04 63.83C173.93 63.83 173.86 66.01 174.56 66.01C174.56 65.84 174.54 65.87 174.71 65.87C174.71 65.13 175.66 66.25 175.66 66.47C176.22 66.47 175.85 67.76 175.85 68.32C174.87 68.32 176.47 69.83 176.47 68.97C176.63 68.97 177.43 67.81 177.43 68.5C177.68 68.5 177.91 71.99 177.91 72.34C177.54 72.34 177.43 72.24 177.43 71.88C176.51 71.88 176.47 72.07 176.47 73.13C175.91 73.13 176.8 73.97 176.8 74.19C177.99 74.19 176.08 72.66 177.28 72.66C177.28 73.45 178.58 71.27 178.58 73.4C180.68 73.4 180.16 73.42 180.16 71.73C179.62 71.73 180.02 70.02 180.02 69.88C181.44 69.88 180.13 71.73 180.98 71.73C180.98 72.28 181.94 71.09 181.94 70.81C181.1 70.81 181.41 69.88 182.42 69.88C182.42 68.94 183.56 70.62 183.67 70.62C183.67 71.79 184.63 71.83 184.63 72.19C185.19 72.19 185.45 74.33 185.45 72.19C184.73 72.19 185.51 68.63 184.63 68.63C184.63 68.39 184.72 65.06 184.34 65.06C184.34 64.93 183.54 62.75 183.52 62.75C183.52 62.12 184.15 62.21 184.15 62.6C186.31 62.6 184.63 61.08 184.63 60.43C185.09 60.43 185.11 59.6 185.11 59.18C184.51 59.18 185.29 57.33 184.82 57.33C184.82 57.05 184.62 57.37 184.62 56.86C185.08 56.86 184.82 53.39 184.82 53.02C184.21 53.02 184.12 53.16 183.52 53.16V52.09C183.94 52.09 184.82 51.69 184.82 51.16C183.54 51.16 184.05 50.38 184.62 50.38C184.62 49.52 183.37 48.39 184.96 48.39C184.96 48.87 186.06 48.79 186.06 50.05C186.58 50.05 186.87 50.38 187.69 50.38C187.69 51.11 188.54 53.02 189.13 53.02C189.13 53.69 190.09 53.69 190.09 52.84C190.63 52.84 191.05 53.02 191.05 53.48C191.84 53.48 192.38 55.01 192.83 55.01C192.83 56.08 193.79 56.25 193.79 56.53C194.29 56.53 194.65 57.97 195.23 57.97C195.23 58.63 197.44 60.36 197.44 59.36C197.87 59.36 197.15 58.92 197.15 58.44C199.85 58.44 196.96 56.92 196.96 56.54C196.47 56.54 197.29 55.95 197.29 56.4C197.82 56.4 198.83 57.65 198.92 57.65C198.92 58.47 200.42 57.46 199.69 57.46C199.69 56.95 197.72 56.08 199.21 56.08C199.21 55.74 199.13 55.68 199.41 55.48C200.05 55.48 201.42 57.79 201.47 57.79C201.47 58.57 200.85 58.36 200.85 59.04C201.37 59.04 201 61.45 201 61.81C200.35 61.81 199.31 59.96 199.7 59.96C199.7 59.58 198.6 58.84 198.6 59.82C199.3 59.82 198.61 61.68 199.08 61.68C199.08 62.35 200.18 62.43 200.18 63.53C200.72 63.53 203.25 64.42 203.25 64.92C205.51 64.92 203.8 65.99 205.31 65.99C205.31 66.12 206.13 66.91 206.27 66.91C206.27 67.5 207.57 67.17 207.57 66.77C208.5 66.77 207.59 67.7 208.52 67.7C208.52 66.65 209.82 68.53 209.82 68.02C210.02 68.02 209.62 66.46 209.62 66.13C208.93 66.13 208.54 64.92 208.99 64.92C208.99 63.78 210.1 63.65 210.1 64.13C211.07 64.13 209.07 65.52 211.06 65.52C211.06 65.16 213.65 66.12 213.93 66.12C213.93 67.34 214.45 67.23 215.71 67.23C215.71 66.91 216.05 66.17 216.05 65.85C218.05 65.85 217.49 63.01 217.49 61.36C217.37 61.36 216.86 59.04 216.86 58.73ZM211.31 22.72C211.48 22.72 211.36 22.74 211.24 22.8C211.26 22.77 211.26 22.76 211.31 22.72ZM203.44 29.99H202.95C202.95 28.87 203.44 27.86 203.44 29.99ZM203.77 32.17C203.77 32.39 203.08 32.49 202.81 32.49C202.81 32.05 201.79 31.56 203.1 31.56C203.1 29.49 204.34 32.17 203.77 32.17ZM172.82 50.07C172.82 49.95 172.65 49.79 172.53 49.79C172.53 48.64 171.76 46.23 173.16 46.23C173.16 46.84 174.02 50.07 172.82 50.07ZM172.68 45.58C172.68 45.46 172.3 44.84 172.2 44.84C172.2 44.5 172.11 42.67 172.54 42.67C172.54 41.65 173.5 41.99 173.5 42.67C172.82 42.67 174.25 45.58 172.68 45.58ZM179.74 50.07C180.22 50.07 179.27 49.15 180.21 49.15C180.21 49.64 180.46 50.4 181.03 50.4C181.03 50.93 181.39 52.86 180.7 52.86C180.7 52.39 180.55 51.97 180.55 51.46C179.68 51.46 179.74 50.92 179.74 50.07ZM181.51 60.9C181.51 60.62 180.55 59.51 180.55 59.05C180.17 59.05 180.13 56.09 180.55 56.09C180.55 55.51 181.51 56.21 181.51 56.55C182.09 56.55 181.09 58.59 181.8 58.59V60.58C182.19 60.58 182.06 60.9 181.51 60.9ZM187.74 50.07C187.74 49.93 186.89 49.47 187.74 49.47C187.74 49.67 188.43 50.07 187.74 50.07ZM189.8 52.71C189.8 52.59 189.24 52.11 189.66 52.11C189.66 51.32 190.85 52.71 189.8 52.71ZM196.72 56.41C196.72 56.26 195.73 55.63 196.52 55.63C196.52 56.17 197.08 55.58 196.72 56.41ZM198.49 55.95V56.27C198.49 55.97 196.87 55.48 198.15 55.48C198.15 55.86 199.09 55.95 198.49 55.95ZM199.11 55.63C199.11 55.36 198.3 55.25 198.3 54.56C198.05 54.56 197.95 54.1 198.49 54.1C198.49 54.66 199.26 54.75 199.26 55.35C199.6 55.35 199.28 55.3 199.11 55.63ZM200.08 47.89C200.08 47.17 199.69 47.43 200.41 47.43C200.41 47.88 200.54 47.89 200.08 47.89ZM207.27 44.84C207.27 44.61 206.39 42.99 207.27 42.99C207.27 42.72 207.31 42.81 207.61 42.81C207.61 43.79 209.51 44.84 207.27 44.84Z" fill="black"/>
<path d="M15.36 65.86C14.66 65.86 15.02 67.38 15.02 67.71C16.52 67.7 15.36 66.84 15.36 65.86Z" fill="black"/>
<path d="M103.64 63.82C104.26 63.82 103.12 63.36 102.82 63.36C102.82 64.41 102.34 63.72 102.34 64.61C103.21 64.6 103.64 64.62 103.64 63.82Z" fill="black"/>
<path d="M10.42 42.81C11.36 42.81 9.93999 40.35 9.93999 41.42C9.27999 41.42 9.74999 43.11 9.74999 43.46C10.29 43.45 10.42 43.34 10.42 42.81Z" fill="black"/>
<path d="M227.61 46.97C227.61 46.54 226.99 47.12 226.99 46.69C226.09 46.69 225.35 47.49 225.35 48.4C226.15 48.4 225.17 47.89 226.16 47.89C226.17 49.09 228.61 46.97 227.61 46.97Z" fill="black"/>
<path d="M102.2 55.49H102.54V55.16C102.74 55.16 102.2 51.15 102.2 50.53C101.5 50.53 101.19 54.09 101.38 54.09C101.39 55.05 102.2 55.23 102.2 55.49Z" fill="black"/>
<path d="M102.83 61.5C101.99 61.5 101.87 61.56 101.87 60.76C100.45 60.76 101.73 61.84 101.73 62.15C102.27 62.15 102.83 62.03 102.83 61.5Z" fill="black"/>
<path d="M226.51 50.53H226.99C226.99 49.67 226.51 50.14 226.51 50.53Z" fill="black"/>
<path d="M274.39 65.86C276.44 66.26 272.84 62.74 273.57 65.86C273.6 65.94 274.13 65.79 274.39 65.86Z" fill="black"/>
<path d="M275.83 65.99C276.69 67.09 275.62 66.44 275.06 66.77C274.32 67.23 275.69 67.37 275.69 67.37C276.04 67.37 277.2 67.36 277.27 67.37C279.62 67.62 275.05 64.98 275.83 65.99Z" fill="black"/>
<path d="M305.82 69.23C305.65 69.53 306.29 70.81 306.29 70.81C309.18 70.81 306.13 68.68 305.82 69.23Z" fill="black"/>
<path d="M274.87 68.77H274.73V68.63H274.58V68.49H274.38V68.31H274.24V68.17H273.56V68.31H273.08V67.84H272.94V67.7H272.8V67.56H272.13V67.7H272V67.84H271.85V68.03H271.51V67.56H271.37V67.24H270.89V67.38H270.55V67.56H270.41V67.7H269.11V67.37H268.97V67.1H268.49V67.24H268.31V67.38H267.68V67.24H267.53V66.92H267.68V66.78H268.02V66.6H268.49V66.46H268.64V66.32H269.12V66.14H269.27V65.54H269.46V65.4H269.6V65.2H269.93V65.39H270.08V65.53H270.22V65.66H270.41V65.99H270.22V66.59H271.37V66.77H272V66.59H272.14V65.85H272.33V65.66H272.47V65.39H272.61V65.2H272.81V64.92H272.61V64.74H272.47V64.6H272.33V64.46H272.14V64.28H271.03V64.14H270.55V64H270.41V63.53H270.22V63.35H269.46V63.21H268.98V63.07H268.79V62.75H268.5V62.6H268.17V62.42H267.69V62.27H267.54V61.86L266.87 61.71V61.81H266.73V61.95H266.58V62.14H265.91V61.95H265.29V61.5H265.43V60.76H265.29V60.44H264.81V60.58H264.47V60.76H263.84V60.9H263.65V61.05H263.5V61.23H263.17V61.05H262.88V60.9H262.69V60.58H262.55V60.11H262.4V59.51H262.06V59.84H261.11V59.98H260.97V60.12H260.63V59.84H260.49V59.51H259.33V59.37H259.19V59.05H258.86V58.91H258.72V58.58H258.57V58.44H257.42V58.26H257.13V58.11H255.5V57.97H254.54V57.8H252.61V57.99H252.47V58.27H252.28V58.73H252.14V59.05H252V59.19H251.66V58.59H251.33V58.73H251.18V58.91H251.03V59.05H250.84V59.19H250.36V59.05H250.21V58.45H250.07V58.27H249.87V57.99H250.07V57.8H250.21V57.34H249.87V57.2H249.1V57.01H246.51V57.8H246.37V57.99H246.23V58.13H245.69V57.8H245.55V57.66H245.41V57.34H245.08V57.2H244.26V57.01H244.11V56.87H243.63V57.01H243.29V57.2H243V57.98L242.98 57.99C243.03 57.98 243.04 57.98 243.15 57.98C244.02 57.98 243.24 58.61 243.29 58.45C243.36 58.21 242.97 58.09 242.87 58.04L242.66 58.13V57.99H242.52V57.8H242.33V57.2H242.52V56.41H242.19V56.27H240.27V56.41H239.94V56.27H239.8V56.08H239.46V55.94H239.32V55.8H238.84V55.94H238.51V55.8H238.22V55.61H237.55V55.47H236.59V55.33H235.97V55.14H235.64V55H234.68V54.86H233.72V54.7H233.57V54.1H233.09V53.5H232.9V53.31H232.62V53.17L231.66 53.03V52.7H231.81V52.56H231.95V52.38H232.15V52.24H232.29V51.92H232.43V51.78H232.62V51.64H232.76V51.45H232.9V51.18H232.76V50.86H232.62V50.72H232.43V50.07H232.62V49.94H232.76V49.8H232.9V49.47H231.94V49.15H231.31V49.47H231.17V49.8H230.98V49.94H230.84V50.07H230.69V50.53H230.84V50.72H230.98V51H230.35V51.18H230.02V51.32H229.87V51.46H229.73V51.65H229.39V51.79H229.05V52.11H228.91V52.39H228.77V52.57H228.58V52.85H228.44V53.03H227.48V52.85H227.34V52.57H227.48V51.45H227.82V51.18H227.62V51H227.48V50.86H226.86V51.18H226.67V51.32H225.85V51.46H225.57V51.65H225.23V51.79H225.09V51.93H224.9V52.11H224.76V52.25H224.61V52.39H224.28V52.57H223.94V52.39H223.31V52.57H222.97V52.71H221.72V52.57H221.52V52.24H221.38V52.1H221.05V52.7H220.91V53.03H220.76V53.17H220.42V53.5H220.28V53.64H220.09V53.78H219.95V53.96H219.8V54.1H219.61V54.24H219.32V54.7H219.47V55.49H219.32V55.63H219.13V55.82H218.84V56.09H218.65V57.34H218.99V57.47H219.13V57.66H219.32V57.8H219.47V58.45H219.32V59.05H219.13V59.19H218.99V59.38H218.84V59.52H218.65V60.45H218.84V60.59H218.99V60.77H219.13V61.05H219.32V61.37H219.13V61.83H219.32V62.16H219.47V62.3H219.61V62.45H219.8V62.63H219.95V62.91H220.43V63.09H220.58V63.37H221.39V63.55H221.53V63.69H221.73V64.48H221.87V64.62H222V64.76H222.19V65.22H222.96V65.41H223.63V65.55H225.21V65.68H226.17V65.55H226.51V65.68H227.8V65.87H227.94V66.01H229.24V66.15H229.53V66.33H229.86V66.47H231.79V66.61H232.13V66.79H232.27V66.93H232.41V67.11H232.89V67.25H233.23V67.39H234.53V67.25H234.67V66.93H234.81V66.14H235.63V66.46H235.78V66.6H236.12V66.78H236.31V66.92H236.45V67.1H236.59V67.56H236.79V67.7H236.93V67.84H237.55V67.7H238.22V67.56H238.51V67.7H238.84V67.84H239.8V68.03H240.13V68.17H240.91V67.84H241.1V67.7H241.25V66.91H241.38V66.77H241.57V66.59H243.01V66.77H243.3V66.91H243.64V67.09H243.78V67.55H243.64V68.29H244.26V68.15H244.45V68.01H244.6V67.82H244.93V68.01H245.22V68.15H245.41V68.29H245.7V68.75H244.75V69.08H245.42V69.22H246.04V69.41H247.96V69.54H249.59V69.22H249.25V68.94H249.73V68.75H249.87V68.29H248.15V68.15H247.96V68.01H247.34V67.82H247.19V67.7H247V67.56H246.86V67.24H247.49V67.38H247.97V67.24H248.45V67.56H249.12V67.7H249.41V67.84H250.08V67.7H250.56V67.84H250.71V68.49H250.56V69.1H250.71V69.24H251.52V69.1H252.29V68.96H252.97V68.77H253.26V68.63H253.46V68.17H253.94V68.03H254.23V67.84H255.19V68.03H255.52V68.17H255.72V68.31H255.86V68.49H256.49V68.31H258.4V68.17H258.74V68.03H259.21V67.84H259.69V68.77H259.83V69.23H260.17V69.42H260.65V69.55H261.27V69.69H261.94V69.55H262.56V69.69H263.52V69.87H263.85V70.01H265.15V69.87H265.29V69.69H265.43V69.55H265.77V69.42H265.91V69.23H266.1V69.09H266.87V69.23H267.54V69.42H267.83V69.55H268.16V69.69H268.49V69.87H269.12V70.01H269.93V70.15H270.55V70.8H270.41V70.94H269.26V70.8H269.11V70.61H268.77V70.8H268.63V71.08H268.3V70.94H268.16V70.15H267.53V70.47H267.68V70.61H267.83V71.26H268.02V71.4H268.78V71.54H269.46V71.72H269.75V71.86H270.09V72H270.91V71.86H271.53V72H272V71.86H272.14V71.53H272V70.46H272.47V70.6H272.61V70.93H272.47V71.53H273.29V71.25H273.43V71.07H273.57V70.93H273.76V70.79H273.9V70.6H274.05V70.46H274.24V70.32H274.38V69.54H275.05V69.41H275.19V69.22H275.34V68.94H274.86V68.77H274.87ZM231.2 53.21C231.19 53.31 231.21 53.42 231.25 53.52C231.18 53.4 231.11 53.27 231.2 53.21C231.22 53.02 231.3 52.91 231.3 53.17C231.25 53.17 231.23 53.2 231.2 53.21ZM245.89 63.68C245.2 64.38 244.79 64.6 243.64 64.6C243.64 64.6 242.75 63.63 243.5 64.01C243.89 64.2 245.4 63.08 244.45 63.08C244.45 63.08 244.13 62.65 244.45 62.44C245.28 61.86 247.6 61.97 245.89 63.68ZM245.7 61.69C245.58 61.67 244.55 60.97 245.7 60.9C245.78 60.9 247.84 61.47 247.68 61.5C246.83 61.66 246.56 61.81 245.7 61.69ZM251.17 64.46C251.17 64.46 250.55 64.31 250.69 63.81C251.21 61.96 253.93 64.46 251.17 64.46ZM252.46 68.49L252.27 68.31C252.27 67.04 254.2 68.49 252.46 68.49ZM254.38 64.46C254 64.01 252.6 65.16 252.6 63.54C252.6 62.92 254.49 63.8 254.53 63.82C255.8 64.35 254.69 64.84 254.38 64.46ZM254.53 59.51C254.53 59.51 253.2 59.18 253.08 59.19C251.55 59.3 253.5 57.87 253.57 58.73C253.58 58.79 254.85 58.96 255.01 58.91C255.61 58.75 255.04 59.51 254.53 59.51ZM259.04 66.59C258.92 66.5 257.67 66.01 257.27 66.13C255.85 66.52 256.81 65.04 256.64 64.6C256.19 63.43 258.72 63.9 259.04 63.82C260.11 63.52 259.38 65.4 259.67 65.4C263.27 65.39 259.51 66.95 259.04 66.59ZM270.55 68.95C270.25 68.83 271.62 67.76 271.37 68.3C271.26 68.55 271.3 69.24 270.55 68.95Z" fill="black"/>
<path d="M227.47 45.76C226.9 45.76 226.99 45.68 226.99 46.23C227.56 46.23 227.47 46.32 227.47 45.76Z" fill="black"/>
<path d="M317.81 52.11C318.76 52.24 318.43 51.6 318.43 50.72C317.4 50.02 317.54 52.07 317.81 52.11Z" fill="black"/>
<path d="M208.9 37.12C208.07 37.12 208.97 35.08 207.75 35.08C207.75 35.98 207.61 36.64 207.61 37.39C207.75 37.39 208.56 38.57 208.56 38.64C209 38.64 209.29 37.39 209.04 37.39C209.04 37.1 208.9 37.4 208.9 37.12Z" fill="black"/>
<path d="M232.61 40.68C232.61 39.02 231.46 40.81 231.46 41.42C232.87 41.42 231.8 40.68 232.61 40.68Z" fill="black"/>
<path d="M234.67 38.97C234.67 38.58 235.3 38.66 235.3 37.86C234.29 37.86 234.19 37.94 234.19 38.97C233.09 38.97 233.37 39.7 233.37 40.36C234.42 40.35 233.68 38.97 234.67 38.97Z" fill="black"/>
<path d="M223.78 50.4C224.28 50.4 224.11 50.28 224.11 49.8C223.61 49.79 223.78 49.91 223.78 50.4Z" fill="black"/>
<path d="M385.43 15.64C396.66 15.64 404.37 20.59 404.37 29.18C404.37 38.16 396.16 43.03 388.03 47.52C379.65 52.09 371.27 55.96 371.11 64.78L404.88 64.7V69.11H365.67V66.8C365.67 53.95 375.81 49.08 384.94 44.2C392.48 40.1 399.35 36.54 399.35 29.11C399.35 23.31 393.9 19.9 385.11 19.9C379.33 19.9 373.46 21.53 367.68 25.16V20.6C373.36 17.04 379.39 15.64 385.43 15.64Z" fill="#F58220"/>
<path d="M448.85 16.5V20.91H420.11L418.85 39.02C422.45 38.01 426.48 37.47 430.33 37.47C441.14 37.47 451.61 41.81 451.61 53.72C451.61 63.78 442.73 69.97 430.33 69.97C423.63 69.97 416.92 68.65 412.06 66.41V62.07C417 64.39 423.46 65.71 429.74 65.71C439.96 65.71 446.58 61.3 446.58 53.71C446.58 44.66 438.2 41.64 428.73 41.64C423.62 41.64 418.17 42.64 413.56 44.12L415.4 16.49H448.85V16.5Z" fill="#F58220"/>
<path d="M454.68 29.37C454.17 29.37 453.64 29.29 453.04 29.08V27.42C453.35 27.53 453.66 27.58 453.94 27.58C456.34 27.58 457.13 23.32 457.38 16.53H467.33V29.16H465.07V18.48H459.57C459.13 24.95 458.17 29.37 454.68 29.37Z" fill="black"/>
<path d="M477.61 18.16C475.3 18.16 473.16 19.45 472.99 21.92H481.75C481.95 20.58 481.05 18.16 477.61 18.16ZM477.47 16.22C482.68 16.22 484.6 20.19 483.76 23.77H472.99C473.27 26.43 475.84 27.53 478.57 27.53C480.23 27.53 481.87 27.11 483.02 26.5V28.55C481.78 29.15 480.01 29.47 478.23 29.47C474.23 29.47 470.73 27.34 470.73 22.84C470.73 18.42 474.26 16.22 477.47 16.22Z" fill="black"/>
<path d="M490.19 29.16V18.48H485.2V16.53H497.41V18.48H492.45V29.16H490.19Z" fill="black"/>
</g>
<defs>
<clipPath id="clip0">
<rect width="497.41" height="74.65" fill="white"/>
</clipPath>
</defs>
</svg>
