<?xml version="1.0" encoding="utf-8"?>
<!-- Generator: Adobe Illustrator 16.2.0, SVG Export Plug-In . SVG Version: 6.00 Build 0)  -->
<!DOCTYPE svg PUBLIC "-//W3C//DTD SVG 1.1//EN" "http://www.w3.org/Graphics/SVG/1.1/DTD/svg11.dtd">
<svg version="1.1" id="Layer_1" xmlns="http://www.w3.org/2000/svg" xmlns:xlink="http://www.w3.org/1999/xlink" x="0px" y="0px"
	 width="45.933px" height="27.281px" viewBox="0 0 45.933 27.281" enable-background="new 0 0 45.933 27.281" xml:space="preserve">
<g>
	<circle fill="#FBAF33" cx="32.427" cy="13.777" r="13.506"/>
	<circle fill="#EC1B2E" cx="13.624" cy="13.777" r="13.505"/>
	<g>
		<polygon fill="#FBAF33" points="21.776,5.349 28.968,5.349 28.968,4.615 22.395,4.615 		"/>
		<polygon fill="#FBAF33" points="20.699,6.983 28.968,6.983 28.968,6.249 21.133,6.249 		"/>
		<polygon fill="#FBAF33" points="19.895,8.614 28.968,8.614 28.968,7.877 20.217,7.877 		"/>
		<polygon fill="#FBAF33" points="19.344,10.245 28.968,10.245 28.968,9.511 19.572,9.511 		"/>
		<polygon fill="#FBAF33" points="19.664,18.145 28.99,18.145 28.99,17.409 19.434,17.409 		"/>
		<polygon fill="#FBAF33" points="20.353,19.778 28.99,19.778 28.99,19.043 20.009,19.043 		"/>
		<polygon fill="#FBAF33" points="21.319,21.408 28.99,21.408 28.99,20.672 20.858,20.672 		"/>
		<polygon fill="#FBAF33" points="22.652,23.042 28.99,23.042 28.99,22.302 22.009,22.302 		"/>
		<polygon fill="#FBAF33" points="19.02,11.876 28.968,11.876 28.968,11.141 19.161,11.141 		"/>
		<polygon fill="#FBAF33" points="25.081,16.516 28.876,16.516 28.876,15.78 25.219,15.78 		"/>
		<polygon fill="#FBAF33" points="25.383,14.883 28.876,14.883 28.876,14.144 25.518,14.144 		"/>
		<polygon fill="#FBB131" points="18.768,14.144 19.753,14.144 19.753,14.883 18.814,14.883 		"/>
		<polygon fill="#FFFFFF" points="16.929,13.255 16.865,13.25 16.802,13.243 16.74,13.232 16.682,13.225 16.628,13.214 
			16.567,13.204 16.508,13.196 16.445,13.187 16.381,13.178 16.308,13.173 16.227,13.17 16.137,13.162 16.044,13.162 15.936,13.17 
			15.82,13.178 15.688,13.187 15.596,13.202 15.51,13.214 15.43,13.243 15.364,13.268 15.299,13.298 15.24,13.337 15.194,13.382 
			15.151,13.424 15.124,13.475 15.102,13.525 15.093,13.579 15.093,13.636 15.107,13.694 15.124,13.752 15.161,13.812 15.207,13.87 
			15.299,13.96 15.408,14.027 15.536,14.086 15.674,14.134 15.82,14.183 15.969,14.232 16.12,14.285 16.268,14.346 16.405,14.425 
			16.531,14.519 16.645,14.633 16.74,14.775 16.815,14.949 16.859,15.154 16.88,15.402 16.859,15.689 16.829,15.904 16.773,16.091 
			16.7,16.263 16.608,16.413 16.505,16.546 16.386,16.661 16.257,16.761 16.114,16.849 15.969,16.915 15.82,16.976 15.663,17.021 
			15.504,17.058 15.348,17.085 15.2,17.1 15.05,17.106 14.906,17.113 14.709,17.113 14.528,17.106 14.368,17.106 14.219,17.103 
			14.081,17.1 13.957,17.09 13.846,17.079 13.743,17.068 13.646,17.058 13.56,17.04 13.471,17.027 13.397,17.002 13.317,16.985 
			13.245,16.957 13.171,16.93 13.094,16.904 13.301,15.894 13.342,15.904 13.391,15.916 13.456,15.935 13.532,15.954 13.615,15.972 
			13.707,15.988 13.807,16.013 13.916,16.029 14.03,16.047 14.146,16.067 14.272,16.08 14.399,16.094 14.533,16.1 14.663,16.104 
			14.798,16.104 14.928,16.1 15.061,16.072 15.167,16.033 15.249,15.986 15.311,15.921 15.359,15.859 15.394,15.786 15.418,15.712 
			15.436,15.644 15.446,15.508 15.403,15.396 15.329,15.304 15.213,15.226 15.073,15.159 14.916,15.09 14.737,15.026 14.562,14.954 
			14.376,14.872 14.204,14.775 14.043,14.658 13.897,14.516 13.785,14.342 13.703,14.134 13.66,13.891 13.665,13.599 13.687,13.42 
			13.719,13.25 13.766,13.095 13.819,12.95 13.893,12.812 13.976,12.694 14.073,12.578 14.186,12.478 14.317,12.394 14.464,12.32 
			14.628,12.249 14.812,12.2 15.016,12.159 15.24,12.128 15.487,12.11 15.758,12.107 15.925,12.107 16.078,12.11 16.22,12.115 
			16.348,12.117 16.464,12.128 16.567,12.136 16.659,12.144 16.74,12.155 16.818,12.163 16.883,12.177 16.944,12.187 16.997,12.197 
			17.043,12.205 17.083,12.209 17.124,12.219 17.162,12.223 		"/>
		<g>
			<g>
				<polyline fill="none" stroke="#FFFFFF" stroke-width="0.0705" points="16.929,13.255 16.929,13.255 16.865,13.25 16.802,13.243 
					16.74,13.232 16.682,13.225 16.628,13.214 16.567,13.204 16.508,13.196 16.445,13.187 16.381,13.178 16.308,13.173 
					16.227,13.17 16.137,13.162 16.044,13.162 15.936,13.17 15.82,13.178 15.688,13.187 15.688,13.187 15.596,13.202 15.51,13.214 
					15.43,13.243 15.364,13.268 15.299,13.298 15.24,13.337 15.194,13.382 15.151,13.424 15.124,13.475 15.102,13.525 
					15.093,13.579 15.093,13.636 15.107,13.694 15.124,13.752 15.161,13.812 15.207,13.87 15.207,13.87 15.299,13.96 15.408,14.027 
					15.536,14.086 15.674,14.134 15.82,14.183 15.969,14.232 16.12,14.285 16.268,14.346 16.405,14.425 16.531,14.519 
					16.645,14.633 16.74,14.775 16.815,14.949 16.859,15.154 16.88,15.402 16.859,15.689 16.859,15.689 16.829,15.904 
					16.773,16.091 16.7,16.263 16.608,16.413 16.505,16.546 16.386,16.661 16.257,16.761 16.114,16.849 15.969,16.915 15.82,16.976 
					15.663,17.021 15.504,17.058 15.348,17.085 15.2,17.1 15.05,17.106 14.906,17.113 14.906,17.113 14.709,17.113 14.528,17.106 
					14.368,17.106 14.219,17.103 14.081,17.1 13.957,17.09 13.846,17.079 13.743,17.068 13.646,17.058 13.56,17.04 13.471,17.027 
					13.397,17.002 13.317,16.985 13.245,16.957 13.171,16.93 13.094,16.904 13.301,15.894 13.301,15.894 13.342,15.904 
					13.391,15.916 13.456,15.935 13.532,15.954 13.615,15.972 13.707,15.988 13.807,16.013 13.916,16.029 14.03,16.047 
					14.146,16.067 14.272,16.08 14.399,16.094 14.533,16.1 14.663,16.104 14.798,16.104 14.928,16.1 14.928,16.1 15.061,16.072 
					15.167,16.033 15.249,15.986 15.311,15.921 15.359,15.859 15.394,15.786 15.418,15.712 15.436,15.644 15.436,15.644 
					15.446,15.508 15.403,15.396 15.329,15.304 15.213,15.226 15.073,15.159 14.916,15.09 14.737,15.026 14.562,14.954 
					14.376,14.872 14.204,14.775 14.043,14.658 13.897,14.516 13.785,14.342 13.703,14.134 13.66,13.891 13.665,13.599 
					13.665,13.599 13.687,13.42 13.719,13.25 13.766,13.095 13.819,12.95 13.893,12.812 13.976,12.694 14.073,12.578 14.186,12.478 
					14.317,12.394 14.464,12.32 14.628,12.249 14.812,12.2 15.016,12.159 15.24,12.128 15.487,12.11 15.758,12.107 15.758,12.107 
					15.925,12.107 16.078,12.11 16.22,12.115 16.348,12.117 16.464,12.128 16.567,12.136 16.659,12.144 16.74,12.155 16.818,12.163 
					16.883,12.177 16.944,12.187 16.997,12.197 17.043,12.205 17.083,12.209 17.124,12.219 17.162,12.223 16.929,13.255 				"/>
			</g>
		</g>
		<polygon fill="#FFFFFF" points="18.01,11.097 19.276,11.097 19.086,12.2 19.85,12.2 19.686,13.232 18.882,13.209 18.444,15.757 
			18.439,15.848 18.462,15.926 18.509,15.986 18.568,16.033 18.649,16.067 18.741,16.094 18.841,16.115 18.949,16.121 
			19.051,16.116 19.142,16.109 19.224,16.094 19.298,16.075 19.357,16.058 19.397,16.043 19.426,16.033 19.434,16.029 19.276,16.88 
			19.243,16.904 19.212,16.921 19.179,16.94 19.147,16.957 19.115,16.972 19.079,16.985 19.036,17 18.998,17.012 18.949,17.027 
			18.906,17.033 18.85,17.044 18.796,17.054 18.735,17.063 18.668,17.072 18.594,17.079 18.516,17.09 18.168,17.09 17.989,17.077 
			17.829,17.058 17.681,17.029 17.56,17 17.451,16.957 17.366,16.911 17.289,16.857 17.231,16.798 17.184,16.734 17.152,16.655 
			17.131,16.577 17.116,16.493 17.112,16.396 17.112,16.295 17.124,16.191 17.139,16.075 		"/>
		<g>
			<g>
				<polyline fill="none" stroke="#FFFFFF" stroke-width="0.0705" points="18.01,11.097 19.276,11.097 19.086,12.2 19.85,12.2 
					19.686,13.232 18.882,13.209 18.444,15.757 18.444,15.757 18.439,15.848 18.462,15.926 18.509,15.986 18.568,16.033 
					18.649,16.067 18.741,16.094 18.841,16.115 18.949,16.121 18.949,16.121 19.051,16.116 19.142,16.109 19.224,16.094 
					19.298,16.075 19.357,16.058 19.397,16.043 19.426,16.033 19.434,16.029 19.276,16.88 19.276,16.88 19.243,16.904 
					19.212,16.921 19.179,16.94 19.147,16.957 19.115,16.972 19.079,16.985 19.036,17 18.998,17.012 18.949,17.027 18.906,17.033 
					18.85,17.044 18.796,17.054 18.735,17.063 18.668,17.072 18.594,17.079 18.516,17.09 18.168,17.09 18.168,17.09 17.989,17.077 
					17.829,17.058 17.681,17.029 17.56,17 17.451,16.957 17.366,16.911 17.289,16.857 17.231,16.798 17.184,16.734 17.152,16.655 
					17.131,16.577 17.116,16.493 17.112,16.396 17.112,16.295 17.124,16.191 17.139,16.075 18.01,11.097 				"/>
			</g>
		</g>
		<polygon fill="#FFFFFF" points="20.858,14.954 20.845,15.031 20.843,15.113 20.849,15.198 20.866,15.288 20.899,15.372 
			20.935,15.454 20.987,15.542 21.042,15.618 21.104,15.698 21.174,15.765 21.249,15.834 21.331,15.892 21.409,15.939 
			21.503,15.979 21.594,16.013 21.685,16.029 21.805,16.047 21.916,16.063 22.036,16.075 22.156,16.085 22.275,16.091 
			22.395,16.091 22.516,16.085 22.639,16.075 22.762,16.058 22.885,16.033 23.012,16.008 23.136,15.966 23.264,15.916 
			23.396,15.861 23.522,15.788 23.658,15.712 23.474,16.833 23.4,16.869 23.328,16.906 23.256,16.935 23.187,16.962 23.119,16.985 
			23.046,17.007 22.971,17.027 22.892,17.04 22.812,17.054 22.719,17.063 22.625,17.072 22.518,17.079 22.402,17.085 22.279,17.085 
			22.135,17.09 21.988,17.09 21.762,17.085 21.533,17.063 21.307,17.029 21.078,16.976 20.852,16.906 20.641,16.821 20.434,16.705 
			20.246,16.575 20.066,16.418 19.908,16.231 19.775,16.019 19.665,15.78 19.59,15.508 19.539,15.203 19.528,14.866 19.55,14.493 
			19.568,14.346 19.594,14.176 19.631,13.998 19.68,13.807 19.75,13.611 19.832,13.415 19.938,13.214 20.066,13.023 20.211,12.841 
			20.389,12.665 20.59,12.512 20.817,12.374 21.082,12.26 21.378,12.177 21.708,12.124 22.078,12.107 22.257,12.11 22.444,12.128 
			22.632,12.159 22.819,12.205 22.999,12.274 23.177,12.355 23.343,12.464 23.493,12.593 23.631,12.747 23.745,12.929 
			23.833,13.142 23.9,13.382 23.936,13.655 23.942,13.968 23.908,14.314 23.839,14.697 23.818,14.975 20.487,14.975 20.699,14.076 
			22.699,14.076 22.708,13.962 22.703,13.853 22.694,13.752 22.675,13.661 22.644,13.574 22.613,13.497 22.567,13.429 
			22.518,13.365 22.465,13.31 22.407,13.264 22.338,13.225 22.27,13.187 22.197,13.16 22.122,13.142 22.045,13.128 21.964,13.117 
			21.879,13.121 21.794,13.135 21.717,13.156 21.638,13.183 21.563,13.218 21.494,13.26 21.425,13.31 21.365,13.365 21.307,13.429 
			21.252,13.497 21.202,13.57 21.161,13.647 21.118,13.729 21.089,13.823 21.059,13.913 21.042,14.007 		"/>
		<g>
			<g>
				<polyline fill="none" stroke="#FFFFFF" stroke-width="0.0705" points="20.858,14.954 20.858,14.954 20.845,15.031 
					20.843,15.113 20.849,15.198 20.866,15.288 20.899,15.372 20.935,15.454 20.987,15.542 21.042,15.618 21.104,15.698 
					21.174,15.765 21.249,15.834 21.331,15.892 21.409,15.939 21.503,15.979 21.594,16.013 21.685,16.029 21.685,16.029 
					21.805,16.047 21.916,16.063 22.036,16.075 22.156,16.085 22.275,16.091 22.395,16.091 22.516,16.085 22.639,16.075 
					22.762,16.058 22.885,16.033 23.012,16.008 23.136,15.966 23.264,15.916 23.396,15.861 23.522,15.788 23.658,15.712 
					23.474,16.833 23.474,16.833 23.4,16.869 23.328,16.906 23.256,16.935 23.187,16.962 23.119,16.985 23.046,17.007 
					22.971,17.027 22.892,17.04 22.812,17.054 22.719,17.063 22.625,17.072 22.518,17.079 22.402,17.085 22.279,17.085 
					22.135,17.09 21.988,17.09 21.988,17.09 21.762,17.085 21.533,17.063 21.307,17.029 21.078,16.976 20.852,16.906 20.641,16.821 
					20.434,16.705 20.246,16.575 20.066,16.418 19.908,16.231 19.775,16.019 19.665,15.78 19.59,15.508 19.539,15.203 
					19.528,14.866 19.55,14.493 19.55,14.493 19.568,14.346 19.594,14.176 19.631,13.998 19.68,13.807 19.75,13.611 19.832,13.415 
					19.938,13.214 20.066,13.023 20.211,12.841 20.389,12.665 20.59,12.512 20.817,12.374 21.082,12.26 21.378,12.177 
					21.708,12.124 22.078,12.107 22.078,12.107 22.257,12.11 22.444,12.128 22.632,12.159 22.819,12.205 22.999,12.274 
					23.177,12.355 23.343,12.464 23.493,12.593 23.631,12.747 23.745,12.929 23.833,13.142 23.9,13.382 23.936,13.655 
					23.942,13.968 23.908,14.314 23.839,14.697 23.818,14.975 20.487,14.975 20.699,14.076 22.699,14.076 22.699,14.076 
					22.708,13.962 22.703,13.853 22.694,13.752 22.675,13.661 22.644,13.574 22.613,13.497 22.567,13.429 22.518,13.365 
					22.465,13.31 22.407,13.264 22.338,13.225 22.27,13.187 22.197,13.16 22.122,13.142 22.045,13.128 21.964,13.117 21.964,13.117 
					21.879,13.121 21.794,13.135 21.717,13.156 21.638,13.183 21.563,13.218 21.494,13.26 21.425,13.31 21.365,13.365 
					21.307,13.429 21.252,13.497 21.202,13.57 21.161,13.647 21.118,13.729 21.089,13.823 21.059,13.913 21.042,14.007 
					20.858,14.954 				"/>
			</g>
		</g>
		<polygon fill="#FFFFFF" points="31.747,12.475 31.685,12.442 31.629,12.415 31.562,12.384 31.494,12.35 31.426,12.324 
			31.347,12.296 31.271,12.269 31.188,12.243 31.102,12.219 31.016,12.2 30.92,12.184 30.823,12.168 30.719,12.159 30.613,12.15 
			30.506,12.15 30.39,12.15 30.277,12.15 30.157,12.159 30.032,12.173 29.908,12.197 29.778,12.232 29.65,12.284 29.52,12.348 
			29.394,12.431 29.272,12.531 29.152,12.649 29.039,12.793 28.928,12.963 28.829,13.162 28.733,13.392 28.646,13.647 
			28.573,13.942 28.547,14.105 28.528,14.263 28.519,14.425 28.52,14.577 28.538,14.734 28.571,14.88 28.61,15.017 28.661,15.154 
			28.727,15.277 28.812,15.396 28.906,15.501 29.017,15.598 29.139,15.677 29.281,15.746 29.435,15.807 29.609,15.848 
			29.668,15.861 29.737,15.876 29.818,15.884 29.91,15.894 30.012,15.904 30.117,15.904 30.23,15.904 30.344,15.894 30.464,15.88 
			30.581,15.859 30.695,15.827 30.809,15.788 30.924,15.739 31.028,15.677 31.126,15.607 31.218,15.524 31.009,16.743 
			30.984,16.767 30.958,16.792 30.92,16.825 30.88,16.852 30.829,16.889 30.764,16.921 30.691,16.952 30.609,16.981 30.506,17.012 
			30.385,17.033 30.248,17.054 30.091,17.072 29.91,17.079 29.707,17.085 29.473,17.079 29.216,17.068 29.008,17.044 28.796,17 
			28.589,16.93 28.377,16.839 28.177,16.728 27.985,16.59 27.802,16.431 27.633,16.249 27.482,16.043 27.355,15.816 27.247,15.561 
			27.162,15.282 27.108,14.975 27.09,14.652 27.099,14.298 27.148,13.916 27.184,13.729 27.227,13.547 27.273,13.367 27.319,13.202 
			27.368,13.042 27.428,12.881 27.487,12.729 27.552,12.588 27.62,12.448 27.686,12.316 27.764,12.187 27.848,12.068 27.929,11.952 
			28.021,11.845 28.113,11.742 28.207,11.65 28.313,11.558 28.418,11.471 28.528,11.393 28.641,11.321 28.765,11.25 28.887,11.193 
			29.017,11.138 29.15,11.086 29.291,11.041 29.432,11.004 29.578,10.973 29.732,10.945 29.888,10.923 30.052,10.904 30.218,10.896 
			30.39,10.892 30.536,10.896 30.677,10.904 30.815,10.917 30.952,10.936 31.08,10.956 31.202,10.982 31.322,11.004 31.431,11.033 
			31.535,11.058 31.629,11.086 31.714,11.115 31.788,11.141 31.849,11.164 31.905,11.183 31.947,11.2 31.974,11.21 		"/>
		<g>
			<g>
				<polyline fill="none" stroke="#FFFFFF" stroke-width="0.0705" points="31.747,12.475 31.747,12.475 31.685,12.442 
					31.629,12.415 31.562,12.384 31.494,12.35 31.426,12.324 31.347,12.296 31.271,12.269 31.188,12.243 31.102,12.219 31.016,12.2 
					30.92,12.184 30.823,12.168 30.719,12.159 30.613,12.15 30.506,12.15 30.39,12.15 30.39,12.15 30.277,12.15 30.157,12.159 
					30.032,12.173 29.908,12.197 29.778,12.232 29.65,12.284 29.52,12.348 29.394,12.431 29.272,12.531 29.152,12.649 
					29.039,12.793 28.928,12.963 28.829,13.162 28.733,13.392 28.646,13.647 28.573,13.942 28.573,13.942 28.547,14.105 
					28.528,14.263 28.519,14.425 28.52,14.577 28.538,14.734 28.571,14.88 28.61,15.017 28.661,15.154 28.727,15.277 28.812,15.396 
					28.906,15.501 29.017,15.598 29.139,15.677 29.281,15.746 29.435,15.807 29.609,15.848 29.609,15.848 29.668,15.861 
					29.737,15.876 29.818,15.884 29.91,15.894 30.012,15.904 30.117,15.904 30.23,15.904 30.344,15.894 30.464,15.88 30.581,15.859 
					30.695,15.827 30.809,15.788 30.924,15.739 31.028,15.677 31.126,15.607 31.218,15.524 31.009,16.743 31.009,16.743 
					30.984,16.767 30.958,16.792 30.92,16.825 30.88,16.852 30.829,16.889 30.764,16.921 30.691,16.952 30.609,16.981 
					30.506,17.012 30.385,17.033 30.248,17.054 30.091,17.072 29.91,17.079 29.707,17.085 29.473,17.079 29.216,17.068 
					29.216,17.068 29.008,17.044 28.796,17 28.589,16.93 28.377,16.839 28.177,16.728 27.985,16.59 27.802,16.431 27.633,16.249 
					27.482,16.043 27.355,15.816 27.247,15.561 27.162,15.282 27.108,14.975 27.09,14.652 27.099,14.298 27.148,13.916 
					27.148,13.916 27.184,13.729 27.227,13.547 27.273,13.367 27.319,13.202 27.368,13.042 27.428,12.881 27.487,12.729 
					27.552,12.588 27.62,12.448 27.686,12.316 27.764,12.187 27.848,12.068 27.929,11.952 28.021,11.845 28.113,11.742 
					28.207,11.65 28.313,11.558 28.418,11.471 28.528,11.393 28.641,11.321 28.765,11.25 28.887,11.193 29.017,11.138 29.15,11.086 
					29.291,11.041 29.432,11.004 29.578,10.973 29.732,10.945 29.888,10.923 30.052,10.904 30.218,10.896 30.39,10.892 
					30.39,10.892 30.536,10.896 30.677,10.904 30.815,10.917 30.952,10.936 31.08,10.956 31.202,10.982 31.322,11.004 
					31.431,11.033 31.535,11.058 31.629,11.086 31.714,11.115 31.788,11.141 31.849,11.164 31.905,11.183 31.947,11.2 31.974,11.21 
					31.747,12.475 				"/>
			</g>
		</g>
		<polygon fill="#FFFFFF" points="42.986,17.09 41.719,17.09 41.811,16.582 41.811,16.536 41.738,16.628 41.661,16.712 
			41.583,16.783 41.502,16.849 41.421,16.906 41.337,16.957 41.254,17 41.171,17.04 41.082,17.072 40.993,17.092 40.908,17.115 
			40.817,17.13 40.725,17.144 40.636,17.155 40.547,17.159 40.456,17.159 40.218,17.139 40,17.09 39.798,17.012 39.617,16.906 
			39.452,16.776 39.305,16.618 39.177,16.45 39.067,16.259 38.976,16.054 38.903,15.839 38.852,15.614 38.817,15.383 38.803,15.15 
			38.806,14.912 38.83,14.679 38.874,14.447 38.94,14.176 39.021,13.923 39.119,13.689 39.233,13.47 39.349,13.264 39.487,13.08 
			39.631,12.918 39.78,12.765 39.939,12.635 40.108,12.519 40.283,12.419 40.456,12.341 40.636,12.279 40.82,12.238 41.003,12.209 
			41.192,12.2 41.322,12.205 41.451,12.219 41.569,12.243 41.68,12.274 41.784,12.31 41.875,12.35 41.966,12.403 42.049,12.453 
			42.122,12.506 42.192,12.566 42.249,12.626 42.305,12.686 42.349,12.742 42.391,12.802 42.427,12.859 42.453,12.913 
			42.453,12.913 42.774,11.118 44.016,11.118 		"/>
		<g>
			<g>
				<polyline fill="none" stroke="#FFFFFF" stroke-width="0.0705" points="42.986,17.09 41.719,17.09 41.811,16.582 41.811,16.536 
					41.811,16.536 41.738,16.628 41.661,16.712 41.583,16.783 41.502,16.849 41.421,16.906 41.337,16.957 41.254,17 41.171,17.04 
					41.082,17.072 40.993,17.092 40.908,17.115 40.817,17.13 40.725,17.144 40.636,17.155 40.547,17.159 40.456,17.159 
					40.456,17.159 40.218,17.139 40,17.09 39.798,17.012 39.617,16.906 39.452,16.776 39.305,16.618 39.177,16.45 39.067,16.259 
					38.976,16.054 38.903,15.839 38.852,15.614 38.817,15.383 38.803,15.15 38.806,14.912 38.83,14.679 38.874,14.447 
					38.874,14.447 38.94,14.176 39.021,13.923 39.119,13.689 39.233,13.47 39.349,13.264 39.487,13.08 39.631,12.918 39.78,12.765 
					39.939,12.635 40.108,12.519 40.283,12.419 40.456,12.341 40.636,12.279 40.82,12.238 41.003,12.209 41.192,12.2 41.192,12.2 
					41.322,12.205 41.451,12.219 41.569,12.243 41.68,12.274 41.784,12.31 41.875,12.35 41.966,12.403 42.049,12.453 42.122,12.506 
					42.192,12.566 42.249,12.626 42.305,12.686 42.349,12.742 42.391,12.802 42.427,12.859 42.453,12.913 42.453,12.913 
					42.774,11.118 44.016,11.118 42.986,17.09 				"/>
			</g>
		</g>
		<polygon fill="#FBB131" points="40.915,15.986 41.047,15.976 41.164,15.947 41.273,15.916 41.377,15.866 41.474,15.813 
			41.566,15.744 41.651,15.664 41.73,15.584 41.799,15.491 41.862,15.39 41.92,15.288 41.97,15.175 42.016,15.062 42.054,14.946 
			42.086,14.822 42.109,14.697 42.131,14.571 42.144,14.435 42.144,14.314 42.14,14.185 42.127,14.069 42.109,13.954 42.076,13.845 
			42.039,13.74 41.993,13.647 41.938,13.56 41.879,13.486 41.811,13.424 41.734,13.367 41.651,13.333 41.566,13.31 41.469,13.298 
			41.344,13.31 41.231,13.329 41.128,13.365 41.021,13.411 40.93,13.47 40.838,13.542 40.761,13.62 40.682,13.707 40.616,13.807 
			40.55,13.913 40.493,14.022 40.443,14.141 40.395,14.263 40.359,14.388 40.32,14.519 40.296,14.652 40.274,14.853 40.283,15.072 
			40.313,15.296 40.372,15.508 40.463,15.698 40.583,15.848 40.734,15.947 		"/>
		<polygon fill="#FFFFFF" points="12.884,16.075 12.701,17.09 11.551,17.09 11.584,16.904 11.605,16.734 11.625,16.606 
			11.642,16.536 11.579,16.611 11.506,16.685 11.419,16.753 11.321,16.816 11.213,16.88 11.098,16.935 10.98,16.99 10.856,17.033 
			10.725,17.077 10.593,17.106 10.46,17.135 10.323,17.155 10.19,17.161 10.059,17.167 9.931,17.155 9.806,17.135 9.647,17.092 
			9.503,17.048 9.375,16.99 9.26,16.921 9.158,16.849 9.07,16.767 8.995,16.678 8.932,16.587 8.876,16.493 8.829,16.391 
			8.794,16.291 8.766,16.191 8.749,16.085 8.734,15.979 8.726,15.88 8.726,15.78 8.741,15.6 8.766,15.434 8.813,15.274 
			8.872,15.118 8.945,14.972 9.028,14.839 9.123,14.712 9.232,14.598 9.347,14.493 9.473,14.398 9.607,14.309 9.745,14.235 
			9.889,14.173 10.041,14.121 10.196,14.081 10.356,14.055 10.364,14.055 10.386,14.049 10.419,14.044 10.47,14.039 10.523,14.031 
			10.587,14.027 10.656,14.016 10.735,14.007 10.813,13.998 10.888,13.991 10.971,13.986 11.045,13.976 11.119,13.97 11.186,13.968 
			11.251,13.962 11.3,13.962 11.406,13.962 11.515,13.968 11.615,13.97 11.714,13.97 11.799,13.976 11.862,13.979 11.907,13.986 
			11.921,13.986 11.929,13.954 11.959,13.87 11.978,13.777 11.991,13.689 11.971,13.588 11.929,13.497 11.877,13.415 11.802,13.349 
			11.714,13.287 11.619,13.245 11.51,13.218 11.391,13.209 11.262,13.204 11.129,13.202 10.985,13.202 10.842,13.204 10.688,13.214 
			10.541,13.228 10.396,13.243 10.256,13.26 10.117,13.279 9.986,13.298 9.865,13.323 9.759,13.349 9.657,13.373 9.575,13.402 
			9.51,13.435 9.461,13.46 9.785,12.362 9.884,12.32 9.986,12.284 10.094,12.249 10.204,12.228 10.314,12.205 10.432,12.187 
			10.551,12.168 10.677,12.159 10.801,12.15 10.936,12.144 11.073,12.14 11.213,12.14 11.36,12.14 11.51,12.14 11.671,12.144 
			11.83,12.15 11.959,12.159 12.094,12.184 12.235,12.214 12.381,12.255 12.522,12.31 12.66,12.374 12.797,12.453 12.925,12.536 
			13.041,12.64 13.14,12.747 13.232,12.87 13.301,13.007 13.346,13.156 13.373,13.31 13.373,13.483 13.346,13.663 		"/>
		<g>
			<g>
				<polyline fill="none" stroke="#FFFFFF" stroke-width="0.0705" points="12.884,16.075 12.701,17.09 11.551,17.09 11.551,17.09 
					11.584,16.904 11.605,16.734 11.625,16.606 11.642,16.536 11.642,16.536 11.579,16.611 11.506,16.685 11.419,16.753 
					11.321,16.816 11.213,16.88 11.098,16.935 10.98,16.99 10.856,17.033 10.725,17.077 10.593,17.106 10.46,17.135 10.323,17.155 
					10.19,17.161 10.059,17.167 9.931,17.155 9.806,17.135 9.806,17.135 9.647,17.092 9.503,17.048 9.375,16.99 9.26,16.921 
					9.158,16.849 9.07,16.767 8.995,16.678 8.932,16.587 8.876,16.493 8.829,16.391 8.794,16.291 8.766,16.191 8.749,16.085 
					8.734,15.979 8.726,15.88 8.726,15.78 8.726,15.78 8.741,15.6 8.766,15.434 8.813,15.274 8.872,15.118 8.945,14.972 
					9.028,14.839 9.123,14.712 9.232,14.598 9.347,14.493 9.473,14.398 9.607,14.309 9.745,14.235 9.889,14.173 10.041,14.121 
					10.196,14.081 10.356,14.055 10.356,14.055 10.364,14.055 10.386,14.049 10.419,14.044 10.47,14.039 10.523,14.031 
					10.587,14.027 10.656,14.016 10.735,14.007 10.813,13.998 10.888,13.991 10.971,13.986 11.045,13.976 11.119,13.97 
					11.186,13.968 11.251,13.962 11.3,13.962 11.3,13.962 11.406,13.962 11.515,13.968 11.615,13.97 11.714,13.97 11.799,13.976 
					11.862,13.979 11.907,13.986 11.921,13.986 11.921,13.986 11.929,13.954 11.959,13.87 11.978,13.777 11.991,13.689 
					11.991,13.689 11.971,13.588 11.929,13.497 11.877,13.415 11.802,13.349 11.714,13.287 11.619,13.245 11.51,13.218 
					11.391,13.209 11.391,13.209 11.262,13.204 11.129,13.202 10.985,13.202 10.842,13.204 10.688,13.214 10.541,13.228 
					10.396,13.243 10.256,13.26 10.117,13.279 9.986,13.298 9.865,13.323 9.759,13.349 9.657,13.373 9.575,13.402 9.51,13.435 
					9.461,13.46 9.785,12.362 9.785,12.362 9.884,12.32 9.986,12.284 10.094,12.249 10.204,12.228 10.314,12.205 10.432,12.187 
					10.551,12.168 10.677,12.159 10.801,12.15 10.936,12.144 11.073,12.14 11.213,12.14 11.36,12.14 11.51,12.14 11.671,12.144 
					11.83,12.15 11.83,12.15 11.959,12.159 12.094,12.184 12.235,12.214 12.381,12.255 12.522,12.31 12.66,12.374 12.797,12.453 
					12.925,12.536 13.041,12.64 13.14,12.747 13.232,12.87 13.301,13.007 13.346,13.156 13.373,13.31 13.373,13.483 13.346,13.663 
					12.884,16.075 				"/>
			</g>
		</g>
		<polygon fill="#EC1C2E" points="11.784,14.883 11.779,14.863 11.762,14.839 11.734,14.827 11.688,14.816 11.636,14.806 
			11.579,14.801 11.51,14.801 11.441,14.801 11.369,14.806 11.291,14.816 11.219,14.827 11.145,14.833 11.077,14.844 11.012,14.858 
			10.959,14.872 10.907,14.883 10.876,14.894 10.842,14.906 10.79,14.927 10.739,14.949 10.679,14.975 10.62,15.007 10.556,15.039 
			10.499,15.076 10.432,15.12 10.372,15.167 10.319,15.224 10.267,15.277 10.223,15.335 10.19,15.402 10.163,15.473 10.149,15.547 
			10.145,15.701 10.169,15.827 10.215,15.916 10.272,15.986 10.342,16.029 10.419,16.058 10.491,16.072 10.565,16.075 
			10.702,16.072 10.824,16.058 10.943,16.041 11.05,16.013 11.139,15.979 11.228,15.939 11.304,15.9 11.373,15.848 11.432,15.8 
			11.489,15.746 11.533,15.698 11.57,15.644 11.602,15.589 11.63,15.534 11.65,15.484 11.665,15.434 11.7,15.302 11.734,15.15 
			11.762,15.003 		"/>
		<polygon fill="#FFFFFF" points="3.279,17.09 2.037,17.09 3.075,11.097 5.233,11.097 5.439,14.652 6.931,11.097 9.186,11.097 
			8.13,17.09 6.885,17.09 7.672,12.612 7.62,12.612 5.763,17.09 4.36,17.09 4.353,16.904 4.32,16.404 4.28,15.698 4.233,14.883 
			4.189,14.069 4.147,13.351 4.115,12.83 4.107,12.612 4.091,12.612 4.066,12.612 4.038,12.612 4.038,12.612 		"/>
		<g>
			<g>
				<polyline fill="none" stroke="#FFFFFF" stroke-width="0.0705" points="3.279,17.09 2.037,17.09 3.075,11.097 5.233,11.097 
					5.439,14.652 6.931,11.097 9.186,11.097 8.13,17.09 6.885,17.09 7.672,12.612 7.62,12.612 5.763,17.09 4.36,17.09 4.36,17.09 
					4.353,16.904 4.32,16.404 4.28,15.698 4.233,14.883 4.189,14.069 4.147,13.351 4.115,12.83 4.107,12.612 4.107,12.612 
					4.091,12.612 4.066,12.612 4.038,12.612 4.038,12.612 3.279,17.09 				"/>
			</g>
		</g>
		<polygon fill="#FFFFFF" points="35.539,16.075 35.35,17.09 34.206,17.09 34.216,16.904 34.219,16.74 34.219,16.614 34.23,16.56 
			34.173,16.628 34.102,16.697 34.018,16.761 33.928,16.825 33.831,16.884 33.722,16.94 33.609,16.992 33.495,17.04 33.371,17.077 
			33.243,17.113 33.117,17.135 32.988,17.155 32.854,17.161 32.726,17.167 32.602,17.155 32.48,17.135 32.315,17.092 32.17,17.048 
			32.043,16.99 31.924,16.921 31.822,16.849 31.738,16.767 31.663,16.678 31.599,16.587 31.546,16.493 31.505,16.391 31.469,16.291 
			31.446,16.191 31.426,16.085 31.413,15.979 31.403,15.88 31.403,15.78 31.413,15.6 31.439,15.434 31.483,15.274 31.54,15.118 
			31.609,14.972 31.696,14.839 31.792,14.712 31.896,14.598 32.014,14.493 32.136,14.398 32.27,14.309 32.414,14.235 32.555,14.173 
			32.705,14.121 32.854,14.081 33.01,14.055 33.018,14.055 33.043,14.049 33.076,14.044 33.12,14.039 33.178,14.031 33.243,14.027 
			33.312,14.016 33.385,14.007 33.462,13.998 33.547,13.991 33.622,13.986 33.701,13.976 33.771,13.97 33.836,13.968 33.901,13.962 
			33.951,13.962 34.059,13.962 34.173,13.968 34.275,13.97 34.375,13.97 34.462,13.976 34.535,13.979 34.575,13.986 34.593,13.986 
			34.604,13.954 34.619,13.87 34.631,13.777 34.639,13.689 34.621,13.588 34.586,13.497 34.528,13.415 34.46,13.349 34.375,13.287 
			34.281,13.245 34.179,13.218 34.069,13.209 33.942,13.204 33.805,13.202 33.663,13.202 33.518,13.204 33.368,13.214 33.22,13.228 
			33.076,13.243 32.932,13.26 32.797,13.279 32.664,13.298 32.545,13.323 32.434,13.349 32.335,13.373 32.252,13.402 32.188,13.435 
			32.136,13.46 32.457,12.362 32.559,12.32 32.664,12.284 32.767,12.249 32.876,12.228 32.992,12.205 33.106,12.187 33.226,12.168 
			33.348,12.159 33.477,12.15 33.609,12.144 33.742,12.14 33.881,12.14 34.023,12.14 34.173,12.14 34.324,12.144 34.48,12.15 
			34.608,12.159 34.747,12.184 34.885,12.214 35.034,12.255 35.175,12.31 35.315,12.374 35.453,12.453 35.579,12.536 35.693,12.64 
			35.799,12.747 35.889,12.87 35.959,13.007 36.01,13.156 36.043,13.31 36.043,13.483 36.02,13.663 		"/>
		<polygon fill="#FBB131" points="34.434,14.883 34.426,14.858 34.408,14.833 34.375,14.822 34.329,14.806 34.281,14.801 
			34.219,14.798 34.151,14.798 34.083,14.801 34.01,14.811 33.938,14.822 33.864,14.829 33.796,14.839 33.727,14.853 33.667,14.863 
			33.609,14.875 33.563,14.883 33.53,14.89 33.495,14.904 33.448,14.916 33.399,14.934 33.34,14.962 33.284,14.99 33.22,15.021 
			33.161,15.062 33.101,15.103 33.043,15.154 32.992,15.203 32.941,15.262 32.901,15.327 32.869,15.396 32.84,15.469 32.83,15.547 
			32.823,15.701 32.846,15.827 32.883,15.916 32.939,15.986 33.005,16.029 33.084,16.058 33.161,16.072 33.238,16.075 
			33.376,16.072 33.505,16.058 33.622,16.033 33.727,16.004 33.829,15.966 33.914,15.926 33.996,15.88 34.069,15.827 34.134,15.776 
			34.189,15.714 34.237,15.662 34.281,15.6 34.31,15.547 34.334,15.491 34.352,15.434 34.366,15.385 34.384,15.26 34.408,15.126 
			34.426,14.999 		"/>
		<g>
			<g>
				<polygon fill="#FFFFFF" points="43.837,16.463 43.848,16.361 43.885,16.236 43.946,16.126 44.025,16.029 44.12,15.954 
					44.231,15.9 44.348,15.861 44.477,15.848 44.604,15.861 44.721,15.9 44.832,15.954 44.928,16.029 45.008,16.126 45.071,16.236 
					45.107,16.361 45.115,16.463 44.979,16.463 44.975,16.383 44.947,16.281 44.904,16.191 44.842,16.115 44.77,16.047 
					44.681,16.004 44.582,15.972 44.477,15.962 44.373,15.972 44.271,16.004 44.187,16.047 44.112,16.115 44.051,16.191 
					44.008,16.281 43.979,16.383 43.97,16.463 				"/>
				<polygon fill="#FFFFFF" points="44.251,16.463 44.251,16.191 44.501,16.191 44.553,16.195 44.604,16.203 44.641,16.218 
					44.675,16.236 44.698,16.263 44.715,16.291 44.721,16.321 44.73,16.354 44.721,16.396 44.715,16.429 44.702,16.454 
					44.692,16.463 44.501,16.463 44.518,16.459 44.55,16.454 44.577,16.447 44.6,16.438 44.619,16.424 44.628,16.41 44.637,16.385 
					44.637,16.354 44.634,16.331 44.622,16.313 44.61,16.306 44.596,16.295 44.573,16.291 44.55,16.286 44.527,16.286 
					44.501,16.286 44.364,16.286 44.364,16.463 				"/>
				<polygon fill="#FFFFFF" points="43.837,16.463 43.833,16.493 43.848,16.621 43.885,16.746 43.946,16.857 44.025,16.947 
					44.12,17.027 44.231,17.085 44.348,17.12 44.477,17.135 44.604,17.12 44.721,17.085 44.832,17.027 44.928,16.947 45.008,16.857 
					45.071,16.746 45.107,16.621 45.121,16.493 45.115,16.463 44.979,16.463 44.984,16.493 44.975,16.6 44.947,16.703 44.904,16.79 
					44.842,16.867 44.77,16.93 44.681,16.981 44.582,17.012 44.477,17.021 44.373,17.012 44.271,16.981 44.187,16.93 44.112,16.867 
					44.051,16.79 44.008,16.703 43.979,16.6 43.97,16.493 43.97,16.463 				"/>
				<polygon fill="#FFFFFF" points="44.251,16.463 44.251,16.743 44.364,16.743 44.364,16.516 44.477,16.516 44.614,16.743 
					44.705,16.743 44.57,16.516 44.6,16.516 44.634,16.505 44.659,16.496 44.681,16.478 44.692,16.463 44.501,16.463 44.477,16.47 
					44.364,16.47 44.364,16.463 				"/>
			</g>
		</g>
		<g>
			<g>
				<polyline fill="none" stroke="#FFFFFF" stroke-width="0.0705" points="43.833,16.493 43.833,16.493 43.848,16.361 
					43.885,16.236 43.946,16.126 44.025,16.029 44.12,15.954 44.231,15.9 44.348,15.861 44.477,15.848 44.477,15.848 44.604,15.861 
					44.721,15.9 44.832,15.954 44.928,16.029 45.008,16.126 45.071,16.236 45.107,16.361 45.121,16.493 45.121,16.493 
					45.107,16.621 45.071,16.746 45.008,16.857 44.928,16.947 44.832,17.027 44.721,17.085 44.604,17.12 44.477,17.135 
					44.477,17.135 44.348,17.12 44.231,17.085 44.12,17.027 44.025,16.947 43.946,16.857 43.885,16.746 43.848,16.621 
					43.833,16.493 				"/>
			</g>
		</g>
		<g>
			<g>
				<polyline fill="none" stroke="#FFFFFF" stroke-width="0.0705" points="44.364,16.743 44.251,16.743 44.251,16.191 
					44.501,16.191 44.501,16.191 44.553,16.195 44.604,16.203 44.641,16.218 44.675,16.236 44.698,16.263 44.715,16.291 
					44.721,16.321 44.73,16.354 44.73,16.354 44.721,16.396 44.715,16.429 44.702,16.454 44.681,16.478 44.659,16.496 
					44.634,16.505 44.6,16.516 44.57,16.516 44.705,16.743 44.614,16.743 44.477,16.516 44.364,16.516 44.364,16.743 				"/>
			</g>
		</g>
		<g>
			<g>
				<polyline fill="none" stroke="#FFFFFF" stroke-width="0.0705" points="44.477,16.47 44.477,16.47 44.518,16.459 44.55,16.454 
					44.577,16.447 44.6,16.438 44.619,16.424 44.628,16.41 44.637,16.385 44.637,16.354 44.637,16.354 44.634,16.331 44.622,16.313 
					44.61,16.306 44.596,16.295 44.573,16.291 44.55,16.286 44.527,16.286 44.501,16.286 44.364,16.286 44.364,16.47 44.477,16.47 
									"/>
			</g>
		</g>
		<g>
			<g>
				<polyline fill="none" stroke="#FFFFFF" stroke-width="0.0705" points="44.477,17.021 44.477,17.021 44.582,17.012 
					44.681,16.981 44.77,16.93 44.842,16.867 44.904,16.79 44.947,16.703 44.975,16.6 44.984,16.493 44.984,16.493 44.975,16.383 
					44.947,16.281 44.904,16.191 44.842,16.115 44.77,16.047 44.681,16.004 44.582,15.972 44.477,15.962 44.477,15.962 
					44.373,15.972 44.271,16.004 44.187,16.047 44.112,16.115 44.051,16.191 44.008,16.281 43.979,16.383 43.97,16.493 
					43.97,16.493 43.979,16.6 44.008,16.703 44.051,16.79 44.112,16.867 44.187,16.93 44.271,16.981 44.373,17.012 44.477,17.021 
									"/>
			</g>
		</g>
		<polygon fill="#FFFFFF" points="35.883,17.09 37.169,17.09 37.169,17.09 37.629,14.493 37.648,14.392 37.675,14.29 37.703,14.192 
			37.739,14.091 37.787,13.991 37.841,13.894 37.9,13.803 37.971,13.716 38.053,13.639 38.145,13.564 38.252,13.497 38.368,13.442 
			38.502,13.396 38.647,13.36 38.806,13.333 38.986,13.323 39.049,13.323 39.087,13.323 39.1,13.323 39.1,13.323 39.305,12.15 
			39.177,12.159 39.055,12.173 38.94,12.197 38.83,12.228 38.731,12.263 38.633,12.31 38.543,12.362 38.456,12.415 38.373,12.478 
			38.3,12.542 38.223,12.615 38.151,12.69 38.081,12.765 38.014,12.853 37.945,12.936 37.88,13.028 38.017,12.2 36.737,12.2 
			35.883,17.09 		"/>
		<g>
			<g>
				<polyline fill="none" stroke="#FFFFFF" stroke-width="0.0705" points="35.883,17.09 37.169,17.09 37.169,17.09 37.629,14.493 
					37.629,14.493 37.648,14.392 37.675,14.29 37.703,14.192 37.739,14.091 37.787,13.991 37.841,13.894 37.9,13.803 37.971,13.716 
					38.053,13.639 38.145,13.564 38.252,13.497 38.368,13.442 38.502,13.396 38.647,13.36 38.806,13.333 38.986,13.323 
					38.986,13.323 39.049,13.323 39.087,13.323 39.1,13.323 39.1,13.323 39.305,12.15 39.305,12.15 39.177,12.159 39.055,12.173 
					38.94,12.197 38.83,12.228 38.731,12.263 38.633,12.31 38.543,12.362 38.456,12.415 38.373,12.478 38.3,12.542 38.223,12.615 
					38.151,12.69 38.081,12.765 38.014,12.853 37.945,12.936 37.88,13.028 38.017,12.2 36.737,12.2 35.883,17.09 35.883,17.09 				
					"/>
			</g>
		</g>
		<polygon fill="#FFFFFF" points="23.794,17.09 25.081,17.09 25.105,17.09 25.543,14.493 25.56,14.392 25.584,14.298 25.605,14.2 
			25.637,14.11 25.675,14.016 25.72,13.929 25.775,13.847 25.839,13.772 25.913,13.702 25.995,13.636 26.094,13.579 26.206,13.531 
			26.333,13.486 26.473,13.449 26.628,13.429 26.808,13.415 26.819,13.415 26.839,13.42 26.86,13.424 26.884,13.424 26.907,13.429 
			26.925,13.435 26.938,13.438 26.943,13.438 26.947,13.42 26.963,13.365 26.979,13.282 27.004,13.183 27.035,13.064 27.067,12.936 
			27.108,12.808 27.148,12.678 27.184,12.593 27.231,12.506 27.278,12.419 27.321,12.341 27.363,12.274 27.395,12.219 
			27.419,12.187 27.428,12.173 27.423,12.173 27.406,12.168 27.383,12.163 27.348,12.159 27.319,12.159 27.282,12.155 27.248,12.15 
			27.218,12.15 27.076,12.159 26.947,12.173 26.829,12.197 26.719,12.223 26.616,12.26 26.519,12.306 26.432,12.35 26.35,12.406 
			26.271,12.464 26.2,12.533 26.133,12.602 26.062,12.678 25.995,12.759 25.932,12.843 25.862,12.936 25.793,13.028 25.957,12.2 
			24.648,12.2 23.794,17.09 		"/>
		<g>
			<g>
				<polyline fill="none" stroke="#FFFFFF" stroke-width="0.0705" points="23.794,17.09 25.081,17.09 25.105,17.09 25.543,14.493 
					25.543,14.493 25.56,14.392 25.584,14.298 25.605,14.2 25.637,14.11 25.675,14.016 25.72,13.929 25.775,13.847 25.839,13.772 
					25.913,13.702 25.995,13.636 26.094,13.579 26.206,13.531 26.333,13.486 26.473,13.449 26.628,13.429 26.808,13.415 
					26.808,13.415 26.819,13.415 26.839,13.42 26.86,13.424 26.884,13.424 26.907,13.429 26.925,13.435 26.938,13.438 
					26.943,13.438 26.943,13.438 26.947,13.42 26.963,13.365 26.979,13.282 27.004,13.183 27.035,13.064 27.067,12.936 
					27.108,12.808 27.148,12.678 27.148,12.678 27.184,12.593 27.231,12.506 27.278,12.419 27.321,12.341 27.363,12.274 
					27.395,12.219 27.419,12.187 27.428,12.173 27.428,12.173 27.423,12.173 27.406,12.168 27.383,12.163 27.348,12.159 
					27.319,12.159 27.282,12.155 27.248,12.15 27.218,12.15 27.218,12.15 27.076,12.159 26.947,12.173 26.829,12.197 26.719,12.223 
					26.616,12.26 26.519,12.306 26.432,12.35 26.35,12.406 26.271,12.464 26.2,12.533 26.133,12.602 26.062,12.678 25.995,12.759 
					25.932,12.843 25.862,12.936 25.793,13.028 25.957,12.2 24.648,12.2 23.794,17.09 23.794,17.09 				"/>
			</g>
		</g>
	</g>
</g>
</svg>
