<?xml version="1.0" encoding="utf-8"?>
<!-- Generator: Adobe Illustrator 23.1.0, SVG Export Plug-In . SVG Version: 6.00 Build 0)  -->
<svg version="1.1" id="Layer_1" xmlns="http://www.w3.org/2000/svg" xmlns:xlink="http://www.w3.org/1999/xlink" x="0px" y="0px" width="119.2px" height="27.4px" viewBox="0 0 119.4 27.3" style="enable-background:new 0 0 119.4 27.3;" xml:space="preserve">
<style type="text/css">
	.st0{fill:none;}
	.st1{fill:#231F20;}
	.st2{fill:#FF5F00;}
	.st3{fill:#EB001B;}
	.st4{fill:#F79E1B;}
</style>
<g>
	<g id="Layer_1-2">
		<rect x="-0.3" y="-0.1" class="st0" width="119.2" height="27.4"/>
		<path class="st1" d="M53.6,16.6v-3.7c0-1.4-0.9-2.4-2.3-2.4c-0.8-0.1-1.6,0.4-2.1,1.1c-0.4-0.7-1.2-1.1-2-1.1
			c-0.7,0-1.4,0.3-1.7,0.9v-0.7h-1.3v6h1.3v-3.3c0-1,0.6-1.6,1.5-1.6c0.9,0,1.3,0.6,1.3,1.6v3.3h1.3v-3.3c0-1,0.6-1.6,1.5-1.6
			c0.9,0,1.3,0.6,1.3,1.6v3.3H53.6z M72.9,10.7h-2.1V8.9h-1.3v1.8h-1.2v1.2h1.2v2.7c0,1.4,0.5,2.2,2.1,2.2c0.6,0,1.1-0.2,1.6-0.5
			l-0.4-1.1c-0.3,0.2-0.7,0.3-1.1,0.3c-0.6,0-0.9-0.4-0.9-1v-2.7h2.1L72.9,10.7z M84,10.5c-0.6,0-1.2,0.3-1.6,0.9v-0.7h-1.3v6h1.3
			v-3.3c0-1,0.4-1.5,1.3-1.5c0.3,0,0.6,0,0.8,0.1l0.4-1.2C84.6,10.6,84.3,10.5,84,10.5z M67.3,11.1c-0.7-0.4-1.6-0.7-2.4-0.6
			c-1.5,0-2.5,0.7-2.5,1.9c0,1,0.7,1.6,2.1,1.8l0.6,0.1c0.7,0.1,1,0.3,1,0.6c0,0.5-0.5,0.7-1.4,0.7c-0.7,0-1.4-0.2-2-0.6l-0.6,1
			c0.8,0.5,1.7,0.8,2.6,0.8c1.7,0,2.7-0.8,2.7-1.9c0-1-0.8-1.6-2.1-1.8L64.7,13c-0.6-0.1-1-0.2-1-0.6c0-0.4,0.4-0.7,1.1-0.7
			c0.7,0,1.3,0.2,1.9,0.5L67.3,11.1z M102,10.5c-0.6,0-1.2,0.3-1.6,0.9v-0.7h-1.3v6h1.3v-3.3c0-1,0.4-1.5,1.3-1.5
			c0.3,0,0.6,0,0.8,0.1l0.4-1.2C102.6,10.6,102.3,10.5,102,10.5z M85.3,13.6c0,1.8,1.3,3.1,3.2,3.1c0.8,0,1.5-0.2,2.1-0.7L90,15
			c-0.4,0.3-1,0.5-1.6,0.5c-1,0-1.8-0.8-1.8-1.9s0.8-1.9,1.8-1.9c0.6,0,1.1,0.2,1.6,0.5l0.6-1c-0.6-0.5-1.4-0.8-2.1-0.7
			C86.6,10.5,85.3,11.8,85.3,13.6L85.3,13.6z M97.4,13.6v-3h-1.3v0.7c-0.4-0.6-1.1-0.9-1.9-0.9c-1.7,0-3,1.3-3,3.1s1.3,3.1,3,3.1
			c0.7,0,1.4-0.3,1.9-0.9v0.7h1.3V13.6z M92.6,13.6c0-1,0.7-1.9,1.8-1.9c1.1,0,1.8,0.8,1.8,1.9s-0.7,1.9-1.8,1.9
			C93.3,15.5,92.6,14.7,92.6,13.6z M77,10.5c-1.7,0-3,1.3-3,3.1c0,1.9,1.3,3.1,3.1,3.1c0.9,0,1.8-0.3,2.4-0.8l-0.6-1
			c-0.5,0.4-1.1,0.6-1.7,0.6c-0.8,0-1.6-0.4-1.8-1.5h4.4c0-0.2,0-0.3,0-0.5C79.8,11.8,78.6,10.5,77,10.5L77,10.5z M76.9,11.7
			c0.8,0,1.4,0.5,1.5,1.4h-3.1C75.5,12.3,76,11.7,76.9,11.7L76.9,11.7z M109.5,13.6V8.3h-1.3v3.1c-0.4-0.6-1.1-0.9-1.9-0.9
			c-1.7,0-3,1.3-3,3.1s1.3,3.1,3,3.1c0.7,0,1.4-0.3,1.9-0.9v0.7h1.3V13.6z M111,16.1c0.1,0,0.1,0,0.1,0c0,0,0.1,0,0.1,0.1
			c0,0,0.1,0.1,0.1,0.1c0,0.1,0,0.2,0,0.3c0,0,0,0.1-0.1,0.1c0,0-0.1,0.1-0.1,0.1c0,0-0.1,0-0.1,0c-0.2,0-0.3-0.1-0.4-0.2
			c0-0.1,0-0.2,0-0.3c0-0.1,0.1-0.2,0.2-0.2C110.9,16.1,110.9,16.1,111,16.1L111,16.1z M111,16.7c0,0,0.1,0,0.1,0c0,0,0.1,0,0.1-0.1
			c0.1-0.1,0.1-0.3,0-0.4c0,0-0.1,0-0.1-0.1c0,0-0.1,0-0.1,0c0,0-0.1,0-0.1,0c-0.2,0.1-0.2,0.2-0.2,0.4c0,0,0,0.1,0.1,0.1
			c0,0,0.1,0,0.1,0.1C110.9,16.7,110.9,16.7,111,16.7L111,16.7z M111,16.3c0,0,0.1,0,0.1,0c0,0,0,0.1,0,0.1c0,0,0,0.1,0,0.1
			c0,0-0.1,0-0.1,0l0.1,0.1h-0.1l-0.1-0.1h0v0.1h-0.1v-0.3L111,16.3z M110.9,16.3L110.9,16.3L110.9,16.3c0.1,0.1,0.1,0.1,0.1,0.1
			c0,0,0,0,0,0c0,0,0,0,0,0C111,16.3,111,16.3,110.9,16.3L110.9,16.3z M104.6,13.6c0-1,0.7-1.9,1.8-1.9c1.1,0,1.8,0.8,1.8,1.9
			s-0.7,1.9-1.8,1.9C105.3,15.5,104.6,14.7,104.6,13.6z M60.9,13.6v-3h-1.3v0.7c-0.4-0.6-1.1-0.9-1.9-0.9c-1.7,0-3,1.3-3,3.1
			s1.3,3.1,3,3.1c0.7,0,1.4-0.3,1.9-0.9v0.7h1.3L60.9,13.6z M56,13.6c0-1,0.7-1.9,1.8-1.9c1.1,0,1.8,0.8,1.8,1.9s-0.7,1.9-1.8,1.9
			C56.7,15.5,56,14.7,56,13.6L56,13.6z"/>
		<g id="_Group_">
			<rect x="19.7" y="6.6" class="st2" width="7.8" height="14.1"/>
			<path id="_Path_" class="st3" d="M20.2,13.6c0-2.7,1.3-5.3,3.4-7c-3.9-3.1-9.5-2.4-12.6,1.5s-2.4,9.5,1.5,12.6
				c3.2,2.6,7.8,2.6,11.1,0C21.5,18.9,20.2,16.4,20.2,13.6z"/>
			<path class="st4" d="M38.2,13.6c0,4.9-4,9-9,9c-2,0-4-0.7-5.5-1.9c3.9-3.1,4.6-8.7,1.5-12.6c-0.4-0.6-0.9-1.1-1.5-1.5
				c3.9-3.1,9.5-2.4,12.6,1.5C37.5,9.6,38.2,11.6,38.2,13.6z"/>
			<path class="st4" d="M37.3,19.1v-0.3h0.1v-0.1h-0.3v0.1h0.1L37.3,19.1L37.3,19.1z M37.9,19.1v-0.3h-0.1L37.7,19l-0.1-0.2h-0.1
				v0.3h0.1v-0.3l0.1,0.2h0.1l0.1-0.2L37.9,19.1L37.9,19.1z"/>
		</g>
	</g>
</g>
</svg>
