<?xml version="1.0" encoding="utf-8"?>
<!-- Generator: Adobe Illustrator 21.1.0, SVG Export Plug-In . SVG Version: 6.00 Build 0)  -->
<svg version="1.1" id="Layer_1" xmlns="http://www.w3.org/2000/svg" xmlns:xlink="http://www.w3.org/1999/xlink" x="0px" y="0px"
	 width="40px" height="40px" viewBox="0 0 40 40" style="enable-background:new 0 0 40 40;" xml:space="preserve">
<style type="text/css">
	.st0{fill:#2BA4F0;}
	.st1{fill:#FFFFFF;}
</style>
<title>Group</title>
<desc>Created with Sketch.</desc>
<g>
	<path id="Rectangle" class="st0" d="M4,0h32c2.2,0,4,1.8,4,4v32c0,2.2-1.8,4-4,4H4c-2.2,0-4-1.8-4-4V4C0,1.8,1.8,0,4,0z"/>
	<path id="P" class="st1" d="M13,29.2V10h7.3c2.3,0,4.1,0.6,5.4,1.7s2,2.7,2,4.6s-0.7,3.4-2,4.6s-3.1,1.7-5.4,1.7h-2.9v6.6H13z
		 M17.5,19.2h2.9c1,0,1.7-0.3,2.2-0.8s0.8-1.2,0.8-2.1c0-0.9-0.3-1.6-0.8-2.1s-1.2-0.8-2.2-0.8h-2.9V19.2z"/>
</g>
</svg>
