<svg width="28" height="28" viewBox="0 0 28 28" fill="none" xmlns="http://www.w3.org/2000/svg">
<circle cx="14" cy="14" r="13" stroke="white" stroke-width="2"/>
<path d="M10.1079 13.4096L10.1079 13.41H10.1216C12.0489 13.41 13.5878 11.906 13.5878 10.08C13.5878 8.25397 12.0489 6.75 10.1216 6.75C8.28402 6.75 6.75 8.25877 6.75 10.08C6.75 11.9127 8.2936 13.3102 10.1079 13.4096ZM19.1123 6.93667C18.7938 6.93667 18.4932 7.0835 18.2974 7.33465L8.16739 20.328C7.63837 21.0066 8.12189 21.9967 8.98232 21.9967C9.30077 21.9967 9.60143 21.8498 9.79724 21.5987L19.9272 8.60532C20.4562 7.92675 19.9727 6.93667 19.1123 6.93667ZM10.1216 8.74333C10.9231 8.74333 11.4797 9.37157 11.4797 10.08C11.4797 10.7689 10.9429 11.3233 10.1216 11.3233C9.40517 11.3233 8.85811 10.7788 8.85811 10.08C8.85811 9.36131 9.42453 8.74333 10.1216 8.74333ZM17.7838 15.5233C15.9462 15.5233 14.4122 17.0321 14.4122 18.8533C14.4122 20.6696 15.8466 22.1833 17.7838 22.1833C19.7111 22.1833 21.25 20.6794 21.25 18.8533C21.25 17.0273 19.7111 15.5233 17.7838 15.5233ZM17.7838 17.5167C18.5852 17.5167 19.1419 18.1449 19.1419 18.8533C19.1419 19.533 18.5204 20.0967 17.7838 20.0967C17.0673 20.0967 16.5203 19.5521 16.5203 18.8533C16.5203 18.1346 17.0867 17.5167 17.7838 17.5167Z" fill="white" stroke="white" stroke-width="0.5"/>
</svg>
