<svg width="104" height="104" viewBox="0 0 104 104" fill="none" xmlns="http://www.w3.org/2000/svg">
<circle cx="51.9947" cy="51.9947" r="51.9947" fill="#FFCC66"/>
<path d="M36.3137 41.9831C36.3137 38.2015 39.5628 35.0502 43.4617 35.0502C47.5773 35.0502 50.8264 38.2015 50.8264 41.9831C50.8264 45.7647 47.5773 48.9161 43.4617 48.9161C39.5628 48.706 36.3137 45.7647 36.3137 41.9831ZM62.6379 36.145C62.9759 35.7188 63.4901 35.4703 64.0341 35.4703C65.5248 35.4703 66.3566 37.1917 65.4303 38.3596L42.264 67.5696C41.926 67.9958 41.4118 68.2443 40.8678 68.2443C39.3771 68.2443 38.5453 66.523 39.4716 65.355L62.6379 36.145ZM47.1441 41.9831C47.1441 40.0923 45.6278 38.4116 43.4617 38.4116C41.5123 38.4116 39.996 40.0923 39.996 41.9831C39.996 43.8739 41.5123 45.3446 43.4617 45.3446C45.6278 45.3446 47.1441 43.8739 47.1441 41.9831ZM53.8589 61.7315C53.8589 57.9499 57.108 54.7986 61.0069 54.7986C65.1224 54.7986 68.3715 57.9499 68.3715 61.7315C68.3715 65.5131 65.1224 68.6645 61.0069 68.6645C56.8914 68.6645 53.8589 65.5131 53.8589 61.7315ZM64.6892 61.7315C64.6892 59.8407 63.173 58.16 61.0069 58.16C59.0574 58.16 57.5412 59.8407 57.5412 61.7315C57.5412 63.6223 59.0574 65.093 61.0069 65.093C62.9564 65.093 64.6892 63.6223 64.6892 61.7315Z" fill="white"/>
<path d="M94.0179 51.6912C94.0179 53.8692 90.6026 55.8294 90.1472 58.0074C89.6918 60.1854 92.1964 63.2346 91.5133 65.1947C90.6026 67.3727 86.9595 68.0261 85.5934 69.9863C84.455 71.9465 85.5934 75.4313 84.2273 77.1737C82.6335 78.9161 78.7628 78.2627 77.1689 79.7873C75.3474 81.3119 75.3474 85.0145 73.2982 86.1035C71.249 87.1925 67.8337 85.4501 65.5568 86.1035C63.5076 86.7569 61.9138 90.4595 59.6369 90.6773C57.3601 91.1129 54.8555 88.2815 52.3509 88.2815C50.074 88.2815 47.3418 91.1129 45.0649 90.6773C42.788 90.2417 41.4219 86.7569 39.145 86.1035C36.8681 85.2323 33.4528 87.1925 31.4036 86.1035C29.3544 85.0145 29.3544 81.3119 27.5329 79.7873C25.7114 78.2627 21.8407 78.9161 20.4745 77.1737C18.8807 75.4313 20.2469 71.9465 19.1084 69.9863C17.97 68.0261 14.0993 67.3727 13.1885 65.1947C12.5055 63.2346 14.7823 60.1854 14.5546 58.0074C14.0993 55.8294 10.6839 53.8692 10.6839 51.6912C10.6839 49.5132 14.0993 47.553 14.5546 45.375C15.01 43.197 12.5055 40.1478 13.1885 38.1876C13.8716 36.0096 17.7423 35.3563 19.1084 33.3961C20.2469 31.4359 19.1084 27.9511 20.4745 26.2087C22.2961 24.4663 26.1668 25.1197 27.9883 23.5951C29.8098 22.0705 29.8098 18.3679 31.859 17.2789C33.9082 16.1899 37.3235 17.9323 39.6004 17.2789C41.6496 16.6255 43.2434 12.9229 45.5203 12.7051C47.7971 12.2695 50.3017 15.1009 52.8063 15.1009C55.0832 15.1009 57.8154 12.2695 60.0923 12.7051C62.3692 13.1407 63.7353 16.6255 66.0122 17.2789C68.2891 18.1501 71.7044 16.1899 73.7536 17.2789C75.8028 18.3679 75.8028 22.0705 77.6243 23.5951C79.4458 25.1197 83.3165 24.4663 84.6827 26.2087C86.2765 27.9511 84.9103 31.4359 86.0488 33.3961C87.1872 35.3563 91.0579 36.0096 91.9687 38.1876C92.6518 40.1478 90.3749 43.197 90.6026 45.375C90.6026 47.3352 94.0179 49.2954 94.0179 51.6912Z" stroke="white" stroke-width="4" stroke-miterlimit="10"/>
</svg>
