<?xml version="1.0" encoding="utf-8"?>
<!-- Generator: Adobe Illustrator 21.0.2, SVG Export Plug-In . SVG Version: 6.00 Build 0)  -->
<svg version="1.1" id="Layer_1" xmlns="http://www.w3.org/2000/svg" xmlns:xlink="http://www.w3.org/1999/xlink" x="0px" y="0px"
	 width="36.9px" height="36.9px" viewBox="0 0 36.9 36.9" enable-background="new 0 0 36.9 36.9" xml:space="preserve">
<g>
	<path fill="#FFCC66" d="M36.5,18.6c0,1-1.5,1.9-1.7,2.9c-0.2,1,0.9,2.4,0.6,3.3c-0.4,1-2,1.3-2.6,2.2c-0.5,0.9,0,2.5-0.6,3.3
		c-0.7,0.8-2.4,0.5-3.1,1.2c-0.8,0.7-0.8,2.4-1.7,2.9c-0.9,0.5-2.4-0.3-3.4,0c-0.9,0.3-1.6,2-2.6,2.1c-1,0.2-2.1-1.1-3.2-1.1
		c-1,0-2.2,1.3-3.2,1.1c-1-0.2-1.6-1.8-2.6-2.1c-1-0.4-2.5,0.5-3.4,0c-0.9-0.5-0.9-2.2-1.7-2.9c-0.8-0.7-2.5-0.4-3.1-1.2
		c-0.7-0.8-0.1-2.4-0.6-3.3c-0.5-0.9-2.2-1.2-2.6-2.2c-0.3-0.9,0.7-2.3,0.6-3.3c-0.2-1-1.7-1.9-1.7-2.9c0-1,1.5-1.9,1.7-2.9
		c0.2-1-0.9-2.4-0.6-3.3c0.3-1,2-1.3,2.6-2.2c0.5-0.9,0-2.5,0.6-3.3C5,6.1,6.7,6.4,7.5,5.7C8.3,5,8.3,3.3,9.2,2.8
		c0.9-0.5,2.4,0.3,3.4,0c0.9-0.3,1.6-2,2.6-2.1c1-0.2,2.1,1.1,3.2,1.1c1,0,2.2-1.3,3.2-1.1c1,0.2,1.6,1.8,2.6,2.1
		c1,0.4,2.5-0.5,3.4,0c0.9,0.5,0.9,2.2,1.7,2.9c0.8,0.7,2.5,0.4,3.1,1.2c0.7,0.8,0.1,2.4,0.6,3.3c0.5,0.9,2.2,1.2,2.6,2.2
		c0.3,0.9-0.7,2.3-0.6,3.3C35,16.6,36.5,17.5,36.5,18.6z"/>
	<g>
		<path fill="#FFFFFF" d="M10.9,13.9c0-1.8,1.5-3.3,3.3-3.3c1.9,0,3.4,1.5,3.4,3.3c0,1.8-1.5,3.3-3.4,3.3
			C12.4,17.1,10.9,15.7,10.9,13.9z M23.3,10.8h2.1l-12,15.6h-2.1L23.3,10.8z M15.9,13.9c0-0.9-0.7-1.7-1.7-1.7
			c-0.9,0-1.6,0.8-1.6,1.7c0,0.9,0.7,1.6,1.6,1.6C15.2,15.5,15.9,14.8,15.9,13.9z M19,23.3c0-1.8,1.5-3.3,3.3-3.3
			c1.9,0,3.4,1.5,3.4,3.3c0,1.8-1.5,3.3-3.4,3.3C20.4,26.6,19,25.1,19,23.3z M24,23.3c0-0.9-0.7-1.7-1.7-1.7c-0.9,0-1.6,0.8-1.6,1.7
			c0,0.9,0.7,1.6,1.6,1.6C23.2,24.9,24,24.2,24,23.3z"/>
	</g>
</g>
</svg>
