<svg width="29" height="29" viewBox="0 0 29 29" fill="none" xmlns="http://www.w3.org/2000/svg">
<circle cx="14.5" cy="14.5" r="14.5" fill="#0DB14B"/>
<path d="M22.2193 20.1281C21.1408 19.2169 19.4343 18.3586 19.3524 16.8135C19.3524 16.8003 19.3524 16.8003 19.3524 16.7871C19.6255 16.4834 19.7483 16.0212 19.7074 15.6383C19.6937 15.4798 19.6528 15.3346 19.5709 15.2157C19.6937 15.1893 19.8576 15.2025 19.9668 15.1893C20.1715 15.1629 20.39 15.0969 20.4992 14.9252C20.5265 14.8856 20.5265 14.8592 20.5265 14.8328C20.6221 14.7667 20.6221 14.6347 20.4719 14.5951C19.4616 14.3442 18.8473 13.4066 18.2466 12.6539C17.6459 11.9144 17.1135 11.2673 16.7313 10.4222C17.2091 10.6071 17.7279 10.541 18.2739 10.5146C18.3968 10.5014 18.506 10.3826 18.3968 10.2769C17.1818 9.15448 16.1306 7.89998 15.2432 6.51343C15.2432 6.51343 15.2296 6.50022 15.2159 6.50022C15.2705 6.39458 15.3115 6.28894 15.3251 6.17009C15.3524 5.9588 15.2569 5.80034 15.1204 5.68149C15.8576 4.98161 14.8337 3.80634 14.5333 3.10646C14.4651 2.948 14.233 2.97441 14.192 3.13287C14.0555 3.97801 13.4685 4.78353 14.0009 5.57585C13.7415 5.77393 13.6459 6.13047 13.8098 6.4474C13.8371 6.50022 13.878 6.55304 13.919 6.60586C13.9053 6.60586 13.9053 6.61907 13.8917 6.63227C13.4548 7.21331 13.0589 7.82075 12.6357 8.40178C12.1306 9.11487 11.407 9.445 10.7518 9.98642C10.6971 10.026 10.6698 10.1053 10.7244 10.1581C11.0794 10.5807 11.5982 10.7523 12.1169 10.6731C11.8439 11.3334 11.5572 11.9408 11.0657 12.535C10.4651 13.2481 9.72786 13.8292 9.03161 14.4234C8.9497 14.4894 8.96336 14.5951 9.05892 14.6479C9.50943 14.8724 9.97359 14.9252 10.4105 14.8724C9.87803 16.3382 8.9224 17.5266 7.78929 18.6095C7.73469 18.6623 7.70738 18.7547 7.78929 18.8075C8.34902 19.2169 9.04527 19.2037 9.71421 18.9924C9.57769 19.1641 9.48213 19.349 9.46847 19.5602C9.23639 20.6827 7.93946 21.3298 7.05209 21.9372C6.94288 22.0032 7.02479 22.1485 7.12035 22.1749C7.80295 22.3334 8.74493 22.3201 9.55039 22.0957C9.49578 22.2013 9.44117 22.3069 9.38656 22.4126C9.35926 22.4786 9.40022 22.5446 9.45482 22.571C9.52308 22.6107 9.60499 22.6503 9.6869 22.6767C9.70056 22.6899 9.71421 22.7031 9.72786 22.7031C10.3695 23.0332 11.1477 22.7295 11.762 22.4786C12.1169 22.3201 12.4582 22.1221 12.7722 21.8844C12.7995 21.858 12.8405 21.8316 12.8678 21.8051C12.8405 22.0296 12.8405 22.2541 12.8132 22.4654C12.7586 23.0332 12.4855 23.5746 12.3217 24.1161C12.2944 24.1953 12.349 24.2745 12.4309 24.2877C13.1954 24.4594 13.878 24.2745 14.5879 24.0632C15.3115 24.2745 16.076 24.3273 16.7995 24.0764C16.8678 24.05 16.8951 23.984 16.8814 23.918C16.6903 23.3237 16.6084 22.6767 16.6084 22.0692C16.7449 22.0957 16.8678 22.0957 16.9907 22.0825C17.0726 22.0692 17.1272 21.99 17.1135 21.9108C17.0726 21.6731 17.0316 21.4354 17.0043 21.2109C18.0692 21.5807 19.448 22.6899 20.39 21.6071C20.4446 21.541 20.39 21.4486 20.3354 21.409C19.8849 21.1317 19.4616 20.8015 19.1613 20.3922C20.1988 20.6563 21.2364 20.9864 22.192 20.3262C22.2876 20.2865 22.2876 20.1809 22.2193 20.1281ZM14.4241 3.58185C14.7927 4.2025 15.3388 5.04764 14.8473 5.52303C14.7654 5.49662 14.6971 5.47021 14.6152 5.457C14.5879 5.457 14.5606 5.457 14.5333 5.457H14.5197C14.4514 5.4438 14.3695 5.4438 14.3012 5.457C13.919 4.87597 14.2193 4.21571 14.4241 3.58185ZM19.1067 20.0753C19.0657 20.062 19.0248 20.0752 18.9975 20.0885C18.8473 19.8111 18.7518 19.4942 18.7381 19.1509C18.7381 18.966 18.3968 18.966 18.3968 19.1509C18.4378 20.2205 19.1477 20.9864 20.0214 21.5542C19.2159 22.2541 17.8644 21.1581 17.0043 20.894C17.0043 20.7355 17.0043 20.5771 17.0316 20.4186C17.0589 20.2337 16.7176 20.2337 16.6903 20.4186C16.6084 20.894 16.6903 21.343 16.7722 21.8183C16.1579 21.7787 15.448 21.0921 15.1886 20.6299C15.1067 20.4714 14.7927 20.5903 14.8883 20.7619C14.9565 20.894 15.0521 21.026 15.1613 21.1449C14.8883 21.4486 14.6016 21.7523 14.2193 21.924C13.7688 22.1221 13.4958 21.6731 13.332 21.343C13.332 21.3165 13.3047 21.2901 13.2773 21.2901C13.2773 21.2769 13.2637 21.2769 13.2637 21.2637C13.3729 21.0789 13.4821 20.894 13.6186 20.7223C13.7552 20.5638 13.4412 20.445 13.332 20.5771C12.8541 21.1581 12.6221 21.6731 11.9258 22.056C11.3934 22.3466 10.5197 22.7559 9.91899 22.4522C9.89168 22.4258 9.86438 22.3994 9.82342 22.3994C9.79612 22.3994 9.76882 22.3862 9.74151 22.373C9.80977 22.2409 9.89168 22.0957 9.97359 22.0032C10.0009 21.9636 10.0145 21.9372 10.0145 21.8976C10.3695 21.7391 10.6835 21.5278 10.9019 21.2637C11.0248 21.1053 10.7244 20.9732 10.6152 21.1185C10.0009 21.8712 8.5538 22.0825 7.54356 21.9504C8.30807 21.4486 9.23639 20.894 9.6323 20.0753C9.97359 20.5506 10.6562 20.6959 11.1886 20.4318C11.8029 20.1281 11.8985 19.4282 11.6528 18.8604C11.5163 18.5566 11.2978 18.3322 11.0384 18.2661C11.1886 18.1473 11.3388 18.0152 11.4616 17.8964C11.6118 17.7511 11.3524 17.5662 11.2296 17.6983C10.8337 18.0945 10.3558 18.385 9.83708 18.6095C9.49578 18.7679 9.12718 18.834 8.74493 18.8472C8.5265 18.8736 8.34902 18.7943 8.22615 18.6227C8.36267 18.5038 8.48554 18.3718 8.60841 18.2397C9.56404 17.2361 10.3285 16.1401 10.7791 14.846C10.7927 14.8195 10.7927 14.8063 10.7791 14.7799C11.4753 14.6083 12.1169 14.1593 12.6221 13.6311C12.7586 13.4858 12.4582 13.3538 12.3354 13.4858C11.5982 14.2517 10.506 14.8856 9.42752 14.4894C10.0965 13.9216 10.7654 13.3406 11.3524 12.6803C11.9395 12.02 12.2125 11.3069 12.5265 10.541C12.5538 10.5146 12.5675 10.4882 12.5675 10.4618C12.6084 10.3562 12.663 10.2373 12.704 10.1317C12.7859 9.96001 12.4446 9.88077 12.3763 10.0524C12.3354 10.1449 12.2944 10.2505 12.2535 10.3562C11.9531 10.4618 11.6664 10.4486 11.3797 10.3165C10.8337 10.1053 11.3797 9.89398 11.5436 9.78834C11.8712 9.56385 12.2125 9.36577 12.4855 9.07525C13.1272 8.37537 13.605 7.55664 14.1647 6.80394C14.3422 6.90958 14.5606 6.936 14.7791 6.85676C14.861 6.83035 14.9292 6.79074 14.9975 6.73792C15.8302 8.01883 16.8132 9.1941 17.9326 10.2637C17.4685 10.3033 16.9907 10.3165 16.5948 10.026C16.5128 9.96001 16.4036 9.98642 16.349 10.0392C16.2808 10.0656 16.2398 10.1053 16.2671 10.1845C16.7176 11.3201 17.4548 12.1653 18.2193 13.1161C18.7654 13.7895 19.3388 14.5026 20.1852 14.7931C20.0077 15.0044 19.6118 14.8856 19.3661 14.978C19.1204 14.7931 18.7927 14.7271 18.4241 14.7799C18.3968 14.7799 18.3695 14.7931 18.3558 14.8063C17.7279 14.9516 17.4002 15.6515 17.4685 16.2589C17.5504 16.9588 18.3012 17.3153 18.9565 17.0644C18.9838 17.0512 19.0111 17.038 19.0384 17.0248C19.2432 18.4774 20.7449 19.3225 21.8371 20.2073C20.9907 20.6959 20.0077 20.2997 19.1067 20.0753Z" fill="white" stroke="white" stroke-miterlimit="10"/>
<path d="M14.9791 17.2607L15.1064 17.2905L15.2319 17.2542C15.4147 17.2013 15.4453 17.2535 15.4474 17.257C15.4474 17.2571 15.4475 17.2571 15.4475 17.2571C15.4836 17.2965 15.5419 17.4156 15.5419 17.6372C15.5419 17.8469 15.4878 18.0778 15.3926 18.2642C15.2971 18.4513 15.189 18.5412 15.1094 18.5717C14.713 18.6936 14.2549 18.3792 14.2107 18.0088L14.2106 18.0081C14.1805 17.7583 14.266 17.5402 14.4028 17.4042C14.5318 17.2761 14.7243 17.2011 14.9791 17.2607Z" fill="white" stroke="white"/>
<path d="M9.63847 19.251L9.67455 19.1131L9.63255 18.977C9.58974 18.8382 9.59583 18.7559 9.60614 18.7136C9.61549 18.6752 9.63446 18.6425 9.67358 18.6088C9.76804 18.5276 9.97777 18.4491 10.2981 18.4491C10.6053 18.4491 10.9393 18.5228 11.2105 18.6536C11.4876 18.7873 11.6366 18.9481 11.6883 19.084C11.7738 19.3285 11.7263 19.6137 11.5541 19.8658C11.3804 20.1203 11.1073 20.2972 10.8167 20.3312L10.8167 20.3312L10.8134 20.3316C10.417 20.3808 10.0704 20.2549 9.85604 20.0529C9.65227 19.8609 9.55026 19.588 9.63847 19.251Z" fill="white" stroke="white"/>
<path d="M18.8009 14.9761L18.928 15.0061L19.0536 14.9701C19.3705 14.8793 19.4908 14.9645 19.5525 15.0321C19.6497 15.1384 19.7357 15.3617 19.735 15.695C19.7343 16.0167 19.6511 16.3673 19.503 16.6528C19.3523 16.9431 19.1648 17.1119 18.9876 17.1719L18.9876 17.1719L18.9847 17.1729C18.6745 17.2801 18.3245 17.2221 18.0269 17.0314C17.7274 16.8395 17.5271 16.5424 17.487 16.236C17.4375 15.8301 17.5764 15.4645 17.8138 15.2293C18.0442 15.001 18.3836 14.8775 18.8009 14.9761Z" fill="white" stroke="white"/>
<path d="M12.458 15.0157H12.4598C12.4542 15.0158 12.4527 15.0157 12.458 15.0157ZM12.4931 15.1642L12.6662 14.9967C12.8153 14.9876 12.9596 14.9985 13.0646 15.0326C13.1284 15.0533 13.1534 15.0747 13.1604 15.0823C13.1605 15.0823 13.1606 15.0824 13.1607 15.0825C13.1627 15.0844 13.1717 15.0929 13.1752 15.1304C13.1837 15.2213 13.1572 15.3503 13.0776 15.4906C12.9987 15.6298 12.8886 15.7423 12.7849 15.8054L12.7849 15.8054L12.7803 15.8083C12.6531 15.8876 12.5079 15.9183 12.3989 15.9047C12.3076 15.8932 12.2504 15.8559 12.2108 15.7748L12.2108 15.7748L12.2082 15.7696C12.1293 15.6132 12.115 15.4186 12.1645 15.2642C12.1949 15.1693 12.2448 15.0977 12.3179 15.0512L12.4931 15.1642Z" fill="white" stroke="white"/>
<path d="M15.5708 12.714L15.7512 12.6331C15.8535 12.6246 15.9441 12.6362 16.0146 12.6613C16.108 12.6944 16.172 12.7508 16.2103 12.847C16.3019 13.0919 16.2402 13.3773 16.0912 13.5153L16.0912 13.5153L16.0899 13.5166C16.0178 13.5839 15.9044 13.624 15.7562 13.609C15.6054 13.5938 15.463 13.524 15.3735 13.4316C15.2954 13.3481 15.2601 13.2178 15.2999 13.0603C15.341 12.8976 15.4487 12.7688 15.5708 12.714Z" fill="white" stroke="white"/>
<path d="M14.5605 9.35256V9.53259V9.85256H14.5605H14.5605H14.5605H14.5605H14.5605H14.5605H14.5605H14.5605H14.5605H14.5605H14.5605H14.5605H14.5605H14.5605H14.5605H14.5605H14.5605H14.5605H14.5605H14.5605H14.5605H14.5605H14.5605H14.5605H14.5605H14.5605H14.5605H14.5605H14.5605H14.5605H14.5605H14.5605H14.5605H14.5605H14.5605H14.5605H14.5605H14.5605H14.5605H14.5605H14.5605H14.5605H14.5605H14.5605H14.5605H14.5605H14.5605H14.5605H14.5606H14.5606H14.5606H14.5606H14.5606H14.5606H14.5606H14.5606H14.5606H14.5606H14.5606H14.5606H14.5606H14.5606H14.5606H14.5606H14.5606H14.5606H14.5606H14.5606H14.5606H14.5606H14.5606H14.5606H14.5606H14.5606H14.5606H14.5606H14.5606H14.5606H14.5607H14.5607H14.5607H14.5607H14.5607H14.5607H14.5607H14.5607H14.5607H14.5607H14.5607H14.5607H14.5607H14.5607H14.5607H14.5607H14.5607H14.5607H14.5607H14.5608H14.5608H14.5608H14.5608H14.5608H14.5608H14.5608H14.5608H14.5608H14.5608H14.5608H14.5608H14.5608H14.5608H14.5608H14.5609H14.5609H14.5609H14.5609H14.5609H14.5609H14.5609H14.5609H14.5609H14.5609H14.5609H14.5609H14.5609H14.561H14.561H14.561H14.561H14.561H14.561H14.561H14.561H14.561H14.561H14.561H14.5611H14.5611H14.5611H14.5611H14.5611H14.5611H14.5611H14.5611H14.5611H14.5611H14.5612H14.5612H14.5612H14.5612H14.5612H14.5612H14.5612H14.5612H14.5613H14.5613H14.5613H14.5613H14.5613H14.5613H14.5613H14.5613H14.5613H14.5614H14.5614H14.5614H14.5614H14.5614H14.5614H14.5614H14.5615H14.5615H14.5615H14.5615H14.5615H14.5615H14.5615H14.5616H14.5616H14.5616H14.5616H14.5616H14.5616H14.5616H14.5617H14.5617H14.5617H14.5617H14.5617H14.5617H14.5618H14.5618H14.5618H14.5618H14.5618H14.5618H14.5619H14.5619H14.5619H14.5619H14.5619H14.562H14.562H14.562H14.562H14.562H14.562H14.5621H14.5621H14.5621H14.5621H14.5621H14.5622H14.5622H14.5622H14.5622H14.5622H14.5623H14.5623H14.5623H14.5623H14.5623H14.5624H14.5624H14.5624H14.5624H14.5625H14.5625H14.5625H14.5625H14.5625H14.5626H14.5626H14.5626H14.5626H14.5627H14.5627H14.5627H14.5627H14.5628H14.5628H14.5628H14.5628H14.5629H14.5629H14.5629H14.5629H14.563H14.563H14.563H14.563H14.5631H14.5631H14.5631H14.5631H14.5632H14.5632H14.5632H14.5632H14.5633H14.5633H14.5633H14.5634H14.5634H14.5634H14.5634H14.5635H14.5635H14.5635H14.5636H14.5636H14.5636H14.5637H14.5637H14.5637H14.5637H14.5638H14.5638H14.5638H14.5639H14.5639H14.5639H14.564H14.564H14.564H14.5641H14.5641H14.5641H14.5642H14.5642H14.5642H14.5643H14.5643H14.5643H14.5644H14.5644H14.5644H14.5645H14.5645H14.5645H14.5646H14.5646H14.5647H14.5647H14.5647H14.5648H14.5648H14.5648H14.5649H14.5649H14.5649H14.565H14.565H14.5651H14.5651H14.5651H14.5652H14.5652H14.5653H14.5653H14.5653H14.5654H14.5654H14.5655H14.5655H14.5655H14.5656H14.5656H14.5657H14.5657H14.5658H14.5658H14.5658H14.5659H14.5659H14.566H14.566H14.5661H14.5661H14.5661H14.5662H14.5662H14.5663H14.5663H14.5664H14.5664H14.5665H14.5665H14.5666H14.5666H14.5666H14.5667H14.5667H14.5668H14.5668H14.5669H14.5669H14.567H14.567H14.5671H14.5671H14.5672H14.5672H14.5673H14.5673H14.5674H14.5674H14.5675H14.5675H14.5676H14.5676H14.5677H14.5677H14.5678H14.5678H14.5679H14.568H14.568H14.5681H14.5681H14.5682H14.5682H14.5683H14.5683H14.5684H14.5684H14.5685H14.5686H14.5686H14.5687H14.5687H14.5688H14.5688H14.5689H14.569H14.569H14.5691H14.5691H14.5692H14.5693H14.5693H14.5694H14.5694H14.5695H14.5696H14.5696H14.5697H14.5697H14.5698H14.5699H14.5699H14.57H14.5701H14.5701H14.5702H14.5702H14.5703H14.5704H14.5704H14.5705H14.5706H14.5706H14.5707H14.5708H14.5708H14.5709H14.571H14.571H14.5711H14.5712H14.5712H14.5713H14.5714H14.5714H14.5715H14.5716H14.5717H14.5717H14.5718H14.5719H14.5719H14.572H14.5721H14.5721H14.5722H14.5723H14.5724H14.5724H14.5725H14.5726H14.5727H14.5727H14.5728H14.5729H14.573H14.573H14.5731H14.5732H14.5733H14.5733H14.5734H14.5735H14.5736H14.5737H14.5737H14.5738H14.5739H14.574H14.574H14.5741H14.5817H14.6388C14.7495 9.85706 14.826 9.88787 14.8627 9.9147C14.8805 9.92773 14.8859 9.93706 14.8878 9.9411C14.8893 9.94418 14.896 9.95844 14.8943 9.99384C14.8765 10.224 14.7221 10.4525 14.5509 10.5263C14.4647 10.5586 14.3365 10.5595 14.2184 10.5124C14.1021 10.466 14.0592 10.4017 14.0477 10.3621C13.9782 10.0764 14.1808 9.78904 14.4241 9.75541L14.457 9.75088L14.4889 9.74205C14.4681 9.7478 14.4462 9.75136 14.4238 9.75264C14.3641 9.75605 14.3007 9.74339 14.2437 9.71309C14.1776 9.67794 14.1462 9.63332 14.1356 9.61612L14.3836 9.46225L14.4075 9.44746L14.5605 9.35256Z" fill="white" stroke="white"/>
<path d="M15.3037 5.99039C15.2727 6.38435 15.0186 6.7847 14.6847 6.92231C14.5121 6.99259 14.2838 6.9905 14.0807 6.90738C13.88 6.82527 13.7583 6.68886 13.7189 6.54211L13.7189 6.54211L13.7185 6.54065C13.6017 6.11146 13.8544 5.62756 14.2566 5.46909L14.3031 5.57406H14.6285H14.6286H14.6286H14.6287H14.6288H14.6289H14.629H14.629H14.6291H14.6292H14.6293H14.6294H14.6294H14.6295H14.6296H14.6297H14.6297H14.6298H14.6299H14.63H14.63H14.6301H14.6302H14.6302H14.6303H14.6304H14.6305H14.6305H14.6306H14.6307H14.6308H14.6308H14.6309H14.631H14.631H14.6311H14.6312H14.6312H14.6313H14.6314H14.6315H14.6315H14.6316H14.6317H14.6317H14.6318H14.6319H14.6319H14.632H14.6321H14.6321H14.6322H14.6323H14.6323H14.6324H14.6325H14.6325H14.6326H14.6326H14.6327H14.6328H14.6328H14.6329H14.633H14.633H14.6331H14.6331H14.6332H14.6333H14.6333H14.6334H14.6335H14.6335H14.6336H14.6336H14.6337H14.6338H14.6338H14.6339H14.6339H14.634H14.6341H14.6341H14.6342H14.6342H14.6343H14.6343H14.6344H14.6345H14.6345H14.6346H14.6346H14.6347H14.6347H14.6348H14.6349H14.6349H14.635H14.635H14.6351H14.6351H14.6352H14.6352H14.6353H14.6353H14.6354H14.6355H14.6355H14.6356H14.6356H14.6357H14.6357H14.6358H14.6358H14.6359H14.6359H14.636H14.636H14.6361H14.6361H14.6362H14.6362H14.6363H14.6363H14.6364H14.6364H14.6365H14.6365H14.6366H14.6366H14.6367H14.6367H14.6368H14.6368H14.6369H14.6369H14.637H14.637H14.6371H14.6371H14.6372H14.6372H14.6373H14.6373H14.6374H14.6374H14.6375H14.6375H14.6376H14.6376H14.6377H14.6377H14.6378H14.6378H14.6378H14.6379H14.6379H14.638H14.638H14.6381H14.6381H14.6382H14.6382H14.6383H14.6383H14.6383H14.6384H14.6384H14.6385H14.6385H14.6386H14.6386H14.6387H14.6387H14.6387H14.6388H14.6388H14.6389H14.6389H14.639H14.639H14.6391H14.6391H14.6391H14.6392H14.6392H14.6393H14.6393H14.6394H14.6394H14.6394H14.6395H14.6395H14.6396H14.6396H14.6397H14.6397H14.6397H14.6398H14.6398H14.6399H14.6399H14.64H14.64H14.64H14.6401H14.6401H14.6402H14.6402H14.6402H14.6403H14.6403H14.6404H14.6404H14.6404H14.6405H14.6405H14.6406H14.6406H14.6407H14.6407H14.6407H14.6408H14.6408H14.6409H14.6409H14.6409H14.641H14.641H14.6411H14.6411H14.6411H14.6412H14.6412H14.6413H14.6413H14.6413H14.6414H14.6414H14.6415H14.6415H14.6415H14.6416H14.6416H14.6417H14.6417H14.6417H14.6418H14.6418H14.6419H14.6419H14.6419H14.642H14.642H14.6421H14.6421H14.6421H14.6422H14.6422H14.6423H14.6423H14.6423H14.6424H14.6424H14.6425H14.6425H14.6425H14.6426H14.6426H14.6427H14.6427H14.6427H14.6428H14.6428H14.6429H14.6429H14.6429H14.643H14.643H14.6431H14.6431H14.6431H14.6432H14.6432H14.6433H14.6433H14.6433H14.6434H14.6434H14.6435H14.6435H14.6436H14.6436H14.6436H14.6437H14.6437H14.6438H14.6438H14.6438H14.6439H14.6439H14.644H14.644H14.644H14.6441H14.6441H14.6442H14.6442H14.6443H14.6443H14.6443H14.6444H14.6444H14.6445H14.6445H14.6445H14.6446H14.6446H14.6447H14.6447H14.6448H14.6448H14.6448H14.6449H14.6449H14.645H14.645H14.6451H14.6451H14.6451H14.6452H14.6452H14.6453H14.6453H14.6454H14.6454H14.6454H14.6455H14.6455H14.6456H14.6456H14.6457H14.6457H14.6458H14.6458H14.6458H14.6459H14.6459H14.646H14.646H14.6461H14.6461H14.6462H14.6462H14.6463H14.6463H14.6463H14.6464H14.6464H14.6465H14.6465H14.6466H14.6466H14.6467H14.6467H14.6468H14.6468H14.6469H14.6469H14.647H14.647H14.6471H14.6471H14.6471H14.6472H14.6472H14.6473H14.6473H14.6474H14.6474H14.6475H14.6475H14.6476H14.6476H14.6477H14.6477H14.6478H14.6478H14.6479H14.6479H14.648H14.648H14.6481H14.6481H14.6482H14.6482H14.6483H14.6484H14.6484H14.6485H14.6485H14.6486H14.6486H14.6487H14.6487H14.6488H14.6488H14.6489H14.6489H14.649H14.649H14.6491H14.6492H14.6492H14.6493H14.6493H14.6494H14.6494H14.6495H14.6495H14.6496H14.6497H14.6497H14.6498H14.6498H14.6499H14.6499H14.65H14.6501H14.6501H14.6502H14.6502H14.6503H14.6503H14.6504H14.6505H14.6505H14.6506H14.6506H14.6507H14.6508H14.6508H14.6509H14.651H14.651H14.6511H14.6511H14.6512H14.6513H14.6513H14.6514H14.6514H14.6515H14.6516H14.6516H14.6517H14.6518H14.6518H14.6519H14.652H14.652H14.6521H14.6522H14.6522H14.6523H14.6524H14.6524H14.6525H14.6526H14.6526H14.6527H14.6528H14.6528H14.6529H14.653H14.653H14.6531H14.6532H14.6532H14.6533H14.6534H14.6535H14.6535H14.6536H14.6537H14.6537H14.6538H14.6539H14.654H14.654H14.6541H14.6542H14.6543H14.6543H14.6544H14.6545H14.6546H14.6546H14.6547H14.6548H14.6549H14.6549H14.655H14.6551H14.6552H14.6552H14.6553H14.6554H14.6555H14.6556H14.6556H14.6557H14.6558V5.57419L14.6668 5.57394C14.8854 5.56914 15.0669 5.62668 15.1747 5.70547C15.2623 5.76953 15.3119 5.85016 15.3037 5.99039Z" fill="white" stroke="white"/>
</svg>
