<?xml version="1.0" encoding="utf-8"?>
<!-- Generator: Adobe Illustrator 16.2.0, SVG Export Plug-In . SVG Version: 6.00 Build 0)  -->
<!DOCTYPE svg PUBLIC "-//W3C//DTD SVG 1.1//EN" "http://www.w3.org/Graphics/SVG/1.1/DTD/svg11.dtd">
<svg version="1.1" id="Layer_1" xmlns="http://www.w3.org/2000/svg" xmlns:xlink="http://www.w3.org/1999/xlink" x="0px" y="0px"
	 width="50.766px" height="27.281px" viewBox="0 0 50.766 27.281" enable-background="new 0 0 50.766 27.281" xml:space="preserve">
<g>
	<g>
		<polygon fill="#144E8B" points="17.745,21.194 20.296,6.232 24.371,6.232 21.821,21.194 		"/>
		<path fill="#144E8B" d="M36.611,6.601c-0.807-0.306-2.074-0.63-3.655-0.63c-4.029,0-6.867,2.03-6.891,4.938
			c-0.023,2.148,2.025,3.348,3.573,4.063c1.586,0.734,2.119,1.203,2.111,1.859c-0.008,1-1.266,1.459-2.439,1.459
			c-1.632-0.001-2.499-0.225-3.84-0.782l-0.523-0.24l-0.571,3.35c0.951,0.418,2.713,0.778,4.541,0.796
			c4.288,0,7.071-2.004,7.103-5.111c0.016-1.7-1.072-2.994-3.425-4.063c-1.425-0.693-2.3-1.154-2.288-1.854
			c0-0.624,0.74-1.287,2.334-1.287c1.335-0.021,2.3,0.271,3.052,0.57l0.365,0.175L36.611,6.601z"/>
		<path fill="#144E8B" d="M47.068,6.245h-3.151c-0.976,0-1.707,0.269-2.136,1.24l-6.055,13.713h4.281c0,0,0.7-1.844,0.859-2.247
			c0.466,0,4.627,0.005,5.223,0.005c0.122,0.523,0.494,2.242,0.494,2.242h3.785L47.068,6.245 M42.039,15.89
			c0.338-0.863,1.625-4.182,1.625-4.182c-0.023,0.04,0.335-0.867,0.54-1.43l0.277,1.29c0,0,0.781,3.573,0.943,4.321H42.039z"/>
		<path fill="#144E8B" d="M14.325,6.241l-3.993,10.202l-0.426-2.072c-0.741-2.391-3.058-4.978-5.648-6.275L7.91,21.181l4.313-0.006
			l6.421-14.934H14.325z"/>
		<path fill="#F89C1C" d="M6.627,6.232H0.052L0,6.544c5.117,1.239,8.501,4.232,9.906,7.827L8.475,7.497
			C8.228,6.549,7.514,6.267,6.627,6.232z"/>
	</g>
</g>
</svg>
