<?xml version="1.0" encoding="utf-8"?>
<!-- Generator: Adobe Illustrator 16.2.0, SVG Export Plug-In . SVG Version: 6.00 Build 0)  -->
<!DOCTYPE svg PUBLIC "-//W3C//DTD SVG 1.1//EN" "http://www.w3.org/Graphics/SVG/1.1/DTD/svg11.dtd">
<svg version="1.1" id="Layer_1" xmlns="http://www.w3.org/2000/svg" xmlns:xlink="http://www.w3.org/1999/xlink" x="0px" y="0px"
	 width="80px" height="80px" viewBox="0 0 80 80" enable-background="new 0 0 80 80" xml:space="preserve">
<g>
	<path d="M3,1h38c1.104,0,2,0.896,2,2v38c0,1.104-0.896,2-2,2H3c-1.104,0-2-0.896-2-2V3C1,1.896,1.896,1,3,1z"/>
	<path fill="#FFD600" d="M41,44H3c-1.654,0-3-1.346-3-3V3c0-1.654,1.346-3,3-3h38c1.654,0,3,1.346,3,3v38C44,42.654,42.654,44,41,44
		z M3,2C2.449,2,2,2.449,2,3v38c0,0.552,0.449,1,1,1h38c0.552,0,1-0.448,1-1V3c0-0.551-0.448-1-1-1H3z"/>
</g>
<g>
	<path d="M79,40c0,21.539-17.461,39-39,39S1,61.539,1,40S18.461,1,40,1S79,18.461,79,40z"/>
	<path fill="#FFD600" d="M40,80C17.944,80,0,62.056,0,40C0,17.944,17.944,0,40,0c22.056,0,40,17.944,40,40
		C80,62.056,62.056,80,40,80z M40,2C19.047,2,2,19.047,2,40s17.047,38,38,38s38-17.047,38-38S60.953,2,40,2z"/>
</g>
<path fill="#FFFFFF" d="M18.23,12.17l5.15,5.72l-1.31,1.18l-1.86-2.06c-0.33,0.63-0.71,1.13-1.14,1.51
	c-0.77,0.69-1.52,1.04-2.26,1.04c-0.74,0-1.42-0.34-2.04-1.04l-1.61-1.79l1.31-1.18l1.48,1.64c0.35,0.39,0.72,0.59,1.11,0.6
	c0.39,0.01,0.78-0.16,1.18-0.52c0.44-0.39,0.77-0.84,1-1.36l-2.32-2.57L18.23,12.17z"/>
<path fill="#FFFFFF" d="M29.771,12.91l0.63,1.28l-5.35,2.64l-3.41-6.9l5.22-2.58l0.63,1.28l-3.63,1.79l0.74,1.5l3.21-1.58l0.61,1.24
	l-3.21,1.58l0.79,1.6L29.771,12.91z"/>
<path fill="#FFFFFF" d="M35.541,5.569c0.54,0.13,0.97,0.38,1.32,0.74s0.57,0.82,0.67,1.39c0.1,0.55,0.06,1.06-0.13,1.53
	c-0.19,0.46-0.51,0.85-0.96,1.16c-0.45,0.31-1.01,0.53-1.68,0.65l-1.53,0.28l0.39,2.09l-1.75,0.33l-1.4-7.57l3.28-0.61
	C34.401,5.429,35,5.439,35.541,5.569z M35.521,9.069c0.23-0.28,0.31-0.63,0.23-1.04c-0.08-0.43-0.28-0.73-0.59-0.9
	c-0.32-0.19-0.74-0.22-1.27-0.13l-1.43,0.26l0.49,2.63l1.43-0.27C34.911,9.529,35.291,9.35,35.521,9.069z"/>
<path fill="#FFFFFF" d="M47.6,5.649l-0.881,7.65l-1.77-0.2l0.359-3.14l-3.479-0.4l-0.36,3.14l-1.77-0.2l0.88-7.65l1.771,0.2
	l-0.351,3.02l3.47,0.4l0.351-3.02L47.6,5.649z"/>
<path fill="#FFFFFF" d="M53.98,14.469l-3.261-1.47l-1.3,1.22l-1.66-0.75l6.3-5.6l1.601,0.73l-0.041,8.43l-1.699-0.77L53.98,14.469z
	 M54.029,12.999l0.101-3.19l-2.33,2.19L54.029,12.999z"/>
<path fill="#FFFFFF" d="M66.061,15.99l-5.09,5.78l-1.32-1.16L61,19.07L59.79,18l-2.38,0.63L56,17.39l2.74-0.68
	c-0.25-0.5-0.34-1.01-0.26-1.51c0.069-0.51,0.31-0.99,0.709-1.44c0.391-0.44,0.83-0.74,1.32-0.88s0.99-0.14,1.52,0.02
	c0.531,0.16,1.041,0.46,1.551,0.9L66.061,15.99z M61.54,14.42c-0.36,0-0.69,0.17-0.99,0.52c-0.29,0.33-0.43,0.68-0.39,1.03
	c0.029,0.35,0.24,0.69,0.609,1.02l1.17,1.03l1.851-2.1l-1.14-1C62.26,14.58,61.9,14.42,61.54,14.42z"/>
<path fill="#FFFFFF" d="M18.99,58.26l-6.28,4.461l-1.03-1.441l5.09-3.619l-2.01-2.83l-5.09,3.62L8.65,57l6.28-4.46L18.99,58.26z"/>
<path fill="#FFFFFF" d="M25.75,63.63l-4.55,6.21l-1.42-1.04l1.21-1.649l-1.31-0.961l-2.31,0.84l-1.52-1.109L18.51,65
	c-0.29-0.48-0.43-0.98-0.4-1.49c0.03-0.51,0.22-1.01,0.58-1.49c0.35-0.48,0.76-0.81,1.24-1c0.48-0.189,0.98-0.22,1.52-0.119
	c0.54,0.109,1.08,0.359,1.62,0.76L25.75,63.63z M21.1,62.46c-0.35,0.03-0.67,0.229-0.94,0.61c-0.26,0.359-0.37,0.709-0.3,1.06
	c0.07,0.351,0.3,0.67,0.7,0.96l1.26,0.92l1.65-2.25l-1.22-0.9C21.839,62.561,21.45,62.43,21.1,62.46z"/>
<path fill="#FFFFFF" d="M33.14,68.131l-2.32-0.83l-2.1,5.89l-1.66-0.59l2.1-5.89l-2.31-0.82l0.49-1.37l6.29,2.239L33.14,68.131z"/>
<path fill="#FFFFFF" d="M42.401,67.41l-0.31,7.689l-1.78-0.07l0.13-3.15l-3.5-0.139l-0.13,3.16l-1.78-0.07l0.31-7.69l1.78,0.069
	l-0.12,3.021l3.5,0.14l0.119-3.029L42.401,67.41z"/>
<path fill="#FFFFFF" d="M44.83,67.11l1.689-0.521l1.461,4.801l2.05-5.87l1.6-0.49l2.24,7.37l-1.681,0.51l-1.459-4.79l-2.061,5.86
	l-1.609,0.49L44.83,67.11z"/>
<path fill="#FFFFFF" d="M64.021,64.2l1.819,2.479l-1.319,0.971l-0.96-1.311l-5.18,3.811l-4.561-6.2l1.43-1.05l3.7,5.039l2.771-2.029
	l-3.7-5.029l1.43-1.051l3.7,5.029L64.021,64.2z"/>
<path fill="#FFFFFF" d="M69.32,56.961L67.3,59.91l0.979,1.49l-1.029,1.51l-4.41-7.189l1-1.45l8.3,1.511l-1.06,1.539L69.32,56.961z
	 M67.89,56.66L64.77,56l1.74,2.681L67.89,56.66z"/>
<path fill="#FFCC00" d="M40,64.753c13.671,0,24.753-11.082,24.753-24.753S53.671,15.247,40,15.247S15.247,26.329,15.247,40
	S26.329,64.753,40,64.753z"/>
</svg>
