<?xml version="1.0" encoding="utf-8"?>
<!-- Generator: Adobe Illustrator 20.1.0, SVG Export Plug-In . SVG Version: 6.00 Build 0)  -->
<svg version="1.1" id="Layer_1" xmlns="http://www.w3.org/2000/svg" xmlns:xlink="http://www.w3.org/1999/xlink" x="0px" y="0px"
	 width="83px" height="24px" viewBox="0 0 83 24" enable-background="new 0 0 83 24" xml:space="preserve">
<polygon fill="#00CCFF" points="76.9,24 0,24 0,0 83,0 "/>
<g>
	<path fill="#FFFFFF" d="M11,8.4h1.3v3.2h3.6V8.4h1.3V16h-1.3v-3.2h-3.6V16H11C11,16,11,8.4,11,8.4z"/>
	<path fill="#FFFFFF" d="M18.9,12.2c0-2.1,1.6-3.9,4-3.9c2.3,0,4,1.8,4,3.9c0,2.1-1.6,3.9-4,3.9C20.5,16.1,18.9,14.4,18.9,12.2z
		 M25.4,12.2c0-1.5-1.1-2.7-2.6-2.7c-1.5,0-2.6,1.2-2.6,2.7c0,1.5,1.1,2.7,2.6,2.7C24.4,14.9,25.4,13.7,25.4,12.2z"/>
	<path fill="#FFFFFF" d="M28.4,8.4h3.4c0.9,0,1.6,0.2,2,0.7c0.3,0.3,0.5,0.7,0.5,1.3c0,0.9-0.5,1.4-1.1,1.7c0.9,0.3,1.5,0.8,1.5,1.9
		c0,1.4-1.1,2.1-2.8,2.1h-3.5L28.4,8.4L28.4,8.4z M31.6,11.6c0.9,0,1.4-0.3,1.4-1.1c0-0.6-0.5-1-1.3-1h-1.9v2
		C29.8,11.6,31.6,11.6,31.6,11.6z M32,14.8c0.9,0,1.5-0.4,1.5-1.1c0-0.6-0.5-1-1.6-1h-2.1v2.1L32,14.8L32,14.8z"/>
	<path fill="#FFFFFF" d="M36.3,8.4h1.3V14l3.8-5.5h1.2V16h-1.3v-5.5L37.5,16h-1.3C36.3,16,36.3,8.4,36.3,8.4z"/>
	<path fill="#FFFFFF" d="M44.7,8.4H46v3.2h3.6V8.4h1.3V16h-1.3v-3.2H46V16h-1.3V8.4z"/>
	<path fill="#FFFFFF" d="M52.7,8.4H54v3.8l3.6-3.8h1.6l-3.2,3.3l3.3,4.3h-1.6l-2.6-3.4L54,13.8V16h-1.3V8.4z"/>
	<path fill="#FFFFFF" d="M63.5,8.4h1.2L68,16h-1.4l-0.8-1.8h-3.6L61.5,16h-1.4L63.5,8.4z M65.4,13l-1.3-3l-1.3,3H65.4z"/>
</g>
</svg>
