<?xml version="1.0" encoding="utf-8"?>
<!-- Generator: Adobe Illustrator 20.1.0, SVG Export Plug-In . SVG Version: 6.00 Build 0)  -->
<svg version="1.1" id="Layer_1" xmlns="http://www.w3.org/2000/svg" xmlns:xlink="http://www.w3.org/1999/xlink" x="0px" y="0px"
	 width="84px" height="24px" viewBox="0 0 84 24" enable-background="new 0 0 84 24" xml:space="preserve">
<polygon fill="#222222" points="77.9,24 0,24 0,0 84,0 "/>
<g>
	<path fill="#FFFFFF" d="M10.9,8.4h6.2V16h-1.3V9.6h-3.5V16h-1.3V8.4z"/>
	<path fill="#FFFFFF" d="M19.1,8.4h3c1.8,0,2.9,1,2.9,2.6c0,1.7-1.4,2.6-3,2.6h-1.5V16h-1.3C19.1,16,19.1,8.4,19.1,8.4z M21.9,12.4
		c1,0,1.6-0.6,1.6-1.4c0-0.9-0.6-1.4-1.6-1.4h-1.6v2.7H21.9z"/>
	<path fill="#FFFFFF" d="M26.3,8.4h5.6v1.2h-4.3v2h3.8v1.2h-3.8v2H32V16h-5.7C26.3,16,26.3,8.4,26.3,8.4z"/>
	<path fill="#FFFFFF" d="M33.6,8.4H35l2.3,3.6l2.3-3.6H41V16h-1.3v-5.4l-2.4,3.6h0l-2.4-3.6V16h-1.3L33.6,8.4L33.6,8.4z"/>
	<path fill="#FFFFFF" d="M43,8.4h1.3V14l3.8-5.5h1.2V16h-1.3v-5.5L44.3,16H43C43,16,43,8.4,43,8.4z"/>
	<path fill="#FFFFFF" d="M51.2,15.7l0.5-1c0.3,0.2,0.6,0.2,0.9,0.2c0.3,0,0.8-0.2,1.2-0.8l-3.2-5.8h1.5l2.4,4.4l2.1-4.4H58l-3,5.9
		c-0.6,1.3-1.4,1.8-2.4,1.8C52.1,16.1,51.6,16,51.2,15.7z"/>
	<path fill="#FFFFFF" d="M59.3,8.4h1.4L63,12l2.3-3.6h1.4V16h-1.3v-5.4L63,14.1h0l-2.4-3.6V16h-1.3L59.3,8.4L59.3,8.4z"/>
</g>
</svg>
