<?xml version="1.0" encoding="utf-8"?>
<!-- Generator: Adobe Illustrator 20.1.0, SVG Export Plug-In . SVG Version: 6.00 Build 0)  -->
<svg version="1.1" id="Layer_1" xmlns="http://www.w3.org/2000/svg" xmlns:xlink="http://www.w3.org/1999/xlink" x="0px" y="0px"
	 width="104.7px" height="24px" viewBox="0 0 104.7 24" enable-background="new 0 0 104.7 24" xml:space="preserve">
<polygon fill="#FF3300" points="93,24 0.1,24 0.1,0 99.1,0 "/>
<g opacity="0.5">
	<rect x="3.1" fill="#FF9900" width="2" height="24"/>
	<rect x="9.1" fill="#FF9900" width="2" height="24"/>
	<rect x="15.1" fill="#FF9900" width="2" height="24"/>
	<rect x="21.1" fill="#FF9900" width="2" height="24"/>
	<rect x="27.1" fill="#FF9900" width="2" height="24"/>
	<rect x="33.1" fill="#FF9900" width="2" height="24"/>
	<rect x="39.1" fill="#FF9900" width="2" height="24"/>
	<rect x="45.1" fill="#FF9900" width="2" height="24"/>
	<rect x="51.1" fill="#FF9900" width="2" height="24"/>
	<rect x="57.1" fill="#FF9900" width="2" height="24"/>
	<rect x="63.1" fill="#FF9900" width="2" height="24"/>
	<rect x="69.1" fill="#FF9900" width="2" height="24"/>
	<rect x="75.1" fill="#FF9900" width="2" height="24"/>
	<rect x="81.1" fill="#FF9900" width="2" height="24"/>
	<rect x="87.1" fill="#FF9900" width="2" height="24"/>
	<polygon fill="#FF9900" points="93.1,0 93.1,23.5 95.1,15.7 95.1,0 	"/>
</g>
<g>
	<path fill="#FFFFFF" d="M22.1,8.4h6.2V16h-1.3V9.6h-3.5V16h-1.3C22.1,16,22.1,8.4,22.1,8.4z"/>
	<path fill="#FFFFFF" d="M30.1,12.2c0-2.1,1.6-3.9,4-3.9c2.3,0,4,1.8,4,3.9c0,2.1-1.6,3.9-4,3.9C31.7,16.1,30.1,14.4,30.1,12.2z
		 M36.7,12.2c0-1.5-1.1-2.7-2.6-2.7c-1.5,0-2.6,1.2-2.6,2.7c0,1.5,1.1,2.7,2.6,2.7C35.6,14.9,36.7,13.7,36.7,12.2z"/>
	<path fill="#FFFFFF" d="M38.6,14.8h0.7c0.6-1.2,1-2.8,1-5.3V8.4h5.3v6.4h0.9l-0.2,2.8h-1.1V16h-5.3l-0.1,1.6h-1.2L38.6,14.8
		L38.6,14.8z M44.3,14.8V9.6h-2.7v0.9c0,1.8-0.3,3.3-0.8,4.3L44.3,14.8L44.3,14.8z"/>
	<path fill="#FFFFFF" d="M50.9,8.4h1.2l3.3,7.6H54l-0.8-1.8h-3.6L48.9,16h-1.4L50.9,8.4z M52.8,13l-1.3-3l-1.3,3H52.8z"/>
	<path fill="#FFFFFF" d="M56.7,8.4h3c1.8,0,2.9,1,2.9,2.6c0,1.7-1.4,2.6-3,2.6h-1.5V16h-1.3V8.4z M59.6,12.4c1,0,1.6-0.6,1.6-1.4
		c0-0.9-0.6-1.4-1.6-1.4h-1.6v2.7H59.6z"/>
	<path fill="#FFFFFF" d="M64.1,12.2c0-2.1,1.6-3.9,4-3.9c2.3,0,4,1.8,4,3.9c0,2.1-1.6,3.9-4,3.9C65.7,16.1,64.1,14.4,64.1,12.2z
		 M70.6,12.2c0-1.5-1.1-2.7-2.6-2.7c-1.5,0-2.6,1.2-2.6,2.7c0,1.5,1.1,2.7,2.6,2.7C69.6,14.9,70.6,13.7,70.6,12.2z"/>
	<path fill="#FFFFFF" d="M73.6,8.4H75v3.8l3.6-3.8h1.6l-3.2,3.3l3.3,4.3h-1.6l-2.6-3.4L75,13.8V16h-1.3C73.6,16,73.6,8.4,73.6,8.4z"
		/>
</g>
<rect x="12.1" y="8" fill="#FFFFFF" width="2" height="8"/>
<rect x="9.1" y="11" fill="#FFFFFF" width="8" height="2"/>
</svg>
