<svg width="60" height="47" viewBox="0 0 60 47" fill="none" xmlns="http://www.w3.org/2000/svg">
<g clip-path="url(#clip0)">
<path d="M56.49 40.05L8.54 46.09C6.35 46.37 4.35 44.81 4.07 42.62L0.0299994 10.54C-0.240001 8.35 1.31 6.35 3.5 6.07L51.45 0.0300005C53.64 -0.249999 55.64 1.31 55.92 3.5L59.96 35.58C60.24 37.77 58.68 39.77 56.49 40.05ZM3.75 8.06C2.66 8.19 1.88 9.2 2.02 10.29L6.06 42.37C6.2 43.46 7.2 44.24 8.29 44.1L56.24 38.06C57.33 37.92 58.11 36.92 57.97 35.83L53.94 3.75C53.8 2.66 52.8 1.88 51.7 2.02L3.75 8.06Z" fill="#FBBDCD"/>
<path d="M10.01 25.53L50.01 20.7L50.24 22.57L10.24 27.4L10.01 25.53Z" fill="#FBBDCD"/>
<path d="M16.4 29.06L17.22 35.71L15.99 35.86L15.64 33.01L12.2 33.43L12.55 36.28L11.32 36.43L10.5 29.78L11.73 29.63L12.07 32.37L15.51 31.95L15.17 29.21L16.4 29.06Z" fill="#F44270"/>
<path d="M22.98 33.95L23.11 34.99L18.13 35.6L17.31 28.95L22.16 28.35L22.29 29.39L18.67 29.83L18.88 31.56L22.09 31.17L22.21 32.19L19 32.58L19.22 34.41L22.98 33.95Z" fill="#F44270"/>
<path d="M31.14 32.94L31.44 35.4L30.3 35.54L30.13 34.13L25.03 34.76L25.2 36.17L24.05 36.31L23.76 33.85L24.05 33.81C24.47 33.74 24.72 33.39 24.81 32.78C24.9 32.16 24.9 31.29 24.8 30.17L24.62 28.05L29.49 27.45L30.18 33.05L31.14 32.94ZM25.95 32.33C25.91 32.92 25.79 33.35 25.59 33.62L28.96 33.21L28.4 28.65L25.8 28.97L25.9 30.15C25.97 31.02 25.99 31.74 25.95 32.33Z" fill="#F44270"/>
<path d="M36.9 32.24L37.03 33.28L32.05 33.89L31.23 27.24L36.08 26.64L36.21 27.68L32.59 28.12L32.8 29.85L36.01 29.46L36.13 30.48L32.92 30.87L33.15 32.7L36.9 32.24Z" fill="#F44270"/>
<path d="M43.65 25.72L44.47 32.37L43.26 32.52L42.57 26.92L39.95 27.24L40.1 28.91C40.18 29.84 40.2 30.61 40.15 31.2C40.1 31.79 39.96 32.26 39.73 32.59C39.5 32.92 39.15 33.12 38.68 33.18C38.51 33.2 38.29 33.2 37.99 33.17L37.94 32.09C38.03 32.1 38.12 32.11 38.23 32.09C38.62 32.04 38.86 31.78 38.97 31.3C39.08 30.82 39.09 30.09 39 29.09L38.76 26.32L43.65 25.72Z" fill="#F44270"/>
<path d="M44.58 25.6L45.79 25.45L46.37 30.17L49.36 25.01L50.51 24.87L51.33 31.52L50.11 31.67L49.53 26.96L46.54 32.11L45.39 32.25L44.58 25.6Z" fill="#F44270"/>
<path d="M15.86 15.59L13.19 15.92L14.02 22.71L12.54 22.89L11.71 16.1L9.05 16.43L8.9 15.16L15.71 14.32L15.86 15.59Z" fill="#F44270"/>
<path d="M18.87 21.68C18.17 21.4 17.59 20.97 17.13 20.39C16.68 19.8 16.4 19.12 16.3 18.34C16.2 17.56 16.3 16.83 16.6 16.15C16.9 15.47 17.35 14.91 17.97 14.48C18.59 14.04 19.3 13.77 20.13 13.67C20.95 13.57 21.71 13.66 22.42 13.93C23.12 14.21 23.7 14.64 24.15 15.22C24.6 15.8 24.88 16.49 24.98 17.28C25.08 18.07 24.98 18.8 24.68 19.48C24.38 20.16 23.92 20.71 23.31 21.15C22.69 21.59 21.98 21.86 21.15 21.96C20.33 22.05 19.57 21.96 18.87 21.68ZM22.4 20.09C22.8 19.8 23.1 19.42 23.29 18.95C23.48 18.49 23.54 17.99 23.48 17.45C23.41 16.91 23.23 16.44 22.93 16.04C22.63 15.64 22.25 15.34 21.79 15.15C21.33 14.96 20.83 14.9 20.3 14.97C19.76 15.04 19.29 15.22 18.89 15.51C18.49 15.8 18.19 16.18 18 16.65C17.81 17.11 17.75 17.61 17.81 18.15C17.88 18.69 18.06 19.16 18.36 19.56C18.66 19.96 19.04 20.26 19.5 20.45C19.96 20.64 20.46 20.7 20.99 20.63C21.53 20.57 22 20.39 22.4 20.09Z" fill="#F44270"/>
<path d="M32.49 16.91C32.8 17.21 32.98 17.61 33.05 18.11C33.14 18.82 32.94 19.4 32.47 19.85C32 20.31 31.27 20.59 30.28 20.72L26.46 21.19L25.47 13.14L29.07 12.7C29.97 12.59 30.7 12.68 31.25 12.98C31.8 13.28 32.12 13.76 32.2 14.42C32.25 14.84 32.19 15.22 32.03 15.55C31.87 15.88 31.6 16.15 31.24 16.36C31.76 16.42 32.18 16.6 32.49 16.91ZM27.36 16.38L29.36 16.13C29.84 16.07 30.2 15.93 30.43 15.71C30.66 15.49 30.75 15.19 30.7 14.81C30.65 14.43 30.49 14.16 30.22 14C29.94 13.84 29.56 13.78 29.08 13.84L27.08 14.09L27.36 16.38ZM31.53 18.17C31.43 17.39 30.86 17.06 29.8 17.19L27.5 17.47L27.79 19.84L30.09 19.56C31.14 19.44 31.62 18.97 31.53 18.17Z" fill="#F44270"/>
<path d="M39.67 17.66L35.64 18.16L35.07 20.12L33.53 20.31L36.17 11.81L37.64 11.63L42.27 19.24L40.71 19.43L39.67 17.66ZM39.03 16.55L37.08 13.22L36 16.93L39.03 16.55Z" fill="#F44270"/>
<path d="M47.23 10.8C47.78 10.97 48.21 11.25 48.54 11.64C48.87 12.04 49.07 12.53 49.14 13.12C49.21 13.7 49.14 14.23 48.91 14.7C48.69 15.17 48.33 15.55 47.84 15.84C47.35 16.13 46.76 16.32 46.06 16.41L44.24 16.63L44.53 18.95L43.03 19.13L42.04 11.08L45.35 10.67C46.07 10.6 46.69 10.64 47.23 10.8ZM47.28 14.56C47.58 14.24 47.7 13.83 47.64 13.31C47.58 12.8 47.36 12.42 46.99 12.19C46.62 11.96 46.11 11.88 45.46 11.96L43.71 12.17L44.1 15.37L45.85 15.16C46.5 15.07 46.98 14.87 47.28 14.56Z" fill="#F44270"/>
</g>
<defs>
<clipPath id="clip0">
<rect width="60" height="46.12" fill="white"/>
</clipPath>
</defs>
</svg>
