<?xml version="1.0" encoding="utf-8"?>
<!-- Generator: Adobe Illustrator 22.1.0, SVG Export Plug-In . SVG Version: 6.00 Build 0)  -->
<svg version="1.1" id="Слой_1" xmlns="http://www.w3.org/2000/svg" xmlns:xlink="http://www.w3.org/1999/xlink" x="0px" y="0px"
	 width="82.8px" height="64.3px" viewBox="0 0 82.8 64.3" enable-background="new 0 0 82.8 64.3" xml:space="preserve">
<g>
	<defs>
		<rect id="SVGID_1_" y="0" width="82.8" height="64.3"/>
	</defs>
	<clipPath id="SVGID_2_">
		<use xlink:href="#SVGID_1_"  overflow="visible"/>
	</clipPath>
	<path clip-path="url(#SVGID_2_)" fill="#70CF70" d="M78.1,54.6l-65.4,9.6c-3,0.4-5.8-1.6-6.2-4.6L0.1,15.9c-0.4-3,1.6-5.8,4.6-6.2
		l65.4-9.6c3-0.4,5.8,1.6,6.2,4.6l6.4,43.7C83.1,51.4,81.1,54.2,78.1,54.6 M5.1,12.4c-1.5,0.2-2.5,1.6-2.3,3.1l6.4,43.7
		c0.2,1.5,1.6,2.5,3.1,2.3l65.4-9.6c1.5-0.2,2.5-1.6,2.3-3.1L73.6,5.1c-0.2-1.5-1.6-2.5-3.1-2.3L5.1,12.4z"/>
	<path clip-path="url(#SVGID_2_)" fill="#70CF70" d="M14.4,29.9c-1-0.4-1.8-1-2.5-1.8c-0.7-0.8-1.1-1.8-1.2-2.9
		c-0.2-1.1,0-2.2,0.4-3.1c0.4-1,1-1.8,1.9-2.4c0.9-0.6,1.9-1,3-1.2c0.9-0.1,1.8-0.1,2.6,0.1c0.8,0.2,1.5,0.6,2.2,1.1l-1.2,1.5
		c-1-0.8-2-1.1-3.2-0.9c-0.8,0.1-1.5,0.4-2,0.8c-0.6,0.4-1,1-1.2,1.6c-0.3,0.7-0.3,1.4-0.2,2.1c0.1,0.8,0.4,1.4,0.8,2
		c0.4,0.6,1,1,1.7,1.2s1.4,0.3,2.2,0.2c1.2-0.2,2.1-0.8,2.8-1.8l1.6,1.1c-0.4,0.7-1,1.3-1.7,1.7c-0.7,0.4-1.6,0.7-2.5,0.9
		C16.4,30.4,15.4,30.3,14.4,29.9"/>
	<path clip-path="url(#SVGID_2_)" fill="#70CF70" d="M32.9,16.2l-3.6,9.9c-0.3,0.9-0.7,1.6-1.3,2.1c-0.5,0.5-1.2,0.8-1.9,0.9
		c-0.6,0.1-1.1,0-1.7-0.1l0.3-1.7c0.5,0.1,0.8,0.1,1.1,0c0.7-0.1,1.2-0.5,1.5-1.3l0.1-0.3l-5.8-7.8l2.3-0.3l4.3,6.2l2.5-7.2
		L32.9,16.2z"/>
	<polygon clip-path="url(#SVGID_2_)" fill="#70CF70" points="44.4,14.5 46.1,25.8 44,26.1 42.6,16.6 36.7,17.4 38.1,27 36,27.3 
		34.3,16 	"/>
	<polygon clip-path="url(#SVGID_2_)" fill="#70CF70" points="57.4,22.4 57.6,24.1 49.1,25.4 47.4,14 55.7,12.8 56,14.6 49.8,15.5 
		50.2,18.4 55.7,17.6 56,19.4 50.5,20.2 51,23.3 	"/>
	<path clip-path="url(#SVGID_2_)" fill="#70CF70" d="M65.8,11.8c0.8,0.2,1.4,0.6,1.9,1.1c0.5,0.5,0.8,1.2,0.9,2.1
		c0.1,0.8,0,1.6-0.3,2.2c-0.3,0.7-0.8,1.2-1.5,1.7c-0.7,0.4-1.5,0.7-2.5,0.9l-2.6,0.4l0.5,3.3l-2.1,0.3l-1.7-11.4l4.7-0.7
		C64.2,11.6,65,11.6,65.8,11.8 M66,17.1c0.4-0.5,0.6-1.1,0.5-1.8c-0.1-0.7-0.4-1.2-1-1.6c-0.5-0.3-1.3-0.4-2.2-0.3l-2.5,0.4l0.7,4.5
		L64,18C64.9,17.9,65.6,17.6,66,17.1"/>
	<polygon clip-path="url(#SVGID_2_)" fill="#70CF70" points="28.6,49 29.4,54.1 27.1,54.4 26.6,51.5 15.3,53.2 13.3,39.7 15.7,39.4 
		17.4,50.7 24.2,49.7 22.5,38.4 25,38 26.6,49.3 	"/>
	<polygon clip-path="url(#SVGID_2_)" fill="#70CF70" points="41,47.3 41.3,49.3 31.2,50.8 29.3,37.4 39.1,36 39.4,38.1 32.1,39.1 
		32.6,42.6 39,41.7 39.3,43.7 32.9,44.7 33.4,48.4 	"/>
	<polygon clip-path="url(#SVGID_2_)" fill="#70CF70" points="54,33.8 56,47.2 53.5,47.5 52.7,41.8 45.7,42.8 46.6,48.6 44.1,48.9 
		42.1,35.5 44.6,35.1 45.4,40.7 52.3,39.7 51.5,34.1 	"/>
	<path clip-path="url(#SVGID_2_)" fill="#70CF70" d="M68.2,42.2l-6.7,1l-0.9,3.3L58,46.9l4.1-14.3l2.5-0.4l8,12.5L70,45.1L68.2,42.2
		z M67.1,40.4l-3.4-5.5L62,41.1L67.1,40.4z"/>
	
		<rect x="12.1" y="30.2" transform="matrix(0.9894 -0.1453 0.1453 0.9894 -4.0612 6.3152)" clip-path="url(#SVGID_2_)" fill="#70CF70" width="58.1" height="1.6"/>
</g>
</svg>
