<?xml version="1.0" encoding="utf-8"?>
<!-- Generator: Adobe Illustrator 20.1.0, SVG Export Plug-In . SVG Version: 6.00 Build 0)  -->
<svg version="1.1" id="Layer_1" xmlns="http://www.w3.org/2000/svg" xmlns:xlink="http://www.w3.org/1999/xlink" x="0px" y="0px"
	 width="68px" height="24px" viewBox="0 0 68 24" enable-background="new 0 0 68 24" xml:space="preserve">
<polygon fill="#FF9900" points="61.9,24 0,24 0,0 68,0 "/>
<g>
	<path fill="#FFFFFF" d="M13.6,8.4h1.2l3.3,7.6h-1.4L16,14.2h-3.6L11.6,16h-1.4L13.6,8.4z M15.5,13l-1.3-3l-1.3,3H15.5z"/>
	<path fill="#FFFFFF" d="M19.5,8.4h1.3v3.8l3.6-3.8h1.6l-3.2,3.3l3.3,4.3h-1.6L22,12.6l-1.2,1.2V16h-1.3V8.4z"/>
	<path fill="#FFFFFF" d="M33.5,16h-5.9V8.4h1.3v6.4h3.6V8.4h1.3v6.4h0.9l-0.2,2.8h-1.1C33.5,17.6,33.5,16,33.5,16z"/>
	<path fill="#FFFFFF" d="M36.4,8.4h1.3V14l3.8-5.5h1.2V16h-1.3v-5.5L37.7,16h-1.3V8.4z"/>
	<path fill="#FFFFFF" d="M46.5,13.1c-1.1-0.3-1.8-1.1-1.8-2.3c0-1.5,1.1-2.4,2.8-2.4h3.4V16h-1.3v-2.6h-1.7L46,16h-1.6L46.5,13.1z
		 M49.6,12.2V9.6h-1.9c-1,0-1.6,0.5-1.6,1.3c0,0.8,0.6,1.3,1.6,1.3H49.6z"/>
</g>
</svg>
