<?xml version="1.0" encoding="utf-8"?>
<!-- Generator: Adobe Illustrator 20.1.0, SVG Export Plug-In . SVG Version: 6.00 Build 0)  -->
<svg version="1.1" id="Layer_1" xmlns="http://www.w3.org/2000/svg" xmlns:xlink="http://www.w3.org/1999/xlink" x="0px" y="0px"
	 width="48px" height="24px" viewBox="0 0 48 24" enable-background="new 0 0 48 24" xml:space="preserve">
<polygon fill="#F04057" points="41.9,24 0,24 0,0 48,0 "/>
<g>
	<path fill="#FFFFFF" d="M13.1,12.3l-2.7-3.7H12l1.9,2.7l1.9-2.7h1.5l-2.6,3.7l2.8,3.9h-1.6l-2-2.9l-2,2.9h-1.5L13.1,12.3z"/>
	<path fill="#FFFFFF" d="M18.8,8.6h1.3v5.5L24,8.6h1.2v7.6h-1.3v-5.5l-3.8,5.5h-1.3C18.8,16.2,18.8,8.6,18.8,8.6z"/>
	<path fill="#FFFFFF" d="M29,9.8h-2.4V8.6h6.2v1.2h-2.4v6.4H29V9.8z"/>
</g>
</svg>
