<?xml version="1.0" encoding="utf-8"?>
<!-- Generator: Adobe Illustrator 20.1.0, SVG Export Plug-In . SVG Version: 6.00 Build 0)  -->
<svg version="1.1" id="Layer_1" xmlns="http://www.w3.org/2000/svg" xmlns:xlink="http://www.w3.org/1999/xlink" x="0px" y="0px"
	 width="102px" height="24px" viewBox="0 0 102 24" enable-background="new 0 0 102 24" xml:space="preserve">
<polygon fill="#6666CC" points="95.9,24 0,24 0,0 102,0 "/>
<g>
	<path fill="#FFFFFF" d="M10.3,16l0.9-0.9c0.7,0.6,1.3,1,2.2,1c1.3,0,2.3-0.9,2.5-2.2h-3.4v-1.1h3.4c-0.2-1.2-1.2-2.1-2.5-2.1
		c-0.9,0-1.6,0.4-2.2,0.9l-0.8-0.9c0.7-0.7,1.5-1.2,2.9-1.2c2.3,0,3.9,1.8,3.9,3.9c0,2.2-1.6,3.9-3.9,3.9C12,17.3,11.1,16.8,10.3,16
		z"/>
	<path fill="#FFFFFF" d="M18.9,9.5h1.3v3.8l3.6-3.8h1.6l-3.2,3.3l3.3,4.3H24l-2.6-3.4l-1.2,1.2v2.2h-1.3V9.5z"/>
	<path fill="#FFFFFF" d="M25.9,13.3c0-2.2,1.6-3.9,3.9-3.9c1.4,0,2.2,0.5,3,1.2l-0.9,1c-0.6-0.6-1.3-0.9-2.1-0.9
		c-1.5,0-2.5,1.2-2.5,2.7c0,1.5,1.1,2.7,2.5,2.7c0.9,0,1.5-0.4,2.2-1l0.9,0.9c-0.8,0.8-1.7,1.3-3.1,1.3
		C27.5,17.3,25.9,15.5,25.9,13.3z"/>
	<path fill="#FFFFFF" d="M34.4,9.5h1.3v3.8l3.6-3.8H41l-3.2,3.3l3.3,4.3h-1.6l-2.6-3.4l-1.2,1.2v2.2h-1.3L34.4,9.5L34.4,9.5z"/>
	<path fill="#FFFFFF" d="M42.1,17.1l0.1-1.1c0.1,0,0.3,0.1,0.4,0.1c0.8,0,1.5-0.5,1.5-5V9.5h5.2v7.6H48v-6.4h-2.6v0.7
		c0,4.8-0.9,5.8-2.4,5.8C42.7,17.2,42.3,17.2,42.1,17.1z"/>
	<path fill="#FFFFFF" d="M53.7,13.9h-1.2v3.2h-1.3V9.5h1.3v3.2h1.3c0.2-1.9,1.7-3.3,3.6-3.3c2.2,0,3.6,1.7,3.6,3.9
		c0,2.2-1.5,3.9-3.7,3.9C55.4,17.3,54,15.8,53.7,13.9z M59.7,13.3c0-1.5-1-2.7-2.3-2.7c-1.3,0-2.3,1.2-2.3,2.7
		c0,1.5,0.9,2.7,2.3,2.7C58.7,16.1,59.7,14.9,59.7,13.3z"/>
	<path fill="#FFFFFF" d="M67.7,11.4c0,1-0.6,1.5-1.3,1.8c0.8,0.3,1.5,0.8,1.5,1.8c0,1.3-1.1,2.2-2.8,2.2c-1.5,0-2.4-0.4-3.3-1.2
		l0.7-0.9c0.7,0.6,1.5,1,2.5,1c0.8,0,1.5-0.4,1.5-1.1c0-0.8-0.7-1.1-1.7-1.1h-0.9v-1.1h0.8c1,0,1.6-0.4,1.6-1.1
		c0-0.6-0.6-1.1-1.4-1.1c-0.9,0-1.6,0.3-2.1,0.8l-0.7-0.9c0.7-0.7,1.6-1.1,2.9-1.1C66.6,9.4,67.7,10.3,67.7,11.4z"/>
	<path fill="#FFFFFF" d="M69.4,9.5h1.3v5.5l3.8-5.5h1.2v7.6h-1.3v-5.5l-3.8,5.5h-1.3C69.4,17.1,69.4,9.5,69.4,9.5z"/>
	<path fill="#FFFFFF" d="M77.8,9.5h3.4c0.9,0,1.6,0.2,2,0.7c0.3,0.3,0.5,0.7,0.5,1.3c0,0.9-0.5,1.4-1.1,1.7c0.9,0.3,1.5,0.8,1.5,1.9
		c0,1.4-1.1,2.1-2.8,2.1h-3.5L77.8,9.5L77.8,9.5z M80.9,12.7c0.9,0,1.4-0.3,1.4-1.1c0-0.6-0.5-1-1.3-1h-1.9v2
		C79.1,12.7,80.9,12.7,80.9,12.7z M81.3,16c0.9,0,1.5-0.4,1.5-1.1c0-0.6-0.5-1-1.6-1h-2.1V16L81.3,16L81.3,16z"/>
</g>
</svg>
