<svg width="61" height="48" viewBox="0 0 61 48" fill="none" xmlns="http://www.w3.org/2000/svg">
<path d="M10.5107 21.8587C9.78068 21.5897 9.17468 21.1597 8.69568 20.5667C8.21668 19.9737 7.91768 19.2697 7.79768 18.4547C7.67768 17.6387 7.76468 16.8777 8.05768 16.1727C8.34968 15.4667 8.80768 14.8797 9.42968 14.4127C10.0527 13.9447 10.7837 13.6497 11.6217 13.5267C12.3027 13.4267 12.9417 13.4547 13.5387 13.6097C14.1357 13.7647 14.6617 14.0387 15.1157 14.4327L14.2567 15.5167C13.5597 14.9557 12.7717 14.7407 11.8937 14.8697C11.3237 14.9537 10.8317 15.1527 10.4167 15.4687C10.0017 15.7847 9.70068 16.1827 9.51268 16.6627C9.32468 17.1437 9.27168 17.6647 9.35468 18.2267C9.43768 18.7887 9.63768 19.2717 9.95568 19.6777C10.2737 20.0837 10.6777 20.3787 11.1647 20.5617C11.6527 20.7447 12.1817 20.7947 12.7507 20.7107C13.6297 20.5817 14.3207 20.1457 14.8267 19.3997L15.9627 20.2037C15.6417 20.7117 15.2147 21.1257 14.6847 21.4467C14.1537 21.7667 13.5477 21.9777 12.8667 22.0777C12.0267 22.2007 11.2417 22.1277 10.5107 21.8587Z" fill="#70CF70"/>
<path d="M24.0347 11.8246L21.4107 19.0626C21.1807 19.7036 20.8687 20.2036 20.4727 20.5646C20.0767 20.9256 19.6217 21.1446 19.1077 21.2206C18.6967 21.2816 18.2747 21.2536 17.8467 21.1386L18.0487 19.8716C18.3887 19.9276 18.6647 19.9386 18.8787 19.9076C19.3777 19.8346 19.7507 19.5176 19.9997 18.9546L20.1017 18.7336L15.8787 13.0226L17.5287 12.7806L20.7027 17.2996L22.5157 12.0486L24.0347 11.8246Z" fill="#70CF70"/>
<path d="M32.4636 10.5867L33.6846 18.8977L32.1656 19.1207L31.1366 12.1157L26.8266 12.7487L27.8556 19.7537L26.3356 19.9767L25.1146 11.6657L32.4636 10.5867Z" fill="#70CF70"/>
<path d="M41.9627 16.3596L42.1517 17.6536L35.9187 18.5696L34.6987 10.2586L40.7647 9.36755L40.9547 10.6606L36.4307 11.3256L36.7477 13.4866L40.7617 12.8966L40.9497 14.1676L36.9347 14.7566L37.2717 17.0476L41.9627 16.3596Z" fill="#70CF70"/>
<path d="M48.1307 8.64961C48.7007 8.80761 49.1597 9.08861 49.5087 9.48961C49.8607 9.89061 50.0787 10.3966 50.1687 11.0066C50.2577 11.6076 50.1917 12.1536 49.9717 12.6426C49.7527 13.1316 49.3947 13.5336 48.8947 13.8506C48.3957 14.1666 47.7857 14.3766 47.0657 14.4826L45.1897 14.7586L45.5427 17.1566L43.9987 17.3836L42.7777 9.07261L46.1967 8.57061C46.9157 8.46461 47.5617 8.49061 48.1307 8.64961ZM48.2697 12.5346C48.5767 12.1976 48.6917 11.7646 48.6137 11.2346C48.5367 10.7046 48.3007 10.3226 47.9117 10.0886C47.5207 9.85461 46.9897 9.78761 46.3167 9.88561L44.5117 10.1506L44.9967 13.4516L46.8017 13.1856C47.4747 13.0886 47.9647 12.8706 48.2697 12.5346Z" fill="#70CF70"/>
<path d="M20.9387 35.8697L21.4817 39.5717L19.7987 39.8187L19.4817 37.6587L11.1517 38.8837L9.70972 29.0687L11.5047 28.8037L12.7197 37.0767L17.6697 36.3497L16.4547 28.0767L18.2637 27.8107L19.4787 36.0837L20.9387 35.8697Z" fill="#70CF70"/>
<path d="M29.9717 34.5566L30.1957 36.0846L22.8337 37.1656L21.3917 27.3506L28.5577 26.2986L28.7817 27.8266L23.4397 28.6126L23.8147 31.1636L28.5547 30.4686L28.7747 31.9686L24.0347 32.6646L24.4327 35.3716L29.9717 34.5566Z" fill="#70CF70"/>
<path d="M39.5097 24.6896L40.9507 34.5046L39.1277 34.7736L38.5097 30.5666L33.4337 31.3126L34.0517 35.5186L32.2287 35.7866L30.7877 25.9716L32.6097 25.7036L33.2057 29.7566L38.2827 29.0106L37.6867 24.9586L39.5097 24.6896Z" fill="#70CF70"/>
<path d="M49.8727 30.8746L44.9657 31.5956L44.3317 34.0096L42.4507 34.2856L45.4277 23.8206L47.2227 23.5576L53.0947 32.7216L51.1887 33.0016L49.8727 30.8746ZM49.0587 29.5336L46.5777 25.5146L45.3717 30.0746L49.0587 29.5336Z" fill="#70CF70"/>
<path d="M57.0997 39.9477L9.27968 46.9707C7.09768 47.2917 5.06168 45.7757 4.74068 43.5947L0.042684 11.6057C-0.277316 9.42368 1.23668 7.38768 3.41868 7.06668L51.2387 0.042684C53.4227 -0.277316 55.4577 1.23668 55.7777 3.41868L60.4767 35.4087C60.7977 37.5907 59.2827 39.6277 57.0997 39.9477ZM3.70968 9.04468C2.61868 9.20568 1.86168 10.2237 2.02168 11.3147L6.71968 43.3047C6.87968 44.3957 7.89768 45.1537 8.98968 44.9927L56.8097 37.9687C57.9007 37.8087 58.6587 36.7897 58.4977 35.6987L53.7977 3.70868C53.6377 2.61868 52.6197 1.86068 51.5287 2.02068L3.70968 9.04468Z" fill="#70CF70" fill-opacity="0.5"/>
<path d="M51.0733 18.9766L9.02283 25.152L9.19239 26.3066L51.2429 20.1312L51.0733 18.9766Z" fill="#70CF70" fill-opacity="0.5"/>
</svg>
