<?xml version="1.0" encoding="utf-8"?>
<!-- Generator: Adobe Illustrator 21.0.2, SVG Export Plug-In . SVG Version: 6.00 Build 0)  -->
<svg version="1.1" id="Слой_1" xmlns="http://www.w3.org/2000/svg" xmlns:xlink="http://www.w3.org/1999/xlink" x="0px" y="0px"
	 width="272.7px" height="500px" viewBox="0 0 272.7 500" enable-background="new 0 0 272.7 500" xml:space="preserve">
<path d="M0.6,251c0-10.2,3.8-20,10.6-27.6L198.5,16c15.6-17.1,42-18.7,59.5-3.5c17.1,14.9,18.9,40.9,4,58c-0.2,0.2-0.3,0.4-0.5,0.6
	L99.1,251l162.5,179.9c15.2,16.9,13.9,42.9-3,58.2c-0.2,0.1-0.3,0.3-0.5,0.4c-17.5,15.2-43.9,13.7-59.5-3.4L11.2,278.6
	C4.3,271,0.6,261.2,0.6,251z"/>
</svg>
