<?xml version="1.0" encoding="utf-8"?>
<!-- Generator: Adobe Illustrator 21.1.0, SVG Export Plug-In . SVG Version: 6.00 Build 0)  -->
<svg version="1.1" id="Layer_1" xmlns="http://www.w3.org/2000/svg" xmlns:xlink="http://www.w3.org/1999/xlink" x="0px" y="0px"
	 width="1226.1px" height="500px" viewBox="0 0 1226.1 500" enable-background="new 0 0 1226.1 500" xml:space="preserve">
<path id="_1год" fill="#FF9900" d="M188.9,435.2V0h-64.8L0,37l19.8,77.8l75.3-18.5v338.9H188.9z M568.2,159.5H367.1v275.7h78.2
	V226.3h122.9V159.5z M885.6,297.8c0.8-38.5-14.6-75.5-42.4-102.1c-60.3-55.3-152.8-55.2-213,0.3c-56.5,55.3-57.4,146-2.1,202.4
	c0.5,0.5,1,1,1.5,1.5c60.3,55.3,152.8,55.2,213-0.3C870.7,373.3,886.3,336.3,885.6,297.8L885.6,297.8L885.6,297.8z M684.8,351.6
	c-13.4-14.6-20.7-33.9-20.3-53.8c-0.6-19.9,6.4-39.3,19.5-54.3c13.2-14.7,32.2-22.7,52-21.9c19.9-0.6,39,7.6,52.2,22.4
	c13.4,14.6,20.7,33.9,20.3,53.8c0.6,19.9-6.4,39.3-19.5,54.3c-13.2,14.7-32.2,22.7-52,21.9C717.1,374.6,698,366.4,684.8,351.6z
	 M1036.8,232.5v-6.2h73.6v142h-94.1C1029.3,337.1,1036.1,291.8,1036.8,232.5L1036.8,232.5L1036.8,232.5z M1151,500h65.8l9.3-131.7
	h-37.6V159.5H963.3v23.7c0,85.4-8.9,147.1-26.7,185.2h-29.8V500h65.8l5.7-64.8H1151V500z"/>
</svg>
