<svg width="28" height="28" viewBox="0 0 28 28" fill="none" xmlns="http://www.w3.org/2000/svg">
<path d="M13.0783 0.170428L1.70111 4.51097C0.678257 4.90051 0 5.90217 0 7.01513V19.5415C0 20.5543 0.563391 21.478 1.4495 21.9288L12.8267 27.7162C13.5651 28.0946 14.4349 28.0946 15.1733 27.7162L26.5505 21.9288C27.4421 21.478 28 20.5487 28 19.5415V7.01513C28 5.90217 27.3217 4.90607 26.2989 4.51654L14.9217 0.175993C14.3309 -0.0577285 13.6745 -0.0577285 13.0783 0.170428ZM14.0027 3.62617L24.5048 7.63283V7.69404L14.0027 12.0346L3.50068 7.69404V7.63283L14.0027 3.62617ZM15.7531 23.4369V15.1509L24.5048 11.5338V18.985L15.7531 23.4369Z" fill="#999999"/>
</svg>
