<svg width="36" height="28" viewBox="0 0 36 28" fill="none" xmlns="http://www.w3.org/2000/svg">
<path d="M31.9267 17.5H12.0898L12.4638 19.25H30.8877C31.7678 19.25 32.4201 20.0321 32.225 20.8534L31.9098 22.181C32.9778 22.6772 33.7143 23.725 33.7143 24.9375C33.7143 26.6439 32.2561 28.0243 30.4672 27.9997C28.763 27.9762 27.3615 26.6527 27.3155 25.0221C27.2903 24.1314 27.6632 23.3241 28.2757 22.7499H13.2101C13.803 23.3059 14.1714 24.0803 14.1714 24.9375C14.1714 26.6773 12.6555 28.0783 10.8189 27.9966C9.188 27.9241 7.86166 26.663 7.77594 25.1027C7.70977 23.8977 8.37229 22.8356 9.37886 22.2816L5.36474 3.5H1.37143C0.614 3.5 0 2.91238 0 2.1875V1.3125C0 0.587617 0.614 0 1.37143 0H7.23023C7.88172 0 8.44326 0.438648 8.57383 1.04945L9.0976 3.5H34.628C35.5081 3.5 36.1604 4.28208 35.9653 5.10338L33.264 16.4784C33.1221 17.076 32.567 17.5 31.9267 17.5Z" fill="#A8A7F4"/>
</svg>
