<svg width="17" height="18" viewBox="0 0 17 18" fill="none" xmlns="http://www.w3.org/2000/svg">
<path d="M8.5 0.5C3.80557 0.5 0 4.30557 0 9C0 13.6944 3.80557 17.5 8.5 17.5C13.1944 17.5 17 13.6944 17 9C17 4.30557 13.1944 0.5 8.5 0.5ZM8.5 2.14516C12.2884 2.14516 15.3548 5.21102 15.3548 9C15.3548 12.7884 12.289 15.8548 8.5 15.8548C4.71161 15.8548 1.64516 12.789 1.64516 9C1.64516 5.21161 4.71102 2.14516 8.5 2.14516ZM13.3054 6.60996L12.533 5.83132C12.373 5.67006 12.1126 5.66899 11.9513 5.82899L7.10662 10.6348L5.05729 8.56883C4.89734 8.40757 4.63692 8.40651 4.47566 8.56647L3.69699 9.33887C3.53573 9.49883 3.53466 9.75924 3.69466 9.92054L6.8061 13.0572C6.96606 13.2184 7.22647 13.2195 7.38773 13.0595L13.3031 7.19163C13.4643 7.03163 13.4653 6.77122 13.3054 6.60996Z" fill="#66BC10"/>
</svg>
