<?xml version="1.0" encoding="utf-8"?>
<!-- Generator: Adobe Illustrator 21.0.2, SVG Export Plug-In . SVG Version: 6.00 Build 0)  -->
<svg version="1.1" id="Слой_1" xmlns="http://www.w3.org/2000/svg" xmlns:xlink="http://www.w3.org/1999/xlink" x="0px" y="0px"
	 width="500px" height="520px" viewBox="0 0 500 520" enable-background="new 0 0 500 520" xml:space="preserve">
<path opacity="0.99" enable-background="new    " d="M476.3,518c-5.5,0-10.8-2.3-14.5-6.3L9.2,38.7c-8-8.5-8-21.9,0-30.4
	c7.5-8,20.1-8.4,28.2-0.9C37.7,7.7,38,8,38.3,8.3l452.6,473c8,8.4,8,22,0,30.4C487,515.7,481.8,518,476.3,518z"/>
<path d="M496.9,23.5c0,5.5-2,11-6,15.2l-452.6,473c-7.5,8-20.1,8.4-28.2,0.9c-0.3-0.3-0.6-0.6-0.9-0.9c-8-8.5-8-21.9,0-30.4
	l452.6-473c7.5-8,20.1-8.4,28.2-0.9c0.3,0.3,0.6,0.6,0.9,0.9C494.8,12.5,496.9,18,496.9,23.5z"/>
</svg>
