<?xml version="1.0" encoding="utf-8"?>
<!-- Generator: Adobe Illustrator 20.1.0, SVG Export Plug-In . SVG Version: 6.00 Build 0)  -->
<svg version="1.1" id="Слой_1" xmlns="http://www.w3.org/2000/svg" xmlns:xlink="http://www.w3.org/1999/xlink" x="0px" y="0px"
	 width="500px" height="500px" viewBox="0 0 500 500" enable-background="new 0 0 500 500" xml:space="preserve">
<title>close_12x12_ico</title>
<desc>Created with Sketch.</desc>
<g id="Состояния-элементов-и-блоков" transform="translate(-1090.000000, -329.000000)">
	<g id="Group-81" transform="translate(1090.000000, 328.000000)">
		<g id="close_12x12_ico" transform="translate(0.000000, 1.000000)">
			<path id="Shape" fill="#999999" d="M461.9,500.2c-9.8,0-19.5-3.7-26.9-11.2L11.2,65.3c-14.9-14.9-14.9-39,0-53.9s39-14.9,53.9,0
				l423.8,423.8c14.9,14.8,14.9,39,0,53.9C481.4,496.5,471.7,500.2,461.9,500.2z"/>
			<path id="Shape_1_" fill="#999999" d="M500,38.3c0,9.8-3.8,19.5-11.2,27L65.1,489c-14.9,14.9-39,14.9-53.9,0
				c-14.9-14.9-14.9-39,0-53.9L434.9,11.4c14.9-14.9,39.1-14.9,53.9,0C496.3,18.8,500,28.5,500,38.3z"/>
		</g>
	</g>
</g>
</svg>
