<?xml version="1.0" encoding="utf-8"?>
<!-- Generator: Adobe Illustrator 21.0.2, SVG Export Plug-In . SVG Version: 6.00 Build 0)  -->
<svg version="1.1" id="Layer_1" xmlns="http://www.w3.org/2000/svg" xmlns:xlink="http://www.w3.org/1999/xlink" x="0px" y="0px"
	 width="502.1px" height="500px" viewBox="0 0 502.1 500" enable-background="new 0 0 502.1 500" xml:space="preserve">
<path d="M304,250L488.9,65.1c7.5-7.5,11.2-17.2,11.2-27c0-9.8-3.8-19.5-11.2-27c-14.8-14.9-39-14.9-53.9,0L250,196.1L65.1,11.2
	c-14.9-14.9-39-14.9-53.9,0c-14.9,14.9-14.9,39,0,53.9L196.1,250l-185,185c-14.9,14.9-14.9,39,0,53.9c14.9,14.9,39,14.9,53.9,0
	l185-185l185,184.9c7.4,7.5,17.2,11.2,26.9,11.2c9.8,0,19.5-3.7,27-11.1c14.9-14.9,14.9-39.1,0-53.9L304,250z"/>
</svg>
