<svg width="15" height="15" viewBox="0 0 15 15" fill="none" xmlns="http://www.w3.org/2000/svg">
<path d="M11.0053 7.5L14.7272 3.77805C15.0909 3.41437 15.0909 2.82628 14.7272 2.4626L12.5374 0.272762C12.1737 -0.0909208 11.5856 -0.0909208 11.2219 0.272762L7.5 3.99471L3.77805 0.272762C3.41437 -0.0909208 2.82628 -0.0909208 2.4626 0.272762L0.272762 2.4626C-0.0909208 2.82628 -0.0909208 3.41437 0.272762 3.77805L3.99471 7.5L0.272762 11.2219C-0.0909208 11.5856 -0.0909208 12.1737 0.272762 12.5374L2.4626 14.7272C2.82628 15.0909 3.41437 15.0909 3.77805 14.7272L7.5 11.0053L11.2219 14.7272C11.5856 15.0909 12.1737 15.0909 12.5374 14.7272L14.7272 12.5374C15.0909 12.1737 15.0909 11.5856 14.7272 11.2219L11.0053 7.5Z" fill="#7D7D7D"/>
</svg>
