<?xml version="1.0" encoding="utf-8"?>
<!-- Generator: Adobe Illustrator 20.1.0, SVG Export Plug-In . SVG Version: 6.00 Build 0)  -->
<svg version="1.1" id="Layer_1" xmlns="http://www.w3.org/2000/svg" xmlns:xlink="http://www.w3.org/1999/xlink" x="0px" y="0px"
	 width="616.7px" height="500px" viewBox="0 0 616.7 500" enable-background="new 0 0 616.7 500" xml:space="preserve">
<g>
	<path fill="#FFFFFF" d="M97.1,463c10.9-16.5,20.3-32.8,28.1-48.3c-72-43-113.4-107.3-113.4-176.6c0-124,133.3-224.8,297.2-224.8
		s297.2,100.8,297.2,224.8S472.9,462.8,309,462.8c-38.3,0-75.6-5.5-111-16.3l-0.1,0l0,0c-25.3,13.7-54.3,24.6-88.9,33.2l-27.6,6.9
		L97.1,463z"/>
	<g>
		<g>
			<path fill="#FF9933" d="M447.9,171.5H170.1c-4.6,0-8.4-3.7-8.4-8.3c0-4.6,3.7-8.3,8.4-8.3h277.7c4.6,0,8.3,3.7,8.3,8.3
				C456.2,167.8,452.5,171.5,447.9,171.5z"/>
			<path fill="#FF9933" d="M447.9,243.7H170.1c-4.6,0-8.4-3.7-8.4-8.3c0-4.6,3.7-8.3,8.4-8.3h277.7c4.6,0,8.3,3.7,8.3,8.3
				C456.2,240,452.5,243.7,447.9,243.7z"/>
			<path fill="#FF9933" d="M397.8,315.9H170.1c-4.6,0-8.4-3.7-8.4-8.3c0-4.6,3.7-8.3,8.4-8.3h227.7c4.6,0,8.3,3.7,8.3,8.3
				C406.2,312.2,402.4,315.9,397.8,315.9z"/>
		</g>
		<path fill="#FF9933" d="M55.6,500l16.6-22.9c15.2-20.9,28.1-41.4,38.5-61.1c-70.1-44.9-110-110.2-110-180.4C0.7,105.7,139,0,309,0
			c170,0,308.3,105.7,308.3,235.6S479,471.2,309,471.2c-37.8,0-74.7-5.2-109.8-15.4c-40.6,21.3-83,31.7-115.7,38.5L55.6,500z
			 M309,21.9c-157.8,0-286.1,95.9-286.1,213.7c0,65.3,39.4,126.2,108.1,167.1l8.7,5.2l-4.5,9c-8,16.1-17.7,32.7-28.8,49.7
			c26.9-6.7,57.3-16.5,86.2-32.2l4.1-2.2l4.5,1.4c34.4,10.5,70.6,15.8,107.8,15.8c157.8,0,286.1-95.9,286.1-213.7
			C595.1,117.8,466.8,21.9,309,21.9z"/>
	</g>
</g>
</svg>
