<?xml version="1.0" encoding="utf-8"?>
<!-- Generator: Adobe Illustrator 19.0.1, SVG Export Plug-In . SVG Version: 6.00 Build 0)  -->
<svg version="1.1" id="Слой_1" xmlns="http://www.w3.org/2000/svg" xmlns:xlink="http://www.w3.org/1999/xlink" x="0px" y="0px"
	 viewBox="570 -233 1256.2 500" style="enable-background:new 570 -233 1256.2 500;" xml:space="preserve">
<g>
	<path d="M566.6,208v-76.1L711,13.9c28-23.3,48.1-41.9,59-57.5c10.9-14,15.5-29.5,15.5-48.1c0-17.1-4.7-31.1-15.5-41.9
		c-10.9-9.3-24.8-15.5-41.9-15.5c-15.5,0-31.1,4.7-43.5,14c-14,10.9-29.5,24.8-46.6,46.6l-66.8-54.3c23.3-31.1,46.6-54.3,69.9-68.3
		c24.8-14,54.3-21.7,91.6-21.7c45,0,80.7,12.4,108.7,37.3c28,24.8,40.4,57.5,40.4,97.8c0,23.3-4.7,45-14,63.7
		c-9.3,18.7-20.1,35.5-35.6,49.4c-14,14-35.7,32.6-65.2,54.3L695.6,124H885v82.3H566.7L566.6,208L566.6,208z"/>
	<path d="M1201.7,208h-155.3l-4.7,59h-59V147.4h26.4c15.5-34.2,24.8-90.1,24.8-167.7V-42h202v189.4h34.2l-7.8,119.6h-59v-59H1201.7z
		 M1080.6,147.4h85.4V18.6h-66.8v6.2C1097.7,79.1,1091.5,119.5,1080.6,147.4z"/>
	<path d="M1537.1-42v250h-71.4v-94.7h-87V208h-71.4V-42h71.4v96.3h87V-42H1537.1z"/>
	<path d="M1822.9-42v250h-71.5v-80.7h-38.8l-52.8,80.7h-82.3l63.7-91.6c-34.2-14-52.8-38.8-52.8-74.5c0-24.8,9.3-45,26.4-60.6
		c17.1-15.6,41.9-23.3,74.5-23.3C1689.3-42,1822.9-42,1822.9-42z M1703.3,77.6h48.1V15.4h-48.1c-12.4,0-23.3,3.1-31.1,7.8
		s-10.8,14-10.8,23.3s3.1,17.1,10.9,23.3C1680,76,1690.9,77.6,1703.3,77.6z"/>
</g>
</svg>
