<?xml version="1.0" encoding="utf-8"?>
<!-- Generator: Adobe Illustrator 19.0.1, SVG Export Plug-In . SVG Version: 6.00 Build 0)  -->
<svg version="1.1" id="Слой_1" xmlns="http://www.w3.org/2000/svg" xmlns:xlink="http://www.w3.org/1999/xlink" x="0px" y="0px"
	 viewBox="950 -233 2015.5 500" style="enable-background:new 950 -233 2015.5 500;" xml:space="preserve">
<g>
	<path d="M1118.8,215.9c-71.2,0-126.9-24.8-168.7-74.3l65-61.9c31,34.1,66.6,52.6,105.3,52.6c18.6,0,32.5-4.6,44.9-13.9
		s17-23.2,17-38.7c0-17-7.7-31-21.7-40.2c-15.5-9.3-35.6-13.9-61.9-13.9h-41.8l-15.5-60.4l103.7-103.7H974.8v-86.7h292.6v71.2
		L1157.4-48.8c77.4,13.9,116.1,54.1,116.1,122.3c0,41.8-13.9,75.9-41.8,102.2C1203.8,201.9,1166.8,215.9,1118.8,215.9z"/>
	<path d="M1674.4,150.9c-35.6,43.3-82,63.5-139.3,63.5c-57.3,0-103.7-21.7-139.3-63.5s-52.6-96-52.6-161
		c0-63.5,18.6-117.6,54.2-159.4c35.6-41.8,82-63.5,139.3-63.5c57.3,0,102.2,21.7,137.8,63.5s54.2,96,54.2,161
		C1728.7,54.9,1711.7,109.1,1674.4,150.9z M1468.6,90.5c17,26.3,40.2,38.7,69.7,38.7c27.9,0,51.1-12.4,68.1-38.7
		s26.3-58.8,26.3-99.1s-9.3-72.8-26.3-99.1s-40.2-38.7-68.1-38.7c-27.9,0-51.1,12.4-68.1,38.7c-17,26.4-26.3,58.9-26.3,99.1
		C1442.3,31.7,1450.1,64.2,1468.6,90.5z"/>
	<path d="M2052.1,208.1h-156.3l-4.6,58.8h-58.8V147.8h26.3c15.4-34.1,24.7-89.8,24.7-167.2v-21.7h202.8v188.9h34.1l-7.7,119.2h-60.4
		v-58.9H2052.1z M1929.8,147.8h85.1V19.3h-66.5v6.2C1948.4,78.1,1942.3,119.9,1929.8,147.8z"/>
	<path d="M2386.6-41.1v249.2h-71.2v-94.4h-86.7v94.4h-71.2V-41.1h71.2v96h86.7v-96H2386.6z"/>
	<path d="M2567.6,214.3c-37.2,0-69.7-12.4-92.9-35.6s-37.2-55.7-37.2-92.9c0-35.6,12.4-66.6,35.6-91.3
		c23.2-24.8,52.6-37.2,88.2-37.2c38.7,0,69.7,12.4,89.8,38.7c20.1,26.3,31,58.8,31,96c0,3.1,0,9.3-1.5,18.6h-173.4
		c3.1,15.5,10.8,27.9,20.1,35.6c9.3,7.7,23.2,12.4,40.2,12.4c21.7,0,41.8-7.7,60.4-26.3l40.2,35.6
		C2645.1,198.8,2611.1,214.3,2567.6,214.3z M2507.3,64.2h106.8c-1.5-15.5-7.7-29.4-17-38.7s-21.7-13.9-35.6-13.9
		c-13.9,0-26.3,4.6-35.6,13.9C2516.6,34.8,2510.4,47.1,2507.3,64.2z"/>
	<path d="M2965.4-41.1v249.2h-68.1V62.6l-97.5,145.5h-66.6V-41.1h68.1v145.5l97.5-145.5C2898.9-41.1,2965.4-41.1,2965.4-41.1z
		 M2905.1-82.9c-13.9,12.4-31,18.6-52.6,18.6c-21.7,0-38.7-6.2-52.6-18.6c-13.9-12.4-21.7-29.4-24.8-52.6l41.8-7.7
		c6.2,20.1,18.6,31,37.2,31c18.6,0,31-10.8,37.2-31l41.8,7.7C2926.8-112.3,2919.1-95.3,2905.1-82.9z"/>
</g>
</svg>
