<?xml version="1.0" encoding="utf-8"?>
<!-- Generator: Adobe Illustrator 20.1.0, SVG Export Plug-In . SVG Version: 6.00 Build 0)  -->
<svg version="1.1" id="Layer_1" xmlns="http://www.w3.org/2000/svg" xmlns:xlink="http://www.w3.org/1999/xlink" x="0px" y="0px"
	 width="502.6px" height="500px" viewBox="0 0 502.6 500" enable-background="new 0 0 502.6 500" xml:space="preserve">
<path d="M251,0C113,0,1,111.9,1,250c0,138.1,112,250,250,250c138.1,0,250-111.9,250-250C501,111.9,389.1,0,251,0z M310.2,172.8
	h-37.5c-4.4,0-9.4,5.9-9.4,13.7v27.1h47v38.7h-47v116h-44.3v-116h-40.2v-38.7h40.2v-22.7c0-32.6,22.6-59.1,53.7-59.1h37.5
	L310.2,172.8L310.2,172.8z"/>
</svg>
