<?xml version="1.0" encoding="utf-8"?>
<!-- Generator: Adobe Illustrator 20.1.0, SVG Export Plug-In . SVG Version: 6.00 Build 0)  -->
<svg version="1.1" id="Layer_1" xmlns="http://www.w3.org/2000/svg" xmlns:xlink="http://www.w3.org/1999/xlink" x="0px" y="0px"
	 width="502.6px" height="500px" viewBox="0 0 502.6 500" enable-background="new 0 0 502.6 500" xml:space="preserve">
<path d="M227.4,179.1c-6.3-22.2-16.5-28.7-32.3-28.7c-1.7,0-3.4,0.2-5.1,0.7c-6.9,1.9-12.3,7.6-15.3,16.1
	c-3.1,8.7-3.3,17.6-0.6,27.9c4.8,18.3,17.8,31.6,30.9,31.6c1.7,0,3.4-0.3,5-0.7C224.4,222,233.4,200.1,227.4,179.1z M251,0
	C112.9,0,1,111.9,1,250s111.9,250,250,250c138.1,0,250-111.9,250-250S389.1,0,251,0z M236.5,357.6c-15.8,7.7-32.7,8.5-39.2,8.5
	c-1.2,0-2,0-2.1,0c0,0-0.5,0-1.3,0c-10.2,0-61.1-2.4-61.1-48.8c0-45.6,55.5-49.1,72.5-49.1h0.4c-9.8-13.1-7.8-26.3-7.8-26.3
	c-0.8,0-2.1,0.1-3.7,0.1c-6.4,0-18.7-1-29.3-7.9c-13-8.3-19.5-22.5-19.5-42.3c0-55.6,60.7-57.9,61.3-57.9h60.7v1.3
	c0,6.8-12.2,8.1-20.5,9.2c-2.8,0.4-8.5,1-10,1.8c15.3,8.2,17.8,21.1,17.8,40.3c0,21.9-8.5,33.4-17.7,41.5c-5.6,5-10,9-10,14.3
	c0,5.2,6.1,10.5,13.1,16.7c11.5,10.1,27.3,24,27.3,47.2C267.3,330.5,257,347.7,236.5,357.6z M369.2,249.8h-39.5v39.6h-25.1v-39.6
	H265v-25h39.5v-39.6h25.1v39.6h39.5V249.8z M204.6,280.1c-1.4,0-2.8,0-4.1,0.1c-11.6,0.9-22.3,5.2-30.1,12.2
	c-7.7,6.9-11.6,15.7-11,24.5c1.2,18.6,21.1,29.4,45.2,27.7c23.8-1.8,39.7-15.5,38.6-34C242.2,293.2,227,280.1,204.6,280.1z"/>
</svg>
