<?xml version="1.0" encoding="utf-8"?>
<!-- Generator: Adobe Illustrator 22.1.0, SVG Export Plug-In . SVG Version: 6.00 Build 0)  -->
<svg version="1.1" id="Слой_1" xmlns="http://www.w3.org/2000/svg" xmlns:xlink="http://www.w3.org/1999/xlink" x="0px" y="0px"
	 width="425px" height="500px" viewBox="0 0 425 500" enable-background="new 0 0 425 500" xml:space="preserve">
<path d="M212.2,500c-0.4-0.5-0.7-1-1.1-1.5c-7.2-7-14.4-14-21.6-21c-0.4-0.4-0.9-0.8-1.5-1.2c0.6-0.7,1.1-1.2,1.6-1.6
	c49.4-48.2,98.9-96.3,148.3-144.6c24.3-23.6,40.4-51.7,48.2-84.4c4.1-17.4,5.4-35.1,3.9-52.9c-3.3-37.1-17.2-69.8-41.9-98.1
	c-25.1-28.7-56.6-47.5-94.3-56.4c-17.6-4.2-35.4-5.5-53.4-4.4C131.4,38.4,70.7,82.3,46.1,145.4c-5.9,15.1-9.6,30.6-10.9,46.6
	c-3.7,45.3,8.8,86,37.3,122c4.3,5.4,9.2,10.4,14,15.4c2.7,2.9,4.4,6.1,5.1,10.1c1.3,8.5-5.5,17.4-14.3,18.5
	c-6.1,0.8-11.2-1-15.5-5.2C32.2,323.7,13.1,289,4.4,248.9c-3.9-18.2-5.3-36.7-3.9-55.2c3.2-45.4,19.7-85.6,49.9-120.4
	C76.8,43,109.6,21.8,148.5,9.7c15.8-4.9,32-7.9,48.6-9c2.8-0.2,5.5-0.4,8.3-0.6h14.2c0.7,0.1,1.3,0.3,1.9,0.3
	c15.1,0.5,30,2.6,44.6,6.5c47.8,12.5,86.8,37.9,116.5,76.5c25.3,32.7,39,69.8,41.9,110.6c1.4,20.2-0.3,40.2-5,59.9
	c-9.3,38.6-28.4,71.9-57,99.9c-49.5,48.3-99.1,96.6-148.7,144.9c-0.4,0.5-0.8,0.9-1.2,1.4H212.2z"/>
<path d="M212.4,192.3c15.3-26.2,30.5-52,45.8-78.1c1.6,3.9,3.1,7.6,4.6,11.3c16.4,40.3,32.7,80.5,49,120.8c0.6,1.4,1.2,1.8,2.7,1.8
	c4.6-0.1,9.1-0.1,13.8-0.1v19.9h-81.6V248h12.1c-4-11.3-7.9-22.2-12.1-33.7c-11.6,18.5-22.9,36.7-34.4,55.1
	c-11.4-18.4-22.8-36.6-34.4-55.1c-4.1,11.4-8,22.4-12,33.6h12.2v19.9H96.5V248c0.6,0,1.1-0.1,1.7-0.1c4.1,0,8.2-0.1,12.2,0.1
	c1.4,0,2.1-0.4,2.6-1.7c9.6-23.7,19.2-47.4,28.9-71.2c8-19.6,16-39.3,23.9-58.9c0.2-0.5,0.4-1.1,0.9-2
	C182,140.3,197.1,166.2,212.4,192.3"/>
</svg>
