<svg width="24" height="28" viewBox="0 0 24 28" fill="none" xmlns="http://www.w3.org/2000/svg">
<path d="M18.2155 19.9398C16.5877 21.5254 14.6062 22.7911 12.4235 23.4913C8.75458 24.6683 5.10509 23.865 5.10509 23.865C4.38647 24.0955 4.45429 27.2686 3.20899 27.6681C2.00385 28.0547 1.07103 27.1725 0.863413 26.5253C0.389472 25.0479 2.85882 22.9857 2.59536 22.1644C2.59536 22.1644 1.73387 21.3971 1.18977 19.701C-0.259259 15.184 2.33574 10.7973 5.98276 8.15543C8.6149 6.24773 15.2276 5.36204 16.6214 2.84735C17.1795 1.87084 17.353 1.07675 18.5581 0.690149C20.1784 0.170388 22.044 4.15994 22.432 5.36954C24.02 10.3195 22.9562 15.3669 18.2155 19.9398ZM5.78249 20.2067C7.32955 15.2848 10.388 12.3887 15.5666 11.1606C15.9694 11.0659 16.2186 10.661 16.1238 10.2582C16.0291 9.85542 15.6242 9.60624 15.2214 9.701C9.54928 11.048 6.07022 14.3055 4.35406 19.7591C4.22952 20.1535 4.44858 20.5755 4.84298 20.7C5.23737 20.8246 5.65938 20.6055 5.78249 20.2067V20.2067Z" fill="#F58220"/>
</svg>
