<svg width="27" height="30" viewBox="0 0 27 30" fill="none" xmlns="http://www.w3.org/2000/svg">
<path d="M27 7.50001C27 20.4657 19.3537 27.694 14.5384 29.7837C14.2094 29.9265 13.8564 30 13.5 30C13.1435 30 12.7906 29.9265 12.4615 29.7837C6.44034 27.1707 0 19.1301 0 7.50001C-9.25479e-07 6.94474 0.157785 6.4019 0.453472 5.9399C0.749159 5.47789 1.16952 5.1174 1.66157 4.90384L12.4616 0.216345C12.7906 0.0735291 13.1436 0 13.5 0C13.8565 0 14.2094 0.0735291 14.5385 0.216345L25.3385 4.90384C25.8305 5.1174 26.2509 5.47791 26.5466 5.93991C26.8422 6.40192 27 6.94475 27 7.50001V7.50001ZM13.5 26.1511L13.5037 26.1531C18.7763 23.4174 23.2067 16.9945 23.3934 8.12216L13.5 3.82812V26.1511Z" fill="#F58220"/>
</svg>
