<?xml version="1.0" encoding="utf-8"?>
<!-- Generator: Adobe Illustrator 20.1.0, SVG Export Plug-In . SVG Version: 6.00 Build 0)  -->
<svg version="1.1" id="Layer_1" xmlns="http://www.w3.org/2000/svg" xmlns:xlink="http://www.w3.org/1999/xlink" x="0px" y="0px"
	 width="502.6px" height="500px" viewBox="0 0 502.6 500" enable-background="new 0 0 502.6 500" xml:space="preserve">
<g>
	<path d="M251,1C113,1,1,112.9,1,251c0,138.1,112,250,250,250c138.1,0,250-111.9,250-250C501,112.9,389.1,1,251,1z M364.8,329.2
		c0,19.6-15.9,35.6-35.5,35.6H172.8c-19.7,0-35.6-15.9-35.6-35.6v-91.5h46.3c-0.9,4.3-1.3,8.7-1.3,13.2c0,38,30.8,68.8,68.8,68.8
		c38,0,68.8-30.8,68.8-68.8c0-4.5-0.5-8.9-1.3-13.2h46.2C364.8,237.7,364.8,329.2,364.8,329.2z M208.7,251c0-23.4,19-42.3,42.3-42.3
		s42.3,19,42.3,42.3c0,23.4-19,42.4-42.3,42.4S208.7,274.4,208.7,251z M364.8,211.3h-57.6c-12.5-17.6-33-29.1-56.2-29.1
		s-43.7,11.5-56.2,29.1h-57.6v-38.6c0-19.6,15.9-35.5,35.6-35.5h156.4c19.6,0,35.5,15.9,35.5,35.5V211.3z"/>
	<path d="M340.2,155.8h-19c-3.5,0-6.3,2.8-6.3,6.3v19.1c0,3.5,2.8,6.3,6.3,6.3h19c3.5,0,6.3-2.9,6.3-6.3v-19.1
		C346.6,158.6,343.8,155.8,340.2,155.8z"/>
</g>
</svg>
