<?xml version="1.0" encoding="utf-8"?>
<!-- Generator: Adobe Illustrator 19.0.1, SVG Export Plug-In . SVG Version: 6.00 Build 0)  -->
<svg version="1.1" id="Слой_1" xmlns="http://www.w3.org/2000/svg" xmlns:xlink="http://www.w3.org/1999/xlink" x="0px" y="0px"
	 viewBox="627 -233 1370.2 500" style="enable-background:new 627 -233 1370.2 500;" xml:space="preserve">
<g>
	<path d="M627,257.5v-84.8L787.9,41.2c31.1-26,53.6-46.7,65.7-64c12.1-15.6,17.3-32.9,17.3-53.6c0-19-5.2-34.6-17.3-46.7
		c-12.1-10.4-27.7-17.3-46.7-17.3c-17.3,0-34.6,5.2-48.4,15.6c-15.6,10.4-32.9,27.7-50.2,51.9l-76.1-60.6
		c26-34.6,51.9-60.6,77.9-76.1c27.7-15.6,60.6-24.2,102.1-24.2c50.2,0,90,13.8,121.1,41.5c31.1,27.7,45,64,45,109
		c0,26-5.2,50.2-15.6,70.9C952.3,8.4,940.2,27.4,922.9,43c-15.6,15.6-39.8,36.3-72.7,60.6l-76.1,62.3h211.1v91.7L627,257.5
		L627,257.5z"/>
	<path d="M1431.5,193.5c-39.8,48.4-91.7,70.9-155.7,70.9s-115.9-24.2-155.7-70.9c-39.8-46.7-58.9-107.3-58.9-179.9
		c0-70.9,20.8-131.5,60.6-178.2c39.8-48.4,91.7-70.9,155.7-70.9s114.2,24.2,154,70.9s60.6,107.3,60.6,179.9
		C1492,86.2,1471.3,146.8,1431.5,193.5z M1199.6,126c19,29.4,45,43.3,77.9,43.3c31.1,0,57.1-13.8,76.1-43.3
		c19-29.4,29.4-65.7,29.4-110.7s-10.3-81.3-29.4-110.7c-19-29.4-45-43.3-76.1-43.3s-57.1,13.9-76.1,43.3S1172-29.7,1172,15.3
		C1170.2,60.3,1180.6,96.6,1199.6,126z"/>
	<path d="M1936.7,193.5c-39.8,48.4-91.7,70.9-155.7,70.9s-116-24.2-155.8-70.9c-39.8-46.7-58.8-107.3-58.8-179.9
		c0-70.9,20.8-131.5,60.6-178.2c39.8-48.4,91.7-70.9,155.7-70.9s114.2,24.2,154,70.9c39.8,46.7,60.5,107.3,60.5,179.9
		C1997.2,86.2,1976.5,146.8,1936.7,193.5z M1704.8,126c19,29.4,45,43.3,77.9,43.3c31.1,0,57.1-13.8,76.1-43.3
		c19-29.4,29.4-65.7,29.4-110.7s-10.4-81.3-29.4-110.7s-45-43.3-76.1-43.3s-57.1,13.8-76.1,43.3c-19.1,29.4-29.4,65.7-29.4,110.7
		C1675.4,60.3,1685.8,96.6,1704.8,126z"/>
</g>
</svg>
