<?xml version="1.0" encoding="utf-8"?>
<!-- Generator: Adobe Illustrator 21.1.0, SVG Export Plug-In . SVG Version: 6.00 Build 0)  -->
<svg version="1.1" id="Free_icons" xmlns="http://www.w3.org/2000/svg" xmlns:xlink="http://www.w3.org/1999/xlink" x="0px" y="0px"
	 width="656.4px" height="500px" viewBox="0 0 656.4 500" enable-background="new 0 0 656.4 500" xml:space="preserve">
<g>
	<path fill="#252324" d="M186.6,204c-4.7-4-11.7-3.3-15.7,1.4l-75.5,90.4c-9.3-53.3,1-107.9,29.6-155.8
		c33.5-56.2,88.5-96.9,150.8-111.6c81.8-19.3,167.2,7.8,223,70.7c4.1,4.6,11.1,5,15.7,1c4.6-4.1,5-11.1,1-15.7
		C454.3,15.3,360.5-14.5,270.7,6.7c-68.1,16.1-128.2,60.5-164.8,121.9c-26.4,44.2-38.5,93.7-35.6,143.2l-49.9-74.3
		c-3.4-5.1-10.4-6.5-15.5-3c-5.1,3.4-6.5,10.3-3,15.5l78.3,116.6c2,2.9,5.2,4.7,8.7,4.9c0.2,0,0.4,0,0.6,0c3.3,0,6.4-1.5,8.6-4
		l90-107.8C192,215,191.3,208,186.6,204z"/>
	<path fill="#252324" d="M654.6,318.4l-78.3-116.6c-1.9-2.9-5.2-4.7-8.7-4.9c-3.5-0.3-6.9,1.3-9.1,4l-90.1,107.8
		c-3.9,4.7-3.3,11.7,1.4,15.7c4.7,3.9,11.8,3.3,15.7-1.4l73.4-87.8c6.9,105.9-70,210.8-178.3,236.4c-76.7,18.2-156.1-4.1-212.4-59.6
		c-4.4-4.3-11.4-4.3-15.8,0.1s-4.3,11.4,0.1,15.8c47.6,46.9,110.3,72.2,175.1,72.2c19.3,0,38.8-2.2,58.1-6.8
		c113.2-26.8,195.2-132.8,195.9-243.6l54.5,81.2c2.1,3.2,5.7,4.9,9.3,4.9c2.1,0,4.3-0.6,6.2-1.9C656.6,330.4,658,323.5,654.6,318.4z
		"/>
</g>
</svg>
