<?xml version="1.0" encoding="utf-8"?>
<!-- Generator: Adobe Illustrator 21.0.2, SVG Export Plug-In . SVG Version: 6.00 Build 0)  -->
<svg version="1.1" id="Layer_1" xmlns="http://www.w3.org/2000/svg" xmlns:xlink="http://www.w3.org/1999/xlink" x="0px" y="0px"
	 width="500px" height="500.6px" viewBox="0 0 500 500.6" enable-background="new 0 0 500 500.6" xml:space="preserve">
<circle cx="251" cy="251.3" r="248.5"/>
<g>
	<path fill="#FFFFFF" d="M128.8,177.6c0-28.8,23.8-52.7,53.7-52.7c29.9,0,54.4,23.9,54.4,52.7c0,29.2-24.5,52.7-54.4,52.7
		S128.8,206.7,128.8,177.6z M326.7,129.1h33.4L167.9,380.5h-33.8L326.7,129.1z M209.2,177.6c0-14.6-11.7-26.7-26.7-26.7
		c-14.6,0-26,12.1-26,26.7c0,14.9,11.4,26.3,26,26.3C197.5,203.9,209.2,192.5,209.2,177.6z M257.7,329.1c0-28.8,23.8-52.7,53.7-52.7
		c29.9,0,54.4,23.8,54.4,52.7c0,29.2-24.5,52.7-54.4,52.7C281.5,381.7,257.7,358.3,257.7,329.1z M338.1,329.1
		c0-14.6-11.7-26.7-26.7-26.7c-14.6,0-26,12.1-26,26.7c0,14.9,11.4,26.3,26,26.3C326.3,355.4,338.1,344,338.1,329.1z"/>
</g>
</svg>
