<?xml version="1.0" encoding="utf-8"?>
<!-- Generator: Adobe Illustrator 19.0.1, SVG Export Plug-In . SVG Version: 6.00 Build 0)  -->
<svg version="1.1" id="Layer_1" xmlns="http://www.w3.org/2000/svg" xmlns:xlink="http://www.w3.org/1999/xlink" x="0px" y="0px"
	 width="50px" height="50px" viewBox="-301.9 372.4 50 50" enable-background="new -301.9 372.4 50 50" xml:space="preserve">
<g>
	<path fill="#231F20" d="M-281.7,372.4c-11.2,0-20.2,9.1-20.2,20.2s9.1,20.2,20.2,20.2s20.2-9.1,20.2-20.2
		C-261.5,381.5-270.5,372.4-281.7,372.4z M-281.7,406.9c-7.9,0-14.3-6.4-14.3-14.3c0-7.9,6.4-14.3,14.3-14.3
		c7.9,0,14.3,6.4,14.3,14.3C-267.4,400.5-273.8,406.9-281.7,406.9z"/>
	<path fill="#231F20" d="M-252.4,415.4c0.6,0.6,0.6,1.6,0,2.2l-4.4,4.4c-0.6,0.6-1.6,0.6-2.2,0l-12-12c-0.6-0.6-0.6-1.6,0-2.2
		l4.4-4.4c0.6-0.6,1.6-0.6,2.2,0L-252.4,415.4z"/>
</g>
</svg>
