<?xml version="1.0" encoding="utf-8"?>
<!-- Generator: Adobe Illustrator 16.2.0, SVG Export Plug-In . SVG Version: 6.00 Build 0)  -->
<!DOCTYPE svg PUBLIC "-//W3C//DTD SVG 1.1//EN" "http://www.w3.org/Graphics/SVG/1.1/DTD/svg11.dtd">
<svg version="1.1" id="Layer_1" xmlns="http://www.w3.org/2000/svg" xmlns:xlink="http://www.w3.org/1999/xlink" x="0px" y="0px"
	 width="28px" height="28.035px" viewBox="-1.485 -1.486 28 28.035" enable-background="new -1.485 -1.486 28 28.035"
	 xml:space="preserve">
<g>
	<g>
		<path fill="#231F20" d="M10.424,14.759c1.968,1.969,4.246,3.85,5.147,2.947c1.29-1.289,2.084-2.412,4.927-0.127
			s0.659,3.809-0.589,5.059c-1.441,1.441-6.815,0.074-12.127-5.236C2.47,12.09,1.104,6.717,2.547,5.275
			c1.25-1.25,2.772-3.432,5.057-0.589c2.285,2.842,1.162,3.637-0.127,4.927C6.576,10.513,8.457,12.791,10.424,14.759z"/>
	</g>
	<g>
		<path fill="#231F20" d="M17.679,12.113c-0.412,0-0.746-0.334-0.746-0.745c0-1.719-1.398-3.118-3.116-3.118
			c-0.413,0-0.747-0.333-0.747-0.746c0-0.412,0.334-0.745,0.747-0.745c2.54,0,4.608,2.067,4.608,4.608
			C18.426,11.779,18.092,12.113,17.679,12.113z"/>
		<path fill="#231F20" d="M21.77,12.113c-0.412,0-0.747-0.334-0.747-0.745c0-3.975-3.232-7.208-7.206-7.208
			c-0.413,0-0.747-0.333-0.747-0.745c0-0.412,0.335-0.746,0.747-0.746l0,0c4.796,0,8.698,3.902,8.698,8.699
			C22.515,11.779,22.181,12.113,21.77,12.113z"/>
	</g>
</g>
</svg>
