<?xml version="1.0" encoding="utf-8"?>
<!-- Generator: Adobe Illustrator 19.0.1, SVG Export Plug-In . SVG Version: 6.00 Build 0)  -->
<svg version="1.1" id="Layer_1" xmlns="http://www.w3.org/2000/svg" xmlns:xlink="http://www.w3.org/1999/xlink" x="0px" y="0px"
	 width="50px" height="50px" viewBox="-303.7 370.9 50 50" enable-background="new -303.7 370.9 50 50" xml:space="preserve">
<g>
	<g>
		<path fill="#231F20" d="M-283.2,400.4c4.8,4.8,10.4,9.4,12.5,7.2c3.1-3.1,5.1-5.9,12-0.3c6.9,5.6,1.6,9.3-1.4,12.3
			c-3.5,3.5-16.6,0.2-29.6-12.8c-13-13-16.3-26.1-12.8-29.6c3-3,6.8-8.4,12.3-1.4c5.6,6.9,2.8,8.9-0.3,12
			C-292.6,390-288,395.6-283.2,400.4z"/>
	</g>
	<g>
		<path fill="#231F20" d="M-265.5,393.9c-1,0-1.8-0.8-1.8-1.8c0-4.2-3.4-7.6-7.6-7.6c-1,0-1.8-0.8-1.8-1.8c0-1,0.8-1.8,1.8-1.8
			c6.2,0,11.2,5,11.2,11.2C-263.7,393.1-264.5,393.9-265.5,393.9z"/>
		<path fill="#231F20" d="M-255.6,393.9c-1,0-1.8-0.8-1.8-1.8c0-9.7-7.9-17.6-17.6-17.6c-1,0-1.8-0.8-1.8-1.8s0.8-1.8,1.8-1.8l0,0
			c11.7,0,21.2,9.5,21.2,21.2C-253.7,393.1-254.6,393.9-255.6,393.9z"/>
	</g>
</g>
</svg>
