<?xml version="1.0" encoding="utf-8"?>
<!-- Generator: Adobe Illustrator 20.1.0, SVG Export Plug-In . SVG Version: 6.00 Build 0)  -->
<svg version="1.1" id="Layer_3" xmlns="http://www.w3.org/2000/svg" xmlns:xlink="http://www.w3.org/1999/xlink" x="0px" y="0px"
	 width="444.4px" height="500px" viewBox="0 0 444.4 500" enable-background="new 0 0 444.4 500" xml:space="preserve">
<g>
	<path d="M361.1,333.3c-19.1,0-36.6,6.5-50.7,17.3l-145-87c0.7-4.4,1.2-9,1.2-13.6c0-4.7-0.5-9.2-1.2-13.6l145-87
		c14.1,10.8,31.6,17.3,50.7,17.3c46,0,83.3-37.3,83.3-83.3S407.1,0,361.1,0s-83.3,37.3-83.3,83.3c0,4.7,0.5,9.2,1.2,13.6l-145,87
		c-14.1-10.8-31.6-17.3-50.7-17.3C37.3,166.7,0,204,0,250s37.3,83.3,83.3,83.3c19.1,0,36.6-6.5,50.7-17.3l145,87
		c-0.7,4.5-1.2,9-1.2,13.6c0,46,37.3,83.3,83.3,83.3s83.3-37.3,83.3-83.3S407.1,333.3,361.1,333.3z"/>
</g>
</svg>
