<svg width="28" height="22" viewBox="0 0 28 22" fill="none" xmlns="http://www.w3.org/2000/svg">
<path d="M25.9 0H11.9C10.7402 0 9.8 0.923398 9.8 2.0625V4.125H7.86984C7.31288 4.125 6.77874 4.3423 6.38492 4.7291L2.01508 9.0209C1.62125 9.40769 1.4 9.9323 1.4 10.4793V15.125H1.05C0.470094 15.125 0 15.5867 0 16.1562V16.8438C0 17.4133 0.470094 17.875 1.05 17.875H2.8C2.8 20.1532 4.68042 22 7 22C9.31958 22 11.2 20.1532 11.2 17.875H16.8C16.8 20.1532 18.6804 22 21 22C23.3196 22 25.2 20.1532 25.2 17.875H26.95C27.5299 17.875 28 17.4133 28 16.8438V2.0625C28 0.923398 27.0598 0 25.9 0ZM7 19.9375C5.84207 19.9375 4.9 19.0123 4.9 17.875C4.9 16.7377 5.84207 15.8125 7 15.8125C8.15793 15.8125 9.1 16.7377 9.1 17.875C9.1 19.0123 8.15793 19.9375 7 19.9375ZM9.8 11H3.5V10.4793L7.86984 6.1875H9.8V11ZM21 19.9375C19.8421 19.9375 18.9 19.0123 18.9 17.875C18.9 16.7377 19.8421 15.8125 21 15.8125C22.1579 15.8125 23.1 16.7377 23.1 17.875C23.1 19.0123 22.1579 19.9375 21 19.9375Z" fill="#999999"/>
</svg>
