<?xml version="1.0" encoding="utf-8"?>
<!-- Generator: Adobe Illustrator 20.1.0, SVG Export Plug-In . SVG Version: 6.00 Build 0)  -->
<svg version="1.1" id="Layer_1" xmlns="http://www.w3.org/2000/svg" xmlns:xlink="http://www.w3.org/1999/xlink" x="0px" y="0px"
	 width="502.6px" height="500px" viewBox="0 0 502.6 500" enable-background="new 0 0 502.6 500" xml:space="preserve">
<path d="M251,0C112.9,0,1,111.9,1,250c0,138.1,111.9,250,250,250c138.1,0,250-111.9,250-250C501,111.9,389.1,0,251,0z M352.5,204.8
	c0.1,2.1,0.2,4.2,0.2,6.3c0,65-49.5,140-139.9,140c-27.8,0-53.6-8.2-75.4-22.1c3.9,0.5,7.8,0.7,11.8,0.7c23,0,44.2-7.9,61.1-21.1
	c-21.5-0.4-39.7-14.6-45.9-34.2c3,0.6,6.1,0.9,9.3,0.9c4.5,0,8.8-0.6,13-1.7c-22.5-4.5-39.5-24.4-39.5-48.2c0-0.2,0-0.4,0-0.6
	c6.7,3.7,14.2,5.9,22.3,6.2c-13.2-8.8-21.9-23.9-21.9-40.9c0-9,2.4-17.4,6.7-24.7c24.2,29.8,60.5,49.4,101.4,51.4
	c-0.9-3.6-1.3-7.4-1.3-11.2c0-27.1,22-49.2,49.2-49.2c14.1,0,26.9,6,35.9,15.5c11.2-2.2,21.8-6.3,31.2-11.9
	c-3.7,11.5-11.5,21.1-21.6,27.2c9.9-1.2,19.4-3.8,28.2-7.7C370.5,189.2,362.2,198,352.5,204.8z"/>
</svg>
