<?xml version="1.0" encoding="utf-8"?>
<!-- Generator: Adobe Illustrator 20.1.0, SVG Export Plug-In . SVG Version: 6.00 Build 0)  -->
<svg version="1.1" id="Layer_1" xmlns="http://www.w3.org/2000/svg" xmlns:xlink="http://www.w3.org/1999/xlink" x="0px" y="0px"
	 width="502.6px" height="500px" viewBox="0 0 502.6 500" enable-background="new 0 0 502.6 500" xml:space="preserve">
<circle cx="251.3" cy="250" r="250"/>
<g>
	<path fill="#FFFFFF" d="M162,116.2h91.5c55.3,0,98.4,15.1,98.4,66.4c0,23.9-13,49.5-34.7,57.7v1.5c27.2,6.9,48,27.2,48,62.8
		c0,54.6-45.9,78.8-103.6,78.8H162V116.2z M250.4,223.4c29.6,0,42.3-12.4,42.3-31.7c0-20.8-13.6-28.7-41.7-28.7h-28.7v60.4H250.4z
		 M256.2,337c32.9,0,49.5-11.5,49.5-35.9c0-23.2-16.3-32.9-49.5-32.9H222V337C222,337,256.2,337,256.2,337z"/>
</g>
</svg>
