<?xml version="1.0" encoding="utf-8"?>
<!-- Generator: Adobe Illustrator 20.1.0, SVG Export Plug-In . SVG Version: 6.00 Build 0)  -->
<svg version="1.1" id="Layer_1" xmlns="http://www.w3.org/2000/svg" xmlns:xlink="http://www.w3.org/1999/xlink" x="0px" y="0px"
	 width="502.6px" height="500px" viewBox="0 0 502.6 500" enable-background="new 0 0 502.6 500" xml:space="preserve">
<g>
	<path d="M251,0C112.9,0,1,111.9,1,250s111.9,250,250,250c138.1,0,250-111.9,250-250S389.1,0,251,0z M386,260.2
		c0,21.9-2.7,43.7-2.7,43.7s-2.6,18.6-10.7,26.8c-10.3,10.8-21.8,10.8-27,11.5c-37.8,2.7-94.5,2.8-94.5,2.8s-70.2-0.6-91.8-2.7
		c-6-1.1-19.5-0.8-29.8-11.5c-8.1-8.2-10.8-26.8-10.8-26.8S116,282,116,260.2v-20.5c0-21.8,2.7-43.7,2.7-43.7s2.6-18.6,10.8-26.8
		c10.2-10.8,21.8-10.8,27-11.4c37.8-2.7,94.4-2.7,94.4-2.7h0.1c0,0,56.7,0,94.5,2.7c5.3,0.6,16.8,0.7,27,11.4
		c8.1,8.2,10.7,26.8,10.7,26.8s2.7,21.8,2.7,43.7V260.2z"/>
	<polygon points="222.2,287.9 295.2,250.1 222.2,212.1 	"/>
</g>
</svg>
