<?xml version="1.0" encoding="utf-8"?>
<!-- Generator: Adobe Illustrator 20.1.0, SVG Export Plug-In . SVG Version: 6.00 Build 0)  -->
<svg version="1.1" id="Слой_1" xmlns="http://www.w3.org/2000/svg" xmlns:xlink="http://www.w3.org/1999/xlink" x="0px" y="0px"
	 width="500px" height="500px" viewBox="0 0 500 500" enable-background="new 0 0 500 500" xml:space="preserve">
<title>zoom_ico</title>
<desc>Created with Sketch.</desc>
<g id="Настольный-компьютер" transform="translate(-411.000000, -2234.000000)">
	<g id="zoom_ico" transform="translate(411.000000, 2234.000000)">
		<path id="Shape" fill="#E5E7E9" d="M204.5,0C91.5,0-0.1,91.6-0.1,204.5s91.6,204.5,204.5,204.5c113,0,204.5-91.6,204.5-204.5
			C409,91.6,317.4,0,204.5,0z M204.5,370.4c-91.6,0-165.9-74.3-165.9-165.9c0-91.6,74.3-165.9,165.9-165.9
			c91.6,0,165.9,74.3,165.9,165.9C370.4,296.2,296.1,370.4,204.5,370.4z"/>
		<path id="Shape_1_" fill="#E5E7E9" d="M495.6,433.3c5.7,5.7,5.7,15,0,20.8L454,495.7c-5.7,5.7-15,5.7-20.8,0L319,381.4
			c-5.7-5.7-5.7-15,0-20.8l41.6-41.5c5.7-5.7,15-5.7,20.8,0L495.6,433.3z"/>
		<rect id="Rectangle-path" x="181.7" y="113.6" fill="#E5E7E9" width="45.5" height="181.8"/>
		<rect id="Rectangle-path_1_" x="113.5" y="181.8" fill="#E5E7E9" width="181.8" height="45.5"/>
	</g>
</g>
</svg>
